<?xml version="1.0" encoding="UTF-8"?><svg id="Layer_2" xmlns="http://www.w3.org/2000/svg" viewBox="0 0 128.7 24.7"><defs><style>.cls-1{fill:#000000;}</style></defs><g id="Aboveit_Logo"><path class="cls-1" d="m16.3,19.5H7.2l-1.7,4.8H0L8.8.8h6.1l8.7,23.5h-5.7l-1.6-4.8Zm-7.4-4.7h5.7l-2.8-8.1-2.9,8.1Z"/><path class="cls-1" d="m27.7,24.3V.3h4.9v9.1c.7-1,2.5-2,4.8-2,4.8,0,7.6,3.6,7.6,8.6s-3.2,8.6-7.8,8.6c-2.2,0-3.9-1-4.6-2.2v1.9h-4.9Zm8.6-12.3c-2,0-3.7,1.3-3.7,4.1s1.8,4.1,3.7,4.1c2,0,3.7-1.4,3.7-4.1,0-2.8-1.8-4.1-3.7-4.1Z"/><path class="cls-1" d="m66.2,16c0,5-3.8,8.6-8.6,8.6s-8.6-3.6-8.6-8.6,3.8-8.6,8.6-8.6,8.6,3.6,8.6,8.6Zm-4.9,0c0-2.7-1.8-4-3.7-4s-3.7,1.3-3.7,4,1.8,4.1,3.7,4.1,3.7-1.3,3.7-4.1Z"/><path class="cls-1" d="m80.1,24.3h-5.1l-6.8-16.4h5.5l3.8,10.2,3.5-10.2h5.3l-6.2,16.4Z"/><path class="cls-1" d="m104.2,19.5c-.8,2.8-3.4,5.2-7.5,5.2-4.5,0-8.5-3.2-8.5-8.7,0-5.2,3.9-8.6,8.1-8.6,5,0,8.1,3.1,8.1,8.3,0,.7-.1,1.4-.1,1.5h-11.3c.1,1.8,1.8,3.1,3.7,3.1,1.8,0,2.8-.8,3.3-2.1l4.2,1.3Zm-4.5-5.4c-.1-1.2-.9-2.7-3.3-2.7-2.1,0-3.1,1.5-3.2,2.7h6.5Z"/><rect class="cls-1" x="108.6" y="7.9" width="5" height="16.4"/><path class="cls-1" d="m125.5,7.8h3.2v4.4h-3.2v6.2c0,1.4.7,1.7,1.8,1.7.5,0,1-.1,1.3-.2v4.2c-.2.1-1,.5-2.6.5-3.4,0-5.5-2-5.5-5.3v-7.1h-2.9v-4.4h.8c1.7,0,2.5-1.2,2.5-2.7v-2.1h4.5v4.8h.1Z"/><path class="cls-1" d="m113.2.8c.6.5.8,1.2.8,2s-.3,1.5-.8,2-1.2.8-2.1.8c-.8,0-1.5-.3-2.1-.8-.6-.6-.8-1.2-.8-2s.3-1.5.8-2c.6-.5,1.3-.8,2.1-.8.9,0,1.6.2,2.1.8Z"/></g></svg>
