<?xml version="1.0" encoding="UTF-8"?><svg id="Layer_2" xmlns="http://www.w3.org/2000/svg" viewBox="0 0 163.18 43.01"><defs><style>.cls-1{fill:#000000;}</style></defs><g id="Layer_1-2"><path class="cls-1" d="m95.11,12.02l9.39-3.49-9.39-3.67V0l16.09,6.48v4.03l-16.09,6.52v-5ZM6.19,43.01c-3.38,0-6.19-1.73-6.19-5.54v-.22c0-4.64,4.03-6.16,8.89-6.16h2.34v-.9c0-1.87-.83-3.02-2.77-3.02-1.76,0-2.7,1.01-2.84,2.45H.58c.36-4.18,3.67-6.23,8.13-6.23s7.78,1.94,7.78,6.62v12.6h-5.15v-2.16c-.9,1.37-2.63,2.56-5.15,2.56Zm5.04-6.66v-1.8h-2.09c-2.59,0-3.92.72-3.92,2.41v.18c0,1.3.79,2.2,2.56,2.2s3.45-1.01,3.45-2.99Zm17.17,6.66c-5.22,0-9-3.24-9-9.61v-.25c0-6.37,4.03-9.75,9.03-9.75,4.28,0,7.81,2.16,8.24,7.09h-5.04c-.32-1.83-1.26-3.02-3.1-3.02-2.23,0-3.78,1.76-3.78,5.47v.58c0,3.82,1.37,5.54,3.82,5.54,1.8,0,3.13-1.33,3.42-3.38h4.79c-.36,4.28-3.28,7.34-8.39,7.34Zm19.58,0c-5.22,0-9-3.24-9-9.61v-.25c0-6.37,4.03-9.75,9.03-9.75,4.28,0,7.81,2.16,8.24,7.09h-5.04c-.32-1.83-1.26-3.02-3.1-3.02-2.23,0-3.78,1.76-3.78,5.47v.58c0,3.82,1.37,5.54,3.82,5.54,1.8,0,3.13-1.33,3.42-3.38h4.79c-.36,4.28-3.28,7.34-8.39,7.34Zm19.73,0c-5.44,0-9.14-3.24-9.14-9.5v-.36c0-6.3,3.92-9.75,8.96-9.75,4.68,0,8.6,2.63,8.6,8.85v2.27h-12.24c.22,3.38,1.66,4.68,3.92,4.68,2.02,0,3.1-1.08,3.46-2.45h4.86c-.58,3.56-3.49,6.26-8.42,6.26Zm-3.74-11.99h7.06c-.11-2.77-1.37-3.96-3.46-3.96-1.66,0-3.17.9-3.6,3.96Zm15.41-7.23h5.25v2.81c.94-1.76,2.81-3.2,5.69-3.2,3.42,0,5.69,2.05,5.69,6.62v12.6h-5.26v-11.81c0-2.2-.9-3.17-2.81-3.17s-3.31,1.12-3.31,3.49v11.48h-5.25v-18.83Zm26.46-5.69v5.69h3.6v3.92h-3.6v8.93c0,1.4.65,2.05,1.87,2.05.76,0,1.33-.11,1.84-.32v4.1c-.61.18-1.66.4-2.95.4-4.1,0-6.05-1.87-6.05-5.69v-9.47h-2.2v-3.92h2.2v-3.53l5.29-2.16Zm23.4,24.51h-5.26v-2.77c-.9,1.8-2.66,3.17-5.47,3.17-3.38,0-5.87-2.05-5.87-6.48v-12.74h5.29v11.95c0,2.16.86,3.17,2.74,3.17s3.31-1.15,3.31-3.49v-11.63h5.26v18.83Zm3.82-18.83h5.25v3.46c1.12-2.52,2.88-3.71,5.65-3.71v5.18c-3.56,0-5.65,1.08-5.65,4.21v9.68h-5.25v-18.83Zm21.71,19.22c-5.44,0-9.14-3.24-9.14-9.5v-.36c0-6.3,3.92-9.75,8.96-9.75,4.68,0,8.6,2.63,8.6,8.85v2.27h-12.24c.22,3.38,1.66,4.68,3.92,4.68,2.02,0,3.1-1.08,3.46-2.45h4.86c-.58,3.56-3.49,6.26-8.42,6.26Zm-3.74-11.99h7.06c-.11-2.77-1.37-3.96-3.46-3.96-1.66,0-3.17.9-3.6,3.96Z"/></g></svg>
