<?xml version="1.0" encoding="UTF-8"?><svg id="Layer_2" xmlns="http://www.w3.org/2000/svg" viewBox="0 0 2286.14 568.6"><defs><style>.cls-1,.cls-2{fill:#000000;}.cls-2{isolation:isolate;opacity:.55;}</style></defs><g id="LOGO"><g id="Group_8656"><path id="Path_4905" class="cls-1" d="m1553.41,186.38l-110.52,283.52-111.36-283.52h-86.89l154.78,366.45h78.97l154.83-366.45h-79.81Zm-437.51,0v193.45c0,69.5-33.94,109.8-93.18,109.8s-93.19-40.3-93.19-109.8v-193.45h-77.41v196.63c0,109.02,65.54,177.68,170.6,177.68s170.6-68.67,170.6-177.68v-196.63h-77.42Zm-504.67-8.69c-28.96-.07-57.55,6.47-83.6,19.12-64.4,31.47-104.99,97.14-104.33,168.82,0,94.02,87.67,202.98,162.69,202.98,18.97-.15,36.55-9.99,46.6-26.08,30.82-46.59,62.42-73.4,108.96-93.97,43.47-18.95,55.28-37.9,55.28-86.05,0-104.28-81.31-184.81-185.59-184.81h0Zm82.15,245.62c-31.6,19.73-48.15,36.34-60.8,62.37-5.23,10.42-15.99,16.88-27.65,16.61-50.55,0-108.18-66.38-108.18-124.79,0-65.54,48.15-114.53,113.7-114.53,62.18.23,112.39,50.83,112.15,113h0c0,.51-.01,1.02-.02,1.53,0,20.5-7.08,32.38-29.2,45.81h0ZM192.67,177.68c-43.43-.47-85.33,15.96-116.87,45.81L75.02,0H0v552.83h77.42v-37.12c31.64,28.47,72.7,44.21,115.26,44.2,104.27,0,183.25-82.93,183.25-191.11s-78.98-191.11-183.25-191.11Zm-6.3,311.17c-63.2,0-110.58-51.33-110.58-120.05s47.37-120.05,110.58-120.05,110.58,51.33,110.58,120.05-47.38,120.05-110.59,120.05h.01ZM2286.14,186.38h-112.14L2173.17,0h-75.02v186.38h-51.55v67.1h51.55v299.35h76.63l-.78-299.35h112.14v-67.1Z"/><path id="Path_5072" class="cls-2" d="m1867.86,248.97c-7.81-2.41-15.87-3.95-24.02-4.57,8.17.49,16.24,2.03,24.02,4.57Z"/><g id="qDpOXt.tif"><g id="Group_8631"><path id="Path_5073" class="cls-1" d="m2014.84,393.56h-283.13c5.72,35.56,19.85,65.12,51.97,83.13,16.95,9.11,35.94,13.77,55.18,13.54,33.38.46,64.85-6.2,91.76-27.4,8.13-7.04,15.88-14.5,23.23-22.34l51.78,50.51c-10.34,12.44-22.32,23.44-35.6,32.68-42.71,29.85-90.5,40.83-141.76,37.98-41.57-1.45-81.31-17.44-112.29-45.2-35.06-31.52-53.58-71.77-58.77-118.42-5.4-40.18.77-81.06,17.79-117.85,27.09-56.57,72.59-88.25,133.52-97.64,37.61-6.63,76.36-1.28,110.76,15.31,48.21,23.79,76.17,64.07,89.56,115.48,6.68,26.18,8.71,53.33,6.01,80.21Zm-281.58-62.08h202.71c-6.51-46.61-45.1-82.1-92.09-84.68-58.95-3.38-100.56,28.47-110.62,84.68h0Z"/></g></g></g></g></svg>
