<?xml version="1.0" encoding="UTF-8"?><svg id="Layer_2" xmlns="http://www.w3.org/2000/svg" viewBox="0 0 184.42 34.34"><defs><style>.cls-1{fill:#000000;}</style></defs><g id="Layer_1-2"><path class="cls-1" d="m26.03,1.21s-.02-.01-.03-.02c-.06,0-.12-.01-.17-.02-.65-.11-1.3-.2-1.97-.26-6.93-.58-11.97,2.44-11.79,6.26.15,3.07,3.1,4.53,5.99,4.64h0c.93-.04,1.84-.15,2.49-.35,3.34-1.06,8.24-.54,8.65,3.42.27,2.61-2.09,4.9-5.79,6.04-6.01,2.04-15.98-.21-17.93-6.95C3.32,6.51,12.98,1.47,13.95,1c.97-.47,1.11-1.26-.3-.91C8.3,1.39.06,5.87,0,14.21c0,.39.03.78.08,1.18.02.14.05.28.08.41.05.26.09.52.16.79.04.17.1.33.15.5.07.24.15.48.24.72.07.18.15.36.23.53.1.23.21.45.32.68.09.18.2.36.3.55.13.22.26.44.4.66.12.18.24.36.37.55.15.21.31.42.48.63.14.18.29.36.44.53.18.2.37.4.56.6.17.17.33.34.5.51.21.2.43.39.65.58.18.16.36.32.55.48.24.19.5.38.76.56.19.14.38.28.58.42.34.23.71.44,1.07.65.26.15.52.29.79.43.38.2.76.4,1.17.58.24.11.49.2.73.29.33.13.65.27.99.38.27.09.56.17.84.26.33.1.67.2,1.01.29.3.08.61.14.91.21.35.07.7.15,1.06.21.32.05.65.1.97.14.2.03.4.07.61.09.04,0,.08,0,.12,0,1.04.1,2.1.17,3.22.15,9.18-.17,19.18-5.54,19.17-15.11,0-6.26-5.92-11.1-13.5-12.45Z"/><path class="cls-1" d="m49.65.76h5.27v9.65h.07c1.3-1.97,3.67-2.86,6.05-2.86,3.82,0,7.94,3.08,7.94,10.09s-4.12,10.13-7.94,10.13c-2.82,0-5.16-.85-6.31-2.97h-.07v2.45h-5.01V.76Zm9.57,10.76c-3.12,0-4.49,2.93-4.49,6.16s1.37,6.12,4.49,6.12,4.49-2.93,4.49-6.12-1.37-6.16-4.49-6.16Z"/><path class="cls-1" d="m88.97,27.25h-5.01v-2.67h-.11c-1.34,2.15-3.64,3.19-5.86,3.19-5.6,0-7.01-3.15-7.01-7.91v-11.8h5.27v10.84c0,3.16.93,4.71,3.38,4.71,2.86,0,4.08-1.6,4.08-5.49v-10.06h5.27v19.19Z"/><path class="cls-1" d="m103.42,29.66c-1.15,3.08-2.97,4.34-6.61,4.34-1.08,0-2.15-.08-3.23-.19v-4.34c1,.08,2.04.22,3.08.19,1.82-.19,2.41-2.08,1.82-3.6l-6.75-18h5.64l4.34,13.14h.07l4.19-13.14h5.46l-8.02,21.6Z"/><path class="cls-1" d="m113.25,8.1h2.15v3.64h.07c1.08-2.6,3.75-4.19,6.83-4.19,5.83,0,8.61,4.71,8.61,10.13s-2.78,10.13-8.61,10.13c-2.86,0-5.64-1.45-6.64-4.19h-.07v10.73h-2.34V8.1Zm9.05,1.41c-5.16,0-6.72,3.82-6.72,8.16,0,3.97,1.74,8.16,6.72,8.16,4.45,0,6.27-4.19,6.27-8.16s-1.82-8.16-6.27-8.16Z"/><path class="cls-1" d="m132.99,13.97c.22-4.49,3.38-6.42,7.76-6.42,3.38,0,7.05,1.04,7.05,6.16v10.17c0,.89.45,1.41,1.37,1.41.26,0,.56-.07.74-.15v1.97c-.52.11-.89.15-1.52.15-2.38,0-2.75-1.34-2.75-3.34h-.07c-1.63,2.49-3.3,3.9-6.98,3.9s-6.42-1.75-6.42-5.6c0-5.38,5.23-5.57,10.28-6.16,1.93-.22,3-.48,3-2.6,0-3.15-2.26-3.93-5.01-3.93-2.89,0-5.05,1.34-5.12,4.45h-2.34Zm12.47,2.82h-.07c-.3.56-1.34.74-1.97.85-3.97.71-8.91.67-8.91,4.42,0,2.34,2.08,3.79,4.27,3.79,3.56,0,6.72-2.26,6.68-6.01v-3.04Z"/><path class="cls-1" d="m163.75,13.71c-.11-2.89-2.34-4.19-5.01-4.19-2.08,0-4.53.82-4.53,3.3,0,2.08,2.38,2.82,3.97,3.23l3.12.71c2.67.41,5.46,1.97,5.46,5.31,0,4.16-4.12,5.75-7.68,5.75-4.45,0-7.5-2.08-7.87-6.75h2.34c.19,3.15,2.53,4.79,5.64,4.79,2.19,0,5.23-.96,5.23-3.64,0-2.23-2.08-2.97-4.19-3.49l-3.01-.67c-3.04-.82-5.34-1.86-5.34-5.12,0-3.9,3.82-5.38,7.2-5.38,3.82,0,6.87,2,7.01,6.16h-2.34Z"/><path class="cls-1" d="m181.41,13.71c-.11-2.89-2.34-4.19-5.01-4.19-2.08,0-4.53.82-4.53,3.3,0,2.08,2.38,2.82,3.97,3.23l3.12.71c2.67.41,5.46,1.97,5.46,5.31,0,4.16-4.12,5.75-7.68,5.75-4.45,0-7.5-2.08-7.87-6.75h2.34c.19,3.15,2.52,4.79,5.64,4.79,2.19,0,5.23-.96,5.23-3.64,0-2.23-2.08-2.97-4.19-3.49l-3.01-.67c-3.04-.82-5.34-1.86-5.34-5.12,0-3.9,3.82-5.38,7.2-5.38,3.82,0,6.87,2,7.01,6.16h-2.34Z"/><path class="cls-1" d="m26.03,1.21s-.02-.01-.03-.02c-.06,0-.12-.01-.17-.02-.65-.11-1.3-.2-1.97-.26-6.93-.58-11.97,2.44-11.79,6.26.15,3.07,3.1,4.53,5.99,4.64h0c.93-.04,1.84-.15,2.49-.35,3.34-1.06,8.24-.54,8.65,3.42.27,2.61-2.09,4.9-5.79,6.04-6.01,2.04-15.98-.21-17.93-6.95C3.32,6.51,12.98,1.47,13.95,1c.97-.47,1.11-1.26-.3-.91C8.3,1.39.06,5.87,0,14.21c0,.39.03.78.08,1.18.02.14.05.28.08.41.05.26.09.52.16.79.04.17.1.33.15.5.07.24.15.48.24.72.07.18.15.36.23.53.1.23.21.45.32.68.09.18.2.36.3.55.13.22.26.44.4.66.12.18.24.36.37.55.15.21.31.42.48.63.14.18.29.36.44.53.18.2.37.4.56.6.17.17.33.34.5.51.21.2.43.39.65.58.18.16.36.32.55.48.24.19.5.38.76.56.19.14.38.28.58.42.34.23.71.44,1.07.65.26.15.52.29.79.43.38.2.76.4,1.17.58.24.11.49.2.73.29.33.13.65.27.99.38.27.09.56.17.84.26.33.1.67.2,1.01.29.3.08.61.14.91.21.35.07.7.15,1.06.21.32.05.65.1.97.14.2.03.4.07.61.09.04,0,.08,0,.12,0,1.04.1,2.1.17,3.22.15,9.18-.17,19.18-5.54,19.17-15.11,0-6.26-5.92-11.1-13.5-12.45Z"/><path class="cls-1" d="m49.65.76h5.27v9.65h.07c1.3-1.97,3.67-2.86,6.05-2.86,3.82,0,7.94,3.08,7.94,10.09s-4.12,10.13-7.94,10.13c-2.82,0-5.16-.85-6.31-2.97h-.07v2.45h-5.01V.76Zm9.57,10.76c-3.12,0-4.49,2.93-4.49,6.16s1.37,6.12,4.49,6.12,4.49-2.93,4.49-6.12-1.37-6.16-4.49-6.16Z"/><path class="cls-1" d="m88.97,27.25h-5.01v-2.67h-.11c-1.34,2.15-3.64,3.19-5.86,3.19-5.6,0-7.01-3.15-7.01-7.91v-11.8h5.27v10.84c0,3.16.93,4.71,3.38,4.71,2.86,0,4.08-1.6,4.08-5.49v-10.06h5.27v19.19Z"/><path class="cls-1" d="m103.42,29.66c-1.15,3.08-2.97,4.34-6.61,4.34-1.08,0-2.15-.08-3.23-.19v-4.34c1,.08,2.04.22,3.08.19,1.82-.19,2.41-2.08,1.82-3.6l-6.75-18h5.64l4.34,13.14h.07l4.19-13.14h5.46l-8.02,21.6Z"/><path class="cls-1" d="m113.25,8.1h2.15v3.64h.07c1.08-2.6,3.75-4.19,6.83-4.19,5.83,0,8.61,4.71,8.61,10.13s-2.78,10.13-8.61,10.13c-2.86,0-5.64-1.45-6.64-4.19h-.07v10.73h-2.34V8.1Zm9.05,1.41c-5.16,0-6.72,3.82-6.72,8.16,0,3.97,1.74,8.16,6.72,8.16,4.45,0,6.27-4.19,6.27-8.16s-1.82-8.16-6.27-8.16Z"/><path class="cls-1" d="m132.99,13.97c.22-4.49,3.38-6.42,7.76-6.42,3.38,0,7.05,1.04,7.05,6.16v10.17c0,.89.45,1.41,1.37,1.41.26,0,.56-.07.74-.15v1.97c-.52.11-.89.15-1.52.15-2.38,0-2.75-1.34-2.75-3.34h-.07c-1.63,2.49-3.3,3.9-6.98,3.9s-6.42-1.75-6.42-5.6c0-5.38,5.23-5.57,10.28-6.16,1.93-.22,3-.48,3-2.6,0-3.15-2.26-3.93-5.01-3.93-2.89,0-5.05,1.34-5.12,4.45h-2.34Zm12.47,2.82h-.07c-.3.56-1.34.74-1.97.85-3.97.71-8.91.67-8.91,4.42,0,2.34,2.08,3.79,4.27,3.79,3.56,0,6.72-2.26,6.68-6.01v-3.04Z"/><path class="cls-1" d="m163.75,13.71c-.11-2.89-2.34-4.19-5.01-4.19-2.08,0-4.53.82-4.53,3.3,0,2.08,2.38,2.82,3.97,3.23l3.12.71c2.67.41,5.46,1.97,5.46,5.31,0,4.16-4.12,5.75-7.68,5.75-4.45,0-7.5-2.08-7.87-6.75h2.34c.19,3.15,2.53,4.79,5.64,4.79,2.19,0,5.23-.96,5.23-3.64,0-2.23-2.08-2.97-4.19-3.49l-3.01-.67c-3.04-.82-5.34-1.86-5.34-5.12,0-3.9,3.82-5.38,7.2-5.38,3.82,0,6.87,2,7.01,6.16h-2.34Z"/><path class="cls-1" d="m181.41,13.71c-.11-2.89-2.34-4.19-5.01-4.19-2.08,0-4.53.82-4.53,3.3,0,2.08,2.38,2.82,3.97,3.23l3.12.71c2.67.41,5.46,1.97,5.46,5.31,0,4.16-4.12,5.75-7.68,5.75-4.45,0-7.5-2.08-7.87-6.75h2.34c.19,3.15,2.52,4.79,5.64,4.79,2.19,0,5.23-.96,5.23-3.64,0-2.23-2.08-2.97-4.19-3.49l-3.01-.67c-3.04-.82-5.34-1.86-5.34-5.12,0-3.9,3.82-5.38,7.2-5.38,3.82,0,6.87,2,7.01,6.16h-2.34Z"/></g></svg>
