<?xml version="1.0" encoding="utf-8"?>
<!-- Generator: Adobe Illustrator 27.4.1, SVG Export Plug-In . SVG Version: 6.00 Build 0)  -->
<svg version="1.1" id="Layer_2_00000170964643569196622110000013895798055132131256_"
	 xmlns="http://www.w3.org/2000/svg" xmlns:xlink="http://www.w3.org/1999/xlink" x="0px" y="0px" viewBox="0 0 178.7 273.3"
	 style="enable-background:new 0 0 178.7 273.3;" xml:space="preserve">
<style type="text/css">
	.st0{fill:#000000;}
</style>
<g id="Layer_1-2">
	<g>
		<g>
			<path class="st0" d="M43.1,229h-9c-0.2-1.4-0.6-2.6-1.3-3.7c-0.6-1.1-1.4-2-2.4-2.7s-2-1.3-3.3-1.7s-2.5-0.6-3.9-0.6
				c-2.5,0-4.8,0.6-6.7,1.9c-1.9,1.3-3.4,3.1-4.5,5.5s-1.6,5.4-1.6,8.8s0.6,6.5,1.6,8.9c1.1,2.4,2.6,4.2,4.5,5.5
				c1.9,1.2,4.1,1.8,6.6,1.8c1.4,0,2.7-0.2,3.9-0.6s2.3-0.9,3.3-1.6c1-0.7,1.8-1.6,2.4-2.6c0.7-1.1,1.1-2.2,1.3-3.6l9,0.1
				c-0.3,2.2-1,4.3-2,6.3c-1.1,2-2.5,3.7-4.2,5.2c-1.7,1.5-3.8,2.7-6.1,3.6c-2.3,0.9-4.9,1.3-7.8,1.3c-4.1,0-7.9-1-11.1-2.9
				s-5.8-4.7-7.7-8.3c-1.9-3.6-2.8-7.9-2.8-13s1-9.4,2.8-13s4.5-6.4,7.7-8.3s6.9-2.9,11.1-2.9c2.6,0,5.1,0.4,7.4,1.1
				c2.3,0.7,4.3,1.8,6.1,3.3s3.2,3.2,4.4,5.2C42,224,42.7,226.4,43.1,229L43.1,229z"/>
			<path class="st0" d="M59.5,260.8c-2.2,0-4.2-0.4-6-1.2c-1.8-0.8-3.2-2-4.2-3.6c-1-1.6-1.5-3.5-1.5-5.9c0-2,0.4-3.6,1.1-4.9
				c0.7-1.3,1.7-2.4,3-3.1c1.3-0.8,2.7-1.4,4.3-1.8c1.6-0.4,3.2-0.7,5-0.9c2.1-0.2,3.7-0.4,5-0.6c1.3-0.2,2.2-0.5,2.8-0.8
				c0.6-0.4,0.9-0.9,0.9-1.7v-0.1c0-1.6-0.5-2.9-1.5-3.9c-1-0.9-2.4-1.4-4.3-1.4s-3.5,0.4-4.6,1.3c-1.2,0.9-1.9,1.9-2.3,3.1l-8.1-1
				c0.6-2.1,1.5-4,2.9-5.4c1.4-1.5,3.1-2.6,5.2-3.4s4.4-1.1,7-1.1c1.8,0,3.5,0.2,5.2,0.6c1.7,0.4,3.3,1.1,4.7,2
				c1.4,0.9,2.5,2.2,3.3,3.7s1.3,3.5,1.3,5.7V260h-8.4v-4.9h-0.3c-0.5,1-1.2,2-2.2,2.8s-2.1,1.5-3.4,2S61.3,260.7,59.5,260.8
				L59.5,260.8z M61.8,254.5c1.6,0,3-0.3,4.2-1c1.2-0.6,2.1-1.5,2.8-2.6c0.7-1.1,1-2.2,1-3.6v-4c-0.3,0.2-0.7,0.4-1.3,0.6
				c-0.6,0.2-1.2,0.3-2,0.5s-1.5,0.2-2.2,0.4c-0.7,0.1-1.4,0.2-1.9,0.3c-1.2,0.2-2.3,0.4-3.2,0.8s-1.7,0.9-2.2,1.6
				c-0.5,0.7-0.8,1.5-0.8,2.5c0,1.5,0.5,2.6,1.6,3.4S60.2,254.5,61.8,254.5L61.8,254.5z"/>
			<path class="st0" d="M85.6,273.3v-48.5h8.6v5.9h0.5c0.4-0.9,1-1.8,1.8-2.8s1.8-1.8,3.2-2.5s3-1,5.1-1c2.7,0,5.1,0.7,7.3,2.1
				s3.9,3.4,5.2,6.1c1.3,2.7,1.9,6,1.9,10s-0.6,7.2-1.9,9.9s-3,4.8-5.2,6.2s-4.7,2.1-7.4,2.1c-2,0-3.7-0.3-5-1
				c-1.3-0.7-2.4-1.5-3.2-2.4s-1.4-1.9-1.9-2.8h-0.3v18.8L85.6,273.3L85.6,273.3z M94.2,242.4c0,2.2,0.3,4.2,0.9,5.9
				c0.6,1.7,1.5,3,2.8,3.9c1.2,0.9,2.7,1.4,4.3,1.4s3.3-0.5,4.5-1.4c1.2-1,2.1-2.3,2.7-4c0.6-1.7,0.9-3.6,0.9-5.8s-0.3-4-0.9-5.7
				c-0.6-1.6-1.5-2.9-2.7-3.9c-1.2-0.9-2.7-1.4-4.5-1.4s-3.2,0.4-4.4,1.4s-2.1,2.2-2.7,3.8S94.2,240.2,94.2,242.4z"/>
			<path class="st0" d="M125.1,260v-35.3h8.5v5.9h0.4c0.6-2.1,1.7-3.7,3.3-4.8c1.6-1.1,3.3-1.7,5.3-1.7c0.5,0,1,0,1.6,0.1
				c0.6,0.1,1.1,0.1,1.4,0.2v7.9c-0.4-0.1-1-0.2-1.7-0.3c-0.8-0.1-1.5-0.2-2.2-0.2c-1.5,0-2.8,0.3-4,1s-2.1,1.5-2.8,2.7
				s-1,2.4-1,3.9v20.5L125.1,260L125.1,260z"/>
			<path class="st0" d="M159.3,260.8c-2.2,0-4.2-0.4-6-1.2c-1.8-0.8-3.2-2-4.2-3.6c-1-1.6-1.6-3.5-1.6-5.9c0-2,0.4-3.6,1.1-4.9
				c0.7-1.3,1.7-2.4,3-3.1c1.3-0.8,2.7-1.4,4.3-1.8c1.6-0.4,3.2-0.7,5-0.9c2.1-0.2,3.7-0.4,5-0.6c1.3-0.2,2.2-0.5,2.8-0.8
				c0.6-0.4,0.9-0.9,0.9-1.7v-0.1c0-1.6-0.5-2.9-1.5-3.9c-1-0.9-2.4-1.4-4.3-1.4s-3.5,0.4-4.6,1.3s-1.9,1.9-2.3,3.1l-8.1-1
				c0.6-2.1,1.6-4,2.9-5.4c1.4-1.5,3.1-2.6,5.2-3.4s4.4-1.1,6.9-1.1c1.8,0,3.5,0.2,5.2,0.6c1.7,0.4,3.3,1.1,4.7,2
				c1.4,0.9,2.5,2.2,3.4,3.7c0.8,1.6,1.3,3.5,1.3,5.7V260H170v-4.9h-0.3c-0.5,1-1.2,2-2.2,2.8s-2.1,1.5-3.4,2
				S161.2,260.7,159.3,260.8L159.3,260.8z M161.7,254.5c1.6,0,3-0.3,4.2-1c1.2-0.6,2.1-1.5,2.8-2.6c0.6-1.1,1-2.2,1-3.6v-4
				c-0.3,0.2-0.7,0.4-1.3,0.6c-0.6,0.2-1.2,0.3-2,0.5s-1.5,0.2-2.2,0.4c-0.7,0.1-1.4,0.2-1.9,0.3c-1.2,0.2-2.3,0.4-3.2,0.8
				c-0.9,0.4-1.7,0.9-2.2,1.6c-0.5,0.7-0.8,1.5-0.8,2.5c0,1.5,0.5,2.6,1.6,3.4S160,254.5,161.7,254.5L161.7,254.5z"/>
		</g>
		<path class="st0" d="M177.4,105c-1.2-5.3-3.8-14.9-7.7-19.3c-3.7-4.2-7.2-7-12.3-9.6c-3.2-1.7-6.3-3.7-9.2-5.9
			c-4.4-3.5-5.1-8.1-1.8-13c0.7-1,1.6-1.9,2.6-2.9c1-1,2-2,2.9-3.2c2.2-3.1,2.9-6.9,3.4-10.2c1.3-9.6-7.2-16.1-14.1-21.4
			c-0.8-0.6-1.6-1.2-2.4-1.9c-3.6-2.8-7.3-5.4-11.2-7.8c-5.9-4.4-12.8-7.9-19.4-8.8C108,1,107.7,1,107.5,0.9
			c-6.3-1.3-12.8-0.9-19-0.5l-2.3,0.2C59.4,2.2,41.7,14.1,18.6,45.9C-3.8,76.6-6,107.4,12,137.4c18.8,31.5,50.6,50.4,85.1,50.7
			c0.2,0,0.3,0,0.5,0v0c10,0,20.6-3,30-8.4c8.5-3.7,24-13.7,30.7-20.8c0.8-0.8,1.5-1.7,2.1-2.5l0.1,0.1l0,0
			c7.5-8,12.3-14.5,15.1-20.5C179.4,128.3,179.4,113.9,177.4,105z M97.2,184.2c-33.1-0.3-63.7-18.5-81.8-48.8
			c-17.1-28.5-14.9-57.9,6.4-87.2C44,17.5,61,6,86.4,4.4l2.3-0.1c3-0.2,6-0.4,9-0.4l0,0c3,0,6.1,0.2,9,0.8c1.5,0.3,3.6,1.1,5.7,2.1
			c4.1,1.9,7.9,4.9,9.3,7.1c1,1.7,1.5,4.3,0.2,6.1c-1.4,2-4.9,2.6-9.8,1.7c-6.7-1.3-14.2-1.2-22.5,0.2c-4.2,0.8-7.2,2.4-10.3,4
			c-1.1,0.6-2.2,1.2-3.4,1.8c-4.1,2-8.4,3.7-12.5,5.3c-6.6,2.6-13.5,5.4-20,9.4c-2.7,1.7-5.7,3.8-7.1,7.1c-1.3,3-1.1,6.8,0.5,11.1
			c0.2,0.6,0.5,1.2,0.7,1.7c1.3,3.1,2.1,5.2,2,8.5c-0.1,3.9-0.9,7.4-2.5,12l-0.3,0.8c-2.3,6.4-4.2,11.5-2.4,19
			c1.3,5.6,5.2,10.1,8.3,13.8c6.6,7.7,20.5,20.8,39.4,21.5l0.9,0c6.9,0.2,13.4,0.5,20.4-2.3c7.5-2.9,13-5.6,20.3-9.7
			c4.6-2.6,11.4-5.8,17.5-4c7.8,2.3,11.4,12.1,10.2,19.9C147.6,167.1,119.8,184.4,97.2,184.2z M145.3,164.7
			c5.3-6.7,8.8-14.3,10-22.2c1.5-9.6-3-21.3-12.9-24.2c-7.6-2.2-15.4,1.4-20.6,4.3c-7.3,4.1-12.5,6.6-19.8,9.5
			c-6.2,2.5-12.1,2.2-18.8,2l-0.9,0c-17.5-0.6-30.4-12.9-36.6-20.1c-3-3.5-6.4-7.5-7.5-12.2c-1.4-6.3,0.1-10.7,2.3-16.8l0.3-0.8
			c1.8-4.9,2.6-8.9,2.7-13.2c0.1-4.1-1-6.8-2.2-10.1c-0.2-0.5-0.4-1.1-0.7-1.7c-1.3-3.3-1.5-6.1-0.6-8.2c1-2.3,3.3-3.9,5.6-5.3
			c6.2-3.9,12.6-6.4,19.3-9.1c4.2-1.7,8.6-3.4,12.8-5.5c1.3-0.6,2.4-1.2,3.5-1.8c3-1.6,5.5-3,9.1-3.6c7.7-1.4,14.8-1.5,21-0.2
			c8.4,1.6,12.1-0.9,13.8-3.3c1.9-2.7,1.7-6.2,0.7-8.8c3.3,2.5,6.2,5.2,8.5,7.8c2.5,2.9,3.4,7.2,2.2,10.9c-1.1,3.5-4.5,5.4-8.7,7.7
			l-1,0.5c-4.4,2.4-6.7,3.5-24.9,4.2c-1.3,0-2.5,0-3.9,0c-2.2-0.1-4.6-0.1-6.9,0.2c-7,1-13.6,4.9-18.2,10.7
			C68.6,61,66.1,68,65.7,75.4c-0.1,1.9,0,4.1,1,6.2c1.3,2.6,4,4.5,7.5,5.3c3.2,0.7,6.5,1,9.8,1.3c2.2,0.2,4.6,0.4,6.7,0.8
			c4.4,0.7,8.9,1.6,11.8,4.5c1.1,1.1,2,2.5,3,4c1.2,1.9,2.4,3.8,4.2,5.3c6.5,5.5,16.3,2.8,24.2,0.5c1.5-0.4,3-0.8,4.3-1.2
			c1.7-0.4,3.4-0.8,5.1-0.9c4.5-0.2,9.4,2,13.4,6c5.8,5.8,9,16.3,7.8,25.5c-1.2,8.7-2.8,17-8.8,23.5
			C153.1,158.8,149.4,161.8,145.3,164.7z M172.2,134.4c-1.4,2.9-3.3,6-5.8,9.4c0.9-3.4,1.4-6.9,1.9-10.5c1.4-10.5-2.1-22-8.9-28.8
			c-4.8-4.8-10.8-7.4-16.3-7.1c-2,0.1-3.9,0.5-5.8,1c-1.4,0.3-2.9,0.7-4.5,1.2c-7,2-15.7,4.4-20.6,0.3c-1.3-1.2-2.3-2.7-3.4-4.4
			c-1-1.6-2.1-3.3-3.5-4.7c-3.7-3.6-8.9-4.7-13.9-5.5c-2.3-0.4-4.7-0.6-7-0.8c-3.1-0.3-6.3-0.6-9.2-1.2c-2.3-0.5-4.1-1.7-4.9-3.3
			c-0.6-1.3-0.6-2.9-0.6-4.3c0.3-6.6,2.5-12.8,6.3-17.6c4-5.1,9.7-8.4,15.7-9.3c2.1-0.3,4.1-0.2,6.3-0.2c1.3,0,2.7,0.1,4.1,0
			c19.2-0.7,21.7-2,26.6-4.7l0.9-0.5c3.8-2,8.9-4.7,10.6-9.9c1-3.2,0.9-6.7-0.2-9.9c6.1,4.7,12.4,10,11.4,16.9
			c-0.4,2.8-1,6.1-2.7,8.4c-0.7,0.9-1.5,1.8-2.5,2.7c-1.1,1-2.2,2.1-3.1,3.5c-4.4,6.5-3.4,13.5,2.6,18.2c3,2.4,6.3,4.5,9.8,6.3
			c4.6,2.4,7.8,4.9,11.2,8.7c2.4,2.7,5,9.3,6.9,17.6C175.5,114.2,175.3,127.6,172.2,134.4z"/>
	</g>
</g>
</svg>
