<?xml version="1.0" encoding="UTF-8"?><svg id="Layer_2" xmlns="http://www.w3.org/2000/svg" viewBox="0 0 312.62 60.68"><defs><style>.cls-1{fill:#000000;}</style></defs><g id="Layer_1-2"><path class="cls-1" d="m95.56,12.16l-4.92,5.7c-1.69-2.15-3.76-3.22-6.24-3.22s-4.3.78-5.74,2.4c-1.4,1.57-2.11,3.63-2.11,6.16s.7,4.59,2.11,6.2c1.45,1.61,3.35,2.4,5.74,2.4s4.55-1.07,6.24-3.22l4.88,5.7c-2.81,3.1-6.53,4.67-11.12,4.67s-8.39-1.49-11.36-4.46c-2.98-3.02-4.46-6.78-4.46-11.28s1.49-8.27,4.46-11.24c2.97-2.97,6.78-4.46,11.36-4.46,4.84,0,8.06,1.4,11.16,4.67Z"/><path class="cls-1" d="m105.77,7v31.41h-7.6V7h7.6Z"/><path class="cls-1" d="m128.7,20.05c2.15,2.06,3.22,4.67,3.22,7.85s-1.07,5.79-3.22,7.85c-2.15,2.02-4.88,3.06-8.14,3.06s-5.99-1.03-8.14-3.06c-2.11-2.07-3.18-4.67-3.18-7.85s1.07-5.79,3.22-7.85c2.15-2.11,4.84-3.14,8.1-3.14s5.99,1.03,8.14,3.14Zm-8.14,12.19c2.11,0,3.68-1.86,3.68-4.34s-1.57-4.42-3.68-4.42-3.64,1.9-3.64,4.42,1.53,4.34,3.64,4.34Z"/><path class="cls-1" d="m155.44,17.33v21.08h-6.78l-.37-2.11c-1.16,1.69-3.06,2.52-5.66,2.52-5,0-7.64-3.55-7.64-9.55v-11.94h7.6v11.53c0,1.9.78,2.85,2.31,2.85,1.28,0,2.23-.62,2.93-1.82v-12.56h7.6Z"/><path class="cls-1" d="m181.01,7v31.41h-6.78l-.41-2.15c-1.2,1.69-3.1,2.56-5.75,2.56s-4.92-1.03-6.61-3.06c-1.69-2.07-2.56-4.71-2.56-7.89s.87-5.83,2.56-7.85c1.69-2.07,3.93-3.1,6.61-3.1,2.36,0,4.13.7,5.33,2.07V7h7.6Zm-14.42,20.87c0,2.77,1.36,4.38,3.51,4.38,1.4,0,2.52-.66,3.3-1.94v-4.83c-.78-1.32-1.86-1.98-3.3-1.98-2.15,0-3.51,1.61-3.51,4.38Z"/><path class="cls-1" d="m189.24,38.4h-2.48V7h2.48v13.43c.8-1.32,1.89-2.32,3.28-3,1.39-.67,2.84-1.01,4.36-1.01,1.62,0,3.04.31,4.24.93s2.19,1.45,2.97,2.48c.79,1.03,1.37,2.24,1.76,3.62.39,1.38.58,2.81.58,4.3,0,1.57-.18,3.04-.54,4.42-.36,1.38-.93,2.57-1.72,3.57-.78,1.01-1.78,1.8-2.99,2.37-1.21.58-2.69.87-4.42.87-.69,0-1.39-.1-2.11-.29-.72-.19-1.41-.47-2.09-.83-.68-.36-1.29-.8-1.86-1.34-.56-.54-1.03-1.16-1.38-1.88h-.08v3.76Zm0-10.78c0,1.29.16,2.5.48,3.61.32,1.12.78,2.08,1.38,2.89.6.81,1.36,1.45,2.27,1.92.91.47,1.94.7,3.1.7,1.05,0,2.01-.19,2.89-.56.88-.37,1.65-.92,2.31-1.63.66-.72,1.18-1.59,1.55-2.62.37-1.03.56-2.22.56-3.57.06-1.35-.06-2.61-.33-3.78-.28-1.17-.72-2.2-1.32-3.08s-1.38-1.58-2.33-2.09-2.06-.77-3.33-.77c-1.13,0-2.14.24-3.04.72-.9.48-1.65,1.13-2.27,1.94s-1.1,1.76-1.43,2.85-.5,2.24-.5,3.45Z"/><path class="cls-1" d="m213.66,28.28c0,1.16.15,2.25.45,3.28.3,1.03.75,1.93,1.34,2.69s1.34,1.36,2.25,1.82c.91.45,1.95.68,3.14.68,1.62,0,3.02-.43,4.17-1.28,1.16-.85,1.93-2.06,2.31-3.63h2.77c-.3,1.02-.7,1.96-1.2,2.83-.5.87-1.12,1.62-1.86,2.27-.74.65-1.63,1.15-2.64,1.51-1.02.36-2.2.54-3.55.54-1.71,0-3.18-.29-4.42-.87-1.24-.58-2.26-1.37-3.06-2.37-.8-1.01-1.39-2.19-1.78-3.55-.39-1.36-.58-2.83-.58-4.4s.23-3.04.68-4.42c.46-1.38,1.1-2.58,1.94-3.61.84-1.03,1.87-1.85,3.08-2.44s2.59-.89,4.13-.89c2.95,0,5.26,1.01,6.94,3.04s2.51,4.97,2.48,8.82h-16.61Zm13.97-2.07c0-1.05-.14-2.03-.43-2.95-.29-.92-.72-1.72-1.28-2.4-.56-.68-1.27-1.21-2.13-1.61s-1.83-.6-2.93-.6-2.07.21-2.91.62c-.84.41-1.56.96-2.15,1.65-.59.69-1.07,1.49-1.42,2.4-.36.91-.59,1.87-.7,2.89h13.97Z"/><path class="cls-1" d="m238.12,38.4h-2.48v-21.41h2.48v4.01h.08c.69-1.71,1.58-2.9,2.66-3.57,1.09-.67,2.53-1.01,4.32-1.01v2.69c-1.41-.03-2.56.19-3.47.66-.91.47-1.63,1.1-2.17,1.9-.54.8-.91,1.74-1.12,2.83-.21,1.09-.31,2.22-.31,3.41v10.5Z"/><path class="cls-1" d="m252.29,38.4h-2.48v-21.41h2.48v4.01h.08c.69-1.71,1.58-2.9,2.66-3.57,1.09-.67,2.53-1.01,4.32-1.01v2.69c-1.41-.03-2.56.19-3.47.66-.91.47-1.63,1.1-2.17,1.9-.54.8-.91,1.74-1.12,2.83-.21,1.09-.31,2.22-.31,3.41v10.5Z"/><path class="cls-1" d="m264.23,38.4v-21.41h2.48v21.41h-2.48Z"/><path class="cls-1" d="m274.98,28.28c0,1.16.15,2.25.45,3.28.3,1.03.75,1.93,1.34,2.69s1.34,1.36,2.25,1.82c.91.45,1.95.68,3.14.68,1.62,0,3.02-.43,4.17-1.28,1.16-.85,1.93-2.06,2.31-3.63h2.77c-.3,1.02-.7,1.96-1.2,2.83-.5.87-1.12,1.62-1.86,2.27-.74.65-1.63,1.15-2.64,1.51-1.02.36-2.2.54-3.55.54-1.71,0-3.18-.29-4.42-.87-1.24-.58-2.26-1.37-3.06-2.37-.8-1.01-1.39-2.19-1.78-3.55-.39-1.36-.58-2.83-.58-4.4s.23-3.04.68-4.42c.46-1.38,1.1-2.58,1.94-3.61.84-1.03,1.87-1.85,3.08-2.44s2.59-.89,4.13-.89c2.95,0,5.26,1.01,6.94,3.04s2.51,4.97,2.48,8.82h-16.61Zm13.97-2.07c0-1.05-.14-2.03-.43-2.95-.29-.92-.72-1.72-1.28-2.4-.56-.68-1.27-1.21-2.13-1.61s-1.83-.6-2.93-.6-2.07.21-2.91.62c-.84.41-1.56.96-2.15,1.65-.59.69-1.07,1.49-1.42,2.4-.36.91-.59,1.87-.7,2.89h13.97Z"/><path class="cls-1" d="m298.28,31.71c.39,1.84,1.08,3.15,2.09,3.9s2.44,1.14,4.32,1.14c.91,0,1.69-.11,2.35-.33.66-.22,1.21-.52,1.63-.89.43-.37.75-.79.97-1.26.22-.47.33-.96.33-1.49,0-1.05-.34-1.82-1.01-2.33-.68-.51-1.52-.91-2.54-1.2-1.02-.29-2.12-.54-3.3-.74s-2.29-.52-3.31-.93c-1.02-.41-1.87-1-2.54-1.78-.67-.77-1.01-1.86-1.01-3.26,0-1.79.65-3.26,1.96-4.4,1.31-1.14,3.16-1.71,5.56-1.71s4.2.52,5.64,1.55c1.45,1.03,2.32,2.76,2.62,5.19h-2.52c-.22-1.65-.85-2.82-1.88-3.49-1.03-.67-2.33-1.01-3.9-1.01s-2.77.34-3.59,1.01c-.83.68-1.24,1.56-1.24,2.67,0,.96.34,1.7,1.01,2.21s1.52.92,2.54,1.24c1.02.32,2.12.6,3.31.85s2.29.6,3.3,1.05c1.02.45,1.87,1.07,2.54,1.84.67.77,1.01,1.85,1.01,3.22,0,1.02-.22,1.92-.66,2.71-.44.79-1.05,1.44-1.82,1.96-.77.52-1.69.92-2.75,1.18s-2.22.39-3.49.39-2.39-.19-3.37-.56-1.81-.89-2.5-1.55c-.69-.66-1.23-1.43-1.61-2.31-.39-.88-.61-1.83-.66-2.85h2.52Z"/><circle class="cls-1" cx="265.47" cy="10.88" r="1.76"/><path class="cls-1" d="m43.55,51.94c-1.41-.34-2.23-.74-3.04-1.31-.24,1.28-.94,4.62-.94,4.62-.22-1.47-.59-4.13-.82-5.6-.1-.67-.25-1.32-.38-1.98,1.41,1.98,3.35,3.25,5.66,3.9,2.25.63,4.53,1.15,6.81,1.62,1.34.28,2.72.38,4.27.58,0,0-6.96-4.24-7.54-7.98-.14-.9-.29-1.51-.5-2.24-.71-2.42-3.83-3.76-6.07-2.6.57,3.49,2.47,6.15,5.25,8.28-3.38-1.19-6.09-3.15-7.73-6.77-.31.98-.47,1.8-.68,2.44-.47-.13-2.06.66-2.29,3.03-.5,5.01,2.06,8.79,5.12,12.76,1.04-3.16,1.96-5.92,2.89-8.73Z"/><path class="cls-1" d="m.62,21.31c.58-2.09,1.55-3.77,2.95-5.16l.08-.08c.58-.51,1.18-.95,1.8-1.31-.06-.32-.08-.67-.11-1.11l-.03-.51c.11-4.67,2.54-8.86,6.51-11.21,3.9-2.31,8.65-2.45,12.73-.39,3.72-2.02,8.21-2.05,12.1-.07,3.96,2.01,6.61,5.75,7.1,10.01.02.2.04.4.05.61,5.37,2.11,8.78,8.15,7.97,14.21-.3,2.24-2.23,11.06-13.2,10.52h0c-2.53,10.31-9.39,10.01-13.17,9.63-2.67,2.45-5.31,4.64-11.24,2.75-2.09-.67-5.07-3.15-6.47-6.42-.96-2.27-1.04-4.56-.22-6.69-1.74-.45-3.33-1.44-4.6-2.87C.82,30.91-.23,27.71.04,24.62c.11-1.21.3-2.31.58-3.31Zm5.83-2.17c-1.34,1.31-2.04,3.19-2.28,5.85-.17,1.94.51,4.03,1.79,5.47.68.76,1.83,1.68,3.5,1.76,0,0,2.65-.19,3.33,1.13.66,1.29-.22,2.34-.51,2.69-.23.27-.51.61-.77,1.14-.6,1.23-.61,2.56-.01,3.97.93,2.19,3.01,3.81,3.91,4.1h0c5.43,2.46,8.75-3.29,8.75-3.29,0,0,8.84,4.77,11.88-8.69l3.53-.12c5.52-.72,7.56-3.37,8.09-7.38.49-3.71-1.47-8.41-5.61-9.89-1.69-.6-2.31-1.4-2.42-3.91-.33-2.87-2.14-5.41-4.86-6.79-2.71-1.38-5.83-1.35-8.34.08-1.21.69-2.41.7-3.67.04-2.83-1.46-6.13-1.38-8.83.22-2.64,1.56-4.59,4.85-4.46,7.41.14,2.7.81,4.41.81,4.41,0,0-2.44.46-3.83,1.83Z"/></g></svg>
