<?xml version="1.0" encoding="UTF-8"?><svg id="Layer_2" xmlns="http://www.w3.org/2000/svg" viewBox="0 0 355.59 82.01"><defs><style>.cls-1{fill:#000000;}</style></defs><g id="Layer_1-2"><path class="cls-1" d="m76.46,20.42C65.09.84,40-5.82,20.42,5.55.84,16.92-5.82,42.01,5.55,61.59c11.37,19.58,36.46,26.24,56.04,14.87,11.78-6.84,19.4-19.09,20.32-32.68.06-.92.1-1.84.1-2.78,0-1.11,0-2.22-.14-3.31-.48-6.09-2.33-11.99-5.41-17.27Zm-.52,24.82c-2.34,19.19-19.79,32.85-38.97,30.51-19.19-2.34-32.85-19.79-30.51-38.97C8.79,17.59,26.24,3.93,45.43,6.27c15.78,1.92,28.28,14.23,30.44,29.97.09.71-.4,1.35-1.11,1.45-.06,0-.11.01-.17.01h-14.98c-.6,0-1.12-.42-1.25-1-2.38-9.46-11.98-15.21-21.44-12.83-9.46,2.38-15.21,11.98-12.83,21.44,2.38,9.46,11.98,15.21,21.44,12.83,6.5-1.63,11.51-6.8,12.95-13.34.13-.59.66-1.01,1.26-1h14.95c.71.02,1.28.61,1.26,1.32,0,.04,0,.08,0,.12h0Zm76.13-15.57c-7.32-.06-13.29,5.83-13.35,13.15-.06,7.32,5.83,13.29,13.15,13.35,7.32.06,13.29-5.83,13.35-13.15,0-.02,0-.03,0-.05.22-7.13-5.39-13.08-12.51-13.3-.21,0-.43,0-.64,0h0Zm0,21.09c-4.33.21-8.01-3.13-8.22-7.46s3.13-8.01,7.46-8.22c4.33-.21,8.01,3.13,8.22,7.46,0,.13,0,.25,0,.38.19,4.13-3,7.64-7.13,7.83-.11,0-.23,0-.34,0h0Zm-20.37-3.54c-.14-.1-.34-.07-.44.07-1.55,2.16-4.05,3.45-6.71,3.47-4.33.09-7.91-3.35-8-7.68s3.35-7.91,7.68-8c2.53.05,4.89,1.28,6.38,3.33.11.15.32.18.46.07,0,0,0,0,0,0l3.72-3.09c.14-.11.16-.31.06-.45-2.53-3.31-6.46-5.26-10.63-5.26-7.18-.14-13.11,5.57-13.25,12.74,0,.19,0,.37,0,.56,0,7.55,5.83,13.25,13.57,13.25,4.42.04,8.58-2.09,11.14-5.7.09-.15.05-.34-.09-.44l-3.9-2.86Zm214.61-7.16c-2.52-.64-4.18-1.17-4.18-2.57,0-1.91,2.15-2.78,4.15-2.78,1.76.03,3.46.63,4.86,1.69.15.11.35.08.46-.07l2.61-3.59c.11-.14.08-.35-.06-.46-2.36-1.76-5.24-2.68-8.19-2.61-4.58,0-9.5,2.53-9.5,8.08,0,3.09,2,5.41,5.92,6.7.88.29,1.78.52,2.65.74,3,.78,4.87,1.34,4.87,3.16s-2,2.78-4,2.78c-2.49-.07-4.9-.94-6.86-2.47-.14-.11-.34-.08-.45.06,0,0,0,0-.01.01l-2.62,3.68c-.1.14-.07.34.07.45,2.86,2.21,6.39,3.38,10,3.31,4.63,0,9.56-2.78,9.56-7.93.02-5.8-6.51-7.46-9.28-8.18Zm-144.25-10.39c-3.44-.07-6.76,1.28-9.18,3.73-.13.12-.33.12-.46,0-3.97-4.33-10.57-4.95-15.27-1.43-.06.04-.15.03-.19-.03-.02-.02-.03-.05-.03-.09v-1.31c0-.18-.15-.33-.33-.33h-4.87c-.18,0-.32.14-.32.32,0,0,0,0,0,.01v24.8c0,.18.14.32.32.32h5c.18,0,.32-.14.32-.32h0v-16.81c0-.08.03-.16.08-.22,1.64-1.95,4.01-3.12,6.55-3.23,1.73-.02,3.39.71,4.54,2,.95,1.11,1.35,2.53,1.35,4.74v13.46c0,.18.14.32.32.32h5c.18,0,.32-.14.32-.32h0v-12.63c.01-1.37-.1-2.75-.35-4.1-.03-.1,0-.21.08-.29,1.81-2,4.37-3.15,7.06-3.18,1.68-.01,3.29.72,4.38,2,.95,1.11,1.35,2.53,1.35,4.74v13.46c0,.18.14.32.32.32,0,0,0,0,.01,0h5c.18,0,.32-.13.33-.31,0,0,0,0,0-.01v-12.63c0-4.06-.7-6.66-2.34-8.69-2.19-2.72-5.5-4.3-8.99-4.29Zm96.95,20.86c-.78.14-1.56.22-2.35.23-1.18.06-2.33-.38-3.17-1.2-.55-.88-.79-1.92-.66-2.95v-10.94c0-.18.13-.32.31-.33,0,0,0,0,.01,0h4.53c.18,0,.32-.13.33-.31,0,0,0,0,0-.01v-4.5c0-.18-.15-.33-.33-.33h-4.53c-.18,0-.32-.14-.32-.32h0v-6.2c0-.18-.15-.33-.33-.33h-5c-.18,0-.33.15-.33.33h0v6.2c0,.18-.14.32-.32.32,0,0,0,0-.01,0h-4.34c-.18,0-.32.14-.32.32,0,0,0,0,0,.01v4.5c0,.18.14.32.32.32h4.34c.18,0,.33.15.33.33h0v10.68c0,3,.69,5.25,2.09,6.81,1.86,2.02,4.52,3.11,7.26,3,1.25,0,2.5-.15,3.72-.46.17-.04.26-.21.22-.38,0,0,0,0,0,0l-1.06-4.56c-.04-.17-.2-.27-.37-.24,0,0-.01,0-.02,0Zm30.4-20.34h-4.86c-.18,0-.33.15-.33.33h0v1.34c0,.06-.04.11-.1.12-.03,0-.05,0-.08-.03-2.1-1.52-4.64-2.32-7.24-2.28-2.18-.03-4.34.53-6.23,1.62-6.41,3.89-8.47,12.24-4.58,18.65,1.12,1.86,2.68,3.42,4.53,4.55,1.95,1.1,4.15,1.68,6.39,1.68,2.55.03,5.04-.76,7.11-2.26.05-.04.13-.04.17,0,.02.02.03.05.03.08v1.32c0,.18.14.32.32.32,0,0,0,0,.01,0h4.86c.18,0,.32-.13.33-.31,0,0,0,0,0-.01v-24.8c0-.18-.15-.33-.33-.33h0,0Zm-5.35,17.14c0,.08-.02.15-.07.21-1.53,1.99-3.88,3.18-6.39,3.22-4.3.06-7.84-3.38-7.9-7.68,0-.05,0-.11,0-.16-.15-4.18,3.12-7.69,7.29-7.84.11,0,.22,0,.34,0,2.59.02,5.04,1.2,6.66,3.22.05.06.07.13.07.21v8.82Zm-83.65-16c-1.9-1.09-4.05-1.65-6.24-1.62-2.58-.04-5.11.75-7.2,2.27-.06.04-.14.03-.18-.02-.02-.02-.03-.06-.03-.09v-1.31c0-.18-.15-.33-.33-.33h-4.82c-.18,0-.32.14-.32.32,0,0,0,0,0,.01v37.41c0,.18.13.32.31.33,0,0,0,0,.01,0h5c.18,0,.32-.14.32-.32,0,0,0,0,0-.01v-13.87c0-.07.06-.13.13-.13.03,0,.06.01.08.03,2.02,1.46,4.46,2.22,6.95,2.17,2.24,0,4.44-.58,6.39-1.68,6.4-3.91,8.41-12.27,4.5-18.67-1.13-1.85-2.69-3.4-4.55-4.53l-.02.04Zm-7,19.47c-2.51-.04-4.86-1.23-6.39-3.22-.05-.06-.08-.13-.08-.21v-8.82c0-.08.03-.15.08-.21,1.62-2.02,4.07-3.2,6.66-3.22,4.18-.04,7.59,3.32,7.62,7.49,0,.12,0,.23,0,.35.01,4.3-3.46,7.79-7.76,7.8-.05,0-.11,0-.16,0l.03.04Zm42.77-20.57h-5c-.18,0-.33.15-.33.33h0v16.79c0,.08-.02.15-.07.21-1.63,1.96-4.01,3.13-6.55,3.24-1.74,0-3.4-.74-4.55-2.05-.94-1.11-1.34-2.52-1.34-4.74v-13.49c0-.18-.15-.33-.33-.33h-5c-.18,0-.33.15-.33.33v12.66c0,4.06.7,6.66,2.34,8.7,2.21,2.74,5.55,4.33,9.07,4.29,2.43-.04,4.79-.83,6.75-2.26.05-.04.13-.03.17.03.02.02.02.05.02.07v1.31c0,.18.14.32.32.32,0,0,0,0,.01,0h4.86c.18,0,.32-.13.33-.31,0,0,0,0,0-.01v-24.8c0-.18-.14-.33-.32-.34-.03,0-.05,0-.08,0l.03.04Z"/></g></svg>
