<?xml version="1.0" encoding="UTF-8"?><svg id="Layer_2" xmlns="http://www.w3.org/2000/svg" viewBox="0 0 917.07 469.3"><defs><style>.cls-1{fill:#000000;}</style></defs><g id="Layer_1-2"><path class="cls-1" d="m373.51,103.39c.76-.25,1.54-.38,2.33-.38,2.35,0,4.59,1.13,6,3.05l159.59,203.46V0H0v469.3h368.4V110.45c0-3.22,2.05-6.06,5.11-7.07Zm-82.58,222.35c-10.95,13.43-24.74,23.57-40.97,30.13-13.97,5.64-29.32,8.5-45.64,8.5h-70.55c-4.33,0-7.85-3.53-7.85-7.86V112.8c0-4.34,3.53-7.86,7.86-7.86h70.54c16.32,0,31.68,2.86,45.64,8.5,16.24,6.56,30.03,16.7,40.97,30.13,25.84,31.7,28.63,75.34,28.63,92.63,0,20.33-3.74,59-28.63,89.54Z"/><path class="cls-1" d="m766.16,174c0-21.69-8.39-30.13-14.71-34.58-9.66-6.82-24.91-10.28-45.35-10.28h-58.04v86.72h78.11c9.38,0,39.98-3.02,39.98-41.87Z"/><path class="cls-1" d="m204.32,129.14h-54.19v211.03h54.19c19.9,0,47.83-5.16,67.85-29.72,20.16-24.74,23.18-57.14,23.18-74.25,0-11.47-1.67-50.94-23.18-77.33-20.02-24.56-47.95-29.72-67.85-29.72Z"/><path class="cls-1" d="m726.18,240.07h-78.11v100.09h68.6c67.36,0,67.36-40.28,67.36-53.51,0-27.43-23.79-46.58-57.85-46.58Z"/><path class="cls-1" d="m565.7,0v358.08c0,3.22-2.05,6.06-5.11,7.07-.75.25-1.54.37-2.33.37-2.35,0-4.59-1.13-6-3.04l-159.6-203.33v310.16h524.41V0h-351.37Zm235.31,322.39c-4.68,10-11.62,18.4-20.62,24.95-15.52,11.3-36.96,17.03-63.73,17.03h-84.95c-4.33,0-7.86-3.53-7.86-7.86V112.78c.01-4.32,3.54-7.84,7.86-7.84h74.38c25.89,0,45.29,4.81,59.31,14.71,16.56,11.69,24.95,29.97,24.95,54.35,0,26.67-11.12,42.07-20.45,50.28l-1.1.97,1.31.67c4.93,2.53,9.5,5.51,13.56,8.84,15.84,12.98,24.56,31.41,24.56,51.89,0,13.46-2.43,25.48-7.23,35.74Z"/></g></svg>
