<?xml version="1.0" encoding="UTF-8"?><svg id="Layer_2" xmlns="http://www.w3.org/2000/svg" viewBox="0 0 686.16 235.65"><defs><style>.cls-1{fill:#000000;}</style></defs><g id="Layer_1-2"><path class="cls-1" d="m329.44,160.25l4.73-.49.33,9.62c-12.39,1.74-22.98,2.61-31.79,2.61-11.74,0-20.05-3.39-24.94-10.19-4.89-6.79-7.33-17.36-7.33-31.7,0-28.58,11.35-42.87,34.07-42.87,10.97,0,19.18,3.07,24.61,9.21,5.43,6.14,8.15,15.79,8.15,28.93l-.65,9.29h-53.79c0,9.02,1.63,15.7,4.89,20.05,3.26,4.35,8.94,6.52,17.03,6.52,8.09,0,16.33-.33,24.69-.98Zm-4.4-35.37c0-10-1.6-17.06-4.81-21.19-3.21-4.13-8.42-6.19-15.65-6.19-7.23,0-12.66,2.18-16.3,6.52-3.64,4.35-5.52,11.3-5.62,20.86h42.38Z"/><path class="cls-1" d="m354.31,171.36v-107.03s12.23,0,12.23,0v107.03s-12.23,0-12.23,0Z"/><path class="cls-1" d="m443.52,113.47v41.11c0,4.07,10.15,3.91,10.15,3.91l-.62,10.8c-8.59,0-15.69.71-19.97-3.42-9.78,4.35-19.55,6.11-29.33,6.11-7.5,0-13.2-2.12-17.11-6.36-3.91-4.24-5.87-10.32-5.87-18.26s2.01-13.77,6.03-17.52c4.02-3.75,10.32-6.06,18.91-6.93l25.59-2.45v-7.01c0-5.54-1.2-9.51-3.59-11.9-2.39-2.39-5.65-3.59-9.78-3.59l-32.12.03v-10.78s31.31,0,31.31,0c9.23,0,15.95,2.12,20.13,6.36,4.18,4.24,6.28,10.87,6.28,19.89Zm-50.2,33.25c0,10,4.13,15,12.39,15,7.39,0,14.67-1.25,21.84-3.75l3.75-1.3v-26.89s-24.12,2.28-24.12,2.28c-4.89.44-8.42,1.85-10.59,4.24-2.18,2.39-3.26,5.87-3.26,10.43Z"/><path class="cls-1" d="m491.24,98.15c-11.85,0-17.77,4.13-17.77,12.39,0,3.81,1.36,6.5,4.07,8.07,2.72,1.58,8.91,3.21,18.58,4.89,9.67,1.69,16.52,4.05,20.54,7.09,4.02,3.04,6.03,8.75,6.03,17.12s-2.69,14.51-8.07,18.42c-5.38,3.91-13.23,5.87-23.55,5.87-6.74,0-29.22-2.49-29.22-2.49l.65-10.59c12.92,1.25,22.27,2.17,28.57,2.17,6.3,0,11.11-1,14.43-3.02,3.31-2.01,4.97-5.38,4.97-10.11s-1.41-7.93-4.24-9.62c-2.83-1.68-9.02-3.29-18.58-4.81-9.56-1.52-16.36-3.75-20.38-6.68-4.02-2.93-6.03-8.37-6.03-16.3,0-7.93,2.8-13.8,8.39-17.6,5.6-3.8,12.58-5.71,20.95-5.71,6.63,0,29.63,1.69,29.63,1.69v10.66c-12.1-.55-22.02-1.42-28.97-1.42Z"/><path class="cls-1" d="m581.66,99.45h-25.92v38.96c0,9.35.68,15.49,2.04,18.42,1.36,2.93,4.59,4.4,9.7,4.4l14.51-.98.82,10.11c-7.28,1.19-12.82,1.79-16.63,1.79-8.48,0-14.34-2.06-17.6-6.19-3.26-4.13-4.89-12.01-4.89-23.63v-42.87h-11.57s0-10.59,0-10.59h11.57v-24.94s12.06,0,12.06,0v24.94h25.92s0,10.59,0,10.59Z"/><path class="cls-1" d="m598.65,78.45v-14.18s12.23,0,12.23,0v14.18s-12.23,0-12.23,0Zm0,92.91v-82.5s12.23,0,12.23,0v82.5s-12.23,0-12.23,0Z"/><path class="cls-1" d="m663.83,87.23c3.59,0,9.67.65,18.26,1.96l3.91.49-.49,9.94c-8.69-.98-15.11-1.47-19.23-1.47-9.24,0-15.51,2.2-18.83,6.6-3.32,4.4-4.97,12.55-4.97,24.45,0,11.9,1.55,20.19,4.65,24.86,3.1,4.67,9.54,7.01,19.32,7.01l19.23-1.47.49,10.11c-10.11,1.52-17.66,2.28-22.66,2.28-12.71,0-21.49-3.26-26.32-9.78-4.84-6.52-7.25-17.52-7.25-33.01,0-15.49,2.61-26.35,7.82-32.6,5.22-6.25,13.91-9.37,26.08-9.37Z"/><path class="cls-1" d="m236.57,123.46c0-19.83-12.29-37.16-30.79-43.91.81-4.18,1.24-8.36,1.24-12.71C207.02,29.99,177.03,0,140.17,0c-21.53,0-41.56,10.33-54.15,27.73-6.19-4.8-13.79-7.43-21.72-7.43-19.56,0-35.48,15.92-35.48,35.48,0,4.32.77,8.46,2.22,12.37C12.65,74.78,0,92.52,0,112.22s12.35,37.34,30.94,44.04c-.79,4.13-1.22,8.4-1.22,12.71,0,36.77,29.91,66.69,66.69,66.69,21.59,0,41.6-10.37,54.12-27.84,6.23,4.89,13.85,7.58,21.75,7.58,19.56,0,35.48-15.91,35.48-35.48,0-4.32-.77-8.47-2.22-12.37,18.39-6.63,31.04-24.38,31.04-44.08ZM91.59,34.84c10.92-15.9,28.89-25.39,48.15-25.39,32.2,0,58.39,26.2,58.39,58.39,0,3.94-.37,7.7-1.13,11.48l-52.23,45.76-51.77-23.6-10.11-21.58,8.69-45.07Zm-26.23-5.81c6.15,0,12.14,2.03,16.99,5.73l-7.77,40.33-35.48-8.38c-1.13-3.06-1.69-6.32-1.69-9.73,0-15.42,12.54-27.96,27.95-27.96ZM9.15,112.33c0-16.71,11.02-31.91,26.87-37.16l38.93,9.2,9.14,19.53-49.77,44.99c-15.11-5.75-25.17-20.28-25.17-36.55Zm136.06,88.54c-10.9,16.07-28.96,25.64-48.38,25.64-32.29,0-58.55-26.27-58.55-58.55,0-3.96.39-7.88,1.14-11.65l50.93-46.03,51.97,23.69,11.51,21.99-8.62,44.92Zm26,5.78c-6.08,0-12.03-2.04-16.9-5.78l7.71-40.19,35.45,8.29c1.13,3.06,1.69,6.32,1.69,9.72,0,15.42-12.54,27.95-27.95,27.95Zm29.33-46.14l-39.02-9.13-10.36-19.81,51.04-44.71c15.14,5.73,25.22,20.25,25.22,36.49s-11.02,31.92-26.88,37.16Z"/></g></svg>
