<?xml version="1.0" encoding="UTF-8"?><svg id="Layer_2" xmlns="http://www.w3.org/2000/svg" viewBox="0 0 487.35 110.58"><defs><style>.cls-1{fill:#000000;}</style></defs><g id="Layer_1-2"><path class="cls-1" d="m22.2,17.8h44.5c1.1,0,2-.9,2-2V2c0-1.1-.9-2-2-2H2C.9,0,0,.9,0,2v100.2c0,1.1.9,2,2,2h64.7c1.1,0,2-.9,2-2v-13.7c0-1.1-.9-2-2-2H22.2c-1.1,0-2-.9-2-2v-30.1c0-.3.3-.6.6-.6h0c.2,0,.4.2.5.4,3.9,6.5,11.1,9.7,16.6,9.7h18.3c1.1,0,2-.9,2-2v-16c0-1.1-.9-2-2-2H20.2v-24.1c-.1-1.1.8-2,2-2Z"/><path class="cls-1" d="m486.6,95.7l-11.9-11.8c4.6-7.2,7.1-15.8,7.1-25.1,0-25-18.5-45.5-45.5-45.5-28.8,0-45.5,20.4-45.5,45.5s17.9,45.5,45.5,45.5c12.9,0,23.8-4.7,31.8-12.3.4-.4,1,0,.9.6-1.5,5.8-.3,12.1,3.4,17,.9,1.2,2.6,1.3,3.7.3l10.5-10.6c1-1.1,1-2.6,0-3.6Zm-76.9-36.9c0-15.6,11.9-28.2,26.6-28.2s26.6,12.6,26.6,28.2c0,4-.8,7.7-2.2,11.2l-12.8-12.6c-1-.9-2.5-.9-3.4,0l-10.6,10.8c-.9,1-.9,2.5,0,3.4l13.2,13c-3.3,1.5-6.9,2.4-10.7,2.4-14.8,0-26.7-12.6-26.7-28.2Z"/><path class="cls-1" d="m359.7,30.7h14.9c1.1,0,2,.9,2,2v69.5c0,1.1-.9,2-2,2h-14.9c-1.1,0-2-.9-2-2V32.7c0-1.1.9-2,2-2Z"/><path class="cls-1" d="m164.1,29.6c-9,0-17.9,5.6-22.2,12.1-3.6-7.1-10.2-12.1-19.8-12.1-11.9,0-18.2,9.7-21.1,13.4-.4.5-1.2.1-1-.5,1.1-3.1,1.7-6.4,1.9-9.7.1-1.1-.9-2.1-2-2.1h-14.9c-1.1,0-2,.9-2,2v69.5c0,1.1.9,2,2,2h14.9c1.1,0,2-.9,2-2v-38.2c0-13.3,8.7-16.6,13.6-16.6,5.2,0,11.3,2.4,11.3,14.2v40.6c0,1.1.9,2,2,2h14.9c1.1,0,2-.9,2-2v-38c0-13.3,8.6-16.9,13.5-16.9,5.2,0,11.4,2.4,11.4,14.2v40.6c0,1.1.9,2,2,2h14.9c1.1,0,2-.9,2-2v-40.5c.1-22.2-11-32-25.4-32Z"/><path class="cls-1" d="m343.5,32.5c0-1-.7-1.9-1.7-2-9.7-1.5-20.7-.4-30.1,13.7-.4.5-1.2.1-1-.5,1.1-3.1,1.7-6.4,1.9-9.7v-1.3c0-1.1-.9-2-2-2h-14.9c-1.1,0-2,.9-2,2v69.5c0,1.1.9,2,2,2h14.9c1.1,0,2-.9,2-2v-31.3c0-14.8,8.7-21.6,19.7-21.6,2.7,0,5.6.4,8.5,1.2,1.3.4,2.6-.6,2.6-1.9l.1-16.1Z"/><path class="cls-1" d="m244.6,29.6c-13-.1-20.8,5.9-24.6,9.6-.4.4-1.2-.1-.9-.6,1.5-3.2,3.6-8.7,3.6-16.1V2.1c0-1.1-.9-2-2-2h-14.9c-1.1,0-2,.9-2,2v100.2c0,1.1.9,2,2,2h14.9c1.1,0,2-.9,2-2v-4.7c0-.5.6-.8,1-.4,2.1,2.3,8.1,7.1,20.6,7.1,22.2-.7,35.2-17.7,35.2-37.8.1-16.9-10.6-36.8-34.9-36.9Zm-2.9,56.9c-10.5,0-19-9-19-20.2s8.5-20.2,19-20.2,19,9,19,20.2-8.6,20.2-19,20.2Z"/><path class="cls-1" d="m357.5,2.1c.9,9.3,8.1,16.6,17.1,17.6,1.1.1,2.1-.8,2.1-1.9V2.3c0-1.3-1-2.3-2.3-2.3h-15c-1.1,0-2,1-1.9,2.1Z"/></g></svg>
