<svg version="1.1" id="Layer_1" xmlns="http://www.w3.org/2000/svg" xmlns:xlink="http://www.w3.org/1999/xlink" x="0px" y="0px" style="enable-background:new 0 0 504 504;" xml:space="preserve" viewBox="126.55 210.95 247.68 81.18">
<style type="text/css">
	.st0{fill:#000000;}
</style>
<path class="st0" d="M367.7,227.2c0.2-0.4,0.4-0.8,0.7-1.1c0.3-0.3,0.7-0.5,1.1-0.7c1.7-0.7,3.7,0.1,4.4,1.8  c0.2,0.4,0.3,0.9,0.3,1.3c0,0.5-0.1,0.9-0.3,1.4c-0.2,0.4-0.4,0.8-0.7,1.1c-0.3,0.3-0.7,0.5-1.1,0.7c-0.8,0.3-1.8,0.3-2.6,0  c-0.4-0.2-0.8-0.4-1.1-0.7c-0.3-0.3-0.6-0.7-0.7-1.1c-0.2-0.4-0.3-0.9-0.3-1.4C367.4,228,367.5,227.6,367.7,227.2z M368.3,229.6  c0.1,0.3,0.3,0.7,0.6,0.9c0.3,0.3,0.6,0.5,0.9,0.6c0.3,0.1,0.7,0.2,1.1,0.2c0.4,0,0.7-0.1,1.1-0.2c0.3-0.1,0.6-0.4,0.9-0.6  c0.3-0.3,0.5-0.6,0.6-0.9c0.1-0.4,0.2-0.8,0.2-1.2c0-0.4-0.1-0.8-0.2-1.1c-0.3-0.7-0.8-1.2-1.5-1.5c-0.3-0.1-0.7-0.2-1.1-0.2  c-0.7,0-1.5,0.3-2,0.8c-0.3,0.3-0.5,0.6-0.6,0.9c-0.1,0.4-0.2,0.7-0.2,1.1C368.1,228.9,368.1,229.3,368.3,229.6z M371.1,226.5  c0.4,0,0.7,0.1,1,0.3c0.2,0.2,0.4,0.5,0.3,0.8c0,0.3-0.1,0.6-0.3,0.8c-0.2,0.2-0.5,0.3-0.7,0.3l1.1,1.7h-0.7l-1.1-1.7h-0.7v1.7h-0.6  v-4L371.1,226.5z M370.8,228.3c0.1,0,0.3,0,0.4,0c0.1,0,0.2,0,0.3-0.1c0.1,0,0.2-0.1,0.2-0.2c0.1-0.1,0.1-0.2,0.1-0.4  c0-0.1,0-0.2-0.1-0.3c0-0.1-0.1-0.1-0.2-0.2c-0.1,0-0.2-0.1-0.3-0.1c-0.1,0-0.2,0-0.3,0h-0.8v1.3L370.8,228.3z"/>
<path class="st0" d="M201.5,213.6c-3.5-3.5-9.2-3.5-12.7,0l-13.6,13.6c-3.5,3.5-3.5,9.2,0,12.7c3.5,3.5,9.2,3.5,12.7,0l13.6-13.6  C205,222.8,205,217.1,201.5,213.6z"/>
<path class="st0" d="M201.5,273.2l-13.6-13.6c-3.5-3.5-9.2-3.5-12.7,0s-3.5,9.2,0,12.7l13.6,13.6c1.7,1.7,4,2.6,6.4,2.6l0,0  c5,0,9-4,9-9C204.1,277.2,203.2,274.9,201.5,273.2z"/>
<path class="st0" d="M174.3,249.8L174.3,249.8L174.3,249.8c0-2.4-0.9-4.7-2.6-6.4l-29.8-29.8c-3.5-3.5-9.2-3.5-12.7,0  c-3.5,3.5-3.5,9.2,0,12.7c0,0,0,0,0,0l23.5,23.5l-23.5,23.5c-3.5,3.5-3.5,9.2,0,12.7c3.5,3.5,9.2,3.5,12.7,0l29.8-29.8  C173.3,254.4,174.3,252.2,174.3,249.8C174.3,249.8,174.3,249.8,174.3,249.8L174.3,249.8z"/>
<path class="st0" d="M232,275l4.2,11.2l4.2-11.2h2.4v13.4h-1.7v-11.1h0l-4.2,11.1h-1.5l-4.2-11.1h0v11.1h-1.7V275H232z"/>
<path class="st0" d="M249.3,278.5c2.4,0,3.6,0.9,3.6,2.6v5.6c0,0.4,0.2,0.5,0.5,0.5c0.2,0,0.3,0,0.5-0.1v1.2  c-0.4,0.2-0.7,0.3-1.1,0.3c-0.9,0-1.3-0.5-1.3-1.5c-0.8,1-2.1,1.6-3.4,1.5c-0.8,0-1.7-0.2-2.4-0.7c-0.6-0.5-0.9-1.2-0.9-2  c0-0.8,0.3-1.5,0.8-2.1c0.6-0.5,1.9-0.9,3.9-1.2c0.5,0,1-0.2,1.4-0.4c0.2-0.2,0.4-0.5,0.4-0.8c0-1.1-0.7-1.6-2.2-1.6  c-0.6,0-1.2,0.1-1.8,0.4c-0.4,0.3-0.7,0.9-0.6,1.4h-1.6C245.3,279.6,246.6,278.5,249.3,278.5z M246.4,285.8c0,0.4,0.2,0.8,0.5,1  c0.4,0.3,0.9,0.4,1.4,0.4c0.8,0,1.5-0.2,2.1-0.6c0.5-0.3,0.8-0.9,0.8-1.5v-1.7c-0.3,0.2-0.7,0.4-1.1,0.4l-1.6,0.2  c-0.6,0-1.1,0.2-1.6,0.6C246.6,284.9,246.4,285.4,246.4,285.8z"/>
<path class="st0" d="M260,278.5c2.2,0,3.3,1.2,3.3,3.5v6.5h-1.6v-6.6c0-0.5-0.2-1-0.5-1.3c-0.4-0.4-0.9-0.6-1.5-0.5  c-0.8,0-1.6,0.3-2.1,0.8c-0.5,0.6-0.8,1.4-0.7,2.2v5.5h-1.6v-9.7h1.5v1.5h0C257.5,279.1,258.7,278.4,260,278.5z"/>
<path class="st0" d="M270.6,278.5c1.2-0.1,2.4,0.5,3.3,1.4c0.8,1,1.3,2.4,1.2,3.7c0.1,1.3-0.4,2.6-1.2,3.7c-0.8,0.9-2,1.4-3.2,1.4  c-0.6,0-1.2-0.1-1.8-0.4c-0.6-0.2-1-0.6-1.4-1.2h0v5h-1.6v-13.4h1.6v1.3h0C268.1,279,269.3,278.3,270.6,278.5z M267.4,283.6  c-0.1,1,0.2,1.9,0.8,2.7c0.6,0.7,1.4,1,2.3,1c0.8,0,1.6-0.3,2.1-1c0.6-0.8,0.8-1.8,0.8-2.8c0-0.9-0.2-1.8-0.8-2.6  c-0.5-0.7-1.4-1-2.2-1c-0.8,0-1.6,0.3-2.1,1C267.6,281.7,267.3,282.6,267.4,283.6z"/>
<path class="st0" d="M281,278.5c1.3-0.1,2.6,0.4,3.4,1.4c1.7,2.2,1.7,5.2,0,7.3c-0.9,1-2.1,1.5-3.4,1.4c-1.3,0.1-2.5-0.4-3.4-1.4  c-0.9-1-1.4-2.3-1.3-3.7c-0.1-1.4,0.4-2.7,1.3-3.7C278.4,278.9,279.7,278.4,281,278.5z M278,283.6c0,1,0.3,1.9,0.8,2.6  c1,1.2,2.8,1.4,4,0.3c0.1-0.1,0.2-0.2,0.3-0.3c0.6-0.8,0.9-1.7,0.9-2.7c0-1-0.3-1.9-0.8-2.7c-0.5-0.7-1.3-1-2.2-1  c-0.8,0-1.6,0.4-2.1,1C278.2,281.7,277.9,282.6,278,283.6L278,283.6z"/>
<path class="st0" d="M288,278.7l2.2,7.9h0l2-7.9h1.7l2,7.9h0l2.2-7.9h1.6l-3.1,9.7l0,0H295l-2-7.7h0l-2,7.7h-1.7l-3.1-9.7H288z"/>
<path class="st0" d="M304.8,278.5c1.3-0.1,2.5,0.5,3.2,1.5c0.8,1.1,1.2,2.5,1.2,3.9v0.2h-7.3v0.1c0,0.8,0.2,1.6,0.8,2.2  c0.6,0.6,1.4,0.9,2.2,0.8c1.2,0.1,2.3-0.7,2.5-1.9h1.6c-0.1,1-0.6,1.8-1.4,2.5c-0.8,0.6-1.8,0.9-2.7,0.8c-1.3,0.1-2.6-0.5-3.5-1.5  c-0.8-1-1.2-2.3-1.2-3.6c0-1.3,0.4-2.6,1.3-3.6C302.3,279,303.5,278.5,304.8,278.5z M307.5,282.6c0-0.7-0.3-1.4-0.9-2  c-0.5-0.5-1.2-0.8-2-0.8c-0.7,0-1.4,0.3-1.9,0.7c-0.5,0.5-0.8,1.2-0.9,2L307.5,282.6z"/>
<path class="st0" d="M315.9,278.5v1.7c-1-0.1-1.9,0.3-2.7,0.9c-0.6,0.8-0.9,1.9-0.9,3v4.3h-1.6v-9.7h1.5v2h0  c0.5-1.4,1.9-2.3,3.3-2.3L315.9,278.5z"/>
<path class="st0" d="M323.8,274.7c1.4-0.1,2.8,0.3,3.9,1.1c1,0.8,1.7,2,1.8,3.3h-1.8c-0.1-0.9-0.6-1.7-1.3-2.2  c-0.8-0.5-1.7-0.8-2.7-0.8c-1.3,0-2.5,0.5-3.3,1.5c-0.9,1.2-1.3,2.7-1.3,4.1c0,1.4,0.4,2.7,1.3,3.8c0.8,1,2,1.6,3.3,1.5  c1.1,0,2.2-0.4,3.1-1.1c0.8-0.8,1.3-1.9,1.2-3v-0.2h-4.3v-1.5h5.9v7h-1.1l-0.5-1.7c-0.5,0.6-1.1,1.1-1.9,1.5  c-0.8,0.3-1.6,0.5-2.4,0.5c-1.7,0-3.4-0.7-4.6-1.9c-1.2-1.3-1.9-3-1.8-4.8c-0.1-1.9,0.5-3.7,1.7-5.2  C320.3,275.4,322,274.6,323.8,274.7z"/>
<path class="st0" d="M337.3,278.5v1.7c-1-0.1-1.9,0.3-2.7,0.9c-0.6,0.8-0.9,1.9-0.9,3v4.3h-1.6v-9.7h1.5v2h0  c0.5-1.4,1.9-2.3,3.3-2.3L337.3,278.5z"/>
<path class="st0" d="M342.2,278.5c1.3-0.1,2.6,0.4,3.4,1.4c1.7,2.2,1.7,5.2,0,7.3c-0.9,1-2.1,1.5-3.4,1.4c-1.3,0.1-2.5-0.4-3.4-1.4  c-0.9-1-1.4-2.3-1.3-3.7c-0.1-1.4,0.4-2.7,1.3-3.7C339.7,278.9,340.9,278.4,342.2,278.5z M339.2,283.6c0,1,0.3,1.9,0.8,2.6  c1,1.2,2.8,1.4,4,0.3c0.1-0.1,0.2-0.2,0.3-0.3c0.6-0.8,0.9-1.7,0.9-2.7c0-1-0.3-1.9-0.8-2.7c-0.5-0.7-1.3-1-2.2-1  c-0.8,0-1.6,0.4-2.1,1C339.5,281.7,339.2,282.6,339.2,283.6L339.2,283.6z"/>
<path class="st0" d="M350.2,278.7v6.6c0,0.5,0.2,1,0.5,1.4c0.4,0.4,0.9,0.6,1.4,0.5c0.8,0.1,1.6-0.2,2.1-0.8  c0.5-0.6,0.8-1.4,0.7-2.2v-5.5h1.6v9.7h-1.5v-1.5h0c-0.6,1.1-1.8,1.8-3.2,1.8c-2.2,0-3.3-1.1-3.3-3.4v-6.5H350.2z"/>
<path class="st0" d="M363.5,278.5c1.2-0.1,2.4,0.5,3.3,1.4c0.8,1,1.3,2.4,1.2,3.7c0.1,1.3-0.4,2.6-1.2,3.7c-0.8,0.9-2,1.4-3.2,1.4  c-0.6,0-1.2-0.1-1.8-0.4c-0.6-0.2-1-0.6-1.4-1.2h0v5h-1.6v-13.4h1.6v1.3h0C361,279,362.2,278.3,363.5,278.5z M360.3,283.6  c-0.1,1,0.2,1.9,0.8,2.7c0.6,0.7,1.4,1,2.3,1c0.8,0,1.6-0.3,2.1-1c0.6-0.8,0.8-1.8,0.8-2.8c0-0.9-0.2-1.8-0.8-2.6  c-0.5-0.7-1.4-1-2.2-1c-0.8,0-1.6,0.3-2.1,1C360.5,281.7,360.2,282.6,360.3,283.6z"/>
<path class="st0" d="M251.1,225.4v3.5h-17.5v10h16.3v3.5h-16.3v10.9h17.6v3.5h-21.8v-31.4H251.1z"/>
<path class="st0" d="M259.5,234.1l5.4,7.9h0l5.7-7.9h4.5l-7.8,10.5l8.8,12.3h-4.8l-6.3-9.4l-6.3,9.4h-4.5l8.5-12l-7.9-10.8  L259.5,234.1z"/>
<path class="st0" d="M289.7,233.6c2.9-0.1,5.7,1.1,7.7,3.3c2,2.5,3,5.5,2.8,8.7c0.1,3.1-0.9,6.2-2.8,8.6c-1.9,2.2-4.7,3.4-7.5,3.3  c-1.4,0-2.8-0.3-4.1-0.9c-1.3-0.6-2.4-1.5-3.2-2.7h-0.1v11.7h-3.7v-31.5h3.7v3.1h0.1C283.6,234.8,286,233.6,289.7,233.6z   M282.2,245.5c-0.1,2.3,0.5,4.5,1.9,6.3c1.3,1.6,3.3,2.4,5.3,2.3c2,0.1,3.8-0.8,5-2.3c1.3-1.9,1.9-4.2,1.8-6.5  c0.1-2.2-0.6-4.3-1.9-6.1c-1.3-1.5-3.2-2.4-5.2-2.3c-1.9-0.1-3.8,0.8-5,2.3C282.7,241,282.1,243.2,282.2,245.5L282.2,245.5z"/>
<path class="st0" d="M313.4,233.6c2.9-0.1,5.8,1.2,7.6,3.5c1.9,2.6,2.9,5.8,2.7,9.1v0.4h-17v0.3c-0.1,1.9,0.6,3.8,1.9,5.3  c1.4,1.4,3.3,2.1,5.2,2c3.3,0,5.2-1.5,5.9-4.4h3.7c-0.3,2.3-1.5,4.3-3.3,5.8c-1.9,1.4-4.1,2-6.4,2c-3.6,0-6.3-1.2-8.1-3.5  c-1.9-2.4-2.9-5.5-2.8-8.5c-0.1-3.1,1-6.1,3-8.4C307.7,234.7,310.5,233.5,313.4,233.6z M319.8,243.3c-0.1-1.7-0.8-3.4-2-4.6  c-1.2-1.2-2.9-1.9-4.6-1.8c-1.6,0-3.2,0.6-4.4,1.7c-1.2,1.3-2,2.9-2.1,4.7H319.8z"/>
<path class="st0" d="M339.1,233.6v4c-2.8,0-4.9,0.7-6.2,2.2c-1.3,1.5-2,3.8-2,6.9v10.2h-3.7v-22.7h3.5v4.8h0.1  c1.7-3.5,4.3-5.3,7.8-5.3L339.1,233.6z"/>
<path class="st0" d="M346.1,225.4v4.6h-3.7v-4.6H346.1z M346.1,234.1v22.7h-3.7v-22.7H346.1z"/>
<path class="st0" d="M359,233.6c3.1,0,5.4,0.6,6.8,1.8c1.6,1.3,2.4,3.3,2.4,5.3h-3.7v0c-0.1-1.1-0.7-2.2-1.6-2.8  c-1.1-0.7-2.4-1-3.7-1c-1.2-0.1-2.4,0.2-3.5,0.7c-1.2,0.6-1.6,2.1-1,3.3c0.2,0.4,0.5,0.7,0.9,0.9c1.1,0.6,2.2,1.1,3.5,1.3l3.5,0.8  c1.8,0.3,3.5,1.1,5,2.2c1.2,1,1.8,2.5,1.7,4.1c0.1,2.1-0.9,4.1-2.6,5.3c-2.1,1.4-4.6,2-7.1,1.9c-2.4,0.1-4.9-0.5-6.9-1.9  c-1.8-1.4-2.8-3.5-2.7-5.8h3.7c0,1.3,0.6,2.5,1.7,3.3c1.3,0.8,2.9,1.2,4.4,1.1c3.7,0,5.5-1.1,5.5-3.4c0-1-0.5-1.9-1.3-2.4  c-1.8-0.9-3.7-1.5-5.7-1.8c-2.2-0.3-4.2-1.1-6-2.3c-1.2-1-1.9-2.6-1.8-4.1c0-1.8,0.8-3.6,2.3-4.7C354.6,234.1,356.7,233.5,359,233.6  z"/>
</svg>
