<?xml version="1.0" encoding="UTF-8"?><svg id="Layer_2" xmlns="http://www.w3.org/2000/svg" viewBox="0 0 479.22 167.03"><defs><style>.cls-1{fill:#000000;}</style></defs><g id="Layer_1-2"><path class="cls-1" d="m463.47,0H171.88c-8.68,0-15.75,7.06-15.75,15.75v45.33C138.52,24.95,101.43,0,58.61,0H15.75C7.06,0,0,7.06,0,15.75v135.54c0,8.68,7.06,15.75,15.75,15.75h447.73c8.68,0,15.75-7.06,15.75-15.75V15.75c0-8.68-7.06-15.75-15.75-15.75Zm4.85,151.28c0,2.67-2.18,4.85-4.85,4.85H167.03V15.75c0-2.67,2.17-4.85,4.85-4.85h291.6c2.67,0,4.85,2.18,4.85,4.85v135.54Zm-457.43,0V15.75c0-2.67,2.17-4.85,4.85-4.85h42.86c53.77,0,97.52,43.75,97.52,97.52v47.71H15.75c-2.67,0-4.85-2.17-4.85-4.85Z"/><rect class="cls-1" x="272.58" y="55.2" width="17.18" height="56.63" rx="3.09" ry="3.09"/><path class="cls-1" d="m255.47,55.2h-39.27c-1.71,0-3.09,1.38-3.09,3.09v50.46c0,1.71,1.38,3.09,3.09,3.09h11c1.71,0,3.09-1.38,3.09-3.09v-10.47h20.05c1.71,0,3.09-1.38,3.09-3.09v-8.25c0-1.71-1.38-3.09-3.09-3.09h-20.05v-12.78h25.18c1.71,0,3.09-1.38,3.09-3.09v-9.69c0-1.71-1.38-3.09-3.09-3.09Z"/><path class="cls-1" d="m419.14,55.2h-11c-1.71,0-3.09,1.38-3.09,3.09v24.74l-17.2-25.98c-.76-1.15-2.05-1.85-3.43-1.85h-8.45c-1.71,0-3.09,1.38-3.09,3.09v50.46c0,1.71,1.38,3.09,3.09,3.09h11c1.71,0,3.09-1.38,3.09-3.09v-24.45l16.82,25.68c.76,1.16,2.06,1.86,3.45,1.86h8.81c1.71,0,3.09-1.38,3.09-3.09v-50.46c0-1.71-1.38-3.09-3.09-3.09Z"/><path class="cls-1" d="m352.9,55.2h-11c-1.71,0-3.09,1.38-3.09,3.09v24.74l-17.2-25.98c-.76-1.15-2.05-1.85-3.43-1.85h-8.45c-1.71,0-3.09,1.38-3.09,3.09v50.46c0,1.71,1.38,3.09,3.09,3.09h11c1.71,0,3.09-1.38,3.09-3.09v-24.45l16.82,25.68c.76,1.16,2.06,1.86,3.45,1.86h8.81c1.71,0,3.09-1.38,3.09-3.09v-50.46c0-1.71-1.38-3.09-3.09-3.09Z"/></g></svg>
