<?xml version="1.0" encoding="UTF-8"?><svg id="Layer_2" xmlns="http://www.w3.org/2000/svg" viewBox="0 0 993.3 186.6"><defs><style>.cls-1{fill:#000000;}</style></defs><g id="Layer_1-2"><polygon class="cls-1" points="113 2.9 0 2.9 0 183.3 13.9 183.3 13.9 98.6 98.6 98.6 98.6 85.2 13.9 85.2 13.9 16.4 113 16.4 113 2.9"/><path class="cls-1" d="m192.6,54.9c-17.6,0-34.8,11.8-41,27.8l-.3-26.2v-.4h-11.9v127.2h13.4v-61.1c0-20.3,5.2-54.5,39.8-54.5,4.13-.08,8.26.32,12.3,1.2l.5.1v-13.5l-.3-.1c-4.15-.42-8.33-.58-12.5-.5Z"/><path class="cls-1" d="m278,52.9c-17.6,0-32.6,7.7-43.3,22.1-8.5,11.6-12.5,25.9-12.5,45.2s5.6,35.8,16.3,48.3c10.5,12,24.1,18.1,40.5,18.1,13.63.17,26.76-5.16,36.4-14.8,7.59-7.11,12.62-16.53,14.3-26.8l.1-.5h-13.9l-.1.3c-1.3,6.7-4.3,12.3-9.5,17.8-6.8,7.1-16.5,11-27.3,11-12.6,0-22.8-4.5-30.3-13.3-8-9.5-12.7-23-13-37.3h96.5v-.4c0-1.5.1-2.9.1-4.2s.1-2.7.1-4.2c0-16.3-5.1-31.5-14.3-42.8-10-12-23.9-18.5-40.1-18.5Zm-42,57.8c.2-26.2,17.8-45.2,42.1-45.2,26,0,40.2,22.7,40.8,45.2h-82.9Z"/><path class="cls-1" d="m501.4,52.9c-18.7,0-33.1,9.4-40.6,26.6-4.1-12.4-14.4-26.6-40-26.6-16.6,0-30.7,8.9-38.1,23.9l-1.4-20.3v-.4h-11.9v127.2h13.4v-63.6c0-21,5.1-36.4,15-45.7,5.9-5.6,13.4-8.5,22.2-8.5,20.4,0,29.9,11,29.9,34.7v83h13.7v-71.9c0-15.3,5.1-28.2,14.8-37.4,5.99-5.65,13.97-8.71,22.2-8.5,20.3,0,29.7,11,29.7,34.7v83h13.4v-83.8c.1-29.9-15-46.4-42.3-46.4Z"/><path class="cls-1" d="m608.9,18.1l-13.4,3.2v34.8h-25.3v12.4h25.3v79.2c0,24.4,11.4,37.3,33,37.3,6.8,0,13.3-1.4,20.2-2.9l1.2-.2v-11.8l-.5.1c-6.2,1.1-12.9,2.3-19.9,2.3-14.4,0-20.6-7.5-20.6-25.1v-78.7h75.1v114.8h14.2V56.2h-89.3V18.1Z"/><path class="cls-1" d="m803.2,52.9c-17.9,0-35.1,10.3-42.4,25.1l-1.4-21.9h-11.9v127.2h13.4v-63.6c0-10.4,1.6-25.3,9.3-37.1,7.2-11,18.1-16.6,32.3-16.6,21.7,0,32.2,11.2,32.2,34.2v83h13.4v-83.8c0-29.5-16.4-46.5-44.9-46.5Z"/><path class="cls-1" d="m691,2.4c-5.63,0-10.2,4.57-10.2,10.2,0,5.63,4.57,10.2,10.2,10.2,5.63,0,10.2-4.57,10.2-10.2-.02-5.62-4.58-10.18-10.2-10.2Z"/><path class="cls-1" d="m979.7,0v76.1c-7.4-13.8-24.3-23.3-41.8-23.3-13.9,0-25.6,4.5-34.6,13.3-12.6,11.9-19.8,31.5-19.8,53.9,0,23.5,7.4,42.9,20.9,54.6,9,7.9,20.4,12,33.9,12,17.4,0,34.7-10.2,41.7-24.4l1.4,21.1h11.9V0h-13.6Zm-15.8,163.4c-6.83,6.59-16.01,10.19-25.5,10-10,0-18.1-2.9-24.8-8.7-10.7-9.5-16.6-25.5-16.6-45,0-17.8,5-32.9,14-42.7,7.1-7.4,15.9-11,26.8-11s19.5,3.3,26.3,9.8c10.8,10.1,15.8,24,15.8,43.9.1,18.6-5.3,33.3-16,43.7Z"/></g></svg>
