<?xml version="1.0" encoding="UTF-8"?><svg id="Layer_2" xmlns="http://www.w3.org/2000/svg" viewBox="0 0 11006.07 2730.8"><defs><style>.cls-1{fill:#000000;}</style></defs><g id="Layer_1-2"><path class="cls-1" d="m10259.2,2093.4h0l-45.3-71.7h0l-37.7,64.1h0l83,7.6Zm-94.3-245.2h0l49,90.5h3.8l45.3-86.8v-3.8h-98.1v.1Zm-37.7,18.8h0l3.8,207.4h0l56.6-94.3v-3.8l-60.4-109.3Zm184.8,215v-222.5h0l-67.9,120.7v3.8l67.9,98h0Zm-316.8-795.8h0v98.1l30.2,52.8c11.3,15.1,86.8,381,86.8,381l94.3-49c-7.5-11.3-15.1-26.4-15.1-45.3,0-7.5,0-15.1,3.8-18.9-3.8,0-26.4-3.8-30.2-11.3s-7.5-83,3.8-101.8c0-3.8-3.8-7.5-7.5-11.3-15.1-18.9-67.9-79.2-67.9-90.5,0-7.5,11.3-22.6,11.3-22.6l-109.5-181.2Zm-494.1,1090c0-7.5-11.3-94.3-15.1-116.9-101.8-7.5-150.9-18.9-162.2-33.9-15.1-18.9,116.9-814.7,128.2-829.8,7.5-7.5,37.7-33.9,41.5-41.5s0-173.5,0-215h-3.8c-7.5,0-181,169.7-237.6,162.2-41.5-3.8-83-26.4-105.6-41.5l90.6,1414.4c98.1,30.2,199.9,49,305.5,56.6l30.2-49v-75.4l-41.5-222.5c-3.8,7.4-26.4-.1-30.2-7.7ZM9644.4,0c-203.7,0-396,45.3-569.5,124.5l49,795.9c22.6-3.8,37.7-3.8,41.5,0,7.5,7.5,33.9,71.7,33.9,83,0,7.5,0,15.1-7.5,22.6,22.6,7.5,67.9,18.9,67.9,18.9,0,0,124.5-166,158.4-188.6,7.5-3.8,105.6-49,147.1-67.9,3.8-3.8,7.5-7.5,7.5-15.1,0-15.1,11.3-86.8,11.3-105.6,0-11.3,30.2-37.7,33.9-56.6,3.8-18.9,3.8-113.2,7.5-124.5,3.8-15.1,83-67.9,101.8-79.2,11.3-7.5,101.8-3.8,113.2-3.8,37.7,7.5,71.7,41.5,71.7,56.6,0,11.3-3.8,139.6-3.8,139.6,0,11.3,45.3,83,45.3,105.6s-3.8,71.7-3.8,83c0,3.8,3.8,11.3,7.5,18.9,26.4,15.1,128.2,79.2,147.1,90.5,18.9,11.3,83,305.5,83,305.5l83,166s22.6-7.5,30.2-3.8c7.5,3.8,15.1,196.1,15.1,196.1h0c11.3,22.6,37.7,75.4,37.7,94.3s-18.9,37.7-41.5,52.8v11.3c0,18.9-7.5,33.9-15.1,45.3,30.2,15.1,83,41.5,83,45.3v298s-33.9,26.4-37.7,26.4-116.9-7.5-188.6-11.3c3.8,52.8,7.5,98.1,3.8,109.4-33.9,15.1-116.9,26.4-173.5,30.2-11.3,41.5-49,173.5-60.3,173.5h-22.6s-71.7,101.8-71.7,113.2c0,7.5,26.4,98.1,26.4,98.1l67.9,56.6c618.6-132,1082.5-682.7,1082.5-1339C11013.6,614.8,10398.8,0,9644.4,0Z"/><path class="cls-1" d="m9007,1173c-18.9-15.1-49-86.8-45.3-128.2,0-37.7,26.4-83,33.9-98.1,3.8-3.8,11.3-7.5,22.6-11.3l-49-769.4c-426.2,233.9-712.9,682.7-712.9,1203.2,0,580.9,362.1,1075,871.3,1274.9l-94.3-1459.7c-7.5-3.8-18.8-7.6-26.3-11.4Z"/><path class="cls-1" d="m4341.2,720.4c56.6,0,105.6,45.3,105.6,105.6,0,56.6-45.3,101.8-105.6,101.8-56.6,0-101.8-45.3-101.8-101.8,0-60.3,45.3-105.6,101.8-105.6Z"/><path class="cls-1" d="m4262,1127.8c0-15.1,11.3-30.2,30.2-30.2h98.1c15.1,0,30.2,15.1,30.2,30.2v746.8h-128.2c-15.1,0-30.2-15.1-30.2-30.2v-716.6h-.1Z"/><path class="cls-1" d="m5714.2,720.4c56.6,0,105.6,45.3,105.6,105.6,0,56.6-45.3,101.8-105.6,101.8-56.6,0-101.8-45.3-101.8-101.8-.1-60.3,41.4-105.6,101.8-105.6Z"/><path class="cls-1" d="m5635,1127.8c0-15.1,15.1-30.2,30.2-30.2h98.1c15.1,0,30.2,15.1,30.2,30.2v746.8h-128.2c-15.1,0-30.2-15.1-30.2-30.2l-.1-716.6h0Z"/><path class="cls-1" d="m5363.4,701.6h-98.1c-15.1,0-30.2,11.3-30.2,30.2v433.8c-67.9-56.6-154.6-83-237.6-83-71.7,0-135.8,18.9-188.6,49-116.9,67.9-199.9,199.9-199.9,354.5s79.2,282.9,199.9,354.5c52.8,30.2,124.5,52.8,196.1,52.8,94.3,0,177.3-30.2,241.4-86.8v41.5c0,15.1,11.3,30.2,30.2,30.2h124.5V731.7c-11.3-15.1-22.6-30.1-37.7-30.1Zm-128.2,931.6c-52.8,71.7-135.8,109.4-215,109.4-150.9,0-256.5-116.9-256.5-256.5s98.1-256.5,248.9-256.5c94.3,0,173.5,49,222.5,109.4v294.2h.1Z"/><path class="cls-1" d="m6732.6,1097.6h-94.3c-15.1,0-30.2,15.1-30.2,30.2v41.5c-71.7-60.3-154.6-86.8-245.2-86.8-71.7,0-135.8,18.9-188.6,49-116.9,67.9-199.9,199.9-199.9,354.5s79.2,282.9,199.9,354.5c52.8,30.2,124.5,52.8,196.1,52.8,94.3,0,173.5-30.2,233.9-83v41.5c0,98.1-15.1,158.4-41.5,199.9-37.7,56.6-105.6,90.5-188.6,90.5-116.9,0-184.8-52.8-241.4-120.7h0c-11.3-7.5-26.4-7.5-37.7,0l-3.8,3.8-90.5,83c49,79.2,177.3,181,377.2,181,154.6,0,271.6-71.7,335.7-192.4,30.2-60.3,45.3-139.6,45.3-256.5v-716.6c3.7-11.1-7.6-26.2-26.4-26.2Zm-128.3,535.6c-52.8,71.7-135.8,109.4-215,109.4-150.9,0-256.5-116.9-256.5-256.5s98.1-256.5,248.9-256.5c94.3,0,173.5,49,222.5,109.4v294.2h.1Z"/><path class="cls-1" d="m2383.7,1489.9c0-230.1-158.4-407.4-373.4-407.4s-381,173.5-381,407.4,177.3,407.4,403.6,407.4c158.4,0,271.6-71.7,328.1-147.1l-86.8-83c-11.3-7.5-22.6-3.8-30.2,0-3.8,3.8-7.5,7.5-7.5,7.5-41.5,41.5-101.8,83-199.9,83-135.8,0-241.4-105.6-252.7-233.9h569.5c15.1,0,30.2-11.3,30.2-26.4.1-3.8.1-7.5.1-7.5h0Zm-588.4-101.9c26.4-101.8,116.9-169.7,218.8-169.7,94.3,0,181,67.9,203.7,169.7h-422.5Z"/><path class="cls-1" d="m7698.2,1489.9c0-230.1-158.4-407.4-373.4-407.4s-381,173.5-381,407.4,177.3,407.4,403.6,407.4c158.4,0,271.6-71.7,328.1-147.1l-86.8-83c-11.3-7.5-22.6-3.8-30.2,0l-7.5,7.5c-41.5,41.5-101.8,83-199.9,83-135.8,0-245.2-105.6-252.7-233.9h569.5c15.1,0,30.2-11.3,30.2-26.4h0c.1-3.8.1-7.5.1-7.5h0Zm-588.4-101.9c26.4-101.8,116.9-169.7,218.8-169.7,94.3,0,181,67.9,203.7,169.7h-422.5Z"/><path class="cls-1" d="m1365.3,720.4c56.6,0,105.6,45.3,105.6,105.6,0,56.6-45.3,101.8-105.6,101.8-56.6,0-101.8-45.3-101.8-101.8,0-60.3,45.2-105.6,101.8-105.6Z"/><path class="cls-1" d="m1444.5,1942.5c0,105.6-15.1,169.7-49,218.8-56.6,83-150.9,128.2-256.5,128.2-33.9,0-71.7-3.8-94.3-11.3l26.4-116.9c3.8-15.1,18.9-26.4,33.9-22.6h30.2c45.3,0,94.3-18.9,120.7-56.6,22.6-26.4,30.2-67.9,30.2-139.6v-822.3c0-15.1,11.3-30.2,30.2-30.2h98.1c15.1,0,30.2,15.1,30.2,30.2v784.5l-.1,37.8h0Z"/><path class="cls-1" d="m3239.9,1218.3c-67.9-83-169.7-135.8-282.9-135.8s-192.4,52.8-233.9,90.5v-45.3c0-15.1-11.3-30.2-30.2-30.2h-90.5c-15.1,0-30.2,15.1-30.2,30.2v720.5c0,15.1,15.1,30.2,30.2,30.2h98.1c15.1,0,30.2-15.1,30.2-30.2v-505.4c45.3-56.6,120.7-109.4,222.5-109.4,64.1,0,124.5,30.2,162.2,75.4,26.4,33.9,45.3,83,45.3,181v358.4c0,15.1,11.3,30.2,30.2,30.2h128.3v-381c-3.9-135.8-30.3-215-79.3-279.1Z"/><path class="cls-1" d="m3477.5,1787.8c86.8,67.9,188.6,109.4,313.1,109.4,150.9,0,290.4-90.5,290.4-237.6,0-162.2-162.2-215-282.9-245.2-79.2-18.9-139.6-37.7-139.6-90.5,0-60.3,64.1-98.1,139.6-98.1,52.8,0,101.8,18.9,143.3,45.3h0c15.1,7.5,33.9,3.8,41.5-7.5l41.5-56.6,3.8-3.8c11.3-15.1,11.3-30.2,0-41.5l-3.8-3.8c-60.3-41.5-135.8-67.9-233.9-67.9-139.6,0-286.7,75.4-286.7,241.4,0,109.4,83,169.7,177.3,199.9,113.2,37.7,245.2,41.5,245.2,132,0,60.3-67.9,98.1-135.8,98.1s-139.6-22.6-203.7-67.9h0c-11.3-11.3-30.2-7.5-41.5,3.8l-67.8,90.5Z"/><path class="cls-1" d="m1052.2,1203.2c0-15.1-11.3-30.2-30.2-30.2h-467.6v128.2c0,15.1,15.1,26.4,30.2,26.4h301.7v298c-60.3,60.3-162.2,109.4-282.9,109.4-248.9,0-437.5-177.3-437.5-437.5s184.8-437.5,418.7-437.5c113.2,0,222.5,45.3,294.2,109.4h0c11.3,11.3,26.4,11.3,37.7,0h0l71.7-67.9h0c7.5-11.3,11.3-26.4,3.8-37.7,0,0,0-3.8-3.8-3.8h0c-101.8-98.1-248.9-158.4-403.6-158.4C252.7,701.6,0,961.9,0,1297.5s256.5,595.9,599.7,595.9c177.3,0,350.8-90.5,448.8-215v-475.2h3.7Z"/></g></svg>
