<?xml version="1.0" encoding="UTF-8"?><svg id="Layer_2" xmlns="http://www.w3.org/2000/svg" viewBox="0 0 376 123.28"><defs><style>.cls-1{fill:#000000;}</style></defs><g id="Layer_1-2"><path id="path2998" class="cls-1" d="m92.44,43.54h-43.87v13.02h31.12c-1.54,18.26-16.73,26.04-31.06,26.04-18.34,0-34.35-14.43-34.35-34.66S29.53,13.06,48.66,13.06c14.76,0,23.46,9.41,23.46,9.41l9.12-9.44S69.53,0,48.2,0C21.02,0,0,22.93,0,47.71s19.77,47.94,48.89,47.94c25.61,0,44.35-17.54,44.35-43.48,0-5.47-.79-8.63-.79-8.63h0Z"/><path id="path3000" class="cls-1" d="m128.38,34.11c-18,0-30.9,14.07-30.9,30.49s12.51,30.99,31.12,30.99c16.84,0,30.64-12.87,30.64-30.64,0-20.36-16.05-30.85-30.85-30.85h0Zm.18,12.08c8.85,0,17.24,7.16,17.24,18.69s-8.35,18.65-17.28,18.65c-9.81,0-17.55-7.86-17.55-18.74s7.64-18.6,17.59-18.6h0Z"/><path id="path3005" class="cls-1" d="m195.6,34.11c-18,0-30.9,14.07-30.9,30.49s12.51,30.99,31.12,30.99c16.84,0,30.64-12.87,30.64-30.64,0-20.36-16.05-30.85-30.85-30.85h0Zm.18,12.08c8.85,0,17.24,7.16,17.24,18.69s-8.35,18.65-17.28,18.65c-9.81,0-17.55-7.86-17.55-18.74s7.64-18.6,17.59-18.6h0Z"/><path id="path3007" class="cls-1" d="m261.52,34.14c-16.52,0-29.51,14.47-29.51,30.72,0,18.5,15.06,30.77,29.23,30.77,8.76,0,13.42-3.48,16.86-7.47v6.06c0,10.61-6.44,16.96-16.16,16.96s-14.1-6.98-15.74-10.94l-11.81,4.94c4.19,8.86,12.63,18.1,27.65,18.1,16.43,0,28.95-10.35,28.95-32.05v-55.24h-12.89v5.21c-3.96-4.27-9.38-7.06-16.58-7.06h0Zm1.2,12.05c8.1,0,16.42,6.92,16.42,18.73s-8.3,18.63-16.6,18.63c-8.81,0-17.01-7.15-17.01-18.51s8.51-18.85,17.19-18.85h0Z"/><path id="path3011" class="cls-1" d="m348.3,34.07c-15.59,0-28.68,12.4-28.68,30.7,0,19.36,14.59,30.85,30.17,30.85,13.01,0,20.99-7.12,25.75-13.49l-10.63-7.07c-2.76,4.28-7.37,8.46-15.06,8.46-8.64,0-12.62-4.73-15.08-9.32l41.22-17.1-2.14-5.01c-3.98-9.82-13.27-18.01-25.56-18.01h0Zm.54,11.82c5.62,0,9.66,2.99,11.38,6.57l-27.53,11.51c-1.19-8.91,7.25-18.07,16.15-18.07h0Z"/><path id="path3015" class="cls-1" d="m299.97,93.79h13.54V3.18h-13.54v90.61Z"/></g></svg>
