<?xml version="1.0" encoding="utf-8"?>
<!-- Generator: Adobe Illustrator 27.4.1, SVG Export Plug-In . SVG Version: 6.00 Build 0)  -->
<svg version="1.1" id="Layer_1" xmlns="http://www.w3.org/2000/svg" xmlns:xlink="http://www.w3.org/1999/xlink" x="0px" y="0px"
	 viewBox="0 0 489.1 120.5" style="enable-background:new 0 0 489.1 120.5;" xml:space="preserve">
<style type="text/css">
	.st0{fill:#000000;}
</style>
<g>
	<path class="st0" d="M402.7,117.2c-1.2,0-1.8-0.5-2.3-1.4l-10.6-17.1V115c0,1.6-0.4,2.2-2.1,2.2h-6.1c-1.7,0-2.1-0.6-2.1-2.2V67.6
		c0-3.3,1.6-3.7,6.2-4.5c1.3-0.2,3.9-1,4.1,1c0,0.3,0,0.8,0,1.3v27.4c3.5-5.7,10.2-15.4,17.3-15.4c2.8,0,2.9,2,3.3,4
		c0.1,0.6,0.3,1.6,0.3,2.4c0,3.2-3.3,3-5.4,3.9c-1.8,0.8-4,2.5-6.5,7l12.3,19.2c1.5,2.3,1.5,3.1-1.4,3.1L402.7,117.2L402.7,117.2z"
		/>
	<path class="st0" d="M369.5,117.2h-5.8c-2,0-2.5-0.3-2.5-2.2V92c0-3.9-0.4-7.6-5.7-7.6c-5.6,0-5.9,4.6-5.9,7.6v23
		c0,1.6-0.4,2.2-2.1,2.2h-6.1c-1.7,0-2.1-0.6-2.1-2.2V91.2c0-5.4,0.3-14.2,16.3-14.2c7.3,0,14.6,1.7,15.8,9.7
		c0.2,1.6,0.2,3.1,0.2,4.4V115C371.6,116.6,371.2,117.2,369.5,117.2L369.5,117.2z"/>
	<path class="st0" d="M241.2,117.9c-7.1,0-13.5-2.9-14.9-9.8c-0.1-0.4-0.1-0.9-0.1-1.4c0-2.2,2.5-2.4,4.2-2.9
		c3.9-1.1,4.7-1.5,5.4,2.9c0.4,2.4,1.7,4.6,5.5,4.6c2.8,0,4.4-1.9,4.4-4.5c0-4-6.6-6.1-9.7-7.4c-4.6-2.1-9-4.8-9-10.7
		c0-7.4,6.2-11.5,14.2-11.5c8.9,0,13.8,4.9,13.8,10c0,2.7-1,2.8-4.4,3.3c-3.8,0.5-4.1,0.2-4.9-3.2c-0.5-2.4-2-3.9-4.6-3.9
		c-2.8,0-4.3,1.4-4.3,3.9c0,2.7,2.9,4.1,5.5,5.2c6,2.7,13.5,4.8,13.5,13.1C255.7,113.1,250,117.9,241.2,117.9L241.2,117.9z"/>
	<path class="st0" d="M217.1,115.8c-2,0.8-6,2-12.6,2s-10.3-1.4-12.8-3.9c-2.9-2.9-2.9-6.6-2.9-10.4V81.4c0-3.4,4.4-3.5,6.8-3.9
		c2.8-0.5,3.5-0.5,3.5,1.8v24.2c0,3.4,0.3,7.2,5.9,7.2c1.7,0,3.4-0.3,5-1V81.7c0-3.4,4.4-3.5,6.8-3.9c2.8-0.5,3.5-0.5,3.5,1.8v31.9
		C220.3,114.3,219.5,114.8,217.1,115.8L217.1,115.8z"/>
	<path class="st0" d="M180.9,115c0,1.6-0.4,2.2-2.1,2.2h-6.4c-2,0-2.5-0.3-2.5-2.2V94.1h-15.8V115c0,1.6-0.4,2.2-2.1,2.2h-6.8
		c-1.8,0-2.1-0.7-2.1-2.2V67.7c0-2.6,2.5-3.1,4.4-3.5c0.9-0.2,1.9-0.3,3.1-0.5c3.1-0.5,3.6,0.3,3.6,2.5v19.9h15.8V67.9
		c0-2.6,2.5-3.1,4.4-3.5c0.9-0.2,1.9-0.3,3.1-0.5c3.1-0.5,3.6,0.3,3.6,2.5L180.9,115L180.9,115z"/>
	<path class="st0" d="M443,99.8h-19.4c0.1,5.5,2.6,10.8,8.4,10.8c5.4,0,6.3-4.5,8.7-4.5c1.1,0,2.1,1.2,2.9,1.9
		c1.9,1.9,2.5,2.9,0.5,4.9c-1.9,1.9-6.4,4.9-13.1,4.9c-9.4,0-17.4-5.4-17.4-20.8c0-9.8,4.6-19.8,17.3-19.8s15.4,10.7,15.4,19.3
		C446.3,99.6,444.9,99.8,443,99.8L443,99.8z M430.4,83.8c-5,0-6.5,4.5-6.8,9.4h12.8C436.4,88.7,435.9,83.8,430.4,83.8z"/>
	<path class="st0" d="M328.1,116.2c-3.6,1.2-7.2,1.9-11,1.9c-8.5,0-16.2-3.4-16.2-11.9c0-12.9,16.2-13.5,20.6-13.6v-3.8
		c0-2.1-0.2-5.2-4.5-5.2c-2.9,0-4.2,1.2-4.9,3.6c-1.1,3.7-1.2,3.7-4.9,3.2c-3.5-0.4-4.4-0.9-4.4-2.8c0-7.2,6.7-10.4,14.9-10.4
		c13.7,0,13.9,9.2,13.9,12v22.4C331.5,114.3,331.1,115.1,328.1,116.2L328.1,116.2z M321.5,98.4c-5,0.1-10.6,1.4-10.6,7.7
		c0,3.1,2,5.4,6.2,5.4c1.5,0,2.9-0.2,4.4-0.5L321.5,98.4L321.5,98.4z"/>
	<path class="st0" d="M276.5,117.8c-3.6,0-9.4-0.9-12.7-2.8c-1.8-1-1.5-3.1-1.5-4.9V67c0-3.3,1.6-3.7,6.2-4.5c3.2-0.5,4.2-0.6,4.2,2
		v15.7c2.1-1.5,5.1-3,9.1-3c9.5,0,14.5,7.8,14.5,18.4C296.2,111,287.5,117.8,276.5,117.8L276.5,117.8z M278.3,85
		c-2.5,0-4.6,1.3-5.8,2.3v22.8c0.6,0.2,2.1,0.7,4,0.7c2.6,0,9.2-1.1,9.2-13.7C285.7,88.1,282.4,85,278.3,85L278.3,85z"/>
	<path class="st0" d="M482.7,117.2h-5.8c-2,0-2.5-0.3-2.5-2.2V92c0-3.9-0.4-7.6-5.7-7.6c-5.6,0-5.9,4.6-5.9,7.6v23
		c0,1.6-0.4,2.2-2.1,2.2h-6.1c-1.7,0-2.1-0.6-2.1-2.2V91.2c0-5.4,0.3-14.2,16.3-14.2c7.3,0,14.6,1.7,15.8,9.7
		c0.2,1.6,0.2,3.1,0.2,4.4V115C484.8,116.6,484.4,117.2,482.7,117.2L482.7,117.2z"/>
</g>
<g>
	<path class="st0" d="M31.5,64.6c4.7,0.9,2.7,3.4,4.5,8.8c2.4,7.4,8.1,0.3,7.4-4.5c-0.4-2.4-2-3.5-3.7-5.3c-3.4-3.9-10.1-6-15.4-6.1
		c-5.8,0-10.2-0.7-10.6-2.7c-0.2-1.2,0.5-2.7,0.7-4.2c0.7-4.7,1.5-10.1-5.7-10.1c-4.5,0-6.3,3.2-6.3,6.4S4.6,54.7,7,55
		c2.9,0.4,2.4,2.2-0.2,4.1c-1.5,1.1-2.3,2.1-3.3,4.2C1,68.2,5.2,78.7,2.7,86.4c-1.9,6-1.4,10.4,3.7,13.6c3.8,2.3,9.3-7.6,4.8-12.2
		c-0.6-0.6-2.2-2.9-2.5-4.5c-0.9-4.9,0.9-13.8,4.9-13.8c2.9,0,5.1,3.2,2.4,9.8c-0.9,2.2,0,5.7,0.6,7.9c1,3.8,0.2,7.4-0.4,10.3
		c-1,4.6-2,7.3-4.4,7.4c-2.6,0.1-6.2,0.4-8,2.5c-1.6,1.8-1.8,4.7-1.5,6.1c0.5,3,4,4.3,10.1,3.9c2.6-0.2,5.4,0.1,7.9-0.4
		c5.1-1,5.3-3.2,4.4-10.7c-0.3-2.9-0.3-6.9-1.4-11.2c-1.9-7.8,1-15.5,3.8-13.6c5.8,4.1-2.9,15.2,3.8,17.8c2.3,0.9,4.7-1.6,6-3.3
		c2.7-3.9,4.5-9.2-0.1-9.5c-7-0.4,2.7-8.9-6-11.5C25.8,73.5,25.3,63.3,31.5,64.6L31.5,64.6z"/>
	<path class="st0" d="M83,26.2c-0.6-5-6.7-7.4-9.8-10.5c-3.2-3.2-11.6-1.8-8,3.4c1.1,1.6,1.9,1.5,4.3,1.3c3.7-0.3,7.2,7.9-2.2,5
		c-6.3-2-10.4-0.2-11.6-3.9c-1.1-3.5,9.5-5.7,5.8-13.5c-1.3-2.9-7.2-9.9-14-2.9c-5.3,5.3-5.2,10.1,0.2,12.6c4.6,2.1,0.3,4.2-2.7,3.3
		c-3-0.8-7.4-6-15-1c-3.6,2.4-5.6,4.7-9,7.2c-4.6,3.1-4.8,7.5-3.2,8.6c1.6,1.2,6.2,1,8.6-0.7c2.3-1.7-0.4-4.3,1.6-6.6
		c2.4-2.9,8.5-5.4,11.2-3.3c1.2,1,2.2,4.1,1,6.3c-1.6,2.8-3.8,4.4-7.8,6c-4.9,1.9-6.1,1.7-7.6,1.9c-2,0.2-4.6,0.7-6,3.4
		c-2.3,4.2,2,6,5.4,8.5c2.9,2.2,8.6,5.1,10.2,3.9c1.4-1,2.2-4.4-1.5-7.5c-3.6-3,1.9-4.1,6.1-6.7c2.3-1.5,4-1.8,4.9-1.8
		c3.6,0.1,5,6.3,2.7,8.3c-1.3,1.2-2.8,0.7-4.7,1.9c-6,3.8,0.3,6.9,2.2,10.5c1.8,3.4,4.3,8.5,7.5,6.2c2-1.5,1.7-3.7,1.5-5.9
		c-1-8,3.8-6.2,3.6-12.5c-0.1-2.7-3.2-4.8-3.7-7.8c-0.6-4,3.4-9.1,8.4-9.6c2.6-0.3,8.5,0.1,11.3,0.9C78.9,32.8,83.8,32.6,83,26.2
		L83,26.2z"/>
	<path class="st0" d="M106.9,61.1c0-5.4-2-6.9-5.8-8.5c-2.6-1.1-5.5-2.1-7.8,1.1c-0.7,0.9-2.5,1.7-4.4,1.7c-2.2,0-3.4-2.3-2.8-5.8
		c0.2-1.4,0.9-3,1.9-4.4c0.7-1,1.5-2,2.4-2.7c2.7-2,8.7-3.3,7.7,2.1c-0.5,2.7,2.4,4.4,4.7,5.1c3.8,1.2,4.8-5.6,2-7.5
		c-1.8-1.3-3.1-3-5-4.7c-4.5-4-10.9-5.5-13.9-1.9c-2.2,2.6-2.2,3.5-4,7.3c-1.6,3.3-6.7,4.3-5.7,1.3c0.5-1.5,1.4-7.7-3-9.4
		C71,34,68,34.3,65.7,35.4c-2.6,1.3-5.1,3.7-5,6.8c0.1,7.3,5,10,8,8c3-2,5,0.3,2.9,2c-2.2,1.7-7.8,2.2-10.9,4.9
		c-1.1,0.9-2.2,1.9-3,4.3c-0.6,1.9-0.6,3.6-1,5.4c-1.2,5.8,2.3,8.3,7,7.4c6.1-1.2,0.4-5.4,0.2-8.8c-0.2-3.6,1-5.1,3.6-5.8
		c1.4-0.4,4-0.3,4.6,1.8c0.7,2.6,0.4,4.9-0.2,7.3c-0.5,2.1-1.8,4.3-2.8,6.2c-1.3,2.4-3.1,3.7-4.2,6.1c-2,4.5,3.2,14.7,8.2,10.7
		c2.1-1.7,2.8-2.7,3.3-4.6c0.7-2,0.5-5.6-0.7-10.3c-1.1-4.3,2.7-14.5,6.3-15.8c3.2-1.2,4,1.6,5.9,3c1,0.7,3.3,1.2,5-0.7
		c7.9-8.8,5-0.5,5.4,2.5c0.4,3.7,3.8,5.1,5.7,4.5c1.2-0.4,2.2-2,2.5-3.8C107.1,62.9,106.9,62.2,106.9,61.1L106.9,61.1z"/>
	<path class="st0" d="M107.2,108.4c-0.5-9.7-0.6-12.1-2.2-16.1c-1.1-2.5-2.1-4.2-1-5.6c3.2-4,3.7-7.4,2.4-9.5
		c-2.3-3.7-6.4-5.6-9.3-4.8c-4.9,1.3-7,8.9-3.8,12.4c2.7,2.9,5.3,3,5.5,4.4c0.4,2.9-1.4,3.4-3.8,3.8c-1.6,0.3-6.1,0.2-7.2-4.6
		c-1-4.4-3.3-7-0.2-9.2c1.2-0.9,1.5-2.1,2.3-4.6c1.2-4.2,0-6.3-4.2-5.8c-6.2,0.7-6.4,5-4.9,8.7c2.9,6.7-1.9,11.2-0.2,15.3
		c2.1,5.3,11.6,6.1,14.6,9c1.4,1.3,0.8,4.1-0.4,5.4c-5.9,6.2-12.3,1-12.9-3.1c-0.8-5.6-4.7-8.6-7.4-8.2c-2.8,0.4-3.7,3.7-3.2,7.7
		c0.3,2.2,1.6,4.5,2.1,7.6c0.9,5.3,3.9,8.2,7.2,5.6C90.3,109.3,108.1,127.8,107.2,108.4L107.2,108.4z"/>
	<path class="st0" d="M65.4,110.2c2.1-3.9,2.7-7.5,0.8-8.6c-2.3-1.3-4.2,0.2-6.3,3.2c-2.7,3.9-9.1,0.2-9.4-1.9
		c-0.3-2.7,1-2.6,4.2-4.2c4.1-2,4.9,0.7,7.1,0.6c3.7-0.1,3.7-4.5,2.6-7.3c-0.5-1.3-1.2-2.1-2-2.3c-2.5-0.7-4.7,0.9-5.8,2.1
		c-3,3.1-5.9,0.9-5.5-0.8c0.2-1,2.3-2.2,3.5-3c3.4-2.4,5.1-5.5,3.5-9.1c-1.4-3.2-3.8-5.2-5.5-5.7c-2.8-0.8-5.7,0.8-7.3,2.1
		c-4.4,3.5-3.7,10-0.3,12.1c5.1,3.1-2.2,8.3-6.6,13.3c-3,3.4-8.5,9.6-5.6,13.9c2.4,3.7,6.9,3.4,8.6,2.7c2.5-1,3-2.3,5.2-3.8
		c2.4-1.7,4-2.2,7.7,2.3c1.7,2,5,2.9,7.5,0.8C63.5,115.1,63.9,113.1,65.4,110.2L65.4,110.2z"/>
</g>
</svg>
