<?xml version="1.0" encoding="utf-8"?>
<!-- Generator: Adobe Illustrator 27.4.1, SVG Export Plug-In . SVG Version: 6.00 Build 0)  -->
<svg version="1.1" id="Layer_1" xmlns="http://www.w3.org/2000/svg" xmlns:xlink="http://www.w3.org/1999/xlink" x="0px" y="0px"
	 viewBox="0 0 812 100" style="enable-background:new 0 0 812 100;" xml:space="preserve">
<style type="text/css">
	.st0{fill:#000000;}
</style>
<g id="Layer_2_1_">
	<g id="Layer_1-2">
		<path class="st0" d="M0.1,20H33c0,0,0.1,0,0.1,0.1v59.9c0,0,0,0.1-0.1,0.1H0.1C0,80,0,80,0,80.1v19.9c0,0,0,0.1,0.1,0.1h89.9
			c0,0,0.1,0,0.1-0.1V80.1c0,0,0-0.1-0.1-0.1H57.1c0,0-0.1,0-0.1-0.1V20.1c0,0,0-0.1,0.1-0.1h32.9c0,0,0.1,0,0.1-0.1V0.1
			C90,0,90,0,89.9,0H0.1C0,0,0,0,0,0.1L0.1,20C0,20,0,20,0.1,20z"/>
		<path class="st0" d="M178.1,20h35.4c0,0,0.1,0,0.1,0.1c0,0,0,0,0,0v79.9c0,0,0,0.1,0.1,0.1l0,0h24.9c0,0,0.1,0,0.1-0.1v0V20.1
			c0,0,0-0.1,0.1-0.1l0,0h35.4c0,0,0.1,0,0.1-0.1c0,0,0,0,0,0V0.1c0,0,0-0.1-0.1-0.1v0h-95.9c0,0-0.1,0-0.1,0.1c0,0,0,0,0,0
			L178.1,20C178,20,178,20,178.1,20L178.1,20z"/>
		<path class="st0" d="M544.1,100h24.9c0,0,0.1,0,0.1-0.1v0V65.1c0,0,0-0.1,0.1-0.1l0,0h42.8c0,0,0.1,0,0.1,0.1v0v34.8
			c0,0,0,0.1,0.1,0.1l0,0h25c0,0,0.1,0,0.1-0.1L637,60.1c0,0,0-0.1-0.1-0.1l0,0h-14.1c0,0,0-0.1,0-0.1c0,0,0,0,0,0
			c15.1-9.6,19.7-29.6,10.1-44.8C627,5.7,616.6,0,605.5,0h-61.4c0,0-0.1,0-0.1,0.1c0,0,0,0,0,0L544.1,100C544,100,544,100,544.1,100
			L544.1,100z M600.6,44.8L569.1,45c0,0-0.1,0-0.1-0.1c0,0,0,0,0,0V20c0,0,0-0.1,0.1-0.1h31c6.6-0.1,12.2,4.8,12.9,11.4
			c0.6,6.8-4.4,12.8-11.3,13.4C601.4,44.8,601,44.8,600.6,44.8z"/>
		<path class="st0" d="M452.9,80h-66.8c0,0-0.1,0-0.1-0.1v0V60.1c0,0,0-0.1,0.1-0.1l0,0H440c0,0,0.1,0,0.1-0.1c0,0,0,0,0,0V40.1
			c0,0,0-0.1-0.1-0.1l0,0h-53.9c0,0-0.1,0-0.1-0.1c0,0,0,0,0,0V20.1c0,0,0-0.1,0.1-0.1l0,0h66.7c0,0,0.1,0,0.1-0.1c0,0,0,0,0,0V0.1
			c0,0,0-0.1-0.1-0.1v0h-91.8c0,0-0.1,0-0.1,0.1c0,0,0,0,0,0V20h0.1v79.9c0,0,0,0.1,0.1,0.1l0,0h91.8c0,0,0.1,0,0.1-0.1v0L452.9,80
			C453,80,453,80,452.9,80L452.9,80z"/>
		<path class="st0" d="M786,0.1C786,0,786,0,786,0.1L738.1,0c0,0-0.1,0-0.1,0.1l-26,99.9c0,0,0,0.1,0,0.1c0,0,0,0,0,0H735
			c0,0,0,0,0.1,0l8.3-31.9c0,0,0,0,0.1,0h37.3c0,0,0,0,0.1,0L789,100c0,0,0,0,0.1,0h22.9c0,0,0.1,0,0.1-0.1c0,0,0,0,0,0L786,0.1z
			 M775.4,48h-26.8c0,0-0.1,0-0.1-0.1c0,0,0,0,0,0l9.3-35.9c0,0,0-0.1,0.1-0.1h8.1c0,0,0.1,0,0.1,0.1L775.4,48
			C775.5,47.9,775.5,48,775.4,48C775.4,48,775.4,48,775.4,48z"/>
	</g>
</g>
</svg>
