<?xml version="1.0" encoding="UTF-8"?><svg id="Layer_2" xmlns="http://www.w3.org/2000/svg" viewBox="0 0 578.74 189.61"><defs><style>.cls-1{fill:#000000;}</style></defs><g id="Layer_1-2"><path class="cls-1" d="m154.68,151.08c-1.62,0-3.6,1.44-12.24,1.44-56.01,0-43.08-62.98-86.46-74.39,40.03-9.04,76.56-49.5,76.56-60.84,0-9.54-7.2-16.57-14.04-16.57-2.42,0-36.12,65.16-80.45,70.24,8.65-22.29,17.07-40.87,17.07-49.53C55.1,7.38,43.04,0,35.83,0c-.72,0-1.08.18-1.08.72C34.75,41.96,0,100.12,0,123.89c0,16.21,11.16,24.49,18.01,24.49,1.08,0,1.44-.36,1.44-1.44,0-20.96,6.82-44.19,14.5-65.18,43.5,7.98,29.73,84.63,90.84,84.63,20.89,0,31.15-11.34,31.15-14.22,0-.72-.54-1.08-1.26-1.08"/><path class="cls-1" d="m576.93,92.01c-11.66,11.38-25.88,19.59-35.35,22.54,9.59-27.21,22.2-57.55,22.2-58.56,0-2.7-12.43-9.36-14.23-9.36-.44,0-1.8,2.38-3.67,6.21-4.25-3.52-10.5-7.11-17.03-7.11-21.97,0-47.72,29.53-47.72,56.72,0,19.99,10.62,27.91,21.43,27.91,7.94,0,15.05-5.37,20.63-12.08,1.54,6.98,6.78,12.08,11.78,12.08,10.98,0,43.76-27.19,43.76-36.55,0-1.08-.72-1.8-1.8-1.8m-68.6,25.57c-3.96,0-8.1-4.5-8.1-13.87,0-21.97,18.91-44.3,33.13-47.9,4.32,0,6.79,2.96,8.3,6.15-5.47,12.29-12.37,29.3-16.14,40.84-5.88,9.77-12.59,14.78-17.19,14.78"/><path class="cls-1" d="m469.08,46.64c-.19,0-1.54,2.76-3.58,7.23-4.22-3.81-11.04-8.13-18.21-8.13-19.46,0-42.22,23.14-46.85,47.85-24.24,19.98-37.25,24-46.6,24-5.84,0-14.44-2.81-14.74-16.58,3.32,2.12,7.98,3.44,13.48,3.44,17.65,0,41.05-12.97,41.05-39.25,0-8.1-18.01-19.45-26.11-19.45-16.44,0-42.48,23.72-46.88,49.36-9.92,8.18-21.11,16.31-27.65,19.38,6.46-20.82,21.61-57.08,31.39-80.97,42.31-2.69,85.82-5.89,90.68-7.22,1.98-.54,3.78-2.34,3.78-3.6,0-.9-.36-1.26-1.8-1.26-2.01,0-44.95.79-88.17,1.02,2.73-6.83,4.44-11.4,4.44-12.36,0-2.34-12.06-9.36-14.23-9.36-.46,0-4.32,8.87-9.66,21.79-12.1.01-23.72-.04-33.92-.18-40.51,0-51.32-3.24-54.74-3.24-.72,0-1.26.54-1.26,1.62,0,9.9,11.16,17.11,22.87,17.11,6.27.07,32.14-1.26,62.04-3.07-8.12,20.02-17.91,44.87-24.76,63.03-8.48,6.54-17.75,12.92-24.44,16.03,8.79-24.84,18.12-50.26,18.12-52.58,0-6.12-10.08-15.49-14.23-15.49s-18.72,7.96-31.86,17.22c1.45-4.13,2.33-6.76,2.33-6.96,0-2.34-12.42-9.36-14.23-9.36-1.55,0-9.09,19.07-20.18,48.41-9.98,8.69-20.66,16.04-28.24,19.14,8.58-26.98,22.32-57.18,22.32-58.19,0-2.34-12.42-9.36-14.22-9.36-.4,0-1.71,2.43-3.51,6.34-4.25-3.56-10.58-7.24-17.19-7.24-21.79,0-47.72,28.99-47.72,56.72,0,19.99,10.62,27.91,21.43,27.91,8.49,0,16.03-6.14,21.77-13.49.86,7.69,5.31,13.49,10.64,13.49,8.04,0,19.48-9.86,29.11-20.36-1.38,3.68-2.8,7.46-4.26,11.35,0,3.78,9.72,9,14.95,9,2.04.12,14.35-32.35,22.37-54.42,6.75-5.58,19.32-14.9,26.43-14.9,1.44,0,3.78,1.08,3.78,3.24,0,6.3-14.22,42.14-17.47,49.7,0,10.44,7.92,16.38,12.79,16.38,6.08,0,16.54-8.77,26.26-18.34-.24.67-.48,1.34-.7,1.96,0,10.44,7.92,16.38,12.79,16.38,8.07,0,22.26-14.14,33.56-26.57.7,15.5,13.46,26.57,26.76,26.57,21.92,0,41.19-16.55,52.78-28.69,0,.26-.02.52-.02.79,0,19.99,10.8,27.91,21.43,27.91,5.46,0,10.53-2.55,14.98-6.32-10.97,31.2-26.7,52.42-47.22,52.42-13.32,0-18.91-8.28-18.91-14.23,0-9.54,9.72-15.84,20.53-15.84.9,0,1.62-.36,1.62-.9,0-2.34-18.37-7.92-52.04-7.92-42.14,0-79.41,6.48-114.34,18.73-3.6,1.26-11.52,8.64-11.52,18.19,0,4.14,2.52,9,3.6,9s18.73-14.23,51.86-24.67c24.06-7.62,57.12-15.37,100.1-13.08-5.47,2.49-12.41,8.16-12.41,19.56s9.18,24.31,31.33,24.31c37.63,0,52.4-25.57,63.2-54.02,5.22-13.68,31.51-78.69,31.51-79.59,0-2.34-12.06-9.36-14.22-9.36M133.79,117.58c-3.96,0-8.1-4.5-8.1-13.87,0-21.97,18.91-44.3,33.13-47.9,4.56,0,7.06,3.29,8.54,6.65-4.26,10.14-9.39,23.34-13.03,34.05-6.51,13.92-15.03,21.06-20.53,21.06m238.05-61.76c17.47,3.06-5.04,39.97-22.69,39.97-2.85,0-6.55-.94-8.58-4.16,4.34-13.67,17.56-29.33,31.27-35.82m46.82,47.9c0-21.97,18.91-44.3,33.13-47.9,5.25,0,7.78,4.36,9.15,8.19-4.69,10.61-10.61,24.37-15.57,36.29-6.2,11.42-13.64,17.28-18.62,17.28-3.96,0-8.1-4.5-8.1-13.87"/></g></svg>
