<?xml version="1.0" encoding="UTF-8"?><svg id="Layer_2" xmlns="http://www.w3.org/2000/svg" viewBox="0 0 271.38 61.55"><defs><style>.cls-1{fill:#000000;}</style></defs><g id="Lager_1"><path class="cls-1" d="m45.05,15.66h-6.47c-2.02,0-2.27.25-4.62,2.61-1.18,1.19-20.66,20.8-20.66,20.8V6.34c0-1.1-.6-1.7-1.7-1.7H1.71c-1.1,0-1.71.61-1.71,1.7v4.4c0,1.11.6,1.71,1.71,1.71h3.62v40.37H1.72c-1.1,0-1.7.6-1.7,1.7v4.4c0,1.1.6,1.72,1.7,1.72h15.15c1.1,0,1.71-.6,1.71-1.71v-4.4c0-1.11-.61-1.72-1.71-1.72h-3.56v-3.27l7.76-7.88,13.65,16.69q1.8,2.28,4.42,2.28h5.9c1.1,0,1.7-.6,1.7-1.71v-4.4c0-1.1-.6-1.7-1.7-1.7h-4.86l-13.58-16.76,12.41-12.59h6.04c1.12,0,1.71-.55,1.71-1.64v-4.48c0-1.1-.6-1.71-1.71-1.71Z"/><path class="cls-1" d="m98.39,52.85h-3.59v-19.26c0-11.46-7.22-18.87-18.39-18.87-5.15,0-9.47,1.59-12.85,4.72v-2.04c0-1.1-.6-1.71-1.7-1.71h-9.77c-1.11,0-1.71.59-1.71,1.7v4.4c0,1.1.6,1.72,1.71,1.72h3.58v29.35h-3.58c-1.1,0-1.71.6-1.71,1.7v4.4c0,1.1.6,1.71,1.71,1.71h15.06c1.1,0,1.71-.61,1.71-1.71v-4.4c0-1.1-.6-1.7-1.71-1.7h-3.59v-17.88c0-7.35,5.16-12.68,12.28-12.68s11.06,4.49,11.06,12.03v18.53h-3.58c-1.11,0-1.71.6-1.71,1.7v4.4c0,1.1.61,1.71,1.71,1.71h15.07c1.1,0,1.71-.61,1.71-1.71v-4.4c0-1.1-.6-1.7-1.71-1.7Z"/><path class="cls-1" d="m122.87,14.78c-12.9,0-23.01,10.33-23.01,23.51s10.04,23.26,22.85,23.26,23.1-10.32,23.1-23.5-10.08-23.26-22.95-23.26Zm0,39.11c-8.29,0-14.79-6.96-14.79-15.85s6.3-15.6,14.64-15.6,14.88,6.96,14.88,15.84-6.33,15.61-14.72,15.61Z"/><path class="cls-1" d="m212.75,15.68h-15.48c-1.1,0-1.71.61-1.71,1.71v4.4c0,1.1.61,1.7,1.71,1.7h3.48l-7.38,23.84-10.44-30.37c-.29-.81-1.05-1.36-1.89-1.36h-3.09c-.86,0-1.62.54-1.9,1.36l-10.33,30.36-7.38-23.82h3.48c1.1,0,1.7-.6,1.7-1.7v-4.4c0-1.1-.6-1.71-1.7-1.71h-15.65c-1.11,0-1.71.61-1.71,1.71v4.4c0,1.1.61,1.7,1.71,1.7h3.68l12.27,36.01c.29.79,1.04,1.32,1.88,1.32h3.33c.85,0,1.61-.55,1.89-1.36l10.27-29.51,10.21,29.51c.27.81,1.04,1.36,1.89,1.36h3.34c.84,0,1.59-.54,1.88-1.32l12.27-36.02h3.67c1.11,0,1.71-.6,1.71-1.7v-4.4c0-1.1-.61-1.71-1.71-1.71Z"/><path class="cls-1" d="m234.65,52.85h-3.58V17.39c0-1.1-.61-1.71-1.71-1.71h-9.86c-1.11,0-1.71.61-1.71,1.71v4.4c0,1.1.6,1.7,1.71,1.7h3.59v29.35h-6.52c-1.1,0-1.71.6-1.71,1.7v4.4c0,1.1.6,1.71,1.71,1.71h18.08c1.11,0,1.71-.61,1.71-1.71v-4.4c0-1.1-.61-1.7-1.71-1.7Z"/><path class="cls-1" d="m269.67,37.79h-4.34c-1.11,0-1.71.6-1.71,1.7v8.34c0,2.87-2.04,5.83-5.46,5.83-4.29,0-6.12-1.79-6.12-5.96v-24.21h10.47c1.1,0,1.71-.61,1.71-1.7v-4.4c0-1.1-.61-1.71-1.71-1.71h-10.47V6.33c0-1.1-.6-1.71-1.71-1.71h-4.56c-1.11,0-1.71.61-1.71,1.71v9.36h-4.77c-1.1,0-1.71.61-1.71,1.71v4.4c0,1.1.61,1.7,1.71,1.7h4.77v24.61c0,8.07,5.28,13.28,13.44,13.28s13.87-5.04,13.87-12.86v-9.04c0-1.1-.6-1.7-1.71-1.7Z"/><circle class="cls-1" cx="226.98" cy="5" r="5"/></g></svg>
