<?xml version="1.0" encoding="UTF-8"?><svg id="Layer_2" xmlns="http://www.w3.org/2000/svg" viewBox="0 0 446.19 61.94"><defs><style>.cls-1{fill:#000000;}</style></defs><g id="Layer_1-2"><polygon class="cls-1" points="43.92 1.17 27.33 1.17 15.76 24.14 15.59 24.14 15.59 1.17 0 1.17 0 61.02 15.59 61.02 15.69 33.05 28 61.02 45.77 61.02 28.83 27.33 43.92 1.17"/><polygon class="cls-1" points="337.65 1.17 321.05 1.17 309.48 24.14 309.31 24.14 309.31 1.17 293.72 1.17 293.72 61.02 309.31 61.02 309.41 33.05 321.72 61.02 339.49 61.02 322.56 27.33 337.65 1.17"/><path class="cls-1" d="m82.49,7.17c-1.68-2.49-3.88-4.3-6.62-5.45-2.74-1.14-6.09-1.72-10.06-1.72s-7.32.57-10.06,1.72c-2.74,1.15-4.95,2.96-6.62,5.45-1.68,2.49-2.88,5.7-3.6,9.64-.73,3.94-1.09,8.7-1.09,14.29s.36,10.35,1.09,14.29c.73,3.94,1.93,7.15,3.6,9.64,1.68,2.49,3.88,4.26,6.62,5.32,2.74,1.06,6.09,1.59,10.06,1.59s7.32-.53,10.06-1.59c2.74-1.06,4.95-2.83,6.62-5.32,1.68-2.49,2.88-5.7,3.6-9.64.73-3.94,1.09-8.7,1.09-14.29s-.36-10.35-1.09-14.29c-.73-3.94-1.93-7.15-3.6-9.64Zm-11.57,33.95c-.11,2.65-.35,4.76-.71,6.33-.36,1.57-.89,2.66-1.59,3.27-.7.62-1.63.92-2.81.92s-2.11-.31-2.81-.92c-.7-.61-1.23-1.7-1.59-3.27-.36-1.56-.6-3.67-.71-6.33-.11-2.65-.17-5.99-.17-10.02s.06-7.36.17-10.02c.11-2.65.35-4.76.71-6.33.36-1.56.89-2.65,1.59-3.27.7-.61,1.63-.92,2.81-.92s2.11.31,2.81.92c.7.62,1.23,1.71,1.59,3.27.36,1.57.6,3.68.71,6.33.11,2.65.17,5.99.17,10.02s-.06,7.36-.17,10.02Z"/><path class="cls-1" d="m131.65,10.27c-1.26-2.77-3.14-4.97-5.66-6.62s-6.04-2.47-10.56-2.47h-22.63v59.85h22.63c4.53,0,8.05-.82,10.56-2.47,2.51-1.65,4.4-3.86,5.66-6.62,1.26-2.77,2.02-5.95,2.31-9.56.28-3.6.42-7.36.42-11.27s-.14-7.67-.42-11.27c-.28-3.6-1.05-6.79-2.31-9.56Zm-13.58,30.55c-.14,2.46-.45,4.36-.92,5.7-.48,1.34-1.16,2.22-2.05,2.64-.89.42-2.1.63-3.6.63h-3.1V12.41h3.1c1.51,0,2.71.21,3.6.63.89.42,1.58,1.3,2.05,2.64.47,1.34.78,3.24.92,5.7.14,2.46.21,5.7.21,9.72s-.07,7.26-.21,9.72Z"/><polygon class="cls-1" points="155.94 36.38 173.55 36.38 173.55 24.14 155.94 24.14 155.94 13.91 175.8 13.91 175.8 1.17 140.35 1.17 140.35 61.02 176.56 61.02 176.56 48.28 155.94 48.28 155.94 36.38"/><polygon class="cls-1" points="239 1.17 216.71 1.17 210.42 36.63 210.25 36.63 203.97 1.17 181.67 1.17 181.67 61.02 196.26 61.02 196.26 16.43 196.42 16.43 204.72 61.02 215.95 61.02 224.25 16.43 224.42 16.43 224.42 61.02 239 61.02 239 1.17"/><path class="cls-1" d="m275.83,1.17h-19.61l-14.33,59.85h16.34l2.02-12.48h11.55l2.02,12.48h16.6l-14.58-59.85Zm-13.6,35.13l3.71-22.89h.17l3.71,22.89h-7.58Z"/><polygon class="cls-1" points="357.91 36.38 375.52 36.38 375.52 24.14 357.91 24.14 357.91 13.91 377.78 13.91 377.78 1.17 342.32 1.17 342.32 61.02 378.53 61.02 378.53 48.28 357.91 48.28 357.91 36.38"/><path class="cls-1" d="m425.06,17.1c.02-2.29-.29-4.41-.88-6.37-.59-1.96-1.54-3.65-2.85-5.07-1.31-1.43-3.02-2.53-5.11-3.31-2.1-.78-4.62-1.17-7.59-1.17h-24.39v59.85h15.59v-23.97h2.78l10.43,23.77h17.77l-13.92-26.37c6.65-3.2,8.13-12.33,8.18-17.35Zm-25.23-4.69h3.02c2.35,0,4.04.53,5.07,1.59,1.03,1.06,1.55,2.85,1.55,5.36,0,2.12-.53,3.84-1.59,5.16-1.06,1.31-2.71,1.97-4.95,1.97h-3.1v-14.08Z"/><path class="cls-1" d="m439.72,10.18c.21-.1.41-.24.58-.44.18-.2.33-.45.45-.75.12-.31.18-.68.18-1.12,0-1.15-.37-1.94-1.11-2.36s-1.75-.63-3.05-.63h-3.04v9.19h2.24v-3.48h.78l1.95,3.48h2.48l-2.07-3.72c.19-.02.4-.07.61-.17Zm-1.53-1.65c-.24.18-.58.27-1.02.27h-1.19v-2.12h1.19c.44,0,.78.08,1.02.25s.36.43.36.77c0,.37-.12.65-.36.83Z"/><path class="cls-1" d="m443.55,3.41c-.82-.82-1.77-1.46-2.87-1.93-1.09-.47-2.27-.71-3.51-.71s-2.42.24-3.51.71c-1.09.47-2.05,1.11-2.87,1.93-.82.82-1.46,1.78-1.93,2.87-.47,1.09-.71,2.27-.71,3.51s.23,2.42.71,3.51c.47,1.09,1.11,2.05,1.93,2.86s1.77,1.44,2.87,1.9c1.09.45,2.26.68,3.51.68s2.42-.23,3.51-.68c1.09-.45,2.05-1.09,2.87-1.9s1.46-1.76,1.93-2.86c.47-1.09.71-2.26.71-3.51s-.23-2.42-.71-3.51c-.47-1.09-1.11-2.05-1.93-2.87Zm-2.03,11.12c-1.04,1.07-2.49,1.6-4.35,1.6s-3.31-.54-4.35-1.6-1.56-2.65-1.56-4.74.52-3.67,1.56-4.74c1.04-1.07,2.49-1.6,4.35-1.6s3.31.53,4.35,1.6c1.04,1.07,1.56,2.65,1.56,4.74s-.52,3.67-1.56,4.74Z"/></g></svg>
