<?xml version="1.0" encoding="utf-8"?>
<!-- Generator: Adobe Illustrator 27.4.1, SVG Export Plug-In . SVG Version: 6.00 Build 0)  -->
<svg version="1.1" id="Layer_2_00000030474330013124055330000017020067109876820666_"
	 xmlns="http://www.w3.org/2000/svg" xmlns:xlink="http://www.w3.org/1999/xlink" x="0px" y="0px" viewBox="0 0 478.8 130.6"
	 style="enable-background:new 0 0 478.8 130.6;" xml:space="preserve">
<style type="text/css">
	.st0{fill:#000000;}
</style>
<g id="Layer_1-2">
	<path class="st0" d="M259.4,1v128.6H131.5V1H259.4 M260.4,0H130.5v130.6h129.8V0L260.4,0z"/>
	<path class="st0" d="M0,0v130.6h130.6V0H0z M110.9,40.1c-4.2-2.8-10.5-4.2-14.2-4.2c-7,0-16.1,2.8-16.1,9.9c0,4.8,4.3,8.7,6.6,11
		c2.6,2.6,5.9,5.7,9.6,9.2c4.4,4.2,5.5,12.2,0.5,18.4c-5,6.3-11.5,10.2-22.3,10.2s-17.2-5.4-22.6-11.1L35.1,63.3l-9.8,29.9h-7.3
		L37.7,33H45l-9.1,27.8L70.2,33h7.6l-34,28c-0.6,0.6-0.6,0.9,0,1.7l16.5,19.3c2.2,2.6,7.2,8.2,16.4,8.2c8.3,0,14.8-7.2,14.8-13.9
		c0-4.3-5.6-8.4-11.3-14.2c-3.6-3.6-8.4-7.3-7.8-14.7c0.9-9.4,12.9-15.3,23.9-15.3c5,0,11.1,1.8,16.1,4L110.9,40.1L110.9,40.1z"/>
	<g>
		<path class="st0" d="M189.9,31.5l-17.2,8.3c-0.8,0.4-1.1,1.3-0.7,2.1c0.4,0.8,1.3,1.1,2.1,0.7l17.2-8.3c0.8-0.4,1.1-1.3,0.7-2.1
			C191.6,31.5,190.6,31.2,189.9,31.5z"/>
		<path class="st0" d="M166.7,47.6l-4.3,18.7c-0.2,0.8,0.3,1.7,1.2,1.9c0.8,0.2,1.7-0.3,1.9-1.2l4.3-18.7c0.2-0.8-0.3-1.7-1.2-1.9
			C167.7,46.3,166.9,46.8,166.7,47.6z"/>
		<path class="st0" d="M165.4,74.3c-0.7,0.5-0.8,1.5-0.2,2.2l11.9,15c0.5,0.7,1.5,0.8,2.2,0.2s0.8-1.5,0.2-2.2l-11.9-15
			C167,73.9,166,73.8,165.4,74.3z"/>
		<path class="st0" d="M184.7,93.9c0,0.9,0.7,1.6,1.6,1.6h19.1c0.9,0,1.6-0.7,1.6-1.6s-0.7-1.6-1.6-1.6h-19.1
			C185.4,92.4,184.7,93.1,184.7,93.9z"/>
		<path class="st0" d="M223.2,74.3l-11.9,15c-0.5,0.7-0.4,1.6,0.2,2.2c0.7,0.5,1.6,0.4,2.2-0.2l11.9-15c0.5-0.7,0.4-1.7-0.2-2.2
			S223.7,73.6,223.2,74.3L223.2,74.3z"/>
		<path class="st0" d="M222.1,46.6c-0.8,0.2-1.4,1-1.2,1.9l4.3,18.7c0.2,0.8,1,1.4,1.9,1.2c0.8-0.2,1.4-1,1.2-1.9l-4.3-18.7
			C223.7,46.9,222.9,46.4,222.1,46.6z"/>
		<path class="st0" d="M188.8,40.1c0.2,0,3.2,0.5,6.7,0.5s6.6-0.4,6.7-0.5c0.7-0.1,1.6-0.3,2.4-1.1c0.2-0.2,0.4-0.5,0.6-0.8
			l-2.8-1.3c0,0,0,0,0,0c-0.1,0-0.2,0.1-0.7,0.2c0,0-2.9,0.4-6.2,0.4s-6.2-0.4-6.2-0.4c-0.6-0.1-0.6-0.2-0.7-0.2
			c0,0-0.1-0.1-0.1-0.2l-2.8,1.3c0.2,0.4,0.4,0.8,0.8,1.1C187.2,39.8,188,40,188.8,40.1L188.8,40.1z"/>
		<path class="st0" d="M188.4,29.9c0-0.2,0.1-0.4,0.2-0.5c0.1,0,0.2-0.1,0.7-0.2c0,0,2.9-0.4,6.3-0.4s6.2,0.4,6.2,0.4
			c0.6,0.1,0.6,0.1,0.7,0.2c0.1,0.1,0.2,0.2,0.2,0.5v1.7l3.1,1.5v-3.2c0-1-0.4-1.9-1.1-2.6c-0.8-0.7-1.6-0.9-2.4-1.1
			c-0.2,0-3.2-0.5-6.7-0.5s-6.6,0.4-6.7,0.5c-0.7,0.1-1.6,0.3-2.4,1.1c-0.7,0.7-1.1,1.6-1.1,2.6v2.9l3.1-1.5
			C188.4,31.2,188.4,29.9,188.4,29.9z"/>
		<path class="st0" d="M164.3,48.6c-0.2-0.2-0.2-0.3-0.2-0.4c0-0.1,0-0.2,0.3-0.7c0,0,1.5-2.6,3.6-5.2s4.2-4.6,4.2-4.6
			c0.4-0.4,0.5-0.4,0.6-0.4c0.1,0,0.3,0,0.5,0.1c0,0,0.4,0.3,0.9,0.7l3.1-1.5c-1.1-0.9-2-1.6-2-1.6c-0.8-0.6-1.8-0.9-2.8-0.8
			c-1,0.1-1.7,0.6-2.3,1.2c-0.1,0.1-2.3,2.2-4.6,5c-2.2,2.8-3.8,5.4-3.8,5.5c-0.3,0.6-0.8,1.5-0.7,2.6c0.1,1,0.6,1.9,1.4,2.5
			l2.2,1.8l0.8-3.4L164.3,48.6L164.3,48.6z"/>
		<path class="st0" d="M170.2,55.9c1.1-0.1,1.7-0.6,2.3-1.2c0.1-0.1,2.3-2.2,4.6-5s3.8-5.4,3.8-5.5c0.3-0.5,0.7-1.3,0.7-2.2
			c0-0.1,0-0.2,0-0.4c-0.1-0.5-0.2-1-0.5-1.5l-2.9,1.4l0,0c0.2,0.1,0.2,0.3,0.2,0.4c0,0.1,0,0.2-0.3,0.7c0,0-1.5,2.6-3.6,5.2
			s-4.2,4.6-4.2,4.6c-0.4,0.4-0.5,0.4-0.6,0.4c-0.1,0-0.2,0-0.3,0l-0.7,3C169.3,55.9,169.8,56,170.2,55.9L170.2,55.9z"/>
		<path class="st0" d="M164.1,78.9c-0.2,0.1-0.4,0-0.5-0.1c-0.1,0-0.2-0.2-0.4-0.6c0,0-1.1-2.8-1.8-6c-0.7-3.2-1-6.2-1-6.2
			c0-0.2,0-0.3,0-0.3c0-0.3,0-0.3,0.1-0.4c0.1-0.1,0.2-0.2,0.4-0.3c0,0,0.3-0.1,0.9-0.2l0.8-3.4l-2.3,0.5c-1,0.2-1.8,0.8-2.3,1.7
			c-0.6,0.9-0.6,1.7-0.5,2.6c0,0.2,0.3,3.2,1.1,6.7c0.8,3.5,1.9,6.3,1.9,6.4c0.2,0.6,0.7,1.5,1.6,2.1c0.9,0.5,1.9,0.7,2.8,0.5
			l2.9-0.7l-2.1-2.7L164.1,78.9L164.1,78.9z"/>
		<path class="st0" d="M173.6,78.8c0.6-0.9,0.6-1.7,0.5-2.6c0-0.2-0.3-3.2-1.1-6.7c-0.8-3.5-1.9-6.3-1.9-6.4
			c-0.2-0.6-0.7-1.5-1.6-2.1c-0.5-0.3-1.1-0.5-1.7-0.5l-0.7,3.2c0.2,0,0.3-0.1,0.3-0.1c0.2,0,0.4,0,0.5,0.1c0.1,0,0.2,0.2,0.4,0.6
			c0,0,1.1,2.8,1.8,6c0.7,3.2,1,6.2,1,6.2c0,0.6,0,0.7-0.1,0.7c0,0-0.1,0.1-0.1,0.1c0.6,0.7,1.2,1.6,1.9,2.4
			C173.1,79.5,173.4,79.2,173.6,78.8L173.6,78.8z"/>
		<path class="st0" d="M193,90c-0.4-1-1-1.5-1.7-2c-0.1-0.1-2.7-1.8-5.9-3.3c-3.2-1.5-6.1-2.5-6.2-2.5c-0.6-0.2-1.6-0.4-2.6-0.1
			c-0.5,0.2-0.9,0.4-1.3,0.8c0.7,0.9,1.4,1.7,2,2.5v0c0.1-0.2,0.3-0.3,0.4-0.3c0.1,0,0.2,0,0.7,0.1c0,0,2.8,0.9,5.8,2.3
			s5.4,3.1,5.4,3.1c0.5,0.3,0.5,0.4,0.5,0.5c0,0.1,0.1,0.3,0,0.5h3.1C193.3,91,193.2,90.5,193,90L193,90z"/>
		<path class="st0" d="M187.2,97.4c-0.1,0.2-0.2,0.3-0.4,0.3c-0.1,0-0.2,0-0.7-0.1c0,0-2.8-0.9-5.8-2.3s-5.4-3.1-5.4-3.1
			c-0.5-0.3-0.5-0.4-0.5-0.5c0-0.1-0.1-0.3,0-0.5c0,0,0.2-0.4,0.5-1l-2.1-2.7l-1.1,2.4c-0.4,0.9-0.5,1.9-0.2,2.9c0.4,1,1,1.5,1.7,2
			c0.1,0.1,2.7,1.8,5.9,3.3c3.2,1.5,6.1,2.5,6.2,2.5c0.6,0.2,1.6,0.4,2.6,0.1c0.9-0.3,1.7-1,2.1-1.9l1.1-2.4h-3.4L187.2,97.4
			L187.2,97.4z"/>
		<path class="st0" d="M216.6,91c0.1,0.2,0.1,0.4,0,0.5c0,0.1-0.1,0.2-0.5,0.5c0,0-2.5,1.7-5.4,3.1c-3,1.4-5.8,2.3-5.8,2.3
			c-0.6,0.2-0.6,0.1-0.7,0.1c-0.1,0-0.3-0.1-0.4-0.3c0,0-0.2-0.3-0.4-0.8H200l1.1,2.2c0.4,0.9,1.2,1.6,2.1,1.9
			c1,0.3,1.8,0.2,2.6-0.1c0.2-0.1,3.1-1,6.3-2.5s5.7-3.2,5.8-3.3c0.6-0.4,1.4-1,1.7-2c0.3-0.9,0.3-2-0.2-2.9l-1.3-2.7l-2.1,2.7
			L216.6,91L216.6,91z"/>
		<path class="st0" d="M211.9,82c-0.2,0.1-3.1,1-6.3,2.5c-3.2,1.5-5.7,3.2-5.8,3.3c-0.6,0.4-1.4,1-1.7,2c-0.2,0.6-0.2,1.1-0.2,1.7
			h3.2c-0.1-0.1-0.1-0.2-0.1-0.2c-0.1-0.2-0.1-0.4,0-0.5c0-0.1,0.1-0.2,0.5-0.5c0,0,2.5-1.7,5.4-3.1c3-1.4,5.8-2.3,5.8-2.3
			c0.6-0.2,0.6-0.1,0.7-0.1c0,0,0.1,0,0.1,0.1l1.9-2.4c-0.3-0.2-0.7-0.4-1.1-0.6C213.5,81.6,212.7,81.7,211.9,82L211.9,82z"/>
		<path class="st0" d="M232.6,63.3c-0.5-0.8-1.4-1.4-2.3-1.7l-2.4-0.6c0.3,1.3,0.6,2.5,0.8,3.4l1,0.2c0.2,0.1,0.3,0.2,0.4,0.3
			c0,0.1,0.1,0.2,0.1,0.7c0,0-0.2,3-1,6.2c-0.7,3.2-1.8,6-1.8,6c-0.2,0.5-0.3,0.6-0.4,0.6c-0.1,0.1-0.3,0.1-0.5,0.1
			c0,0-0.6-0.1-1.3-0.3l-2.1,2.7l2.8,0.6c1,0.2,2,0.1,2.8-0.5c0.9-0.6,1.3-1.3,1.6-2.1c0.1-0.2,1.2-3,1.9-6.5s1-6.5,1.1-6.6
			C233.2,65.2,233.2,64.2,232.6,63.3L232.6,63.3z"/>
		<path class="st0" d="M219.7,76.8c0-0.1-0.1-0.2-0.1-0.7c0,0,0.2-3,1-6.2c0.7-3.2,1.8-6,1.8-6c0.2-0.5,0.3-0.6,0.4-0.6
			c0.1,0,0.3-0.1,0.5-0.1l0.1,0c-0.2-1-0.5-2-0.7-3.1c-0.6,0.1-1.1,0.2-1.6,0.5c-0.9,0.6-1.2,1.3-1.6,2.1c-0.1,0.2-1.2,3-1.9,6.5
			c-0.8,3.5-1,6.5-1,6.6c-0.1,0.7-0.1,1.7,0.5,2.6c0.2,0.4,0.6,0.7,0.9,1l1.9-2.4C219.8,76.9,219.7,76.9,219.7,76.8L219.7,76.8z"/>
		<path class="st0" d="M217.4,37.6c0.2-0.1,0.4-0.2,0.5-0.1c0.1,0,0.2,0.1,0.6,0.4c0,0,2.2,2,4.2,4.6c2.1,2.6,3.6,5.1,3.6,5.2
			c0.2,0.4,0.3,0.5,0.3,0.6c0,0,0,0,0,0c0,0.1-0.1,0.3-0.2,0.4c0,0-0.4,0.4-1.1,0.9c0.2,0.9,0.5,2.1,0.8,3.4l2.2-1.8
			c0.8-0.6,1.3-1.5,1.4-2.5c0.1-1-0.2-1.8-0.6-2.5c-0.1-0.1-1.6-2.8-3.8-5.5c-2.2-2.8-4.4-4.9-4.5-5c-0.5-0.5-1.3-1.1-2.4-1.2
			c-1-0.1-2,0.2-2.8,0.8l-2,1.6l3.1,1.5L217.4,37.6L217.4,37.6z"/>
		<path class="st0" d="M209.7,44.3c0.1,0.1,1.6,2.8,3.8,5.5c2.2,2.8,4.4,4.9,4.5,5c0.5,0.5,1.3,1.1,2.4,1.2c0.4,0,0.9,0,1.3-0.1
			c-0.2-1.1-0.5-2.1-0.7-3c-0.1,0-0.2,0-0.3,0s-0.2-0.1-0.6-0.4c0,0-2.2-2-4.2-4.6c-2.1-2.6-3.6-5.1-3.6-5.2
			c-0.3-0.5-0.3-0.6-0.3-0.7c0-0.1,0.1-0.3,0.2-0.4l0.1-0.1l-2.9-1.4c-0.3,0.5-0.5,1-0.5,1.5C208.9,42.8,209.3,43.6,209.7,44.3
			L209.7,44.3z"/>
		<path class="st0" d="M198.4,32.2c-0.4,0.8-0.1,1.7,0.7,2.1l17.2,8.3c0.8,0.4,1.7,0,2.1-0.7c0.4-0.8,0.1-1.7-0.7-2.1l-17.2-8.3
			C199.7,31.1,198.8,31.4,198.4,32.2L198.4,32.2z"/>
	</g>
	<g>
		<path class="st0" d="M290.1,33.4v11.2l11.4-11.2h3.9l-9.5,9.1l9.9,13.4h-3.8l-8.1-11.4l-3.8,3.5v7.9h-3V33.4L290.1,33.4
			L290.1,33.4z"/>
		<path class="st0" d="M319.4,36.5c-1-0.7-2.3-1.1-3.8-1.1c-0.6,0-1.2,0.1-1.9,0.2c-0.6,0.1-1.1,0.3-1.6,0.6s-0.9,0.7-1.1,1.2
			s-0.4,1.1-0.4,1.8c0,0.7,0.2,1.2,0.6,1.7c0.4,0.4,1,0.8,1.6,1c0.7,0.3,1.5,0.5,2.3,0.7s1.7,0.4,2.6,0.6c0.9,0.2,1.8,0.5,2.6,0.7
			c0.9,0.3,1.6,0.7,2.3,1.2c0.7,0.5,1.2,1.1,1.6,1.8s0.6,1.7,0.6,2.8c0,1.2-0.3,2.2-0.8,3.1s-1.2,1.5-2.1,2.1
			c-0.8,0.5-1.8,0.9-2.8,1.2c-1,0.2-2.1,0.4-3.1,0.4c-1.3,0-2.5-0.2-3.6-0.5s-2.1-0.8-3-1.4s-1.5-1.5-2-2.5c-0.5-1-0.7-2.2-0.7-3.5
			h2.8c0,0.9,0.2,1.8,0.5,2.4s0.9,1.2,1.5,1.7c0.6,0.4,1.3,0.8,2.1,1c0.8,0.2,1.6,0.3,2.5,0.3c0.7,0,1.4-0.1,2-0.2s1.3-0.3,1.8-0.7
			c0.5-0.3,1-0.7,1.3-1.2c0.3-0.5,0.5-1.2,0.5-2c0-0.8-0.2-1.4-0.6-1.9c-0.4-0.5-1-0.9-1.6-1.2c-0.7-0.3-1.5-0.5-2.3-0.7
			c-0.9-0.2-1.7-0.4-2.6-0.6s-1.8-0.4-2.6-0.7c-0.9-0.3-1.6-0.6-2.3-1s-1.2-1-1.6-1.7c-0.4-0.7-0.6-1.5-0.6-2.6
			c0-1.1,0.2-2.1,0.7-2.9c0.5-0.8,1.1-1.5,1.8-2c0.8-0.5,1.6-0.9,2.6-1.2c1-0.3,2-0.4,3-0.4c1.1,0,2.2,0.1,3.2,0.4
			c1,0.3,1.9,0.7,2.6,1.3c0.7,0.6,1.3,1.3,1.8,2.2s0.7,2,0.7,3.2h-2.8C320.9,38.4,320.3,37.2,319.4,36.5L319.4,36.5z"/>
		<path class="st0" d="M345,33.4c3.5,0,6.1,0.9,8,2.7c1.9,1.8,2.8,4.5,2.8,8.1c0,1.9-0.2,3.6-0.6,5s-1.1,2.7-2,3.7
			c-0.9,1-2,1.8-3.4,2.3c-1.4,0.5-3,0.8-4.9,0.8h-7.7V33.4L345,33.4L345,33.4z M345.2,53.4c0.3,0,0.8,0,1.3-0.1c0.5,0,1-0.2,1.6-0.4
			c0.6-0.2,1.1-0.5,1.7-0.9c0.6-0.4,1-0.9,1.5-1.5c0.4-0.7,0.8-1.5,1.1-2.4c0.3-1,0.4-2.2,0.4-3.5s-0.1-2.5-0.4-3.6s-0.7-2-1.3-2.7
			s-1.4-1.3-2.3-1.7c-1-0.4-2.1-0.6-3.5-0.6h-5v17.5L345.2,53.4L345.2,53.4z"/>
		<path class="st0" d="M359.1,36.7v-3.3h2.7v3.3H359.1z M361.8,39.7v16.3h-2.7V39.7H361.8z"/>
		<path class="st0" d="M378.2,60.5c-1.2,1.3-3.1,2-5.7,2c-0.8,0-1.5-0.1-2.3-0.2c-0.8-0.2-1.5-0.4-2.1-0.8s-1.2-0.9-1.6-1.5
			c-0.4-0.6-0.6-1.3-0.7-2.2h2.7c0,0.5,0.2,0.9,0.5,1.2c0.3,0.3,0.6,0.6,1,0.8s0.9,0.4,1.3,0.5c0.5,0.1,1,0.1,1.4,0.1
			c0.9,0,1.6-0.2,2.2-0.5s1.1-0.7,1.5-1.3c0.4-0.5,0.7-1.2,0.9-1.9s0.3-1.6,0.3-2.5v-1.1h-0.1c-0.5,1-1.2,1.8-2.1,2.2
			s-1.9,0.7-3,0.7c-1.2,0-2.3-0.2-3.2-0.7s-1.7-1-2.3-1.8s-1.1-1.6-1.4-2.6c-0.3-1-0.5-2-0.5-3.2c0-1,0.1-2,0.4-3s0.7-1.9,1.3-2.8
			s1.4-1.5,2.3-2c1-0.5,2.1-0.8,3.6-0.8c1,0,2,0.2,2.8,0.7s1.5,1.1,2,2h0v-2.3h2.5v14.9C380.1,57.2,379.4,59.2,378.2,60.5
			L378.2,60.5z M374.8,53.2c0.6-0.4,1.1-0.8,1.5-1.5c0.4-0.6,0.7-1.3,0.8-2c0.2-0.8,0.3-1.5,0.3-2.3c0-0.7-0.1-1.4-0.2-2.1
			c-0.2-0.7-0.4-1.3-0.8-1.9c-0.4-0.6-0.9-1-1.4-1.3c-0.6-0.3-1.3-0.5-2.1-0.5s-1.6,0.2-2.2,0.5c-0.6,0.3-1.1,0.8-1.5,1.3
			c-0.4,0.5-0.7,1.2-0.9,1.9s-0.3,1.5-0.3,2.2c0,0.7,0.1,1.5,0.2,2.2c0.1,0.7,0.4,1.4,0.8,2c0.4,0.6,0.8,1.1,1.4,1.5
			c0.6,0.4,1.3,0.5,2.2,0.5S374.2,53.6,374.8,53.2L374.8,53.2z"/>
		<path class="st0" d="M384.2,36.7v-3.3h2.7v3.3H384.2z M386.9,39.7v16.3h-2.7V39.7H386.9z"/>
		<path class="st0" d="M398,39.7V42h-3.2v10.1c0,0.3,0,0.6,0.1,0.8s0.1,0.3,0.3,0.4c0.1,0.1,0.4,0.2,0.6,0.2c0.3,0,0.6,0,1,0h1.2
			v2.4h-2c-0.7,0-1.3,0-1.8-0.1s-0.9-0.3-1.2-0.5c-0.3-0.2-0.5-0.6-0.7-1.1s-0.2-1.1-0.2-1.8V42h-2.8v-2.4h2.8v-4.9h2.7v4.9
			L398,39.7L398,39.7z"/>
		<path class="st0" d="M415.4,55.9c-0.5,0.3-1.1,0.4-1.9,0.4c-0.7,0-1.2-0.2-1.6-0.6s-0.6-1-0.6-1.9c-0.7,0.9-1.6,1.5-2.6,1.9
			s-2,0.6-3.2,0.6c-0.7,0-1.4-0.1-2.1-0.2s-1.2-0.4-1.7-0.8c-0.5-0.4-0.9-0.8-1.1-1.4s-0.4-1.3-0.4-2.1c0-0.9,0.2-1.7,0.5-2.3
			s0.7-1.1,1.2-1.4s1.1-0.7,1.8-0.8s1.3-0.3,2-0.5c0.7-0.2,1.4-0.3,2.1-0.3c0.7-0.1,1.2-0.2,1.8-0.3c0.5-0.1,0.9-0.3,1.2-0.6
			c0.3-0.3,0.4-0.7,0.4-1.2c0-0.6-0.1-1.1-0.3-1.4c-0.2-0.4-0.5-0.6-0.9-0.8s-0.7-0.3-1.2-0.4c-0.4-0.1-0.9-0.1-1.3-0.1
			c-1.1,0-2.1,0.2-2.8,0.7c-0.8,0.4-1.2,1.2-1.2,2.4h-2.7c0-1,0.2-1.9,0.6-2.5s0.9-1.2,1.5-1.7c0.6-0.4,1.4-0.7,2.2-0.9
			s1.7-0.3,2.6-0.3c0.7,0,1.5,0,2.2,0.2s1.4,0.3,2,0.6s1.1,0.8,1.4,1.4c0.4,0.6,0.5,1.3,0.5,2.3v8.4c0,0.6,0,1.1,0.1,1.4
			c0.1,0.3,0.3,0.4,0.7,0.4c0.2,0,0.5,0,0.8-0.1L415.4,55.9L415.4,55.9z M411,47.5c-0.3,0.2-0.8,0.4-1.3,0.5
			c-0.5,0.1-1.1,0.2-1.7,0.3s-1.2,0.2-1.8,0.2s-1.2,0.2-1.6,0.5c-0.5,0.2-0.9,0.5-1.2,0.9c-0.3,0.4-0.5,0.9-0.5,1.6
			c0,0.4,0.1,0.8,0.3,1.1s0.4,0.5,0.7,0.7c0.3,0.2,0.6,0.3,1,0.4c0.4,0.1,0.8,0.1,1.2,0.1c0.9,0,1.6-0.1,2.3-0.4
			c0.6-0.2,1.1-0.5,1.5-0.9s0.7-0.8,0.9-1.2s0.3-0.8,0.3-1.2L411,47.5L411,47.5z"/>
		<path class="st0" d="M420.7,33.4v22.5H418V33.4C418,33.4,420.7,33.4,420.7,33.4z"/>
		<path class="st0" d="M436.4,54.9c-1.2,0.9-2.8,1.4-4.6,1.4c-1.3,0-2.4-0.2-3.4-0.6s-1.8-1-2.4-1.8c-0.6-0.8-1.1-1.7-1.5-2.7
			S424,49,424,47.8c0-1.2,0.2-2.4,0.6-3.4s0.9-1.9,1.6-2.7s1.5-1.3,2.4-1.8c0.9-0.4,2-0.6,3.1-0.6c1.5,0,2.6,0.3,3.6,0.9
			s1.7,1.4,2.3,2.3s1,1.9,1.2,3s0.3,2.1,0.3,3.1h-12.2c0,0.7,0.1,1.4,0.2,2s0.5,1.2,0.9,1.7s1,0.9,1.6,1.2s1.4,0.4,2.3,0.4
			c1.1,0,2.1-0.3,2.8-0.8c0.7-0.5,1.2-1.3,1.4-2.4h2.6C438.4,52.6,437.6,54,436.4,54.9L436.4,54.9z M435.8,44.4
			c-0.2-0.6-0.6-1.1-1-1.5c-0.4-0.4-0.9-0.7-1.5-1c-0.6-0.2-1.2-0.4-1.8-0.4s-1.3,0.1-1.9,0.4s-1,0.6-1.4,1
			c-0.4,0.4-0.7,0.9-0.9,1.5c-0.2,0.6-0.4,1.2-0.4,1.8h9.4C436.1,45.6,436,45,435.8,44.4L435.8,44.4z"/>
		<path class="st0" d="M285,79.8v-2.4h2.7V75c0-1.3,0.4-2.3,1.1-3s1.9-1,3.4-1c0.2,0,0.5,0,0.9,0.1s0.6,0.1,0.9,0.2v2.3
			c-0.2-0.1-0.5-0.1-0.8-0.2c-0.3,0-0.5-0.1-0.8-0.1c-0.6,0-1.1,0.1-1.5,0.4c-0.4,0.2-0.5,0.7-0.5,1.4v2.3h3.1v2.4h-3.1v13.9h-2.7
			V79.8L285,79.8L285,79.8z"/>
		<path class="st0" d="M307.5,92.7c-1.2,0.9-2.8,1.4-4.6,1.4c-1.3,0-2.4-0.2-3.4-0.6s-1.8-1-2.4-1.8c-0.6-0.8-1.1-1.7-1.5-2.7
			c-0.3-1.1-0.5-2.2-0.5-3.4c0-1.2,0.2-2.4,0.6-3.4s0.9-1.9,1.6-2.7s1.5-1.3,2.4-1.8c0.9-0.4,2-0.6,3.1-0.6c1.5,0,2.6,0.3,3.6,0.9
			s1.7,1.4,2.3,2.3s1,1.9,1.2,3s0.3,2.1,0.3,3.1h-12.2c0,0.7,0.1,1.4,0.2,2s0.5,1.2,0.9,1.7s1,0.9,1.6,1.2s1.4,0.4,2.3,0.4
			c1.1,0,2.1-0.3,2.8-0.8c0.7-0.5,1.2-1.3,1.4-2.4h2.6C309.5,90.4,308.7,91.8,307.5,92.7L307.5,92.7z M306.9,82.2
			c-0.2-0.6-0.6-1.1-1-1.5c-0.4-0.4-0.9-0.7-1.5-1c-0.6-0.2-1.2-0.4-1.8-0.4s-1.3,0.1-1.9,0.4s-1,0.6-1.4,1s-0.7,0.9-0.9,1.5
			c-0.2,0.6-0.4,1.2-0.4,1.8h9.4C307.2,83.4,307.1,82.8,306.9,82.2L306.9,82.2z"/>
		<path class="st0" d="M315.7,71.2v22.5H313V71.2H315.7z"/>
		<path class="st0" d="M322.7,71.2v22.5H320V71.2H322.7z"/>
		<path class="st0" d="M338.4,92.7c-1.2,0.9-2.8,1.4-4.6,1.4c-1.3,0-2.4-0.2-3.4-0.6s-1.8-1-2.4-1.8c-0.6-0.8-1.1-1.7-1.5-2.7
			c-0.3-1.1-0.5-2.2-0.5-3.4c0-1.2,0.2-2.4,0.6-3.4s0.9-1.9,1.6-2.7s1.5-1.3,2.4-1.8c0.9-0.4,2-0.6,3.1-0.6c1.5,0,2.6,0.3,3.6,0.9
			s1.7,1.4,2.3,2.3s1,1.9,1.2,3s0.3,2.1,0.3,3.1h-12.2c0,0.7,0.1,1.4,0.2,2s0.5,1.2,0.9,1.7s1,0.9,1.6,1.2s1.4,0.4,2.3,0.4
			c1.1,0,2.1-0.3,2.8-0.8c0.7-0.5,1.2-1.3,1.4-2.4h2.6C340.4,90.4,339.6,91.8,338.4,92.7L338.4,92.7z M337.7,82.2
			c-0.2-0.6-0.6-1.1-1-1.5c-0.4-0.4-0.9-0.7-1.5-1c-0.6-0.2-1.2-0.4-1.8-0.4s-1.3,0.1-1.9,0.4s-1,0.6-1.4,1s-0.7,0.9-0.9,1.5
			c-0.2,0.6-0.4,1.2-0.4,1.8h9.4C338.1,83.4,338,82.8,337.7,82.2L337.7,82.2z"/>
		<path class="st0" d="M345.8,90.1c0.2,0.4,0.6,0.7,1,1c0.4,0.2,0.9,0.4,1.4,0.5c0.5,0.1,1,0.2,1.6,0.2c0.4,0,0.9,0,1.3-0.1
			s0.9-0.2,1.3-0.3s0.7-0.4,1-0.7c0.2-0.3,0.4-0.7,0.4-1.2c0-0.7-0.3-1.2-0.8-1.6c-0.5-0.4-1.2-0.7-2-0.9s-1.6-0.4-2.6-0.6
			c-0.9-0.2-1.8-0.4-2.6-0.8s-1.4-0.8-2-1.4c-0.5-0.6-0.8-1.4-0.8-2.5c0-0.8,0.2-1.5,0.5-2.1c0.4-0.6,0.8-1.1,1.4-1.4
			c0.6-0.4,1.2-0.6,2-0.8s1.4-0.3,2.2-0.3c0.9,0,1.8,0.1,2.5,0.2c0.8,0.2,1.5,0.4,2.1,0.8s1.1,0.9,1.4,1.6c0.4,0.7,0.6,1.5,0.6,2.5
			h-2.7c0-0.5-0.2-1-0.4-1.3s-0.5-0.6-0.9-0.8s-0.8-0.4-1.2-0.5c-0.4-0.1-0.9-0.1-1.3-0.1c-0.4,0-0.8,0-1.2,0.1s-0.8,0.2-1.1,0.3
			s-0.6,0.4-0.8,0.6s-0.3,0.6-0.3,1c0,0.5,0.2,0.8,0.5,1.2c0.3,0.3,0.7,0.6,1.2,0.8c0.5,0.2,1.1,0.4,1.7,0.5
			c0.6,0.1,1.3,0.3,1.9,0.4c0.7,0.2,1.3,0.3,2,0.5s1.2,0.5,1.7,0.8c0.5,0.3,0.9,0.8,1.2,1.3c0.3,0.5,0.5,1.2,0.5,1.9
			c0,1-0.2,1.8-0.6,2.5c-0.4,0.7-1,1.2-1.6,1.6c-0.7,0.4-1.4,0.7-2.2,0.8c-0.8,0.2-1.6,0.2-2.5,0.2c-0.9,0-1.8-0.1-2.6-0.3
			c-0.8-0.2-1.5-0.5-2.2-0.9s-1.1-1-1.5-1.7s-0.6-1.6-0.6-2.6h2.7C345.4,89.2,345.6,89.7,345.8,90.1L345.8,90.1z"/>
		<path class="st0" d="M366.5,77.5v2.4h-3.2v10.1c0,0.3,0,0.6,0.1,0.8s0.1,0.3,0.3,0.4c0.1,0.1,0.4,0.2,0.6,0.2c0.3,0,0.6,0.1,1,0.1
			h1.2v2.4h-2c-0.7,0-1.3-0.1-1.8-0.1s-0.9-0.3-1.2-0.5c-0.3-0.2-0.5-0.6-0.7-1.1s-0.2-1.1-0.2-1.8V79.8h-2.8v-2.4h2.8v-4.9h2.7v4.9
			L366.5,77.5L366.5,77.5z"/>
		<path class="st0" d="M371.2,98.9c-0.7,0.7-1.6,1-2.9,1c-0.5,0-0.9,0-1.4-0.1v-2.3c0.1,0,0.2,0,0.3,0.1c0.1,0,0.1,0,0.2,0h0.6
			c0.6,0,1-0.2,1.2-0.5c0.2-0.3,0.3-0.9,0.3-1.8V77.4h2.7v18.3C372.3,97.2,372,98.3,371.2,98.9L371.2,98.9z M369.6,74.5v-3.3h2.7
			v3.3H369.6z"/>
		<path class="st0" d="M388,92.7c-1.2,0.9-2.8,1.4-4.6,1.4c-1.3,0-2.4-0.2-3.4-0.6s-1.8-1-2.4-1.8c-0.6-0.8-1.1-1.7-1.5-2.7
			c-0.3-1.1-0.5-2.2-0.5-3.4c0-1.2,0.2-2.4,0.6-3.4s0.9-1.9,1.6-2.7s1.5-1.3,2.4-1.8c0.9-0.4,2-0.6,3.1-0.6c1.5,0,2.6,0.3,3.6,0.9
			s1.7,1.4,2.3,2.3s1,1.9,1.2,3s0.3,2.1,0.3,3.1h-12.2c0,0.7,0.1,1.4,0.2,2s0.5,1.2,0.9,1.7s1,0.9,1.6,1.2s1.4,0.4,2.3,0.4
			c1.1,0,2.1-0.3,2.8-0.8c0.7-0.5,1.2-1.3,1.4-2.4h2.6C390,90.4,389.2,91.8,388,92.7L388,92.7z M387.3,82.2c-0.2-0.6-0.6-1.1-1-1.5
			c-0.4-0.4-0.9-0.7-1.5-1c-0.6-0.2-1.2-0.4-1.8-0.4s-1.3,0.1-1.9,0.4s-1,0.6-1.4,1s-0.7,0.9-0.9,1.5c-0.2,0.6-0.4,1.2-0.4,1.8h9.4
			C387.7,83.4,387.6,82.8,387.3,82.2L387.3,82.2z"/>
		<path class="st0" d="M395.9,77.5V80h0.1c1.1-2,2.9-3,5.3-3c1.1,0,2,0.2,2.7,0.4c0.7,0.3,1.3,0.7,1.7,1.2c0.4,0.5,0.8,1.2,0.9,1.9
			s0.3,1.5,0.3,2.4v10.7h-2.7v-11c0-1-0.3-1.8-0.9-2.4c-0.6-0.6-1.4-0.9-2.4-0.9c-0.8,0-1.5,0.1-2.1,0.4s-1.1,0.6-1.5,1.1
			s-0.7,1-0.9,1.6s-0.3,1.3-0.3,2v9.2h-2.7V77.5L395.9,77.5L395.9,77.5z"/>
		<path class="st0" d="M422.4,92.7c-1.2,0.9-2.8,1.4-4.6,1.4c-1.3,0-2.4-0.2-3.4-0.6s-1.8-1-2.4-1.8c-0.6-0.8-1.1-1.7-1.5-2.7
			c-0.3-1.1-0.5-2.2-0.5-3.4c0-1.2,0.2-2.4,0.6-3.4s0.9-1.9,1.6-2.7s1.5-1.3,2.4-1.8c0.9-0.4,2-0.6,3.1-0.6c1.5,0,2.6,0.3,3.6,0.9
			s1.7,1.4,2.3,2.3s1,1.9,1.2,3s0.3,2.1,0.3,3.1h-12.2c0,0.7,0.1,1.4,0.2,2s0.5,1.2,0.9,1.7s1,0.9,1.6,1.2s1.4,0.4,2.3,0.4
			c1.1,0,2.1-0.3,2.8-0.8c0.7-0.5,1.2-1.3,1.4-2.4h2.6C424.4,90.4,423.6,91.8,422.4,92.7L422.4,92.7z M421.8,82.2
			c-0.2-0.6-0.6-1.1-1-1.5c-0.4-0.4-0.9-0.7-1.5-1c-0.6-0.2-1.2-0.4-1.8-0.4s-1.3,0.1-1.9,0.4s-1,0.6-1.4,1s-0.7,0.9-0.9,1.5
			c-0.2,0.6-0.4,1.2-0.4,1.8h9.4C422.1,83.4,422,82.8,421.8,82.2L421.8,82.2z"/>
		<path class="st0" d="M429.8,90.1c0.2,0.4,0.6,0.7,1,1c0.4,0.2,0.9,0.4,1.4,0.5c0.5,0.1,1,0.2,1.6,0.2c0.4,0,0.9,0,1.3-0.1
			s0.9-0.2,1.3-0.3s0.7-0.4,1-0.7c0.2-0.3,0.4-0.7,0.4-1.2c0-0.7-0.3-1.2-0.8-1.6c-0.5-0.4-1.2-0.7-2-0.9s-1.6-0.4-2.6-0.6
			c-0.9-0.2-1.8-0.4-2.6-0.8s-1.4-0.8-2-1.4c-0.5-0.6-0.8-1.4-0.8-2.5c0-0.8,0.2-1.5,0.5-2.1c0.4-0.6,0.8-1.1,1.4-1.4
			c0.6-0.4,1.2-0.6,2-0.8s1.4-0.3,2.2-0.3c0.9,0,1.8,0.1,2.5,0.2c0.8,0.2,1.5,0.4,2.1,0.8s1.1,0.9,1.4,1.6c0.4,0.7,0.6,1.5,0.6,2.5
			h-2.7c0-0.5-0.2-1-0.4-1.3s-0.5-0.6-0.9-0.8s-0.8-0.4-1.2-0.5c-0.4-0.1-0.9-0.1-1.3-0.1c-0.4,0-0.8,0-1.2,0.1s-0.8,0.2-1.1,0.3
			s-0.6,0.4-0.8,0.6s-0.3,0.6-0.3,1c0,0.5,0.2,0.8,0.5,1.2c0.3,0.3,0.7,0.6,1.2,0.8c0.5,0.2,1.1,0.4,1.7,0.5
			c0.6,0.1,1.3,0.3,1.9,0.4c0.7,0.2,1.3,0.3,2,0.5s1.2,0.5,1.7,0.8c0.5,0.3,0.9,0.8,1.2,1.3c0.3,0.5,0.5,1.2,0.5,1.9
			c0,1-0.2,1.8-0.6,2.5c-0.4,0.7-1,1.2-1.6,1.6c-0.7,0.4-1.4,0.7-2.2,0.8c-0.8,0.2-1.6,0.2-2.5,0.2c-0.9,0-1.8-0.1-2.6-0.3
			c-0.8-0.2-1.5-0.5-2.2-0.9s-1.1-1-1.5-1.7s-0.6-1.6-0.6-2.6h2.7C429.4,89.2,429.6,89.7,429.8,90.1L429.8,90.1z"/>
		<path class="st0" d="M450.5,77.5v2.4h-3.2v10.1c0,0.3,0,0.6,0.1,0.8s0.1,0.3,0.3,0.4c0.1,0.1,0.4,0.2,0.6,0.2c0.3,0,0.6,0.1,1,0.1
			h1.2v2.4h-2c-0.7,0-1.3-0.1-1.8-0.1s-0.9-0.3-1.2-0.5c-0.3-0.2-0.5-0.6-0.7-1.1s-0.2-1.1-0.2-1.8V79.8h-2.8v-2.4h2.8v-4.9h2.7v4.9
			L450.5,77.5L450.5,77.5z"/>
		<path class="st0" d="M465,92.7c-1.2,0.9-2.8,1.4-4.6,1.4c-1.3,0-2.4-0.2-3.4-0.6s-1.8-1-2.4-1.8c-0.6-0.8-1.1-1.7-1.5-2.7
			c-0.3-1.1-0.5-2.2-0.5-3.4c0-1.2,0.2-2.4,0.6-3.4s0.9-1.9,1.6-2.7s1.5-1.3,2.4-1.8c0.9-0.4,2-0.6,3.1-0.6c1.5,0,2.6,0.3,3.6,0.9
			s1.7,1.4,2.3,2.3s1,1.9,1.2,3s0.3,2.1,0.3,3.1h-12.2c0,0.7,0.1,1.4,0.2,2s0.5,1.2,0.9,1.7s1,0.9,1.6,1.2s1.4,0.4,2.3,0.4
			c1.1,0,2.1-0.3,2.8-0.8c0.7-0.5,1.2-1.3,1.4-2.4h2.6C467,90.4,466.2,91.8,465,92.7L465,92.7z M464.3,82.2c-0.2-0.6-0.6-1.1-1-1.5
			c-0.4-0.4-0.9-0.7-1.5-1c-0.6-0.2-1.2-0.4-1.8-0.4s-1.3,0.1-1.9,0.4s-1,0.6-1.4,1s-0.7,0.9-0.9,1.5c-0.2,0.6-0.4,1.2-0.4,1.8h9.4
			C464.7,83.4,464.6,82.8,464.3,82.2L464.3,82.2z"/>
		<path class="st0" d="M472.8,77.5v3.4h0.1c0.6-1.3,1.5-2.3,2.4-2.9s2.1-0.9,3.6-0.9v2.8c-1.1,0-2,0.2-2.7,0.4
			c-0.8,0.3-1.4,0.7-1.8,1.3s-0.8,1.3-1,2.1c-0.2,0.8-0.3,1.7-0.3,2.8v7.2h-2.7V77.4L472.8,77.5L472.8,77.5z"/>
	</g>
</g>
</svg>
