<?xml version="1.0" encoding="UTF-8"?><svg id="Layer_2" xmlns="http://www.w3.org/2000/svg" viewBox="0 0 439.33 141.74"><defs><style>.cls-1{fill:#000000;}</style></defs><g id="Layer_1-2"><rect class="cls-1" x="217.27" y="5.66" width="24.89" height="134.15"/><path class="cls-1" d="m377.11,111.85c6.32,5.67,16.08,9.07,25.46,9.07,6.7,0,11.87-3.21,11.87-7.75,0-13.79-44.99-8.88-44.99-38.36,0-17.57,17.23-28.53,35.61-28.53,12.06,0,25.27,4.53,31.39,9.26l-11.67,17.76c-4.79-3.4-11.11-6.23-17.81-6.23s-12.63,2.65-12.63,7.37c0,11.9,44.99,7.18,44.99,38.92,0,17.57-17.42,28.34-36.95,28.34-12.83,0-26.42-4.34-37.33-12.28l12.06-17.57Z"/><path class="cls-1" d="m67,48.91c-23.31,0-41.13-18.8-41.13-41.35H0v132.26h25.84V57.37c.37.94,1.49,1.91,2.07,2.37,10.47,8.17,23.82,13.01,39.09,13.01s28.62-4.84,39.09-13.01c.58-.45,1.7-1.42,2.07-2.37v82.45h25.84V7.56h-25.87c0,22.55-17.82,41.35-41.13,41.35"/><path class="cls-1" d="m326.77,82.22c-.77-8.12-8.23-16.06-18.38-16.06s-18.76,7.74-19.91,16.06h38.29Zm23.16,43.08c-9,10.58-23.74,16.44-38.1,16.44-27.76,0-48.62-18.89-48.62-47.61,0-25.51,17.61-47.8,45.17-47.8,25.65,0,43.84,21.35,43.84,46.86,0,2.46-.19,4.91-.57,6.99h-64.32c1.34,12.85,11.87,21.73,25.08,21.73,10.53,0,18.95-5.86,23.35-10.58l14.17,13.98Z"/><path class="cls-1" d="m188.56,139.82h-24.88V48.18h24.88v91.64ZM176.11,0c9,0,16.27,6.8,16.27,15.68s-7.27,15.68-16.27,15.68-16.27-6.8-16.27-15.68,7.27-15.68,16.27-15.68"/></g></svg>
