<?xml version="1.0" encoding="UTF-8"?><svg id="Layer_2" xmlns="http://www.w3.org/2000/svg" viewBox="0 0 78.73 23.31"><defs><style>.cls-1{fill:#000000;}</style></defs><g id="Layer_1-2"><path class="cls-1" d="m78.09,0h-8.19s-.56,0-.76.5l-4.53,13.88L60.07.5c-.2-.5-.77-.5-.77-.5h-15.75c-.34,0-.63.29-.63.63v4.71c0-3.74-3.98-5.34-6.31-5.34-5.22,0-8.71,3.44-9.8,8.66-.06-3.46-.35-4.7-1.28-5.98-.43-.62-1.05-1.15-1.72-1.58-1.39-.81-2.64-1.1-5.32-1.1h-3.15s-.57,0-.77.5l-2.86,7.1V.63c0-.34-.28-.63-.62-.63H3.81s-.56,0-.77.5L.06,7.88s-.3.74.38.74h2.8v14.07c0,.35.27.63.63.63h7.22c.34,0,.62-.28.62-.63v-14.07h2.81c1.62,0,1.96.04,2.59.34.38.14.72.43.91.77.38.72.48,1.58.48,4.12v8.85c0,.35.28.63.63.63h6.92s.78,0,1.09-.77l1.53-3.79c2.04,2.86,5.4,4.57,9.57,4.57h.91s.79,0,1.1-.77l2.67-6.62v6.76c0,.35.29.63.63.63h7.07s.78,0,1.09-.77c0,0,2.83-7.02,2.84-7.07h0c.11-.58-.63-.58-.63-.58h-2.52V2.85l7.93,19.69c.31.77,1.09.77,1.09.77h8.35s.79,0,1.09-.77L78.67.76c.31-.76-.58-.76-.58-.76Zm-35.16,14.89h-4.75c-1.89,0-3.43-1.53-3.43-3.42s1.54-3.43,3.43-3.43h1.33c1.89,0,3.42,1.54,3.42,3.43v3.42Z"/></g></svg>
