<?xml version="1.0" encoding="utf-8"?>
<!-- Generator: Adobe Illustrator 27.4.1, SVG Export Plug-In . SVG Version: 6.00 Build 0)  -->
<svg version="1.1" id="Layer_1" xmlns="http://www.w3.org/2000/svg" xmlns:xlink="http://www.w3.org/1999/xlink" x="0px" y="0px"
	 viewBox="0 0 2112.5 350" style="enable-background:new 0 0 2112.5 350;" xml:space="preserve">
<style type="text/css">
	.st0{fill:#000000;}
</style>
<g>
	<g>
		<g>
			<g>
				<path class="st0" d="M273.4,10.7L259.6,150l-62.7-62.7L273.4,10.7 M17.2,83.1L226.7,171l-121.5,0L17.2,83.1 M97.2,186.9
					L69,341.8L5.7,278.5L97.2,186.9 M262.8,196.9l76.5,76.5L200,259.6L262.8,196.9 M278.5,0l-87.2,87.2l71.5,71.5L278.5,0L278.5,0z
					 M0,71.5L103.5,175l143.1,0L0,71.5L0,71.5z M103.5,175L0,278.5L71.5,350L103.5,175L103.5,175z M262.8,191.2l-71.5,71.5
					L350,278.5L262.8,191.2L262.8,191.2z"/>
			</g>
			<path class="st0" d="M0,71.5L246.5,175L71.5,0L0,71.5z M71.5,350l175-175l-143.1,0L71.5,350z M278.5,0l-15.7,158.8L350,71.5
				L278.5,0z M278.5,350l71.5-71.5l-158.8-15.7L278.5,350z"/>
		</g>
	</g>
	<path class="st0" d="M1159,135.1h-48.3l-50,65.3V71.9h-40.6v208.6h40.6v-67.8l51.3,67.8h49.7l-59.3-74.1L1159,135.1z M1200.1,111.5
		h55.2v169.1h42.6V111.5h50.7V71.9h-148.5V111.5z M706.3,131.2c-39.8,0-71.4,27.5-71.4,76.6c0,49.1,31.6,76.6,71.4,76.6
		c39.3,0,71.6-27.5,71.6-76.6C778,158.7,745.9,131.2,706.3,131.2z M706.3,248.7c-15.6,0-30.5-9.3-30.5-40.9
		c0-31.6,14.8-41.5,30.5-41.5c15.6,0,31,12.1,31,41.5C737.4,239.9,722,248.7,706.3,248.7z M968.7,194.6l-25-8.8
		c-10.2-3.3-14.5-7.4-14.5-13.7c0-7.7,6-12.6,15.6-12.6c12.1,0,19.2,6,22.5,19.2l32.1-10.2c-6.6-25-24.7-37.3-54.4-37.3
		c-32.4,0-53.5,17.8-53.5,44.7c0,19.2,11.5,33.8,32.4,41.5l24.4,9.1c8.5,2.7,15.4,6.9,15.4,14.8c0,8.5-7.1,14.8-17.8,14.8
		c-12.6,0-23.1-8.8-26.6-22.8l-32.1,10.4c7.1,26.6,27.5,40.6,58.7,40.6c34.6,0,57.6-19.8,57.6-49.7
		C1003.6,216.6,991.2,202.3,968.7,194.6z M1365.8,280.6h40.6V135.1h-40.6V280.6z M830.4,151l-6.9-15.9h-27.5v145.5h40.6V170.5h42.8
		v-39.3h-3.3C857.6,131.2,843.9,138.1,830.4,151z M575.2,192.4l-112.3-123h-14v211.1h39.5V160.3l112,122.7h14.3V71.9h-39.5V192.4z
		 M1901.2,131.2c-21.1,0-36.2,8.2-45.3,22l-6.6-18.1h-25.5v145.5h40.6v-84.8c0-16.5,9.1-28,25.5-28c13.7,0,20,7.1,20,20.9v92h40.6
		V177.9C1950.6,148.2,1930.3,131.2,1901.2,131.2z M1776,70.6c-14,0-25.3,11.3-25.3,25.3c0,14,11.3,25.5,25.3,25.5
		c14,0,25.5-11.5,25.5-25.5C1801.5,81.8,1790,70.6,1776,70.6z M2112.5,131.2h-4.1c-14.3,0-23.6,3.6-33.8,14.3
		c-10.2-9.1-25-14.3-42.8-14.3c-35.4,0-58.7,20-58.7,50.8c0,16.5,6.9,30.2,18.7,39c-13.5,5.8-20.3,15.4-20.3,28.3
		c0,10.2,4.1,18.4,12.1,23.6c-12.9,6-20.6,16.2-20.6,28.8c0,25.8,24.2,40.4,67.5,40.4c47.2,0,76.3-19.2,76.3-50
		c0-27.7-19.8-43.6-54.6-43.9h-33.8c-9.6,0-13.7-2.7-13.7-8.8c0-4.1,2.5-7.1,7.7-8.8c5.8,1.4,12.4,2.2,19.5,2.2
		c35.4,0,58.7-20.3,58.7-50.8c0-5.5-0.8-10.4-2.2-15.4h24.2V131.2z M2010.1,279.7h34.6c14.3,0,20.6,4.7,20.6,14.8
		c0,11.3-11.3,17.3-32.7,17.3c-19.5,0-30.2-6-30.2-17C2002.4,288.8,2005.1,283.3,2010.1,279.7z M2031.7,203.1
		c-13.2,0-21.4-8.2-21.4-21.4c0-13.2,8.5-21.4,22-21.4c13.2,0,20.9,8,20.9,21.4C2053.2,194.9,2045.2,203.1,2031.7,203.1z
		 M1386.1,70.6c-14,0-25.3,11.3-25.3,25.3c0,14,11.3,25.5,25.3,25.5c14,0,25.5-11.5,25.5-25.5C1411.7,81.8,1400.1,70.6,1386.1,70.6z
		 M1513,131.2c-20.9,0-36.2,9.1-45.8,25l-7.7-21.1H1434v203.1h40.6v-70.8c9.6,10.7,22.8,17,38.7,17c39.5,0,64-27.7,64-76.6
		C1577.3,158.9,1553.1,131.2,1513,131.2z M1505.6,248.7c-18.9,0-33.2-16.2-33.2-40.9c0-25,14.3-41.5,33.2-41.5
		c17.8,0,30.7,15.6,30.7,41.5C1536.4,235,1524.6,248.7,1505.6,248.7z M1755.7,280.6h40.6V135.1h-40.6V280.6z M1673.4,131.2
		c-20.9,0-36.2,9.1-45.8,25l-7.7-21.1h-25.5v203.1h40.6v-70.8c9.6,10.7,22.8,17,38.7,17c39.5,0,64-27.7,64-76.6
		C1737.7,158.9,1713.5,131.2,1673.4,131.2z M1666,248.7c-18.9,0-33.2-16.2-33.2-40.9c0-25,14.3-41.5,33.2-41.5
		c17.8,0,30.7,15.6,30.7,41.5C1696.8,235,1685,248.7,1666,248.7z"/>
</g>
</svg>
