<?xml version="1.0" encoding="utf-8"?>
<!-- Generator: Adobe Illustrator 27.4.1, SVG Export Plug-In . SVG Version: 6.00 Build 0)  -->
<svg version="1.1" id="Layer_1" xmlns="http://www.w3.org/2000/svg" xmlns:xlink="http://www.w3.org/1999/xlink" x="0px" y="0px"
	 viewBox="0 0 375.5 108.5" style="enable-background:new 0 0 375.5 108.5;" xml:space="preserve">
<style type="text/css">
	.st0{enable-background:new    ;}
	.st1{fill:#000000;}
</style>
<g id="Page-1">
	<g id="Group-Copy" transform="translate(-5.3086, -15.668)">
		<g class="st0">
			<path class="st1" d="M5.1,17.6h9.5l23.4,37.9h0.1V17.6h8.6V69h-9.5L13.9,31.2h-0.2V69H5.1V17.6z"/>
			<path class="st1" d="M61.6,36.2c3.3-3.6,7.9-5.4,13.8-5.4s10.5,1.8,13.8,5.4s5,8.3,5,14.2c0,5.9-1.7,10.6-5,14.2S81.2,70,75.4,70
				s-10.5-1.8-13.8-5.4s-5-8.4-5-14.2C56.6,44.6,58.2,39.8,61.6,36.2z M67.5,59.6c1.8,2.6,4.4,3.9,7.9,3.9s6.1-1.3,7.9-3.9
				s2.7-5.7,2.7-9.3c0-3.6-0.9-6.6-2.7-9.2s-4.4-3.9-7.9-3.9s-6.1,1.3-7.9,3.9s-2.7,5.7-2.7,9.2C64.8,54,65.7,57.1,67.5,59.6z"/>
			<path class="st1" d="M108.2,31.8l9.5,28.6h0.1l9.1-28.6h8.5L122.1,69h-9.2L99.3,31.8H108.2z"/>
			<path class="st1" d="M141.5,53.5c0.8-1.5,1.9-2.7,3.5-3.4s3-1.3,4.4-1.7s3.1-0.6,5.3-0.9c0.8-0.1,1.9-0.3,3.4-0.5
				s2.5-0.3,3.2-0.5s1.5-0.4,2.3-0.7s1.4-0.8,1.8-1.4s0.5-1.4,0.5-2.3c0-3.4-2.6-5-7.7-5c-2.4,0-4.3,0.5-5.7,1.5s-2.3,2.5-2.4,4.4
				h-8.2c0.3-4.4,2-7.6,5.2-9.5s7.1-2.9,11.8-2.9c4.1,0,7.6,0.9,10.5,2.7s4.4,4.5,4.4,8.1v19.1c0,1,0.1,1.7,0.4,2.2s0.8,0.7,1.5,0.7
				c0.8,0,1.4,0,2-0.1v5.7c-1.8,0.6-3.5,0.9-5.2,0.9c-3.7,0-5.8-1.5-6.3-4.5c-1.5,1.5-3.5,2.6-5.9,3.4s-4.7,1.2-7,1.2
				c-3.6,0-6.6-1-9.1-2.9s-3.7-4.6-3.7-8C140.3,56.9,140.7,55.1,141.5,53.5z M150.9,62.4c1.6,0.8,3.3,1.1,5.2,1.1
				c2.2,0,4.3-0.6,6.3-1.8s3-2.9,3-5.3v-6.1c-0.8,0.5-1.7,0.8-2.7,1.1s-2.4,0.5-4,0.7s-2.8,0.3-3.4,0.4c-2.1,0.3-3.7,0.9-4.9,1.9
				s-1.8,2.4-1.8,4.3C148.5,60.4,149.3,61.6,150.9,62.4z"/>
			<path class="st1" d="M184.4,31.8h7.7V39h0.1c0.5-2.1,1.8-3.9,4-5.6c2.2-1.7,4.5-2.5,6.9-2.5c0.6,0,1.7,0.1,3.1,0.2v7.9
				c-1.9-0.2-3.1-0.4-3.5-0.4c-2.9,0-5.3,1.1-7.2,3.4c-1.9,2.2-2.8,5.4-2.8,9.4V69h-8.2V31.8z"/>
			<path class="st1" d="M211.9,17.6h8.2v7.8h-8.2V17.6z M211.9,31.8h8.2V69h-8.2V31.8z"/>
		</g>
		<g class="st0">
			<path class="st1" d="M264.7,17.6h9V69h-9V17.6z"/>
			<path class="st1" d="M286.7,17.6h9V41l22.9-23.4h11.1l-20.5,20.5L331.1,69h-11.2l-16.8-24.5l-7.3,7.2V69h-9V17.6z"/>
			<path class="st1" d="M343.9,51.9c0,3.8,1.2,6.5,3.6,8.3s5.5,2.7,9.4,2.7c3.7,0,6.4-0.8,8.2-2.3s2.7-3.3,2.7-5.5
				c0-3.2-1.4-5.3-4.3-6.3c-1.1-0.4-2.3-0.8-3.7-1.2s-3.3-0.9-5.6-1.5s-4.3-1.1-6-1.6c-7.6-2.1-11.4-6.4-11.4-13
				c0-3.3,0.9-6.1,2.8-8.4s4.2-4.1,7-5.1s5.8-1.6,9-1.6c5.6,0,10.3,1.5,14.1,4.4s5.7,6.9,5.7,12.1h-9c-0.4-6-4.1-9.1-11.1-9.1
				c-2.5,0-4.7,0.5-6.6,1.6s-2.8,2.8-2.8,5.1c0,3.3,2,5.5,6.1,6.6c0,0,1.2,0.3,3.4,0.8l6.8,1.8c2.3,0.6,3.9,1.1,4.6,1.3
				c3.2,1,5.7,2.7,7.4,5.2s2.6,5.1,2.6,8c0,3.7-1,6.7-3.1,9.3s-4.6,4.3-7.5,5.3s-6.3,1.5-9.8,1.5c-6.2,0-11.3-1.5-15.3-4.6
				s-6-7.7-6.1-13.7H343.9z"/>
		</g>
		<g class="st0">
			<path class="st1" d="M35.3,101.8v-2.8H44v2.8H35.3z"/>
		</g>
		<g class="st0">
			<path class="st1" d="M35.3,101.8v-2.8H44v2.8H35.3z"/>
		</g>
		<g class="st0">
			<path class="st1" d="M68.1,91.4v2.7h-3.7v11.6c0,0.4,0,0.6,0.1,0.9c0.1,0.2,0.2,0.4,0.3,0.5c0.2,0.1,0.4,0.2,0.7,0.2
				c0.3,0,0.7,0.1,1.2,0.1h1.4v2.7h-2.3c-0.8,0-1.5-0.1-2-0.2c-0.6-0.1-1-0.3-1.4-0.6c-0.3-0.3-0.6-0.7-0.8-1.2
				c-0.2-0.5-0.3-1.2-0.3-2.1V94.1h-3.2v-2.7h3.2v-5.6h3.1v5.6H68.1z"/>
			<path class="st1" d="M72.7,88v-3.7h3.1V88H72.7z M75.7,91.4V110h-3.1V91.4H75.7z"/>
			<path class="st1" d="M95.1,110v-2.5H95c-0.5,1-1.3,1.8-2.4,2.2c-1.1,0.5-2.3,0.7-3.6,0.7c-1.4,0-2.7-0.3-3.8-0.8
				c-1.1-0.5-2-1.2-2.7-2.1c-0.7-0.9-1.2-1.9-1.6-3.1c-0.4-1.2-0.5-2.4-0.5-3.7c0-1.3,0.2-2.6,0.5-3.7c0.3-1.2,0.9-2.2,1.6-3.1
				s1.6-1.6,2.7-2.1c1.1-0.5,2.3-0.8,3.7-0.8c0.5,0,1,0,1.5,0.1c0.6,0.1,1.1,0.3,1.7,0.5c0.6,0.2,1.1,0.5,1.6,0.9
				c0.5,0.4,0.9,0.8,1.2,1.4h0.1v-9.6h3.1V110H95.1z M84.1,103.4c0.2,0.8,0.6,1.6,1,2.2c0.5,0.6,1.1,1.2,1.8,1.5
				c0.7,0.4,1.6,0.6,2.6,0.6c1,0,1.9-0.2,2.6-0.6c0.7-0.4,1.3-0.9,1.8-1.6c0.5-0.7,0.8-1.4,1-2.2c0.2-0.8,0.3-1.7,0.3-2.6
				c0-0.9-0.1-1.8-0.3-2.6c-0.2-0.9-0.6-1.6-1-2.2c-0.5-0.6-1.1-1.2-1.8-1.6c-0.7-0.4-1.6-0.6-2.7-0.6c-1,0-1.9,0.2-2.6,0.6
				c-0.7,0.4-1.3,0.9-1.7,1.6c-0.4,0.7-0.7,1.4-0.9,2.3c-0.2,0.9-0.3,1.8-0.3,2.7C83.7,101.7,83.8,102.6,84.1,103.4z"/>
			<path class="st1" d="M107.1,84.3V110H104V84.3H107.1z"/>
			<path class="st1" d="M113,88v-3.7h3.1V88H113z M116.1,91.4V110H113V91.4H116.1z"/>
			<path class="st1" d="M135.8,115.3c-1.4,1.5-3.6,2.3-6.6,2.3c-0.9,0-1.7-0.1-2.6-0.3c-0.9-0.2-1.7-0.5-2.4-0.9
				c-0.7-0.4-1.3-1-1.8-1.7c-0.5-0.7-0.7-1.5-0.8-2.6h3.1c0,0.6,0.2,1,0.5,1.4c0.3,0.4,0.7,0.7,1.2,0.9c0.5,0.2,1,0.4,1.5,0.5
				c0.6,0.1,1.1,0.2,1.6,0.2c1,0,1.9-0.2,2.6-0.5c0.7-0.3,1.3-0.8,1.7-1.4c0.5-0.6,0.8-1.4,1-2.2c0.2-0.9,0.3-1.8,0.3-2.8v-1.2h-0.1
				c-0.5,1.2-1.3,2-2.4,2.5c-1.1,0.5-2.2,0.8-3.4,0.8c-1.4,0-2.6-0.3-3.6-0.8c-1-0.5-1.9-1.2-2.6-2c-0.7-0.9-1.2-1.8-1.6-3
				c-0.3-1.1-0.5-2.3-0.5-3.6c0-1.1,0.1-2.2,0.4-3.4s0.8-2.2,1.4-3.2c0.7-0.9,1.6-1.7,2.7-2.3c1.1-0.6,2.5-0.9,4.1-0.9
				c1.2,0,2.3,0.3,3.2,0.8c1,0.5,1.8,1.3,2.3,2.3h0v-2.7h2.9v17C137.9,111.5,137.2,113.7,135.8,115.3z M131.9,106.9
				c0.7-0.4,1.3-1,1.7-1.7c0.4-0.7,0.7-1.5,1-2.3c0.2-0.9,0.3-1.7,0.3-2.6c0-0.8-0.1-1.6-0.3-2.4c-0.2-0.8-0.5-1.5-0.9-2.1
				c-0.4-0.6-1-1.1-1.6-1.5c-0.7-0.4-1.5-0.6-2.4-0.6c-1,0-1.8,0.2-2.5,0.6c-0.7,0.4-1.3,0.9-1.7,1.5c-0.4,0.6-0.8,1.3-1,2.2
				c-0.2,0.8-0.3,1.7-0.3,2.6c0,0.8,0.1,1.7,0.3,2.5c0.2,0.8,0.5,1.6,0.9,2.3c0.4,0.7,0.9,1.2,1.6,1.7c0.7,0.4,1.5,0.6,2.5,0.6
				S131.2,107.3,131.9,106.9z"/>
			<path class="st1" d="M156.7,108.8c-1.4,1.1-3.1,1.6-5.3,1.6c-1.5,0-2.8-0.2-3.9-0.7c-1.1-0.5-2-1.2-2.8-2
				c-0.7-0.9-1.3-1.9-1.7-3.1s-0.6-2.5-0.6-3.9c0-1.4,0.2-2.7,0.6-3.9c0.4-1.2,1-2.2,1.8-3.1c0.8-0.9,1.7-1.5,2.8-2
				c1.1-0.5,2.2-0.7,3.5-0.7c1.7,0,3,0.3,4.1,1c1.1,0.7,2,1.6,2.6,2.6c0.7,1.1,1.1,2.2,1.4,3.5c0.3,1.2,0.4,2.4,0.3,3.6h-13.9
				c0,0.8,0.1,1.6,0.3,2.3c0.2,0.7,0.6,1.4,1,1.9c0.5,0.6,1.1,1,1.8,1.3c0.7,0.3,1.6,0.5,2.6,0.5c1.3,0,2.4-0.3,3.2-0.9
				c0.8-0.6,1.4-1.5,1.6-2.7h3C159,106.2,158.1,107.8,156.7,108.8z M156,96.9c-0.3-0.6-0.6-1.2-1.1-1.7c-0.5-0.5-1-0.8-1.7-1.1
				c-0.6-0.3-1.3-0.4-2.1-0.4c-0.8,0-1.5,0.1-2.1,0.4c-0.6,0.3-1.2,0.7-1.6,1.1c-0.5,0.5-0.8,1-1.1,1.7c-0.3,0.6-0.4,1.3-0.5,2h10.7
				C156.4,98.2,156.2,97.5,156,96.9z"/>
			<path class="st1" d="M166.6,91.4v3.9h0.1c0.7-1.5,1.7-2.6,2.7-3.3c1.1-0.7,2.4-1.1,4.1-1v3.2c-1.2,0-2.3,0.2-3.1,0.5
				c-0.9,0.3-1.6,0.8-2.1,1.5c-0.5,0.6-0.9,1.4-1.2,2.4c-0.2,0.9-0.4,2-0.4,3.2v8.3h-3.1V91.4H166.6z"/>
			<path class="st1" d="M189.4,108.8c-1.4,1.1-3.1,1.6-5.3,1.6c-1.5,0-2.8-0.2-3.9-0.7c-1.1-0.5-2-1.2-2.8-2
				c-0.7-0.9-1.3-1.9-1.7-3.1s-0.6-2.5-0.6-3.9c0-1.4,0.2-2.7,0.6-3.9c0.4-1.2,1-2.2,1.8-3.1c0.8-0.9,1.7-1.5,2.8-2
				c1.1-0.5,2.2-0.7,3.5-0.7c1.7,0,3,0.3,4.1,1c1.1,0.7,2,1.6,2.6,2.6c0.7,1.1,1.1,2.2,1.4,3.5c0.3,1.2,0.4,2.4,0.3,3.6h-13.9
				c0,0.8,0.1,1.6,0.3,2.3c0.2,0.7,0.6,1.4,1,1.9c0.5,0.6,1.1,1,1.8,1.3c0.7,0.3,1.6,0.5,2.6,0.5c1.3,0,2.4-0.3,3.2-0.9
				c0.8-0.6,1.4-1.5,1.6-2.7h3C191.7,106.2,190.8,107.8,189.4,108.8z M188.6,96.9c-0.3-0.6-0.6-1.2-1.1-1.7c-0.5-0.5-1-0.8-1.7-1.1
				c-0.6-0.3-1.3-0.4-2.1-0.4c-0.8,0-1.5,0.1-2.1,0.4c-0.6,0.3-1.2,0.7-1.6,1.1c-0.5,0.5-0.8,1-1.1,1.7c-0.3,0.6-0.4,1.3-0.5,2h10.7
				C189.1,98.2,188.9,97.5,188.6,96.9z"/>
		</g>
		<g class="st0">
			<path class="st1" d="M68.1,91.4v2.7h-3.7v11.6c0,0.4,0,0.6,0.1,0.9c0.1,0.2,0.2,0.4,0.3,0.5c0.2,0.1,0.4,0.2,0.7,0.2
				c0.3,0,0.7,0.1,1.2,0.1h1.4v2.7h-2.3c-0.8,0-1.5-0.1-2-0.2c-0.6-0.1-1-0.3-1.4-0.6c-0.3-0.3-0.6-0.7-0.8-1.2
				c-0.2-0.5-0.3-1.2-0.3-2.1V94.1h-3.2v-2.7h3.2v-5.6h3.1v5.6H68.1z"/>
			<path class="st1" d="M72.7,88v-3.7h3.1V88H72.7z M75.7,91.4V110h-3.1V91.4H75.7z"/>
			<path class="st1" d="M95.1,110v-2.5H95c-0.5,1-1.3,1.8-2.4,2.2c-1.1,0.5-2.3,0.7-3.6,0.7c-1.4,0-2.7-0.3-3.8-0.8
				c-1.1-0.5-2-1.2-2.7-2.1c-0.7-0.9-1.2-1.9-1.6-3.1c-0.4-1.2-0.5-2.4-0.5-3.7c0-1.3,0.2-2.6,0.5-3.7c0.3-1.2,0.9-2.2,1.6-3.1
				s1.6-1.6,2.7-2.1c1.1-0.5,2.3-0.8,3.7-0.8c0.5,0,1,0,1.5,0.1c0.6,0.1,1.1,0.3,1.7,0.5c0.6,0.2,1.1,0.5,1.6,0.9
				c0.5,0.4,0.9,0.8,1.2,1.4h0.1v-9.6h3.1V110H95.1z M84.1,103.4c0.2,0.8,0.6,1.6,1,2.2c0.5,0.6,1.1,1.2,1.8,1.5
				c0.7,0.4,1.6,0.6,2.6,0.6c1,0,1.9-0.2,2.6-0.6c0.7-0.4,1.3-0.9,1.8-1.6c0.5-0.7,0.8-1.4,1-2.2c0.2-0.8,0.3-1.7,0.3-2.6
				c0-0.9-0.1-1.8-0.3-2.6c-0.2-0.9-0.6-1.6-1-2.2c-0.5-0.6-1.1-1.2-1.8-1.6c-0.7-0.4-1.6-0.6-2.7-0.6c-1,0-1.9,0.2-2.6,0.6
				c-0.7,0.4-1.3,0.9-1.7,1.6c-0.4,0.7-0.7,1.4-0.9,2.3c-0.2,0.9-0.3,1.8-0.3,2.7C83.7,101.7,83.8,102.6,84.1,103.4z"/>
			<path class="st1" d="M107.1,84.3V110H104V84.3H107.1z"/>
			<path class="st1" d="M113,88v-3.7h3.1V88H113z M116.1,91.4V110H113V91.4H116.1z"/>
			<path class="st1" d="M135.8,115.3c-1.4,1.5-3.6,2.3-6.6,2.3c-0.9,0-1.7-0.1-2.6-0.3c-0.9-0.2-1.7-0.5-2.4-0.9
				c-0.7-0.4-1.3-1-1.8-1.7c-0.5-0.7-0.7-1.5-0.8-2.6h3.1c0,0.6,0.2,1,0.5,1.4c0.3,0.4,0.7,0.7,1.2,0.9c0.5,0.2,1,0.4,1.5,0.5
				c0.6,0.1,1.1,0.2,1.6,0.2c1,0,1.9-0.2,2.6-0.5c0.7-0.3,1.3-0.8,1.7-1.4c0.5-0.6,0.8-1.4,1-2.2c0.2-0.9,0.3-1.8,0.3-2.8v-1.2h-0.1
				c-0.5,1.2-1.3,2-2.4,2.5c-1.1,0.5-2.2,0.8-3.4,0.8c-1.4,0-2.6-0.3-3.6-0.8c-1-0.5-1.9-1.2-2.6-2c-0.7-0.9-1.2-1.8-1.6-3
				c-0.3-1.1-0.5-2.3-0.5-3.6c0-1.1,0.1-2.2,0.4-3.4s0.8-2.2,1.4-3.2c0.7-0.9,1.6-1.7,2.7-2.3c1.1-0.6,2.5-0.9,4.1-0.9
				c1.2,0,2.3,0.3,3.2,0.8c1,0.5,1.8,1.3,2.3,2.3h0v-2.7h2.9v17C137.9,111.5,137.2,113.7,135.8,115.3z M131.9,106.9
				c0.7-0.4,1.3-1,1.7-1.7c0.4-0.7,0.7-1.5,1-2.3c0.2-0.9,0.3-1.7,0.3-2.6c0-0.8-0.1-1.6-0.3-2.4c-0.2-0.8-0.5-1.5-0.9-2.1
				c-0.4-0.6-1-1.1-1.6-1.5c-0.7-0.4-1.5-0.6-2.4-0.6c-1,0-1.8,0.2-2.5,0.6c-0.7,0.4-1.3,0.9-1.7,1.5c-0.4,0.6-0.8,1.3-1,2.2
				c-0.2,0.8-0.3,1.7-0.3,2.6c0,0.8,0.1,1.7,0.3,2.5c0.2,0.8,0.5,1.6,0.9,2.3c0.4,0.7,0.9,1.2,1.6,1.7c0.7,0.4,1.5,0.6,2.5,0.6
				S131.2,107.3,131.9,106.9z"/>
			<path class="st1" d="M156.7,108.8c-1.4,1.1-3.1,1.6-5.3,1.6c-1.5,0-2.8-0.2-3.9-0.7c-1.1-0.5-2-1.2-2.8-2
				c-0.7-0.9-1.3-1.9-1.7-3.1s-0.6-2.5-0.6-3.9c0-1.4,0.2-2.7,0.6-3.9c0.4-1.2,1-2.2,1.8-3.1c0.8-0.9,1.7-1.5,2.8-2
				c1.1-0.5,2.2-0.7,3.5-0.7c1.7,0,3,0.3,4.1,1c1.1,0.7,2,1.6,2.6,2.6c0.7,1.1,1.1,2.2,1.4,3.5c0.3,1.2,0.4,2.4,0.3,3.6h-13.9
				c0,0.8,0.1,1.6,0.3,2.3c0.2,0.7,0.6,1.4,1,1.9c0.5,0.6,1.1,1,1.8,1.3c0.7,0.3,1.6,0.5,2.6,0.5c1.3,0,2.4-0.3,3.2-0.9
				c0.8-0.6,1.4-1.5,1.6-2.7h3C159,106.2,158.1,107.8,156.7,108.8z M156,96.9c-0.3-0.6-0.6-1.2-1.1-1.7c-0.5-0.5-1-0.8-1.7-1.1
				c-0.6-0.3-1.3-0.4-2.1-0.4c-0.8,0-1.5,0.1-2.1,0.4c-0.6,0.3-1.2,0.7-1.6,1.1c-0.5,0.5-0.8,1-1.1,1.7c-0.3,0.6-0.4,1.3-0.5,2h10.7
				C156.4,98.2,156.2,97.5,156,96.9z"/>
			<path class="st1" d="M166.6,91.4v3.9h0.1c0.7-1.5,1.7-2.6,2.7-3.3c1.1-0.7,2.4-1.1,4.1-1v3.2c-1.2,0-2.3,0.2-3.1,0.5
				c-0.9,0.3-1.6,0.8-2.1,1.5c-0.5,0.6-0.9,1.4-1.2,2.4c-0.2,0.9-0.4,2-0.4,3.2v8.3h-3.1V91.4H166.6z"/>
			<path class="st1" d="M189.4,108.8c-1.4,1.1-3.1,1.6-5.3,1.6c-1.5,0-2.8-0.2-3.9-0.7c-1.1-0.5-2-1.2-2.8-2
				c-0.7-0.9-1.3-1.9-1.7-3.1s-0.6-2.5-0.6-3.9c0-1.4,0.2-2.7,0.6-3.9c0.4-1.2,1-2.2,1.8-3.1c0.8-0.9,1.7-1.5,2.8-2
				c1.1-0.5,2.2-0.7,3.5-0.7c1.7,0,3,0.3,4.1,1c1.1,0.7,2,1.6,2.6,2.6c0.7,1.1,1.1,2.2,1.4,3.5c0.3,1.2,0.4,2.4,0.3,3.6h-13.9
				c0,0.8,0.1,1.6,0.3,2.3c0.2,0.7,0.6,1.4,1,1.9c0.5,0.6,1.1,1,1.8,1.3c0.7,0.3,1.6,0.5,2.6,0.5c1.3,0,2.4-0.3,3.2-0.9
				c0.8-0.6,1.4-1.5,1.6-2.7h3C191.7,106.2,190.8,107.8,189.4,108.8z M188.6,96.9c-0.3-0.6-0.6-1.2-1.1-1.7c-0.5-0.5-1-0.8-1.7-1.1
				c-0.6-0.3-1.3-0.4-2.1-0.4c-0.8,0-1.5,0.1-2.1,0.4c-0.6,0.3-1.2,0.7-1.6,1.1c-0.5,0.5-0.8,1-1.1,1.7c-0.3,0.6-0.4,1.3-0.5,2h10.7
				C189.1,98.2,188.9,97.5,188.6,96.9z"/>
		</g>
		<g class="st0">
			<path class="st1" d="M213.6,110l-9-25.7h3.7l7.3,22.3h0.1l7.4-22.3h3.6l-9.1,25.7H213.6z"/>
			<path class="st1" d="M229.4,88v-3.7h3.1V88H229.4z M232.5,91.4V110h-3.1V91.4H232.5z"/>
			<path class="st1" d="M252.2,115.3c-1.4,1.5-3.6,2.3-6.6,2.3c-0.9,0-1.7-0.1-2.6-0.3c-0.9-0.2-1.7-0.5-2.4-0.9
				c-0.7-0.4-1.3-1-1.8-1.7c-0.5-0.7-0.7-1.5-0.8-2.6h3.1c0,0.6,0.2,1,0.5,1.4c0.3,0.4,0.7,0.7,1.2,0.9s1,0.4,1.5,0.5
				c0.6,0.1,1.1,0.2,1.6,0.2c1,0,1.9-0.2,2.6-0.5s1.3-0.8,1.7-1.4c0.5-0.6,0.8-1.4,1-2.2c0.2-0.9,0.3-1.8,0.3-2.8v-1.2h-0.1
				c-0.5,1.2-1.3,2-2.4,2.5c-1.1,0.5-2.2,0.8-3.4,0.8c-1.4,0-2.6-0.3-3.6-0.8c-1-0.5-1.9-1.2-2.6-2c-0.7-0.9-1.2-1.8-1.6-3
				c-0.3-1.1-0.5-2.3-0.5-3.6c0-1.1,0.1-2.2,0.4-3.4s0.8-2.2,1.4-3.2c0.7-0.9,1.6-1.7,2.7-2.3s2.5-0.9,4.1-0.9
				c1.2,0,2.3,0.3,3.2,0.8c1,0.5,1.8,1.3,2.3,2.3h0v-2.7h2.9v17C254.3,111.5,253.6,113.7,252.2,115.3z M248.3,106.9
				c0.7-0.4,1.3-1,1.7-1.7c0.4-0.7,0.8-1.5,1-2.3c0.2-0.9,0.3-1.7,0.3-2.6c0-0.8-0.1-1.6-0.3-2.4s-0.5-1.5-0.9-2.1
				c-0.4-0.6-1-1.1-1.6-1.5s-1.5-0.6-2.4-0.6c-1,0-1.8,0.2-2.5,0.6c-0.7,0.4-1.3,0.9-1.7,1.5c-0.4,0.6-0.8,1.3-1,2.2
				c-0.2,0.8-0.3,1.7-0.3,2.6c0,0.8,0.1,1.7,0.3,2.5s0.5,1.6,0.9,2.3c0.4,0.7,0.9,1.2,1.6,1.7c0.7,0.4,1.5,0.6,2.5,0.6
				S247.6,107.3,248.3,106.9z"/>
			<path class="st1" d="M259.5,96.9c0.4-1.2,1-2.2,1.7-3.1c0.8-0.9,1.7-1.6,2.8-2.1c1.1-0.5,2.4-0.8,3.9-0.8c1.5,0,2.8,0.3,3.9,0.8
				s2.1,1.2,2.8,2.1c0.8,0.9,1.3,1.9,1.7,3.1c0.4,1.2,0.6,2.5,0.6,3.8s-0.2,2.6-0.6,3.8s-1,2.2-1.7,3.1c-0.8,0.9-1.7,1.6-2.8,2.1
				c-1.1,0.5-2.4,0.7-3.9,0.7c-1.5,0-2.8-0.2-3.9-0.7c-1.1-0.5-2.1-1.2-2.8-2.1c-0.8-0.9-1.3-1.9-1.7-3.1s-0.6-2.4-0.6-3.8
				S259.1,98.1,259.5,96.9z M262.6,103.7c0.3,0.9,0.7,1.6,1.2,2.2c0.5,0.6,1.1,1,1.9,1.3c0.7,0.3,1.5,0.5,2.2,0.5s1.5-0.2,2.2-0.5
				c0.7-0.3,1.3-0.8,1.9-1.3c0.5-0.6,0.9-1.3,1.2-2.2c0.3-0.9,0.4-1.9,0.4-3c0-1.1-0.1-2.1-0.4-3c-0.3-0.9-0.7-1.6-1.2-2.2
				c-0.5-0.6-1.1-1.1-1.9-1.4c-0.7-0.3-1.5-0.5-2.2-0.5s-1.5,0.2-2.2,0.5c-0.7,0.3-1.3,0.8-1.9,1.4c-0.5,0.6-0.9,1.3-1.2,2.2
				c-0.3,0.9-0.5,1.9-0.5,3C262.1,101.8,262.3,102.8,262.6,103.7z"/>
		</g>
		<g class="st0">
			<path class="st1" d="M213.6,110l-9-25.7h3.7l7.3,22.3h0.1l7.4-22.3h3.6l-9.1,25.7H213.6z"/>
			<path class="st1" d="M229.4,88v-3.7h3.1V88H229.4z M232.5,91.4V110h-3.1V91.4H232.5z"/>
			<path class="st1" d="M252.2,115.3c-1.4,1.5-3.6,2.3-6.6,2.3c-0.9,0-1.7-0.1-2.6-0.3c-0.9-0.2-1.7-0.5-2.4-0.9
				c-0.7-0.4-1.3-1-1.8-1.7c-0.5-0.7-0.7-1.5-0.8-2.6h3.1c0,0.6,0.2,1,0.5,1.4c0.3,0.4,0.7,0.7,1.2,0.9s1,0.4,1.5,0.5
				c0.6,0.1,1.1,0.2,1.6,0.2c1,0,1.9-0.2,2.6-0.5s1.3-0.8,1.7-1.4c0.5-0.6,0.8-1.4,1-2.2c0.2-0.9,0.3-1.8,0.3-2.8v-1.2h-0.1
				c-0.5,1.2-1.3,2-2.4,2.5c-1.1,0.5-2.2,0.8-3.4,0.8c-1.4,0-2.6-0.3-3.6-0.8c-1-0.5-1.9-1.2-2.6-2c-0.7-0.9-1.2-1.8-1.6-3
				c-0.3-1.1-0.5-2.3-0.5-3.6c0-1.1,0.1-2.2,0.4-3.4s0.8-2.2,1.4-3.2c0.7-0.9,1.6-1.7,2.7-2.3s2.5-0.9,4.1-0.9
				c1.2,0,2.3,0.3,3.2,0.8c1,0.5,1.8,1.3,2.3,2.3h0v-2.7h2.9v17C254.3,111.5,253.6,113.7,252.2,115.3z M248.3,106.9
				c0.7-0.4,1.3-1,1.7-1.7c0.4-0.7,0.8-1.5,1-2.3c0.2-0.9,0.3-1.7,0.3-2.6c0-0.8-0.1-1.6-0.3-2.4s-0.5-1.5-0.9-2.1
				c-0.4-0.6-1-1.1-1.6-1.5s-1.5-0.6-2.4-0.6c-1,0-1.8,0.2-2.5,0.6c-0.7,0.4-1.3,0.9-1.7,1.5c-0.4,0.6-0.8,1.3-1,2.2
				c-0.2,0.8-0.3,1.7-0.3,2.6c0,0.8,0.1,1.7,0.3,2.5s0.5,1.6,0.9,2.3c0.4,0.7,0.9,1.2,1.6,1.7c0.7,0.4,1.5,0.6,2.5,0.6
				S247.6,107.3,248.3,106.9z"/>
			<path class="st1" d="M259.5,96.9c0.4-1.2,1-2.2,1.7-3.1c0.8-0.9,1.7-1.6,2.8-2.1c1.1-0.5,2.4-0.8,3.9-0.8c1.5,0,2.8,0.3,3.9,0.8
				s2.1,1.2,2.8,2.1c0.8,0.9,1.3,1.9,1.7,3.1c0.4,1.2,0.6,2.5,0.6,3.8s-0.2,2.6-0.6,3.8s-1,2.2-1.7,3.1c-0.8,0.9-1.7,1.6-2.8,2.1
				c-1.1,0.5-2.4,0.7-3.9,0.7c-1.5,0-2.8-0.2-3.9-0.7c-1.1-0.5-2.1-1.2-2.8-2.1c-0.8-0.9-1.3-1.9-1.7-3.1s-0.6-2.4-0.6-3.8
				S259.1,98.1,259.5,96.9z M262.6,103.7c0.3,0.9,0.7,1.6,1.2,2.2c0.5,0.6,1.1,1,1.9,1.3c0.7,0.3,1.5,0.5,2.2,0.5s1.5-0.2,2.2-0.5
				c0.7-0.3,1.3-0.8,1.9-1.3c0.5-0.6,0.9-1.3,1.2-2.2c0.3-0.9,0.4-1.9,0.4-3c0-1.1-0.1-2.1-0.4-3c-0.3-0.9-0.7-1.6-1.2-2.2
				c-0.5-0.6-1.1-1.1-1.9-1.4c-0.7-0.3-1.5-0.5-2.2-0.5s-1.5,0.2-2.2,0.5c-0.7,0.3-1.3,0.8-1.9,1.4c-0.5,0.6-0.9,1.3-1.2,2.2
				c-0.3,0.9-0.5,1.9-0.5,3C262.1,101.8,262.3,102.8,262.6,103.7z"/>
		</g>
		<g class="st0">
			<path class="st1" d="M297.8,84.3V110h-3.4V84.3H297.8z"/>
			<path class="st1" d="M308,84.3v12.8l13-12.8h4.4l-10.8,10.4l11.3,15.3h-4.3l-9.3-13l-4.3,4v9h-3.4V84.3H308z"/>
			<path class="st1" d="M342.5,87.8c-1.1-0.8-2.6-1.2-4.4-1.2c-0.7,0-1.4,0.1-2.1,0.2c-0.7,0.1-1.3,0.4-1.9,0.7s-1,0.8-1.3,1.3
				c-0.3,0.6-0.5,1.3-0.5,2.1c0,0.8,0.2,1.4,0.7,1.9c0.5,0.5,1.1,0.9,1.9,1.2c0.8,0.3,1.7,0.6,2.6,0.8s2,0.4,3,0.7s2,0.5,3,0.8
				s1.9,0.8,2.6,1.3c0.8,0.6,1.4,1.2,1.9,2.1s0.7,1.9,0.7,3.2c0,1.4-0.3,2.5-0.9,3.5c-0.6,1-1.4,1.8-2.4,2.4s-2,1.1-3.2,1.3
				c-1.2,0.3-2.4,0.4-3.5,0.4c-1.4,0-2.8-0.2-4.1-0.5c-1.3-0.4-2.4-0.9-3.4-1.6c-1-0.7-1.7-1.7-2.3-2.8c-0.6-1.1-0.8-2.5-0.8-4h3.2
				c0,1.1,0.2,2,0.6,2.8c0.4,0.8,1,1.4,1.7,1.9c0.7,0.5,1.5,0.9,2.4,1.1c0.9,0.2,1.8,0.4,2.8,0.4c0.8,0,1.5-0.1,2.3-0.2
				c0.8-0.1,1.5-0.4,2.1-0.7s1.1-0.8,1.5-1.4c0.4-0.6,0.6-1.4,0.6-2.3c0-0.9-0.2-1.6-0.7-2.2c-0.5-0.6-1.1-1-1.9-1.3
				c-0.8-0.3-1.7-0.6-2.6-0.8s-2-0.4-3-0.7c-1-0.2-2-0.5-3-0.8c-1-0.3-1.9-0.7-2.6-1.2c-0.8-0.5-1.4-1.1-1.9-1.9
				c-0.5-0.8-0.7-1.8-0.7-2.9c0-1.3,0.3-2.4,0.8-3.4c0.5-0.9,1.2-1.7,2.1-2.3s1.9-1.1,3-1.4c1.1-0.3,2.3-0.5,3.4-0.5
				c1.3,0,2.5,0.2,3.7,0.5c1.1,0.3,2.1,0.8,3,1.5c0.9,0.7,1.5,1.5,2,2.5c0.5,1,0.8,2.2,0.8,3.7h-3.2C344.3,90,343.6,88.6,342.5,87.8
				z"/>
		</g>
		<g class="st0">
			<path class="st1" d="M297.8,84.3V110h-3.4V84.3H297.8z"/>
			<path class="st1" d="M308,84.3v12.8l13-12.8h4.4l-10.8,10.4l11.3,15.3h-4.3l-9.3-13l-4.3,4v9h-3.4V84.3H308z"/>
			<path class="st1" d="M342.5,87.8c-1.1-0.8-2.6-1.2-4.4-1.2c-0.7,0-1.4,0.1-2.1,0.2c-0.7,0.1-1.3,0.4-1.9,0.7s-1,0.8-1.3,1.3
				c-0.3,0.6-0.5,1.3-0.5,2.1c0,0.8,0.2,1.4,0.7,1.9c0.5,0.5,1.1,0.9,1.9,1.2c0.8,0.3,1.7,0.6,2.6,0.8s2,0.4,3,0.7s2,0.5,3,0.8
				s1.9,0.8,2.6,1.3c0.8,0.6,1.4,1.2,1.9,2.1s0.7,1.9,0.7,3.2c0,1.4-0.3,2.5-0.9,3.5c-0.6,1-1.4,1.8-2.4,2.4s-2,1.1-3.2,1.3
				c-1.2,0.3-2.4,0.4-3.5,0.4c-1.4,0-2.8-0.2-4.1-0.5c-1.3-0.4-2.4-0.9-3.4-1.6c-1-0.7-1.7-1.7-2.3-2.8c-0.6-1.1-0.8-2.5-0.8-4h3.2
				c0,1.1,0.2,2,0.6,2.8c0.4,0.8,1,1.4,1.7,1.9c0.7,0.5,1.5,0.9,2.4,1.1c0.9,0.2,1.8,0.4,2.8,0.4c0.8,0,1.5-0.1,2.3-0.2
				c0.8-0.1,1.5-0.4,2.1-0.7s1.1-0.8,1.5-1.4c0.4-0.6,0.6-1.4,0.6-2.3c0-0.9-0.2-1.6-0.7-2.2c-0.5-0.6-1.1-1-1.9-1.3
				c-0.8-0.3-1.7-0.6-2.6-0.8s-2-0.4-3-0.7c-1-0.2-2-0.5-3-0.8c-1-0.3-1.9-0.7-2.6-1.2c-0.8-0.5-1.4-1.1-1.9-1.9
				c-0.5-0.8-0.7-1.8-0.7-2.9c0-1.3,0.3-2.4,0.8-3.4c0.5-0.9,1.2-1.7,2.1-2.3s1.9-1.1,3-1.4c1.1-0.3,2.3-0.5,3.4-0.5
				c1.3,0,2.5,0.2,3.7,0.5c1.1,0.3,2.1,0.8,3,1.5c0.9,0.7,1.5,1.5,2,2.5c0.5,1,0.8,2.2,0.8,3.7h-3.2C344.3,90,343.6,88.6,342.5,87.8
				z"/>
		</g>
	</g>
</g>
</svg>
