<?xml version="1.0" encoding="UTF-8"?><svg id="Layer_2" xmlns="http://www.w3.org/2000/svg" viewBox="0 0 297.64 152.79"><defs><style>.cls-1{fill:#000000;}</style></defs><g id="CMYK_Logo_Svart"><path class="cls-1" d="m101.48,33.91l-2.07-1.33c-3.18-2.05-6.58-3.84-10.08-5.33l-.04-.02c-1.47-.62-2.98-1.2-4.49-1.71-3.59-1.22-7.32-2.15-11.07-2.74-1.59-.25-3.21-.45-4.82-.58-3.78-.32-7.63-.32-11.41,0-1.61.13-3.23.33-4.82.58-3.75.59-7.47,1.51-11.07,2.74-1.51.52-3.02,1.09-4.48,1.71l-.05.02c-3.51,1.49-6.9,3.28-10.08,5.33l-2.07,1.33L14.67,14.37l1.78-1.1c3.42-2.12,7.02-4.02,10.69-5.65l1.93-.86,3.69,7.02c1.04-.42,2.09-.82,3.15-1.2l-1.9-7.7,2-.64c3.83-1.23,7.78-2.2,11.74-2.9l2.07-.36,1.9,7.7c.18-.03.37-.05.55-.08.93-.12,1.86-.23,2.8-.33V.34l2.1-.14c2.01-.14,4.05-.2,6.04-.2s4.03.07,6.04.2l2.1.14v7.93c1.12.11,2.23.25,3.34.4l1.9-7.7,2.07.36c3.96.69,7.92,1.67,11.74,2.9l2,.64-1.9,7.7c1.06.38,2.11.78,3.15,1.2l3.69-7.02,1.93.86c3.67,1.63,7.27,3.53,10.69,5.65l1.78,1.1-10.26,19.54ZM20.62,16.01l6.03,11.49c2.78-1.65,5.69-3.13,8.67-4.39l.07-.03c1.55-.65,3.16-1.27,4.77-1.82,3.84-1.31,7.81-2.29,11.82-2.92,1.7-.27,3.43-.48,5.14-.62,4.03-.34,8.14-.34,12.16,0,1.72.14,3.45.35,5.14.62,4,.63,7.98,1.61,11.82,2.92,1.61.55,3.22,1.16,4.78,1.82l.06.02c2.99,1.27,5.9,2.74,8.67,4.39l6.03-11.49c-2.1-1.23-4.25-2.36-6.44-3.4l-3.65,6.95-1.92-.84c-.26-.11-.51-.22-.77-.33-1.92-.81-3.9-1.56-5.89-2.21l-1.98-.65,1.88-7.62c-2.33-.68-4.69-1.27-7.07-1.75l-1.88,7.62-2.06-.35c-2.34-.39-4.72-.68-7.08-.85l-2.09-.15v-7.85c-2.44-.1-4.85-.1-7.29,0v7.85l-2.09.15c-1.53.11-3.09.27-4.61.48-.82.11-1.65.24-2.47.37l-2.06.35-1.88-7.62c-2.38.48-4.75,1.06-7.07,1.75l1.88,7.62-1.98.65c-1.99.66-3.97,1.4-5.89,2.21-.26.11-.51.22-.77.33l-1.92.84-3.65-6.95c-2.19,1.04-4.35,2.18-6.44,3.4Z"/><path class="cls-1" d="m63.18,152.79c-16.88,0-32.74-6.57-44.67-18.5C6.57,122.35,0,106.49,0,89.61s6.57-32.74,18.5-44.67c11.93-11.93,27.8-18.5,44.67-18.5s32.74,6.57,44.67,18.5c11.93,11.93,18.5,27.8,18.5,44.67s-6.57,32.74-18.5,44.67c-11.93,11.93-27.8,18.5-44.67,18.5Zm0-121.65c-15.62,0-30.3,6.08-41.34,17.13-11.04,11.04-17.13,25.73-17.13,41.34s6.08,30.3,17.13,41.34c11.04,11.04,25.73,17.12,41.34,17.12s30.3-6.08,41.34-17.12c11.04-11.04,17.13-25.73,17.13-41.34s-6.08-30.3-17.13-41.34c-11.04-11.04-25.73-17.13-41.34-17.13Z"/><path class="cls-1" d="m51.02,71.65c-1.96-2.62-2.99-5.75-2.99-9.03,0-8.34,6.78-15.12,15.12-15.12s15.12,6.78,15.12,15.12c0,3.28-1.03,6.41-2.99,9.03l3.33,2.48c2.5-3.35,3.82-7.33,3.82-11.52,0-10.63-8.65-19.27-19.27-19.27s-19.27,8.65-19.27,19.27c0,4.19,1.32,8.17,3.82,11.52l3.33-2.48Z"/><path class="cls-1" d="m63.15,76.26c4.15,0,7.53-3.38,7.53-7.53v-.75h2.49v-4.81c0-5.52-4.49-10.02-10.02-10.02s-10.02,4.49-10.02,10.02v4.81h2.49v.75c0,4.15,3.38,7.53,7.53,7.53Zm-5.87-13.09c0-3.23,2.63-5.87,5.87-5.87s5.87,2.63,5.87,5.87v4.81h-1.79v.75c0,2.25-1.83,4.07-4.07,4.07s-4.07-1.83-4.07-4.07v-.75h-1.79v-4.81Z"/><rect class="cls-1" x="20.01" y="92.49" width="5.8" height="5.8"/><path class="cls-1" d="m109.84,87.99v3.12h2.97l-8.07,8.07v-14.04l2.07,2.07,2.2-2.2-5.83-5.83-5.86,5.86,2.2,2.2,2.1-2.1v14.03l-8.06-8.06h2.93v-3.12h-8.25v8.29h3.12v-2.97l6.28,6.28h-12.67l-1.32-1.18-1.13-10.33c-.05-.56-.67-5.87-5.09-8.14l-.1-.05-4.47-1.7-.68-.25-.69.22s-2.96.91-8.35.91-8.33-.9-8.35-.91l-.69-.22-5.15,1.96-.1.05c-4.42,2.27-5.03,7.58-5.09,8.14l-1.17,10.69-.97.81h-4.4c.39-1.33.61-2.74.61-4.2,0-8.23-6.7-14.93-14.93-14.93s-14.93,6.7-14.93,14.93c0,7.45,5.49,13.65,12.64,14.75h0s.19.03.19.03c.4.06.79.1,1.2.12l19.35,1.95c-1.25,11.24-3.83,19.25-3.86,19.34l1.97.65,1.97.65c.12-.36,2.78-8.58,4.06-20.36l4.35-3.69-.66,26.97,1.74.32c3.56.66,8.13,1.05,12.24,1.05s8.81-.4,12.42-1.08l1.74-.33-.66-26.93,4.37,3.71c1.28,11.76,3.94,19.98,4.06,20.34l3.95-1.29c-.03-.08-2.61-8.06-3.86-19.32l19.47-1.81v-6.79l10.35-10.35v2.93h3.12v-8.25h-8.29Zm-46.69-4.77c4.54,0,7.56-.58,8.87-.9l3.61,1.37c2.41,1.32,2.75,4.75,2.76,4.77l.89,8.17h-5.02c-2.11,0-4.05-.53-5.77-1.58-1.29-.79-2.94-2.71-3.47-3.38l-7.03-8.72c1.41.16,3.13.27,5.16.27Zm-40.24,22.94c-.18,0-.36,0-.53-.01l-1.12-.11c-5.16-.8-9.13-5.27-9.13-10.65,0-5.94,4.83-10.77,10.77-10.77s10.77,4.83,10.77,10.77-4.83,10.77-10.77,10.77Zm27.09-2.91l-5.98,5.08-11.9-1.2c1.22-.96,2.29-2.1,3.16-3.38h7.87l6.98-5.87-.13,5.38Zm.32-10.96h-.05s0,.05,0,.05l-3.06,2.57.7-6.39v-.06s.35-3.45,2.76-4.77l1.98-.75,3.55,4.41-5.88,4.95Zm12.86,40.71c-3.22,0-6.73-.25-9.74-.69l.22-8.81h0s.71-29.18.71-29.18l4.44-3.73,2.94,3.65c.29.37,2.43,3.05,4.57,4.36,1.84,1.12,3.84,1.81,5.99,2.07l.78,31.61c-3.06.46-6.64.72-9.91.72Zm37.33-26.34l-17.99,1.68-8.92-7.57c.22,0,.44.01.66.01h5.82l3.32,2.96h17.12v2.91Z"/><path class="cls-1" d="m161.68,86.87c0-15.41,9.7-24.85,21.59-24.85s21.59,9.43,21.59,24.85-9.7,25.51-21.59,25.51-21.59-9.57-21.59-25.51Zm37.07,0c0-13.29-6.84-19.27-15.48-19.27s-15.48,5.98-15.48,19.27,7.11,19.93,15.48,19.93,15.48-6.64,15.48-19.93Z"/><path class="cls-1" d="m225.42,75.91c6.51,0,11.29,2.86,13.15,7.51l-4.32,2.19c-1.46-3.12-4.65-4.85-8.97-4.85s-7.51,1.79-7.51,4.78c0,2.59,1.66,4.12,5.45,4.92l5.12,1c7.64,1.53,11.29,4.92,11.29,10.23,0,6.31-5.58,10.63-13.82,10.63-7.18,0-12.29-2.79-14.82-7.97l4.38-2.33c1.79,3.59,5.31,5.51,10.3,5.51s8.44-2.19,8.44-5.51c0-2.92-1.73-4.52-5.78-5.38l-6.05-1.2c-6.51-1.33-10.03-4.65-10.03-9.5,0-5.71,5.38-10.03,13.15-10.03Z"/><path class="cls-1" d="m257.11,112.11c-5.98,0-8.84-3.65-8.84-9.37v-40.13h5.71v39.86c0,3.06,1.66,4.52,4.45,4.52.66,0,1.39-.07,2.13-.27v4.92c-1.2.27-2.26.46-3.45.46Z"/><path class="cls-1" d="m265.42,94.04c0-10.96,7.18-18.14,16.14-18.14s16.08,7.18,16.08,18.14-7.24,18.34-16.08,18.34-16.14-7.18-16.14-18.34Zm26.31,0c0-8.97-4.65-13.15-10.16-13.15s-10.23,4.19-10.23,13.15,4.58,13.35,10.23,13.35,10.16-4.38,10.16-13.35Z"/></g></svg>
