<?xml version="1.0" encoding="UTF-8"?><svg id="Layer_2" xmlns="http://www.w3.org/2000/svg" viewBox="0 0 336.47 193.43"><defs><style>.cls-1{fill:#000000;}</style></defs><path class="cls-1" d="m228.87,159.03c-2.6,0-5.45.3-7.27,2.16v-9.49h-5.55v31.69h5.01v-1.92c1.47,1.32,3.74,2.31,6.93,2.31,9.58,0,10.22-6.48,10.22-12.33,0-7.27-1.13-12.43-9.33-12.43Zm-1.23,19.75c-4.77,0-6.14-1.33-6.14-7.32s1.37-7.32,6.14-7.32c4.13,0,5.01,1.72,5.01,7.32s-.88,7.32-5.01,7.32Zm24.84-19.75c-2.8,0-5.01.88-6.58,2.56v-2.13h-4.81v23.95h5.55v-10.41c0-1.87-.1-4.52.54-6.24.59-1.62,2.01-2.85,4.32-2.85s3.22.49,3.22,2.7h5.52c0-5.26-2.6-7.57-7.76-7.57Zm31.32,0c-3.39,0-5.55,1.08-6.93,2.31v-1.89h-4.81v23.95h5.55v-11.15c0-4.17-.44-8.3,5.55-8.3,4.82,0,4.37,2.21,4.37,6.83v12.63h5.55v-13.07c0-5.21.39-11.3-9.29-11.3Zm29.29.42v1.89c-1.86-1.67-4.91-2.31-7.46-2.31-8.25,0-9.58,4.96-9.58,12.23,0,5.75.54,12.13,9.63,12.13,2.31,0,5.16-.54,6.88-2.11,0,1.23.05,2.96-.1,4.19-.3,2.26-2.61,3.24-5.8,3.24s-4.07-.88-4.07-2.6h-6.04c0,6.09,5.45,7.32,10.27,7.32,4.42,0,10.22-1.18,11.11-6.88.2-1.33.2-3.5.2-5.71v-21.39h-5.01Zm-6.53,18.94c-4.12,0-4.96-1.52-4.96-7.12s.84-7.32,4.96-7.32c4.77,0,6.04,1.33,6.04,7.32s-1.28,7.12-6.04,7.12Zm-43.64,5.01h5.55v-23.95h-5.55v23.95Zm0-26.13h5.55v-5.55h-5.55v5.55Z"/><path class="cls-1" d="m271.22,73.7c-1.45,18.24-16.7,32.6-35.31,32.6s-33.86-14.36-35.31-32.6h-5.72c1.49,37.82,32.61,68.03,70.79,68.03s69.3-30.21,70.79-68.03h-65.25Z"/><path class="cls-1" d="m200.6,68.03c1.45-18.24,16.7-32.6,35.31-32.6s33.86,14.36,35.31,32.6h65.25C334.98,30.21,303.86,0,265.68,0s-69.3,30.21-70.79,68.03h5.72Z"/><path class="cls-1" d="m15.25,159.01c-2.56-.05-5.46.54-7.47,2.31v-1.87H2.76v31.7h5.55v-9.48c1.62,1.72,3.69,2.11,6.29,2.11,9.29,0,10.32-6.54,10.32-12.34,0-7.62-1.13-12.34-9.68-12.44Zm-.89,19.86c-4.77,0-6.1-1.43-6.1-7.42s1.33-7.52,6.1-7.52c4.13,0,5.01,1.92,5.01,7.52s-.88,7.42-5.01,7.42Zm23.98-19.86c-3.88,0-6.78.69-8.85,2.71-2.11,2.01-2.56,5.11-2.56,9.68s.44,7.67,2.56,9.68c2.06,2.02,4.96,2.71,8.85,2.71s6.78-.69,8.85-2.71c2.11-2.01,2.55-5.11,2.55-9.68s-.44-7.67-2.55-9.68c-2.07-2.01-5.02-2.71-8.85-2.71Zm0,19.86c-5.36,0-5.85-2.07-5.85-7.47s.49-7.47,5.85-7.47,5.85,2.06,5.85,7.47-.49,7.47-5.85,7.47Zm66.18-19.86c-9.64,0-11.01,5.51-11.01,12.68s1.52,12.09,11.16,12.09c4.52,0,10.52-1.13,10.52-7.57h-5.38c-.05,2.7-2.93,3-4.95,3-4.77,0-5.8-1.62-5.8-5.7h16.42c0-8.36-.49-14.5-10.96-14.5Zm-5.36,9.98c0-3.2.49-5.41,5.36-5.41,5.16,0,5.46,1.97,5.46,5.41h-10.81Zm30.37-9.98c-3.39,0-5.55,1.08-6.93,2.31v-1.87h-4.82v23.95h5.56v-11.16c0-4.18-.44-8.31,5.56-8.31,4.81,0,4.37,2.21,4.37,6.83v12.63h5.56v-13.08c0-5.21.39-11.31-9.29-11.31Zm-45.21,20.25c-2.7-.05-3.03-1.42-3.03-3.24v-11.78h10.92v-4.8h-10.92v-7.75h-5.55v7.75h-3.23v4.8h3.23v11.78c0,5.36,3.19,7.77,8.75,7.77,4.77,0,7.79-1.82,7.79-7.57h-5.04c-.06,1.53-.41,3.1-2.92,3.05Zm-23.48-10.37c-2.41-.15-3.98-.15-3.88-2.85.05-1.57.46-2.7,5.22-2.55,3.24.1,4.26.79,4.26,3.1h5.11c0-5.7-3.48-7.47-9.42-7.57-6.39-.1-10.63,1.23-10.73,7.18-.15,7.38,5.36,7.18,10.72,7.47,2.75.15,4.42.2,4.33,3.05-.05,1.72-.61,2.8-5.38,2.66-3.93-.1-4.65-1.08-4.65-3.15h-5.12c0,5.9,3.77,7.47,9.82,7.57,6.44.1,10.74-1.42,10.84-7.32.15-7.67-5.61-7.23-11.11-7.57Z"/><path class="cls-1" d="m135.87,73.7c-1.45,18.24-16.7,32.6-35.31,32.6s-33.86-14.36-35.31-32.6H0c1.49,37.82,32.61,68.03,70.79,68.03s69.3-30.21,70.79-68.03h-5.72Z"/><path class="cls-1" d="m65.25,68.03c1.44-18.24,16.69-32.6,35.31-32.6s33.87,14.36,35.31,32.6h5.72C140.1,30.21,108.98,0,70.79,0S1.49,30.21,0,68.03h65.25Z"/></svg>
