<?xml version="1.0" encoding="UTF-8"?><svg id="Layer_2" xmlns="http://www.w3.org/2000/svg" viewBox="0 0 611.84 144"><defs><style>.cls-1{fill:#000000;}</style></defs><g id="Layer_1-2"><path class="cls-1" d="m126.97,82.99c12.5,0,30.61-2.59,30.61-17.46,0-1.16-.03-2.29-.31-3.42l-7.45-32.36c-1.73-7.11-3.23-10.35-15.74-16.6C124.39,8.19,103.26,0,97.01,0c-5.82,0-7.54,7.54-14.44,7.54s-11.64-5.6-17.89-5.6-9.92,4.1-12.93,12.5c0,0-8.41,23.71-9.49,27.16-.22.65-.22,1.37-.22,1.94,0,9.22,36.29,39.45,84.94,39.45Z"/><path class="cls-1" d="m159.52,71.57c1.73,8.19,1.73,9.05,1.73,10.13,0,14.01-15.74,21.77-36.43,21.77-46.78,0-87.74-27.38-87.74-45.48,0-2.8.65-5.39,1.51-7.33-16.82.86-38.59,3.88-38.59,23.07,0,31.47,74.59,70.28,133.65,70.28,45.27,0,56.69-20.48,56.69-36.65,0-12.72-10.99-27.16-30.83-35.79Z"/><path class="cls-1" d="m579.24,92.3c0,11.88,7.15,17.67,20.19,17.67,3.16,0,8.62-.74,11.89-1.68v-13.78c-2.84.84-4.94,1.16-7.68,1.16-5.36,0-7.36-1.68-7.36-6.73v-21.14h15.56v-14.2h-15.56v-17.98l-17.04,3.68v14.3h-11.25v14.2h11.25v24.5Zm-52.94.32c0-3.68,3.68-5.47,9.25-5.47,3.68,0,7.05.53,10.1,1.26v7.15c-3.16,1.79-6.84,2.63-10.62,2.63-5.47,0-8.73-2.1-8.73-5.57m5.2,17.56c5.99,0,10.83-1.26,15.35-4.31v3.37h16.83v-35.65c0-13.57-9.15-21.03-24.4-21.03-8.52,0-16.93,2-25.98,6.1l6.1,12.52c6.52-2.73,11.99-4.42,16.83-4.42,7.05,0,10.62,2.73,10.62,8.31v2.73c-4-1.05-8.2-1.58-12.62-1.58-14.3,0-22.93,5.99-22.93,16.72,0,9.78,7.78,17.25,20.19,17.25m-92.44-.95h18.09v-28.82h30.29v28.82h18.09V35.62h-18.09v28.29h-30.29v-28.29h-18.09v73.62Zm-68.93-27.87c0-7.99,6.31-14.09,14.62-14.09,4.63,0,8.83,1.58,11.78,4.31v19.46c-3.05,2.94-7.05,4.42-11.78,4.42-8.2,0-14.62-6.1-14.62-14.09m26.61,27.87h16.83V31.94l-17.04,3.68v20.93c-4.21-2.42-9.04-3.68-14.2-3.68-16.2,0-28.92,12.52-28.92,28.5s12.52,28.61,28.4,28.61c5.47,0,10.62-1.68,14.93-4.84v4.1Zm-77.19-42.7c5.36,0,9.89,3.47,11.67,8.83h-23.24c1.68-5.57,5.89-8.83,11.57-8.83m-28.71,14.93c0,16.2,13.25,28.82,30.29,28.82,9.36,0,16.2-2.52,23.24-8.41l-11.25-9.99c-2.63,2.73-6.52,4.21-11.15,4.21-6.31,0-11.46-3.47-13.67-8.83h39.65v-4.21c0-17.67-11.88-30.39-28.08-30.39s-29.03,12.62-29.03,28.82m-29.34-30.39c5.99,0,9.36,3.79,9.36,8.31s-3.37,8.31-9.36,8.31h-17.88v-16.62h17.88Zm-35.97,58.16h18.09v-26.82h13.78l13.88,26.82h20.19l-16.2-29.45c8.73-3.79,13.88-11.67,13.88-20.72,0-13.25-10.41-23.45-25.98-23.45h-37.65v73.62Z"/></g></svg>
