<svg version="1.1" id="Layer_1" xmlns="http://www.w3.org/2000/svg" xmlns:xlink="http://www.w3.org/1999/xlink" x="0px" y="0px" style="enable-background:new 0 0 464.6 301.4;" xml:space="preserve" viewBox="4.08 103.8 456.42 93.72">
<style type="text/css">
	.st0{fill:#000000;}
</style>
<g>
	<path class="st0" d="M46.1,103.9l0.5,23.1h-2c-0.7-5.3-3.2-10.2-7-14c-3.7-3.5-7.7-5.3-12-5.3c-2.9-0.2-5.8,0.8-7.9,2.8   c-1.8,1.6-2.9,4-2.9,6.4c0,1.4,0.3,2.8,1,4.1c1.2,1.9,2.8,3.5,4.6,4.8c3.4,2.2,7,4.2,10.7,6c7.8,4,13,7.8,15.8,11.3   c2.7,3.5,4.1,7.8,4,12.2c0.1,5.7-2.3,11.2-6.5,15c-4.3,4.2-9.9,6.3-16.5,6.3c-2,0-4-0.2-5.9-0.7c-2.4-0.6-4.7-1.5-7-2.5   c-1.2-0.6-2.5-0.9-3.9-1c-1,0-1.9,0.4-2.7,1c-1,0.8-1.8,1.9-2.3,3.1h-2v-26.2h1.8c1.4,7.3,4.2,13,8.3,16.9s8.5,5.8,13.3,5.8   c3.2,0.2,6.4-1,8.8-3.1c2.1-1.8,3.3-4.5,3.3-7.3c0-1.7-0.4-3.3-1.2-4.8c-1-1.7-2.3-3.2-3.8-4.4c-2.8-2.1-5.8-3.9-9-5.4   c-6.1-3.1-10.4-5.8-13.1-7.9c-2.5-2-4.6-4.5-6.1-7.3c-1.4-2.7-2.2-5.8-2.2-8.9c-0.2-5.4,2-10.5,5.8-14.2c3.9-3.9,9.2-6,14.7-5.8   c2.1,0,4.2,0.3,6.3,0.8c1.9,0.6,3.8,1.3,5.6,2.3c1.4,0.8,3,1.4,4.6,1.7c0.8,0,1.5-0.3,2-0.8c0.7-1.2,1.2-2.5,1.4-3.9L46.1,103.9z    M78.6,167.8c-5.6,5.2-10.6,7.7-15.1,7.7c-2.5,0.1-4.8-0.9-6.5-2.7c-1.7-1.8-2.7-4.2-2.6-6.7c0.1-3.8,1.7-7.3,4.5-9.9   c3-2.9,9.6-6.8,19.7-11.6v-4.8c0-3.6-0.2-5.9-0.6-6.8c-0.4-1-1.2-1.9-2.1-2.5c-1-0.7-2.3-1.1-3.5-1.1c-1.9-0.1-3.7,0.4-5.3,1.5   c-0.8,0.5-1.2,1.3-1.3,2.1c0.1,1,0.6,2,1.4,2.7c1.1,1.1,1.8,2.6,1.9,4.2c0,1.6-0.6,3.2-1.8,4.3c-1.3,1.2-3,1.8-4.7,1.8   c-1.9,0.1-3.8-0.6-5.2-1.9c-1.3-1.1-2.1-2.8-2.1-4.6c0.1-2.6,1.1-5.1,2.8-7c2.1-2.4,4.8-4.2,7.8-5.1c3.3-1.2,6.9-1.8,10.4-1.8   c4.4,0,7.8,1,10.3,2.9c2.2,1.5,4,3.7,4.9,6.2c0.5,1.4,0.7,4.7,0.7,9.9v18.6c-0.1,1.4,0,2.8,0.2,4.1c0.1,0.5,0.4,0.9,0.7,1.2   c0.3,0.3,0.7,0.4,1.1,0.4c0.8,0,1.7-0.6,2.6-1.9l1.5,1.2c-1.3,2.2-3,4-5.1,5.5c-1.8,1.2-3.9,1.7-6,1.7c-2.2,0.1-4.4-0.5-6.1-1.9   C79.7,172,78.8,170,78.6,167.8L78.6,167.8z M78.6,164.1v-16c-3.4,2-6.5,4.6-8.8,7.8c-1.2,1.6-1.9,3.6-1.9,5.6c0,1.5,0.6,3,1.6,4.1   c0.9,0.9,2.1,1.5,3.4,1.4C74.6,166.9,76.5,166,78.6,164.1L78.6,164.1z M118.8,132.1v33.2c0,3.2,0.3,5.2,1,6c1,1.3,3,1.8,5.8,1.7   v1.8h-27V173c1.5,0.1,3-0.2,4.4-0.8c0.8-0.4,1.5-1.1,1.8-1.9c0.4-1.7,0.6-3.4,0.5-5.1V132h-6.7v-5h6.7v-3.5v-2.4   c-0.1-4.6,1.8-9.1,5.2-12.3c3.4-3.3,8.1-4.9,14-4.9c4,0,7,0.8,9,2.4s2.9,3.3,2.9,5.2c0,1.5-0.7,3-1.8,4c-1.3,1.2-3.1,1.8-4.8,1.7   c-1.5,0.1-2.9-0.4-4-1.4c-0.9-0.8-1.5-1.9-1.5-3.1c0-0.6,0.1-1.3,0.3-1.9c0.1-0.5,0.2-1.1,0.2-1.6c0-0.6-0.2-1.2-0.6-1.6   c-0.5-0.5-1.2-0.8-1.9-0.8c-0.9,0-1.8,0.5-2.4,1.2c-0.7,1.2-1.1,2.6-1,3.9l0.1,9v6.1h6.8v5L118.8,132.1z M166.1,149.2h-25.2   c0.3,6.4,1.9,11.4,4.9,15.1c1.9,2.6,4.9,4.2,8.2,4.2c1.9,0,3.8-0.6,5.4-1.7c2.1-1.7,3.8-3.8,5.2-6.2l1.7,1.1   c-2.5,5.3-5.2,9-8.2,11.2s-6.7,3.4-10.5,3.3c-6.8,0-12-2.7-15.5-8.2c-2.8-4.4-4.2-9.9-4.2-16.4c0-8,2.1-14.4,6.2-19.1   c4.1-4.7,9-7.1,14.6-7.1c4.7,0,8.7,2,12.1,6C164.2,135.4,165.8,141.5,166.1,149.2z M154,145.8c0-5.5-0.3-9.3-0.9-11.3   c-0.4-1.8-1.3-3.4-2.7-4.7c-0.8-0.6-1.8-1-2.8-0.9c-1.8,0-3.4,1-4.2,2.6c-1.9,3-2.9,7.2-2.9,12.5v1.8L154,145.8L154,145.8z    M185.1,109.5V127h11v5.1h-11v29.5c-0.1,1.8,0,3.6,0.4,5.3c0.2,0.8,0.7,1.4,1.3,2c0.5,0.4,1.1,0.7,1.7,0.7c2.1,0,4.1-1.7,6-5.1   l1.6,1.1c-2.7,6.6-7,9.8-12.9,9.8c-5.1,0.1-9.7-3.3-11.2-8.2c-0.3-1.2-0.5-4.3-0.5-9.4v-25.9h-6v-1.8c3.8-2.8,7.4-6,10.5-9.6   c3-3.4,5.5-7.2,7.6-11.2L185.1,109.5z M216.5,176.8l-14.8-35.5c-2.2-5.3-3.9-8.6-4.9-9.9c-1-1.2-2.4-2.1-3.9-2.6v-1.9h24.4v1.9   c-1.2,0-2.4,0.3-3.4,1c-0.6,0.5-1,1.3-1,2.1c0,1.3,0.8,3.9,2.5,7.7l7.9,18.7l5.4-14.5c1.9-5.2,2.9-8.7,2.9-10.7   c0-1.1-0.4-2.2-1.2-3s-2.2-1.2-4.2-1.2V127h15.4v1.9c-1.4,0.1-2.7,0.8-3.7,1.8c-0.9,1-2.5,4.6-4.8,10.6L220,176.8   c-3.3,8.9-5.8,14.3-7.4,16.4c-2,2.7-5.1,4.3-8.5,4.3c-2.4,0.1-4.8-0.8-6.6-2.4c-1.6-1.5-2.6-3.6-2.5-5.9c-0.1-1.8,0.6-3.6,1.7-4.9   c1.1-1.3,2.7-2,4.3-1.9c1.5-0.1,2.9,0.5,3.9,1.6c1.1,1.4,1.7,3.2,1.6,5.1c-0.1,0.9,0.1,1.7,0.4,2.5c0.3,0.4,0.7,0.6,1.1,0.6   c1-0.1,1.9-0.7,2.5-1.5c1.3-1.4,2.9-4.7,4.6-9.8L216.5,176.8z M343.8,105.5v1.9c-1.1,0.1-2.2,0.4-3.1,1.1c-1,0.8-1.7,1.7-2.3,2.8   c-0.2,0.4-1.2,3.1-3.1,7.9l-20.9,57.2h-1.9L296,131.7l-18.2,44.7H276l-21.9-56.6c-2.2-5.7-3.8-9.1-4.7-10.3   c-1.1-1.3-2.7-2.1-4.5-2.1v-1.9h28.9v1.9c-2.3,0.1-3.9,0.4-4.6,1.1c-0.7,0.6-1.2,1.5-1.1,2.5c0,1.3,0.8,4,2.4,8.2l13.1,33.7   l10.5-26.3l-2.8-7.4c-1-2.8-2.1-5.5-3.5-8.1c-0.7-1.2-1.6-2.2-2.8-2.9c-1.5-0.7-3.1-1-4.7-0.9v-1.9h32.3v1.9   c-1.6,0-3.3,0.1-4.9,0.6c-0.7,0.2-1.2,0.6-1.6,1.2c-0.4,0.6-0.6,1.2-0.6,1.9c0,0.8,0.7,3.2,2.2,7.2l12.1,32.9l10.9-29.7   c0.8-2.1,1.5-4.2,2.1-6.3c0.2-1,0.4-2.1,0.4-3.1c0.1-1.3-0.4-2.5-1.4-3.3c-0.9-0.8-2.7-1.2-5.2-1.3v-1.9L343.8,105.5z M359.2,127   v37.9c0,3.4,0.4,5.5,1.1,6.5s2.2,1.5,4.4,1.6v1.8H340V173c1.7,0.1,3.3-0.6,4.5-1.9c0.7-0.8,1-2.9,1-6.2V137c0-3.4-0.4-5.5-1.1-6.5   c-0.8-0.9-2.2-1.5-4.4-1.6V127L359.2,127L359.2,127z M352.4,103.8c2.1,0,4,0.8,5.4,2.3c1.5,1.5,2.3,3.5,2.2,5.6   c0,2.1-0.8,4.1-2.2,5.6c-1.4,1.5-3.3,2.3-5.4,2.3c-2,0-4-0.8-5.4-2.3c-2.9-3.1-2.9-8,0-11.2C348.4,104.6,350.3,103.8,352.4,103.8   L352.4,103.8z M383.1,127v6.2c1.9-2.3,4.2-4.3,6.8-5.8c2.1-1.2,4.5-1.8,7-1.8c2.7-0.1,5.4,0.8,7.4,2.6c1.9,1.7,3.3,3.9,3.9,6.4   c0.5,1.9,0.8,5.7,0.8,11.2v18.6c0,3.7,0.3,6,1,6.9s2,1.5,4,1.7v1.8h-23.3V173c1.5-0.1,2.9-1,3.7-2.3c0.5-0.9,0.8-3,0.8-6.3v-21.3   c0.1-2.5,0-5-0.4-7.4c-0.2-0.9-0.8-1.8-1.5-2.4c-0.7-0.5-1.5-0.8-2.3-0.9c-2.8,0-5.4,2.1-7.9,6.3v25.6c0,3.6,0.3,5.8,1,6.8   c0.9,1.1,2.2,1.7,3.6,1.8v1.8h-23.3v-1.8c1.6,0,3.1-0.7,4.1-2c0.6-0.7,0.8-3,0.8-6.6v-27c0-3.6-0.3-5.9-1-6.8c-0.6-0.9-2-1.5-4-1.7   v-1.9L383.1,127z M444.8,127.6h15.5v5.6h-8.8c1.4,1.3,2.5,2.9,3.3,4.6c0.8,1.8,1.2,3.8,1.2,5.8c0.1,3.2-0.9,6.3-2.7,8.9   c-1.9,2.6-4.5,4.6-7.4,5.9c-2.6,1.3-5.4,2-8.3,2.1l-5.9-0.3c-1.4,0-2.7,0.5-3.7,1.5c-1,0.9-1.5,2.3-1.5,3.6c0,1.2,0.5,2.3,1.4,3   c1.3,0.9,2.8,1.3,4.4,1.2l8.5-0.1c6.9,0,11.6,0.8,14.2,2.4c3.7,2.2,5.5,5.5,5.5,10.1c0,2.8-0.9,5.6-2.5,7.9c-1.7,2.4-4,4.2-6.7,5.2   c-4.7,1.7-9.6,2.6-14.6,2.5c-3.8,0-7.6-0.4-11.3-1.2c-3.4-0.8-5.9-2-7.3-3.5c-1.3-1.2-2.1-2.9-2.2-4.7c0-1.6,0.6-3.1,1.7-4.2   c1.1-1.2,3.2-2.3,6.3-3.1c-4.2-2.2-6.4-5.2-6.4-9.1c0.1-2.5,1-4.9,2.6-6.9c2.2-2.6,5.1-4.6,8.2-5.8c-4.4-1.7-7.6-3.9-9.5-6.6   c-2-2.8-3-6.1-3-9.5c0-4.7,2-9.1,5.5-12.1c3.7-3.4,8.4-5.1,14.1-5.1C438.7,125.6,441.9,126.3,444.8,127.6L444.8,127.6z    M433.4,181.9c-3.3,0-5.5,0.3-6.6,0.9c-1.7,0.8-2.8,2.4-2.8,4.3c0,1.7,1,3.3,2.9,4.7s5.6,2.1,10.9,2.1c4.5,0,8.1-0.6,10.7-1.9   s3.9-3,3.9-5.3c0-0.8-0.2-1.5-0.7-2.1c-1.1-1.1-2.5-1.9-4-2.1C445.9,182.1,441.2,181.9,433.4,181.9L433.4,181.9z M436.3,128.7   c-1.9,0-3.5,1-4.8,3s-2,6.1-2,12.4c0,5.1,0.6,8.6,1.9,10.5s2.8,2.8,4.6,2.8c2,0,3.9-1.1,4.9-2.8c1.3-1.9,2-5.5,2-10.9   c0-6.1-0.7-10.3-2.2-12.5C439.8,129.7,438.1,128.7,436.3,128.7L436.3,128.7z"/>
</g>
</svg>
