<?xml version="1.0" encoding="UTF-8"?><svg id="Layer_2" xmlns="http://www.w3.org/2000/svg" viewBox="0 0 560.04 98.47"><defs><style>.cls-1{fill:#000000;}</style></defs><g id="Layer_1-2"><path class="cls-1" d="m10.88,87.04h76.16V10.88H10.88v76.16Zm87.04,10.88H0V0h97.92v97.92Z"/><path class="cls-1" d="m37.96,26.05c0,4.55-3.69,8.24-8.24,8.24s-8.24-3.69-8.24-8.24,3.69-8.24,8.24-8.24,8.24,3.69,8.24,8.24"/><path class="cls-1" d="m76.44,26.05c0,4.55-3.69,8.24-8.24,8.24s-8.24-3.69-8.24-8.24,3.69-8.24,8.24-8.24,8.24,3.69,8.24,8.24"/><polygon class="cls-1" points="48.25 80.83 18.34 50.13 26.54 42.98 48.92 65.04 99.66 19.51 107.23 27.32 48.25 80.83"/><path class="cls-1" d="m154.07,98.47c-8.76,0-15.82-.53-32.69-6.93l6.27-22.23c20.8,6.54,23.8,6.8,29.43,6.8,4.45,0,7.32-2.35,7.32-7.06,0-3.79-2.23-5.36-6.02-6.54l-15.3-4.97c-10.98-3.53-20.79-11.64-20.79-27.07,0-19.48,15.82-30.47,36.09-30.47,7.33,0,14.25.79,29.55,4.84l-5.62,22.36c-16.34-4.05-21.84-4.84-26.81-4.84-4.19,0-6.93,1.7-6.93,6.54,0,3.4,2.48,4.57,6.28,5.88l15.3,5.23c11.51,3.79,20.66,11.64,20.66,27.07,0,20.66-16.21,31.39-36.75,31.39"/><path class="cls-1" d="m238.81,98.47c-30.34,0-41.19-17.39-41.19-49.3,0-36.75,15.69-49.17,40.54-49.17,7.06,0,13.86.79,28.12,5.36l-5.49,23.41c-11.9-4.58-16.21-5.89-20.92-5.89-9.94,0-13.99,2.35-13.99,26.03s4.05,26.68,13.99,26.68c5.1,0,10.86-1.96,22.89-7.59l5.23,23.41c-13.99,5.75-21.58,7.06-29.16,7.06"/><polygon class="cls-1" points="276.78 97.16 276.78 1.31 338.25 1.31 338.25 23.54 303.72 23.54 303.72 37.79 335.76 37.79 335.76 59.9 303.72 59.9 303.72 75.06 339.03 75.06 340.34 97.16 276.78 97.16"/><polygon class="cls-1" points="352.11 97.16 352.11 1.31 379.05 1.31 379.05 74.54 408.99 74.54 410.83 97.16 352.11 97.16"/><polygon class="cls-1" points="452.1 23.54 452.1 97.16 425.03 97.16 425.03 23.54 404.5 23.54 404.5 1.31 472.76 1.31 472.76 23.54 452.1 23.54"/><path class="cls-1" d="m518.58,21.71c-10.33,0-12.95,2.88-12.95,27.59s2.22,27.59,13.08,27.59,13.08-3.93,13.08-27.59-3.53-27.59-13.21-27.59m.13,76.76c-26.94,0-41.33-13.47-41.33-48.65S492.17,0,518.72,0s41.32,13.99,41.32,49.3-15.17,49.17-41.32,49.17"/></g></svg>
