<?xml version="1.0" encoding="UTF-8"?><svg id="Layer_2" xmlns="http://www.w3.org/2000/svg" viewBox="0 0 307.29 77.46"><defs><style>.cls-1{fill:#000000;}</style></defs><g id="Layer_1-2"><path class="cls-1" d="m2.07,77.46v-6.19h24.99c4.24,0,6.2-2.58,6.2-6.2v-7.02c0-3.31-2.27-5.38-5.47-5.89l-16.53-2.49c-7.75-1.13-11.26-4.54-11.26-11.67v-4.14c0-8.05,4.03-12.19,12.4-12.19h25.82v6.2H12.4c-3.72,0-5.37,2.58-5.37,5.99v4.14c0,3.41,2.17,5.17,5.37,5.68l16.53,2.48c7.74,1.14,11.36,4.75,11.36,11.88v7.02c0,8.26-4.34,12.39-13.23,12.39H2.07Z"/><path class="cls-1" d="m64.04,77.46c-8.26,0-12.39-4.13-12.39-12.39v-30.98c0-8.27,4.13-12.4,12.39-12.4h24.79v6.2h-24.79c-3.61,0-5.37,2.58-5.37,6.2v30.98c0,3.62,1.76,6.2,5.37,6.2h24.79v6.19h-24.79Z"/><path class="cls-1" d="m100.71,7.02V0h7.03v7.02h-7.03Zm0,70.44V21.69h7.03v55.77h-7.03Z"/><path class="cls-1" d="m134.07,77.46c-8.26,0-12.39-4.13-12.39-12.39v-30.98c0-8.27,4.13-12.4,12.39-12.4h18.49c8.37,0,12.5,4.13,12.5,12.4v6.19c0,7.23-4.44,8.78-12.5,10.02l-23.86,3.61v11.16c0,3.62,1.75,6.2,5.37,6.2h28.2v6.19h-28.2Zm23.96-43.37c0-3.62-1.75-6.2-5.47-6.2h-18.49c-3.61,0-5.37,2.58-5.37,6.2v13.84l23.86-3.62c3.72-.51,5.47-1.65,5.47-4.03v-6.19Z"/><path class="cls-1" d="m213.3,77.46v-43.37c0-3.62-1.76-6.2-5.37-6.2h-18.59c-3.61,0-5.37,2.58-5.37,6.2v43.37h-7.02v-43.37c0-8.27,4.13-12.4,12.39-12.4h18.59c8.26,0,12.4,4.13,12.4,12.4v43.37h-7.02Z"/><path class="cls-1" d="m245.11,77.46c-8.27,0-12.39-4.13-12.39-12.39V9.3h7.02v12.39h13.84v6.2h-13.84v37.18c0,3.62,1.76,6.2,5.37,6.2h8.47v6.19h-8.47Z"/><path class="cls-1" d="m276.41,77.46c-8.37,0-12.5-4.13-12.5-12.39v-8.99c0-7.12,4.54-10.64,12.5-11.88l23.86-3.72v-6.4c0-3.62-1.75-6.2-5.37-6.2h-28.92v-6.2h28.92c8.27,0,12.39,4.13,12.39,12.4v30.98c0,8.26-4.13,12.39-12.39,12.39h-18.49Zm23.86-30.98l-23.86,3.72c-3.2.52-5.48,2.58-5.48,5.88v8.99c0,3.62,1.76,6.2,5.48,6.2h18.49c3.62,0,5.37-2.58,5.37-6.2v-18.59Z"/></g></svg>
