<?xml version="1.0" encoding="UTF-8"?>
<svg id="Layer_2" xmlns="http://www.w3.org/2000/svg" viewBox="0 0 166.78 198.1">
    <defs>
        <style>.cls-1{fill:#000000;}.cls-2{fill:none;stroke:#000000;stroke-miterlimit:10;stroke-width:3.4px;}</style>
    </defs>
    <g id="Layer_1-2">
        <rect class="cls-2" x="1.7" y="1.7" width="163.38" height="163.38"/>
        <path class="cls-1"
              d="m10.27,198.1c-1.3,0-2.47-.15-3.5-.44-1.04-.29-1.93-.72-2.68-1.27-.74-.55-1.32-1.24-1.72-2.06-.41-.82-.63-1.75-.66-2.79h4.46c.12,1.06.52,1.82,1.21,2.31.68.48,1.65.73,2.89.73.43,0,.85-.04,1.25-.13.4-.09.75-.22,1.06-.41.31-.18.56-.41.74-.7.18-.28.27-.63.27-1.02s-.1-.76-.3-1.04c-.2-.28-.49-.51-.87-.7-.38-.19-.85-.36-1.4-.51-.55-.15-1.18-.3-1.87-.45-.93-.21-1.82-.44-2.65-.7s-1.56-.6-2.18-1.02c-.62-.43-1.11-.96-1.47-1.61-.35-.65-.53-1.48-.53-2.48s.19-1.87.57-2.6c.38-.73.91-1.33,1.59-1.8.68-.48,1.47-.83,2.39-1.07.92-.23,1.91-.35,2.98-.35s2.03.12,2.93.36c.9.24,1.68.61,2.34,1.09.66.48,1.18,1.09,1.58,1.8.4.72.63,1.55.7,2.51h-4.34c-.12-.76-.47-1.35-1.04-1.77-.57-.42-1.34-.62-2.31-.62-.92,0-1.65.18-2.21.54-.55.36-.83.85-.83,1.45,0,.38.1.69.31.93.21.24.51.45.91.64.4.18.89.34,1.46.48.58.14,1.25.29,2.01.47.87.19,1.7.42,2.51.69.8.27,1.51.63,2.13,1.08.61.45,1.1,1.01,1.48,1.69.37.68.56,1.52.56,2.54s-.2,1.89-.6,2.66c-.4.77-.95,1.42-1.65,1.95-.7.53-1.52.93-2.47,1.21-.94.28-1.97.42-3.07.42"/>
        <path class="cls-1"
              d="m25.71,191.61l-1.37,1.43v4.6h-4.03v-19.32h4.03v6.02c0,1.02-.01,1.9-.04,2.65-.02.74-.06,1.34-.09,1.79l4.54-4.96h4.73l-4.93,5.11,5.51,8.7h-4.73l-3.61-6.03Z"/>
        <path class="cls-1"
              d="m40.54,195.32c.92,0,1.65-.25,2.2-.75.54-.5.82-1.13.82-1.89v-1.79c-.29.19-.65.34-1.08.45-.43.11-.86.22-1.31.32-.9.19-1.57.43-2,.7-.43.28-.65.72-.65,1.32s.2,1.03.6,1.27.87.36,1.43.36m3.43,2.31c-.1-.16-.2-.38-.29-.66-.09-.29-.15-.63-.18-1.02h-.05c-.45.64-.99,1.14-1.62,1.51-.63.36-1.49.54-2.56.54-.68,0-1.3-.09-1.88-.27-.58-.18-1.08-.45-1.51-.79-.42-.35-.75-.79-.99-1.31-.23-.53-.35-1.13-.35-1.8,0-.76.15-1.39.43-1.89.28-.5.67-.91,1.16-1.22.48-.31,1.05-.55,1.71-.71.66-.16,1.37-.29,2.13-.38,1.23-.17,2.12-.38,2.66-.62.54-.24.82-.62.82-1.14s-.16-.9-.49-1.21c-.33-.3-.85-.46-1.56-.46-.78,0-1.36.17-1.75.5-.39.33-.61.77-.66,1.32h-3.76c.02-.59.16-1.16.42-1.71.26-.55.64-1.04,1.14-1.46.5-.43,1.13-.76,1.89-1.01.76-.25,1.66-.37,2.68-.37.88,0,1.64.06,2.29.19.64.13,1.2.34,1.69.64.73.42,1.26.97,1.6,1.67.34.7.51,1.52.51,2.46v7.09c0,1.06.17,1.7.52,1.92v.23h-3.97Z"/>
        <path class="cls-1"
              d="m49.24,183.82h2.08v-4.41h4v4.41h2.7v2.6h-2.7v6.85c0,.52.13.87.4,1.05.27.18.64.27,1.13.27.14,0,.29,0,.47-.01.17-.01.33-.02.47-.04h.21v3.04c-.23.03-.54.08-.93.13-.4.05-.88.08-1.43.08-.64,0-1.22-.06-1.75-.17-.53-.11-.98-.31-1.36-.6-.38-.29-.68-.66-.88-1.12-.21-.46-.31-1.04-.31-1.75v-7.74h-2.08v-2.6Z"/>
        <path class="cls-1"
              d="m59.21,183.82h2.08v-4.41h4v4.41h2.7v2.6h-2.7v6.85c0,.52.13.87.4,1.05.27.18.64.27,1.13.27.14,0,.29,0,.47-.01.17-.01.33-.02.47-.04h.21v3.04c-.23.03-.54.08-.93.13-.4.05-.88.08-1.43.08-.64,0-1.22-.06-1.75-.17-.53-.11-.98-.31-1.36-.6-.38-.29-.68-.66-.88-1.12-.21-.46-.31-1.04-.31-1.75v-7.74h-2.08v-2.6Z"/>
        <path class="cls-1"
              d="m76.55,186.31c-.93,0-1.64.28-2.13.83-.48.55-.8,1.31-.93,2.26h5.89c-.07-.97-.35-1.73-.86-2.27-.5-.54-1.16-.82-1.97-.82m.21,11.74c-1.13,0-2.14-.19-3.04-.56-.9-.37-1.67-.89-2.3-1.55-.63-.65-1.11-1.43-1.45-2.31-.34-.88-.51-1.84-.51-2.88s.17-2,.52-2.89c.35-.89.83-1.67,1.45-2.32.62-.66,1.37-1.17,2.23-1.54.87-.37,1.82-.56,2.88-.56.99,0,1.87.15,2.66.46.79.32,1.48.75,2.09,1.3.78.77,1.35,1.71,1.71,2.83s.54,2.37.52,3.74h-10.07c.14,1.04.48,1.85,1.04,2.44.55.59,1.32.88,2.31.88.64,0,1.16-.12,1.57-.35.41-.24.72-.57.95-1h3.95c-.17.61-.45,1.17-.82,1.7-.37.53-.83.99-1.38,1.38-.54.39-1.18.69-1.91.91-.73.22-1.53.33-2.41.33"/>
        <path class="cls-1"
              d="m92.02,186.31c-.93,0-1.64.28-2.13.83-.48.55-.8,1.31-.93,2.26h5.89c-.07-.97-.35-1.73-.86-2.27-.5-.54-1.16-.82-1.97-.82m.21,11.74c-1.13,0-2.14-.19-3.04-.56-.9-.37-1.67-.89-2.3-1.55-.63-.65-1.11-1.43-1.45-2.31-.34-.88-.51-1.84-.51-2.88s.17-2,.52-2.89c.35-.89.83-1.67,1.45-2.32.62-.66,1.37-1.17,2.23-1.54.87-.37,1.82-.56,2.88-.56.99,0,1.87.15,2.66.46.79.32,1.49.75,2.09,1.3.78.77,1.35,1.71,1.71,2.83.36,1.13.54,2.37.52,3.74h-10.07c.14,1.04.48,1.85,1.04,2.44.55.59,1.32.88,2.31.88.64,0,1.16-.12,1.57-.35.41-.24.72-.57.95-1h3.95c-.17.61-.45,1.17-.82,1.7-.37.53-.83.99-1.38,1.38-.54.39-1.18.69-1.91.91-.73.22-1.53.33-2.41.33"/>
        <path class="cls-1"
              d="m99.99,183.82h2.08v-4.41h4v4.41h2.7v2.6h-2.7v6.85c0,.52.13.87.4,1.05.27.18.64.27,1.13.27.14,0,.29,0,.47-.01.17-.01.33-.02.47-.04h.21v3.04c-.23.03-.54.08-.93.13-.4.05-.88.08-1.43.08-.64,0-1.22-.06-1.75-.17-.53-.11-.98-.31-1.36-.6-.38-.29-.68-.66-.88-1.12-.21-.46-.31-1.04-.31-1.75v-7.74h-2.08v-2.6Z"/>
        <path class="cls-1"
              d="m116.58,195.32c.92,0,1.65-.25,2.2-.75.54-.5.82-1.13.82-1.89v-1.79c-.29.19-.65.34-1.08.45-.43.11-.86.22-1.31.32-.9.19-1.57.43-2,.7-.43.28-.65.72-.65,1.32s.2,1.03.6,1.27c.4.24.87.36,1.43.36m3.43,2.31c-.1-.16-.2-.38-.28-.66-.09-.29-.15-.63-.18-1.02h-.05c-.45.64-.99,1.14-1.62,1.51-.63.36-1.49.54-2.56.54-.68,0-1.3-.09-1.88-.27-.58-.18-1.08-.45-1.51-.79-.42-.35-.75-.79-.99-1.31-.23-.53-.35-1.13-.35-1.8,0-.76.15-1.39.43-1.89.28-.5.67-.91,1.16-1.22.48-.31,1.05-.55,1.71-.71.66-.16,1.37-.29,2.13-.38,1.23-.17,2.12-.38,2.66-.62.54-.24.82-.62.82-1.14s-.16-.9-.49-1.21c-.33-.3-.85-.46-1.56-.46-.78,0-1.36.17-1.75.5-.39.33-.61.77-.66,1.32h-3.76c.02-.59.16-1.16.42-1.71.26-.55.64-1.04,1.14-1.46.5-.43,1.13-.76,1.89-1.01.76-.25,1.66-.37,2.68-.37.88,0,1.64.06,2.29.19.64.13,1.2.34,1.69.64.73.42,1.26.97,1.6,1.67.34.7.51,1.52.51,2.46v7.09c0,1.06.17,1.7.52,1.92v.23h-3.97Z"/>
        <path class="cls-1"
              d="m125.28,183.82h2.07v-4.41h4v4.41h2.7v2.6h-2.7v6.85c0,.52.14.87.41,1.05.27.18.64.27,1.13.27.14,0,.29,0,.47-.01.17-.01.33-.02.47-.04h.21v3.04c-.23.03-.54.08-.93.13-.4.05-.88.08-1.43.08-.64,0-1.22-.06-1.75-.17-.53-.11-.98-.31-1.36-.6-.38-.29-.68-.66-.88-1.12-.21-.46-.32-1.04-.32-1.75v-7.74h-2.07v-2.6Z"/>
        <path class="cls-1"
              d="m142.62,186.31c-.93,0-1.64.28-2.13.83-.48.55-.8,1.31-.93,2.26h5.89c-.07-.97-.35-1.73-.86-2.27-.5-.54-1.16-.82-1.97-.82m.21,11.74c-1.13,0-2.14-.19-3.04-.56-.9-.37-1.67-.89-2.3-1.55-.63-.65-1.11-1.43-1.45-2.31-.34-.88-.51-1.84-.51-2.88s.17-2,.52-2.89c.35-.89.83-1.67,1.45-2.32.62-.66,1.37-1.17,2.23-1.54.87-.37,1.82-.56,2.88-.56.99,0,1.87.15,2.66.46.79.32,1.49.75,2.09,1.3.78.77,1.35,1.71,1.71,2.83.36,1.13.54,2.37.52,3.74h-10.07c.14,1.04.48,1.85,1.04,2.44.55.59,1.32.88,2.31.88.64,0,1.16-.12,1.57-.35.41-.24.72-.57.95-1h3.95c-.17.61-.45,1.17-.82,1.7-.37.53-.83.99-1.38,1.38-.54.39-1.18.69-1.91.91-.73.22-1.53.33-2.41.33"/>
        <path class="cls-1"
              d="m155.6,185.92h.08c.43-.83,1.01-1.45,1.72-1.87.72-.42,1.56-.62,2.53-.62,1.52,0,2.7.46,3.54,1.39.84.93,1.26,2.17,1.26,3.73v9.09h-4.05v-8.31c0-.76-.19-1.37-.59-1.83-.39-.46-.97-.69-1.72-.69-.8,0-1.44.29-1.93.86-.48.57-.72,1.3-.72,2.18v7.79h-4.08v-13.81h3.94v2.1Z"/>
        <path class="cls-1"
              d="m83.51,114.93c-28.05,0-50.8-12.41-50.8-27.71s22.7-27.68,50.72-27.7v-13.66c8.68,0,16.97,1.19,24.11,3.28l-23.99,24.18v13.91l23.99-24.42c15.95,4.67,26.78,13.86,26.78,24.42,0,15.31-22.76,27.71-50.81,27.71"/>
    </g>
</svg>
