<?xml version="1.0" encoding="UTF-8"?><svg id="Layer_2" xmlns="http://www.w3.org/2000/svg" viewBox="0 0 652.65 82.98"><defs><style>.cls-1{fill:#000000;}</style></defs><g id="Layer_1-2"><path class="cls-1" d="m354.89,67.57c-.54.36-1.19.76-1.78,1.1l-.18.11.18.02c11.65,3.2,23.19,3.08,25.4-4.19,2.86-9.38-15.67-19.45-24.42-24.25-1.87-1.03-2.69-.39-1.49.99,5.52,6.36,13.39,18.87,2.29,26.22"/><path class="cls-1" d="m455.33,26.42h-9.82v-8.22h9.82V6.01h9.52v12.19h15.66v8.22h-15.66v24.75c0,6.19,1.72,9.44,9.66,9.44,3.03,0,6.44-.87,6.44-.87v8.57c-3.31.45-5.71.71-9.46.71-14.99,0-16.15-10.81-16.15-16.73v-25.87Z"/><rect class="cls-1" x="581.76" y="18.15" width="9.75" height="50.99"/><path class="cls-1" d="m608.72,43.27c0,13.89,11.44,17.35,16.87,17.35,10.35,0,17.66-5.85,17.66-17.55s-8.3-17.06-17.76-17.06c-5.36,0-16.77,3.15-16.77,17.26m-9.91-.1c0-19.18,15.5-25.69,26.27-25.69,12.23,0,18.16,7.01,18.16,7.01l.51-6.34h8.9v51.09h-8.92l-.49-6.75s-6.1,6.76-18.27,6.76-26.16-7.09-26.16-26.08"/><path class="cls-1" d="m593.01,6.38c0-3.52-2.85-6.38-6.37-6.38s-6.38,2.86-6.38,6.38,2.85,6.38,6.38,6.38,6.37-2.85,6.37-6.38"/><path class="cls-1" d="m574.64,26.91v-8.63c-9.62-.88-16.38,1.43-21.65,6.93l-.51-7.03h-9.24v51.03h9.75v-26.44c0-7.38,5.95-16.73,21.65-15.85"/><path class="cls-1" d="m482.85,43.36c0-15.95,11.79-26.19,27.53-26.19s26.39,11.43,26.39,25.31c0,0,0,2.17-.21,4.14l-43.58.18c.42,7.88,9.51,13.82,18.89,13.82,10.1,0,16.09-6.25,16.09-6.25l6.97,6.13c-7.08,6.79-14.8,8.86-23.06,8.86-17.19,0-29.04-10.04-29.04-25.6v-.39Zm43.22-4.38c0-6.93-6.98-12.71-15.55-12.71-9.18,0-16.77,5.66-17.38,12.71h32.93Z"/><path class="cls-1" d="m424.65,38.77c-9.81-1.75-19.46-2.98-19.46-7.55,0-2.98,2.96-5.6,11.55-5.6,6.38,0,13.75,1.48,15.74,6l9.05-3.8c-3.46-6.95-13.7-10.3-25.47-10.3-10.29,0-21.33,3.9-21.33,14.31,0,9.02,8.21,11.82,21.74,14.37,9.04,1.7,17.38,2.56,17.38,7.44,0,3.08-4.1,7.02-14.36,7.02-7.29,0-14.64-1.53-16.89-6.72l-8.77,3.68c3.6,8.01,13.14,12.16,24.2,12.16,22.08,0,26.35-10.51,26.35-16.47,0-9.93-9.88-12.78-19.74-14.54"/><path class="cls-1" d="m143.77,26.01c-9.45,0-17.75,5.36-17.75,17.06s7.3,17.55,17.65,17.55c5.42,0,16.87-2.2,16.87-17.35s-11.41-17.26-16.77-17.26m.51,43.24c-12.21,0-18.26-7.76-18.26-7.76v21.49h-9.41V18.15h8.9l.51,6.34s5.92-7.01,18.16-7.01c10.76,0,26.26,5.49,26.26,25.69s-13.95,26.08-26.16,26.08"/><path class="cls-1" d="m217.02,43.27c0,13.89,11.44,17.35,16.87,17.35,10.35,0,17.65-5.85,17.65-17.55s-8.3-17.06-17.75-17.06c-5.36,0-16.77,3.15-16.77,17.26m-9.91-.1c0-19.18,15.5-25.69,26.27-25.69,12.23,0,18.16,7.01,18.16,7.01l.5-6.34h8.91v51.09h-8.88l-.53-6.75s-6.1,6.76-18.27,6.76-26.16-7.09-26.16-26.08"/><path class="cls-1" d="m207.82,26.91v-8.63c-9.62-.88-16.38,1.43-21.65,6.93l-.5-7.03h-9.25v51.03h9.75v-26.44c0-7.38,5.95-16.73,21.65-15.85"/><path class="cls-1" d="m30.81,38.77c-9.81-1.75-19.46-2.98-19.46-7.55,0-2.98,2.96-5.6,11.55-5.6,6.38,0,13.74,1.48,15.74,6l9.05-3.8c-3.47-6.95-13.7-10.3-25.47-10.3C11.93,17.51.89,21.41.89,31.82c0,9.02,8.21,11.82,21.75,14.37,9.04,1.7,17.38,2.56,17.38,7.44,0,3.08-4.11,7.02-14.36,7.02-7.29,0-14.65-1.53-16.89-6.72l-8.77,3.68c3.59,8.01,13.14,12.16,24.2,12.16,22.08,0,26.35-10.51,26.35-16.47,0-9.93-9.88-12.78-19.74-14.54"/><path class="cls-1" d="m82.92,17.48c-13.04,0-28.47,6.51-28.47,25.69s13.89,26.37,28.47,26.37,28.47-7.38,28.47-26.37-15.43-25.69-28.47-25.69m0,43.14c-8.01,0-18.57-3.46-18.57-17.35s11.71-16.98,18.57-16.98,18.57,2.87,18.57,16.98-10.55,17.35-18.57,17.35"/><path class="cls-1" d="m352.94,68.78s-14.67,9.22-40.56,9.22c-10.03,0-18.47-1.54-22.05-5.05-3.76-3.7-5.8-9.93-5.8-15.66,0-4.91,2.04-9.04,6.29-9.04,10.92,0,44.92,17.29,62.11,20.53"/><path class="cls-1" d="m304.05,15.32c.54-.36,1.19-.76,1.78-1.1l.18-.11-.18-.02c-11.65-3.2-23.19-3.08-25.4,4.19-2.86,9.38,15.67,19.45,24.42,24.25,1.87,1.03,2.69.39,1.49-.99-5.52-6.36-13.39-18.87-2.29-26.22"/><path class="cls-1" d="m306.01,14.11s14.67-9.22,40.56-9.22c10.03,0,18.47,1.54,22.05,5.05,3.76,3.7,5.8,9.93,5.8,15.66,0,4.91-2.04,9.04-6.29,9.04-10.92,0-44.92-17.29-62.11-20.53"/></g></svg>
