<?xml version="1.0" encoding="UTF-8"?><svg id="Layer_2" xmlns="http://www.w3.org/2000/svg" viewBox="0 0 253.29 55.52"><defs><style>.cls-1,.cls-2{fill:#000000;}.cls-2{opacity:.65;}</style></defs><g id="SpareBank_1"><path class="cls-1" d="m10.85,43.48c-5.13,0-9.19-1.18-9.94-1.42-.39-.16-.59-.47-.59-.83v-.2l.51-2.6c.08-.39.35-.51.67-.51.08,0,.16,0,.28.04.83.16,4.85,1.3,8.64,1.3,3.24,0,6.12-.95,6.12-4.3s-2.96-3.75-6.79-4.3c-4.26-.63-9.75-1.78-9.75-8.48s5.13-8.72,11.21-8.72c4.62,0,8.44,1.1,9.31,1.34.47.12.71.43.71.83v.2l-.55,2.56c-.04.28-.32.55-.63.55-.04,0-.08-.04-.12-.04-1.89-.39-4.81-1.18-8.29-1.18-2.92,0-6,.55-6,3.87s3.31,3.75,6.83,4.26c4.62.71,9.86,1.38,9.86,8.72,0,6.9-5.6,8.92-11.48,8.92Z"/><path class="cls-1" d="m60.98,43.01c-1.38.32-3.27.55-5.48.55-4.26,0-9.51-.43-9.51-6.71,0-5.09,3.2-5.64,6.35-6.16l7.02-1.14v-1.26c0-1.1-.12-1.89-1.11-2.33-.63-.28-1.58-.39-3-.39-2.68,0-5.6.79-6.79,1.1-.12,0-.2.04-.28.04-.2,0-.39-.08-.43-.35l-.55-2.45v-.16c0-.35.28-.51.47-.59.95-.35,4.58-1.34,8.6-1.34,2.8,0,4.7.39,5.96,1.1,2.01,1.1,2.41,2.96,2.41,5.09v10.89c0,2.96-.99,3.47-3.67,4.1Zm-1.62-10.02l-4.89.79c-1.62.24-3.12.47-3.12,3.04,0,3.08,2.49,3.31,4.38,3.31,1.54,0,2.8-.28,3.63-.55v-6.59Z"/><path class="cls-1" d="m78.73,25.89c-2.41,0-4.46.24-5.56.51v16.06c0,.36-.24.59-.59.59h-4.02c-.24,0-.67-.24-.67-.59v-17.04c0-1.54.91-2.01,2.8-2.56,1.74-.55,4.54-.95,6.79-.99h.67q.55,0,.83.12c.16.08.35.24.35.63v2.56c0,.39-.04.71-.59.71Z"/><path class="cls-1" d="m99.38,34.21c0,.43-.24.91-.83.91h-13.22c0,1.82.51,2.8,1.58,3.63,1.03.83,2.52,1.18,4.66,1.18,2.45,0,4.3-.59,5.52-.95.08-.04.12-.04.2-.04.24,0,.43.16.55.55l.51,2.01s.04.12.04.2c0,.32-.2.47-.47.59-1.34.55-4.02,1.26-7.14,1.26-7.73,0-10.77-3.04-10.77-10.77s2.05-10.97,9.75-10.97c3.98,0,6.43,1.03,7.85,2.92,1.34,1.78,1.78,4.3,1.78,7.57v1.89Zm-5.56-5.88c-.51-2.17-1.7-2.88-4.02-2.88-2.64,0-3.75.79-4.18,2.76-.28,1.1-.28,2.25-.32,3.55l8.84-.04c0-1.26-.04-2.33-.32-3.39Z"/><path class="cls-1" d="m144.26,43.01c-1.38.32-3.28.55-5.48.55-4.26,0-9.51-.43-9.51-6.71,0-5.09,3.2-5.64,6.35-6.16l7.02-1.14v-1.26c0-1.1-.12-1.89-1.11-2.33-.63-.28-1.58-.39-3-.39-2.68,0-5.6.79-6.79,1.1-.12,0-.2.04-.28.04-.2,0-.39-.08-.43-.35l-.55-2.45v-.16c0-.35.28-.51.47-.59.95-.35,4.58-1.34,8.6-1.34,2.8,0,4.7.39,5.96,1.1,2.01,1.1,2.41,2.96,2.41,5.09v10.89c0,2.96-.99,3.47-3.67,4.1Zm-1.62-10.02l-4.89.79c-1.62.24-3.12.47-3.12,3.04,0,3.08,2.49,3.31,4.38,3.31,1.54,0,2.8-.28,3.63-.55v-6.59Z"/><path class="cls-1" d="m169.03,43.05h-4.06c-.36,0-.63-.24-.63-.59v-13.93c0-2.29-.87-3.08-2.96-3.08-2.37,0-4.93.67-4.93.67v16.33c0,.36-.24.59-.59.59h-4.03c-.39,0-.67-.24-.67-.59v-17.01c0-1.5.75-2.01,2.96-2.6,2.01-.55,5.33-1.03,7.85-1.03,4.93,0,7.65,1.26,7.65,6v14.64c0,.36-.24.59-.59.59Z"/><path class="cls-1" d="m191.91,42.7c0,.16-.16.36-.39.36h-5.29c-.2,0-.39,0-.59-.24l-6.12-8.33h-1.34v7.97c0,.36-.2.59-.59.59h-4.06c-.35,0-.63-.24-.63-.59V14.88c0-.47.2-.71.67-.83l3.87-.67h.16c.36,0,.59.24.59.67v16.89h1.34l6.23-8.32c.16-.24.32-.28.51-.28l4.81.12c.28,0,.39.2.39.35,0,.08-.04.12-.08.2l-7.46,9.39,7.89,10.1s.08.12.08.2Z"/><path class="cls-1" d="m35.72,21.82c-2.64,0-5.68.43-8.05,1.26-1.78.55-2.49,1.14-2.49,3.2v24.42c0,.39.31.72.88.61.57-.1,3.74-.69,3.74-.69.47-.08.67-.32.67-.79v-6.88c1.4.34,3.17.6,5.13.6,7.34,0,8.72-4.62,8.72-10.85s-.99-10.89-8.6-10.89Zm-1.5,18.11c-2.13,0-3.75-.47-3.75-.47v-13.3s2.33-.63,4.14-.63c3,0,4.3.67,4.3,7.06,0,6-1.11,7.34-4.7,7.34Z"/><path class="cls-1" d="m116.72,43.05h-13.14c-.36,0-.67-.28-.67-.63V14.52c0-.35.32-.63.67-.63h13.18c6.67,0,9.39,2.62,9.39,7.35,0,4.18-2.32,5.68-5.92,6.71,3.99.66,6.9,2.82,6.9,7.48,0,5.29-3.71,7.62-10.42,7.62Zm-.51-25.09h-7.61v8.44l7.34-.32c3-.12,4.54-1.18,4.54-4.18,0-2.76-1.34-3.95-4.26-3.95Zm-.2,12.27l-7.42-.24v9h7.42c3.98,0,5.29-1.74,5.29-4.14,0-3.23-1.07-4.5-5.29-4.62Z"/><path class="cls-2" d="m225.53,0c-2.93,0-5.76.46-8.41,1.3,11.17-2.42,22.24,2.18,26.23,11.6,4.61,10.89-1.99,24.1-14.74,29.49-11.44,4.84-23.93,1.75-29.71-6.8,3.38,11.52,14.02,19.93,26.63,19.93,15.33,0,27.76-12.43,27.76-27.76S240.86,0,225.53,0Z"/><path class="cls-1" d="m243.34,12.9c-3.99-9.42-15.06-14.02-26.23-11.6-11.22,3.56-19.35,14.06-19.35,26.46,0,2.72.4,5.35,1.13,7.83,4.56,6.75,13.31,10.07,22.41,8.81v-22.39h-5.33c-.55,0-.99-.44-.99-.99v-4.67c0-.52.21-.82.72-1.03l8.33-4.29c.41-.15.67-.26,1.13-.26h6.45c.57,0,1.03.46,1.03,1.03v28.5c10.04-6.23,14.79-17.72,10.7-27.4Z"/></g></svg>
