<svg version="1.1" id="Layer_1" xmlns="http://www.w3.org/2000/svg" xmlns:xlink="http://www.w3.org/1999/xlink" x="0px" y="0px" style="enable-background:new 0 0 841.9 595.3;" xml:space="preserve" viewBox="95 223.28 651.93 123.55">
<style type="text/css">
	.st0{fill:#000000;}
</style>
<g>
	<g>
		<path class="st0" d="M244.7,319.5l5.5-8.7c5.9,4.6,13.4,7.3,21.3,7.3c8.3,0,14.2-3.9,14.2-11.1c0-6.9-4.5-10.4-16.3-13.3    c-13.3-3.4-21.8-8.5-21.8-20.5c0-11.7,10.2-20,24.5-20c10.7,0,17.9,2.8,23.1,7l-5,8c-5-3.7-10.1-5.7-18-5.7    c-8.1,0-13.8,3.6-13.8,10.1c0,6.4,5.3,8.9,15.6,11.5c14.1,3.7,22.6,9.2,22.6,21.9c0,13.5-10.7,21.3-24.8,21.3    C260.4,327.6,251.5,324.7,244.7,319.5z"/>
		<path class="st0" d="M359.7,303c0,14.1-9.8,24.6-22.9,24.6c-7.4,0-13-3.4-16.5-7.7v26.9h-10.2v-67.5h8.9l0.3,7.1    c3.7-4.6,9.4-8,17.3-8C349.6,278.3,359.7,288.8,359.7,303z M349.4,303c0-8.8-6.5-15.2-14.6-15.2c-8.9,0-14.8,6.4-14.8,15.2    c0,8.8,6,15.2,14.8,15.2C342.9,318.2,349.4,311.7,349.4,303z"/>
		<path class="st0" d="M371.2,263.2c0-4.1,3.2-6.8,7.2-6.9c4.1-0.1,7.3,2.8,7.3,6.9c0,4.1-3.2,7-7.3,7    C374.4,270.2,371.2,267.3,371.2,263.2z M373.5,279.3h10.2v47.4h-10.3L373.5,279.3z"/>
		<path class="st0" d="M429.4,278.6l-0.8,10.3c-1.3-0.5-2.6-0.8-4.5-0.8c-8.9,0-13.4,6.6-13.5,13.3v25.2h-10.3v-47.4h8.8l0.4,9.3    c2-5.6,7.6-10.2,16.1-10.2C426.9,278.3,428.3,278.4,429.4,278.6z"/>
		<path class="st0" d="M524,292.1v27.6c-4.2,2.8-12.8,7.8-27.4,7.8c-22,0-38.4-15.9-38.4-37.1c0-21.1,16.4-37.2,38.7-37.2    c13.8,0,21.4,4.9,24.1,6.8l-4.8,8.4c-2-1.5-8.2-5.4-18.6-5.4c-16,0-28.4,11.2-28.4,27.3c0,16.2,12.8,27.5,28,27.5    c7.1,0,12.8-1.6,16.7-3.5v-22.3H524z"/>
		<path class="st0" d="M567.7,278.6l-0.8,10.3c-1.3-0.5-2.6-0.8-4.5-0.8c-8.9,0-13.4,6.6-13.5,13.3v25.2h-10.3v-47.4h8.8l0.4,9.3    c2-5.6,7.6-10.2,16.1-10.2C565.3,278.3,566.6,278.4,567.7,278.6z"/>
		<path class="st0" d="M573.2,303.1c0-14.1,11.3-24.6,25.2-24.6c13.8,0,25.1,10.5,25.1,24.6c0,14-11.3,24.5-25.1,24.5    C584.5,327.6,573.2,317.1,573.2,303.1z M613.1,303.1c0-8.7-6.6-15.3-14.7-15.3c-8.2,0-14.8,6.7-14.8,15.3    c0,8.4,6.6,15.1,14.8,15.1C606.6,318.2,613.1,311.5,613.1,303.1z"/>
		<path class="st0" d="M681.4,279.3v47.4h-8.5l-0.3-7.2c-2.8,4.5-8.2,8.1-15.6,8.1c-12.5,0-21.1-8.8-21.1-22v-26.3h10.2v24.2    c0,8.7,4.8,14.2,12.2,14.2c8.3,0,12.8-6.7,12.9-13.3v-25.1H681.4z"/>
		<path class="st0" d="M746.9,303c0,14.1-9.8,24.6-22.9,24.6c-7.4,0-13-3.4-16.5-7.7v26.9h-10.2v-67.5h8.9l0.3,7.1    c3.7-4.6,9.4-8,17.3-8C736.8,278.3,746.9,288.8,746.9,303z M736.6,303c0-8.8-6.5-15.2-14.6-15.2c-8.9,0-14.8,6.4-14.8,15.2    c0,8.8,6,15.2,14.8,15.2C730.1,318.2,736.6,311.7,736.6,303z"/>
	</g>
	<path class="st0" d="M174.7,285l-18.1,18.1L138.6,285l18.1-18.1L174.7,285z M150.9,242.1c0,19.3-17.9,37.2-37.2,37.2H95v11.5h18.8   c19.3,0,37.2,17.9,37.2,37.2v18.8h11.5V328c0-19.3,17.9-37.2,37.2-37.2h18.8v-11.5h-18.8c-19.3,0-37.2-17.9-37.2-37.2v-18.8h-11.5   V242.1z"/>
</g>
</svg>
