<?xml version="1.0" encoding="UTF-8"?><svg id="Layer_2" xmlns="http://www.w3.org/2000/svg" viewBox="0 0 499.4 91.62"><defs><style>.cls-1{fill:#000000;}</style></defs><g id="Layer_1-2"><path class="cls-1" d="m117.77,36.26l3.22-4c1.66,2.06,4.13,3.3,6.78,3.41,2.61,0,3.91-1.19,3.91-2.88,0-2-1.45-2.72-4.75-3.83-4.1-1.46-8.21-3.37-8.21-8.51,0-4.37,3.84-7.71,8.75-7.78,3.37,0,6.63,1.23,9.16,3.46l-3.11,4.06c-2.26-1.88-4.25-2.68-5.94-2.68-1.88,0-3.26,1-3.26,2.72s1.46,2.41,4.57,3.64c4.71,1.84,8.43,3.07,8.43,8.32,0,5.94-5.18,8.36-9.62,8.36-3.76,0-7.36-1.55-9.93-4.29Z"/><path class="cls-1" d="m142.18,34.35v-8.67h-2.23v-4.14h2.23v-6.13l5-.54v6.67h5.1v4.14h-5.1v8c0,1.61.5,2.37,1.65,2.37.83-.05,1.63-.27,2.37-.65l1.31,4c-1.53.84-3.26,1.24-5,1.15-3.23.01-5.33-1.99-5.33-6.2Z"/><path class="cls-1" d="m173.91,21.54v18.71h-4.75v-2.26h-.15c-1.34,1.71-3.43,2.67-5.6,2.57-5.17,0-8.93-3.84-8.93-9.62s3.8-9.71,8.82-9.71c2.1-.07,4.12.82,5.48,2.42h.12v-2.11h5.01Zm-4.79,9.43c0-3-2-5.25-4.72-5.25s-4.83,2-4.83,5.25c0,3,2,5.1,4.79,5.1,2.65-.02,4.79-2.18,4.77-4.83,0-.09,0-.18,0-.27Z"/><path class="cls-1" d="m179.69,34.35v-8.67h-2.23v-4.14h2.23v-6.13l5-.54v6.67h5.1v4.14h-5.1v8c0,1.61.5,2.37,1.65,2.37.83-.05,1.64-.27,2.38-.65l1.3,4c-1.53.84-3.26,1.24-5,1.15-3.22.01-5.33-1.99-5.33-6.2Z"/><path class="cls-1" d="m193.52,15.83c-.03-1.73,1.34-3.16,3.07-3.19,1.73-.03,3.16,1.34,3.19,3.07.03,1.73-1.34,3.16-3.07,3.19-.03,0-.06,0-.09,0-1.7,0-3.08-1.37-3.1-3.07Zm.57,5.71h5v18.71h-5v-18.71Z"/><path class="cls-1" d="m203.25,37.84l2.45-3.49c1.36,1.4,3.23,2.19,5.18,2.18,1.46,0,2.3-.61,2.3-1.53s-1-1.3-3.41-2.07c-3.07-1-5.75-2.49-5.75-6.1,0-3.37,2.91-5.6,6.74-5.6,2.48-.06,4.9.77,6.83,2.34l-2.42,3.69c-1.19-1.21-2.79-1.92-4.48-2-.81,0-1.84.42-1.84,1.42,0,.77,1,1.3,2.83,2,4.07,1.5,6.44,2.38,6.44,6.06,0,3.34-2.37,5.83-7.28,5.83-2.78.05-5.48-.92-7.59-2.73Z"/><path class="cls-1" d="m222.83,34.35v-8.67h-2.22v-4.14h2.22v-6.13l5-.54v6.67h5.1v4.14h-5.1v8c0,1.61.5,2.37,1.65,2.37.83-.05,1.64-.27,2.38-.65l1.3,4c-1.53.84-3.26,1.24-5,1.15-3.22.01-5.33-1.99-5.33-6.2Z"/><path class="cls-1" d="m236.66,15.83c-.03-1.73,1.34-3.16,3.07-3.19,1.73-.03,3.16,1.34,3.19,3.07.03,1.73-1.34,3.16-3.07,3.19-.03,0-.05,0-.08,0-1.7,0-3.09-1.37-3.11-3.07Zm.58,5.71h5v18.71h-5v-18.71Z"/><path class="cls-1" d="m246.39,37.84l2.46-3.49c1.35,1.4,3.21,2.19,5.16,2.18,1.46,0,2.3-.61,2.3-1.53s-.95-1.3-3.41-2.07c-3.06-1-5.75-2.49-5.75-6.1,0-3.37,2.91-5.6,6.75-5.6,2.48-.06,4.9.77,6.82,2.34l-2.41,3.69c-1.19-1.21-2.79-1.92-4.49-2-.8,0-1.84.42-1.84,1.42,0,.77,1,1.3,2.84,2,4.06,1.5,6.44,2.38,6.44,6.06,0,3.34-2.38,5.83-7.29,5.83-2.78.04-5.47-.93-7.58-2.73Z"/><path class="cls-1" d="m273.1,32.81l-2.6,3v4.48h-5V12.03h5v17.1h0l6.7-7.55h5.87l-6.59,7.44,6.7,11.27h-5.59l-4.45-7.44-.04-.04Z"/><path class="cls-1" d="m295.44,37.84l2.45-3.49c1.36,1.4,3.23,2.19,5.18,2.18,1.45,0,2.29-.61,2.29-1.53s-1-1.3-3.41-2.07c-3.06-1-5.75-2.49-5.75-6.1,0-3.37,2.92-5.6,6.75-5.6,2.48-.06,4.9.77,6.82,2.34l-2.41,3.69c-1.19-1.21-2.79-1.92-4.49-2-.8,0-1.84.42-1.84,1.42,0,.77,1,1.3,2.84,2,4.07,1.5,6.44,2.38,6.44,6.06,0,3.34-2.37,5.83-7.28,5.83-2.78.05-5.48-.92-7.59-2.73Z"/><path class="cls-1" d="m331.69,32.51h-13.15c.54,2.19,2.54,3.69,4.79,3.6,1.75.06,3.42-.73,4.49-2.11l3.26,3c-1.99,2.37-4.97,3.69-8.07,3.56-5.11.2-9.42-3.77-9.62-8.88-.01-.27,0-.55,0-.82,0-5.68,3.94-9.63,9.27-9.63s9.16,4,9.16,9.48c.02.6-.02,1.21-.13,1.8Zm-13.11-3.61h8.24c-.36-1.92-2.05-3.29-4-3.26-2.02-.09-3.81,1.28-4.24,3.26Z"/><path class="cls-1" d="m354.11,29.13v11.12h-5v-9.85c0-3.57-1.27-4.68-3.61-4.68-2.53,0-4.25,1.76-4.25,5.1v9.43h-5v-18.71h5v2.42h.07c1.49-1.76,3.69-2.76,6-2.73,3.99,0,6.79,2.15,6.79,7.9Z"/><path class="cls-1" d="m359.77,34.35v-8.67h-2.23v-4.14h2.23v-6.13l5-.54v6.67h5.1v4.14h-5.1v8c0,1.61.5,2.37,1.65,2.37.83-.05,1.64-.27,2.38-.65l1.3,4c-1.53.84-3.26,1.24-5,1.15-3.22.01-5.33-1.99-5.33-6.2Z"/><path class="cls-1" d="m385.06,21.27v5.45h-1.3c-2.49-.13-4.62,1.78-4.75,4.27,0,.19,0,.37,0,.56v8.7h-5v-18.71h5v2.76h0c1.27-1.9,3.4-3.05,5.68-3.07.12,0,.25,0,.37.04Z"/><path class="cls-1" d="m406.64,21.54v18.71h-4.75v-2.26h-.12c-1.34,1.71-3.43,2.67-5.6,2.57-5.17,0-8.93-3.84-8.93-9.62s3.79-9.71,8.82-9.71c2.1-.07,4.12.82,5.48,2.42h.11v-2.11h4.99Zm-4.79,9.43c0-3-2-5.25-4.72-5.25s-4.83,2-4.83,5.25c0,3,2,5.1,4.8,5.1,2.65-.02,4.78-2.17,4.76-4.82,0-.09,0-.19,0-.28Z"/><path class="cls-1" d="m412.15,12.03h5v28.22h-5V12.03Z"/><path class="cls-1" d="m442.43,30.94c0,5.78-3.76,9.62-9,9.62-2.21.1-4.33-.85-5.72-2.57h-.11v2.26h-4.79V12.03h5v11.62h.2c1.42-1.61,3.49-2.5,5.64-2.42,4.98,0,8.78,4.03,8.78,9.71Zm-5.1,0c0-3.22-2.11-5.25-4.79-5.25-2.72,0-4.93,2.22-4.92,4.94,0,.1,0,.21.01.31-.14,2.67,1.9,4.95,4.57,5.09.11,0,.23,0,.34,0,2.83.03,4.79-2.04,4.79-5.07v-.03Z"/><path class="cls-1" d="m463.16,21.54l-10.09,26.3h-5.13l3.3-8.74-7.44-17.56h5.21l4.6,11.59h0l4.29-11.58h5.26Z"/><path class="cls-1" d="m477.83,21.27v5.45h-1.31c-2.5-.15-4.64,1.75-4.8,4.25-.01.21-.01.41,0,.62v8.7h-5v-18.75h5v2.76h0c1.27-1.9,3.39-3.05,5.67-3.07.14-.02.29,0,.43.04Z"/><path class="cls-1" d="m499.4,21.54v18.71h-4.75v-2.26h-.12c-1.34,1.71-3.42,2.67-5.59,2.57-5.18,0-8.94-3.84-8.94-9.62s3.8-9.71,8.82-9.71c2.1-.07,4.12.82,5.48,2.42h.12v-2.11h4.98Zm-4.79,9.43c0-3-2-5.25-4.71-5.25s-4.84,2-4.84,5.25c-.2,2.61,1.76,4.89,4.37,5.09.14.01.29.02.43.01,2.65-.02,4.78-2.17,4.76-4.82,0-.09,0-.19,0-.28Zm-8.67-15.14c.11-2.29,2.06-4.05,4.35-3.94,2.13.1,3.84,1.81,3.94,3.94-.11,2.29-2.06,4.05-4.35,3.94-2.13-.1-3.84-1.81-3.94-3.94Zm2.69,0c0,.76.62,1.37,1.38,1.38.79.07,1.49-.52,1.55-1.32s-.52-1.49-1.32-1.55c-.08,0-.16,0-.24,0-.78.03-1.39.67-1.38,1.45v.04Z"/><path class="cls-1" d="m118.52,77.67l1.61-1.89c1.39,1.69,3.46,2.67,5.65,2.69,2.5,0,4.17-1.17,4.17-3.12,0-2.3-1.84-2.91-4.57-3.94-3-1.12-6.09-2.41-6.09-5.94,0-3.05,2.76-5.37,6.23-5.4,2.37.03,4.66.87,6.49,2.38l-1.52,2c-1.37-1.21-3.11-1.92-4.94-2-1.89,0-3.62,1-3.62,2.95s1.81,2.64,4.34,3.65c3.45,1.32,6.32,2.27,6.32,6.09s-3.3,5.74-6.81,5.74c-2.76,0-5.4-1.17-7.26-3.21Z"/><path class="cls-1" d="m136.84,76.49v-7.81h-1.78v-2h1.78v-4.77l2.32-.26v5h4.66v2h-4.66v7.48c0,1.66.41,2.5,1.72,2.5.83-.04,1.64-.29,2.36-.72l.63,2c-1.03.59-2.2.89-3.39.86-2.47.06-3.64-1.46-3.64-4.28Z"/><path class="cls-1" d="m160.01,66.67v14h-2.24v-2.22h0c-1.15,1.53-2.97,2.41-4.88,2.38-3.69.11-6.78-2.79-6.89-6.49,0-.19,0-.38,0-.57,0-4.14,2.87-7.27,6.83-7.27,1.87-.03,3.66.81,4.83,2.27h0v-2.1h2.34Zm-2.24,7.1c.17-2.65-1.83-4.93-4.48-5.1-.07,0-.13,0-.2,0-2.64,0-4.74,2-4.74,5.11-.17,2.55,1.77,4.75,4.32,4.92.11,0,.23.01.34,0,2.61,0,4.73-2.11,4.73-4.73,0-.07,0-.14,0-.2h.03Z"/><path class="cls-1" d="m165.01,76.49v-7.81h-1.78v-2h1.78v-4.77l2.32-.26v5h4.68v2h-4.65v7.48c0,1.66.4,2.5,1.72,2.5.83-.04,1.64-.29,2.36-.72l.63,2c-1.03.59-2.2.89-3.39.86-2.53.06-3.67-1.46-3.67-4.28Z"/><path class="cls-1" d="m175.11,62.45c0-.92.76-1.67,1.68-1.66.92,0,1.67.76,1.66,1.68,0,.92-.75,1.66-1.67,1.66-.91.02-1.65-.7-1.67-1.61,0-.02,0-.05,0-.07Zm.49,4.22h2.32v14h-2.32v-14Z"/><path class="cls-1" d="m181.8,78.82l1.21-1.75c1.14,1.12,2.69,1.72,4.28,1.66,1.66,0,2.64-.86,2.64-1.86,0-1.21-1.29-1.61-3.33-2.3-2.27-.8-4.19-1.75-4.19-4.31,0-2.15,1.95-3.76,4.62-3.76,1.75-.02,3.45.59,4.79,1.72l-1.2,1.84c-1.02-.92-2.34-1.42-3.71-1.43-1.06,0-2.15.63-2.15,1.63s1.15,1.61,2.64,2.18c3,1.15,4.91,1.64,4.88,4.4,0,2.18-1.63,4-5,4-2.02.04-3.97-.68-5.48-2.02Z"/><path class="cls-1" d="m196.42,76.49v-7.81h-1.78v-2h1.78v-4.77l2.32-.26v5h4.66v2h-4.66v7.48c0,1.66.41,2.5,1.73,2.5.83-.04,1.64-.29,2.35-.72l.63,2c-1.03.59-2.2.89-3.39.86-2.49.06-3.64-1.46-3.64-4.28Z"/><path class="cls-1" d="m206.53,62.45c0-.9.73-1.63,1.63-1.63.01,0,.02,0,.03,0,.9-.07,1.69.6,1.76,1.51.07.9-.6,1.69-1.51,1.76-.09,0-.17,0-.26,0-.89.02-1.64-.68-1.66-1.58,0-.02,0-.04,0-.06Zm.48,4.22h2.33v14h-2.33v-14Z"/><path class="cls-1" d="m213.56,73.68c-.21-3.75,2.66-6.96,6.41-7.17.2-.01.4-.01.59,0,2.15-.02,4.21.89,5.63,2.5l-1.61,1.41c-.97-1.15-2.41-1.8-3.91-1.75-2.76,0-5,2.24-5,5s2.24,5,5,5c1.51.02,2.95-.58,4-1.66l1.6,1.43c-1.51,1.56-3.6,2.41-5.77,2.36-4.04.04-6.94-2.86-6.94-7.11Z"/><path class="cls-1" d="m228.64,78.82l1.2-1.75c1.14,1.12,2.69,1.72,4.28,1.66,1.66,0,2.64-.86,2.64-1.86,0-1.21-1.29-1.61-3.33-2.3-2.27-.8-4.19-1.75-4.19-4.31,0-2.15,2-3.76,4.62-3.76,1.76-.02,3.46.59,4.8,1.72l-1.21,1.84c-1.02-.91-2.33-1.42-3.7-1.43-1.07,0-2.16.63-2.16,1.63s1.15,1.61,2.64,2.18c3,1.15,4.91,1.64,4.89,4.4,0,2.18-1.64,4-5,4-2.02.04-3.97-.68-5.48-2.02Z"/><path class="cls-1" d="m268.17,60.27v20.39h-2.55l-11.43-16.08h-.06v16.08h-2.5v-20.39h2.47l11.52,16.25h.06v-16.25h2.49Z"/><path class="cls-1" d="m272.54,73.68c-.03-3.98,3.17-7.24,7.15-7.27,3.98-.03,7.24,3.17,7.27,7.15.03,3.98-3.17,7.24-7.15,7.27,0,0-.02,0-.03,0-3.86.13-7.1-2.89-7.24-6.75,0-.13,0-.26,0-.4Zm12.06,0c-.08-2.68-2.32-4.8-5-4.72-2.68.08-4.8,2.32-4.72,5,.08,2.64,2.25,4.74,4.9,4.72,2.63.03,4.79-2.08,4.83-4.71,0-.1,0-.19,0-.29Z"/><path class="cls-1" d="m298.47,66.53v2.6h-.92c-2.64,0-4.25,2-4.25,4.85v6.75h-2.29v-14h2.33v2.4h0c.94-1.63,2.68-2.63,4.56-2.64.19,0,.38.01.57.04Z"/><path class="cls-1" d="m320.66,66.67l-4.85,14h-2.18l-3.16-10.2h0l-3.19,10.2h-2.12l-4.85-14h2.35l3.53,10.46h.06l3.19-10.45h2l3.25,10.45h.06l3.56-10.45h2.35Z"/><path class="cls-1" d="m336.39,66.67v14h-2.24v-2.22h0c-1.15,1.53-2.97,2.41-4.88,2.38-3.69.11-6.77-2.8-6.88-6.5,0-.19,0-.38,0-.56,0-4.14,2.88-7.27,6.84-7.27,1.85-.01,3.61.82,4.77,2.27h0v-2.1h2.38Zm-2.24,7.1c.18-2.64-1.82-4.92-4.46-5.1-.07,0-.15,0-.22,0-2.64,0-4.73,2-4.73,5.11-.17,2.55,1.75,4.75,4.3,4.92.14,0,.27.01.41,0,2.61-.01,4.72-2.14,4.7-4.76,0-.06,0-.12,0-.17Z"/><path class="cls-1" d="m353.34,66.67l-7.9,19.67h-2.43l2.5-6.26-5.91-13.41h2.5l4.53,10.66h.06l4.22-10.66h2.43Z"/><path class="cls-1" d="m50.15,53.6l38.78-22.39C80.96,7.31,55.12-5.61,31.21,2.35,8.89,9.79-4.11,32.98,1.18,55.9l42.95-24.77,6.02,22.47Z"/><path class="cls-1" d="m47.3,60.47l-6-22.46L2.44,60.4c7.97,23.91,33.81,36.83,57.72,28.86,22.32-7.44,35.32-30.63,30.03-53.55l-42.89,24.76Z"/></g></svg>
