<?xml version="1.0" encoding="UTF-8"?><svg id="Layer_2" xmlns="http://www.w3.org/2000/svg" viewBox="0 0 453.18 237.24"><defs><style>.cls-1{fill:#000000;}</style></defs><g id="Vegvesen_logo_farger_pos"><path class="cls-1" d="m261.35,64.61l6.25-25.76c.1-2.08-.78-4.53-2.04-6.28-5.34-6.92-15.04-4.52-20.79-2.9-2.43-1.61-5.54-2.33-9.07-1.76.02,0,.02,0,.02,0,0,0-1,.16-1.82.28.4-.94.63-1.98.63-3.07,0-3.11-1.83-5.79-4.47-7.04v-1.79h3.53v-6.52h-3.53v-3.45h-6.6v3.45h-3.56v6.52h3.56v1.78c-2.65,1.24-4.49,3.92-4.49,7.04,0,1.09.22,2.12.63,3.07-.29-.05-1.42-.24-1.84-.31-3.54-.57-6.64.14-9.07,1.76-5.76-1.61-15.45-4.01-20.79,2.9-1.26,1.75-2.13,4.21-2.03,6.28l6.26,25.78h69.22Zm-71.57-30.92c4.42-5.7,13.37-3.36,19.18-1.71,3.73-3.15,9.4-2.14,13.56-1.01.49.13.93,0,1.11-.42.11-.33,0-.75-.19-.89-1.4-1.02-2.31-2.67-2.31-4.54,0-2.58,1.73-4.74,4.1-5.41v-5.2h-3.55v-2.96h3.55v-3.42h3.03v3.42h3.56v2.96h-3.56v5.19c2.38.66,4.12,2.83,4.12,5.42,0,1.83-.88,3.45-2.23,4.48-.19.14-.42.56-.27.97.19.42.7.52,1.2.4,4.2-1.05,9.69-2.12,13.42,1.04,5.81-1.65,14.76-3.99,19.18,1.71.99,1.41,1.59,3.12,1.7,4.94l-5.74,23.76h-65.82l-5.74-23.78c.1-1.82.71-3.52,1.69-4.94Zm39.67,4.55c.4.88,0,1.65-.52,2.45-.38.58-1.06,1.29-.84,1.93.11.31.37.46.62.51.49.1,1.01-.31,1.52-.7.31-.24.63-.48.9-.58.56-.17,1.23-.02,1.52.49.48.92.65,2.54.21,3.48-.6,1.12-1.5.68-2.59.1-.53-.28-.91-.59-1.45-.61-.74-.02-.96,1.19-.99,1.81-.09,2.15,1.38,4.23,3.56,5.25,1.29.58,2.88.86,4.47.85,1.59,0,3.18-.27,4.47-.85,2.18-1.02,3.66-3.09,3.56-5.25-.03-.62-.25-1.83-.99-1.81-.54.02-.91.33-1.45.61-1.09.58-1.99,1.02-2.59-.1-.44-.93-.27-2.56.21-3.48.29-.52.96-.66,1.52-.49.27.1.59.35.9.58.51.39,1.03.8,1.52.7.25-.05.51-.2.62-.51.22-.64-.46-1.34-.84-1.93-.52-.8-.92-1.57-.52-2.45.32-.44.85-.71,1.46-.73l.31-.02c-.3-1.61-.78-3.62-4.12-4.38-.92-.21-2.25-.48-4.07-.48s-3.16.27-4.07.48c-3.33.77-3.81,2.78-4.12,4.38l.31.02c.62.02,1.15.29,1.46.73Zm1.69-2.87c1.34-.52,3.03-.8,4.72-.81,1.69-.01,3.38.29,4.72.81.51.25.9.6,1.06.99-.47.17-.84.55-1.09.85-.33.42-.46.92-.46,1.43,0,.47.13.93.3,1.36-.66-.12-1.52-.18-2.23.3-.51.35-1.09,1.11-1.3,2.22-.33,1.86-.25,4.6,1.63,5.63,1.24.59,2.38.07,3.34-.44-.11.79-.92,1.88-1.51,2.31-1.37.85-2.95,1.21-4.46,1.2-1.52,0-3.09-.35-4.47-1.2-.59-.43-1.4-1.52-1.51-2.31.96.52,2.11,1.03,3.34.44,1.88-1.04,1.96-3.77,1.63-5.63-.21-1.11-.79-1.87-1.3-2.22-.71-.49-1.57-.42-2.23-.3.17-.43.3-.89.3-1.36,0-.51-.13-1.01-.46-1.43-.25-.31-.62-.68-1.09-.85.16-.38.55-.74,1.06-.99Zm32.84,37.32l-.04-.12-.05-.12c-.6-1.31-2.19-2.73-4.26-2.73h-65.77c-2,0-3.6,1.38-4.24,2.66l-.08.15-.05.16c-.4,1.2-.57,3.09.83,5.37l30.92,55.89c.87,1.49,2.33,3.97,5.43,4.04h.06s.05,0,.05,0c3.15-.07,4.6-2.57,5.47-4.06l30.92-55.89c1.38-2.27,1.21-4.16.82-5.35Zm-2.89,4.2l-30.14,54.64c-.98,1.52-2.35,4.08-4.23,4.08s-3.26-2.58-4.21-4.08l-30.13-54.64c-.65-1.02-1.06-2.23-.65-3.46.28-.56,1.1-1.35,2.12-1.35h65.77c1.02,0,1.85.78,2.11,1.35.41,1.22,0,2.43-.64,3.46Zm-17.48,8.01l-.04-.1c-.41-.99-1.55-2.05-3.08-2.05h-27.6c-1.42,0-2.47.95-2.95,1.77l-.14.24-.08.27c-.33,1.12-.14,2.32.54,3.39l12.89,23.27c.41.74,1.38,2.46,3.53,2.47,2.16-.02,3.12-1.69,3.54-2.4l12.85-23.29c.73-1.09.94-2.32.58-3.47l-.03-.11Zm-2.51,2.26l-12.62,22.92c-.42.64-.86,1.73-1.78,1.73s-1.38-1.08-1.76-1.73l-12.68-22.92c-.27-.42-.42-.92-.27-1.44.14-.24.49-.59.9-.59h27.6c.45,0,.79.35.89.59.16.52,0,1.02-.28,1.44Zm92.43-9.22c-.49-1.1-1.6-1.75-2.96-1.75h-27.64V0h-152.35v76.19h-27.79c-1.36,0-2.47.65-2.96,1.75-.17.37-.25.77-.25,1.16,0,.79.32,1.6.95,2.29,0,0,18.5,20.85,18.5,20.85.39.45,1.8,1.91,4.05,1.91h7.49v48.15h152.35v-48.15h7.34c2.25,0,3.67-1.45,4.05-1.91,0,0,18.5-20.85,18.5-20.85.62-.7.95-1.5.95-2.29,0-.4-.08-.79-.25-1.16Zm-190.44,23.85c-1.42,0-2.28-1.11-2.28-1.11l-4.88-5.5h31.13c1.19,0,1.33-2.25-.06-2.25h-33.07l-5.08-5.73h42.35c1.25-.12,1.56-2.09,0-2.27h-44.36l-4.54-5.12c-.59-.66-.42-1.26.49-1.26h56.75c1.11.07,1.28.32,2.14,1.76.85,1.45,2.97,5.18,3.55,6.34.59,1.2.93,2.05-.27,4.08-1.18,2.03-5.99,10.41-6.85,11.86-.85,1.43-1.96,4.69,1.71,4.69h17.45c1.63,0,2.25.31,2.92,1.61.73,1.33,7.72,13.7,7.72,13.7,2.98,4.3,1.11,7.93-3.91,7.72-6.34-.24-5.43-6.39-5.53-7.87,0,0-1.88-2.84-3.74-5.55h-23.53c-9.34,0-6.19-5.77-4.59-9.57.84-2.04-.52-5.56-6.35-5.56h-17.16Zm157.47,48.15h-147.6v-45.78h7.3c2.8,0,3.66.79,3.92,1.33.23.48.19,1.09-.07,1.69-.75,1.74-1.68,3.9-1.68,6,0,1.08.25,2.13.89,3.11,1.33,2.02,3.91,3,7.9,3h22.27c.8,1.19,2.15,3.18,2.64,3.91,0,.04,0,.09,0,.13,0,6.02,2.63,9.17,7.81,9.37,3.26.14,5.84-1.07,7.07-3.3,1.27-2.31.86-5.28-1.13-8.14l-7.56-13.43c-1.24-2.41-2.9-2.9-5.03-2.9h-17.58c.08-.32.23-.73.46-1.11l4.5-7.78,2.37-4.1c.83-1.41,1.13-2.54,1.13-3.51,0-1.07-.37-1.95-.79-2.81-.64-1.28-2.83-5.13-3.62-6.49l-.03-.06c-1-1.67-1.99-2.78-3.86-2.87h-26.88V2.37h147.6v73.82h-27.03c-1.87.1-2.86,1.2-3.86,2.87l-.03.06c-.79,1.36-2.99,5.2-3.62,6.49-.43.86-.79,1.74-.79,2.81,0,.97.3,2.1,1.13,3.51l2.37,4.1,4.5,7.78c.23.39.38.8.46,1.1h-17.58c-2.12.01-3.79.5-5.03,2.91l-7.56,13.43c-1.99,2.86-2.4,5.83-1.13,8.14,1.23,2.24,3.81,3.44,7.07,3.3,5.18-.2,7.8-3.35,7.8-9.37,0-.04,0-.09,0-.13.49-.73,1.84-2.73,2.64-3.91h22.27c3.99,0,6.57-.98,7.9-3,.64-.98.89-2.04.89-3.11,0-2.1-.93-4.26-1.68-6-.27-.6-.31-1.2-.08-1.69.26-.54,1.12-1.33,3.92-1.33h7.45v45.78Zm30.5-70.12l-4.54,5.12h-44.36c-1.55.18-1.25,2.14,0,2.27h42.35l-5.08,5.73h-33.07c-1.39,0-1.25,2.25-.06,2.25h31.13l-4.88,5.5s-.86,1.11-2.28,1.11h-17.17c-5.83,0-7.2,3.52-6.35,5.56,1.59,3.8,4.74,9.57-4.59,9.57h-23.53c-1.86,2.7-3.74,5.55-3.74,5.55-.1,1.48.8,7.62-5.53,7.87-5.02.21-6.89-3.42-3.91-7.72,0,0,6.99-12.38,7.72-13.7.67-1.31,1.29-1.61,2.92-1.61h17.45c3.67,0,2.56-3.26,1.71-4.69-.86-1.44-5.67-9.83-6.85-11.86-1.2-2.03-.86-2.88-.27-4.08.58-1.17,2.7-4.89,3.55-6.34.86-1.44,1.03-1.68,2.14-1.76h56.75c.91,0,1.08.6.49,1.26Zm-119.89-41.58c.4.88,0,1.65-.52,2.45-.38.58-1.06,1.29-.84,1.93.11.31.37.46.62.51.49.1,1.01-.31,1.52-.7.31-.24.63-.48.9-.58.56-.17,1.23-.03,1.52.49.48.92.65,2.54.21,3.48-.6,1.12-1.5.68-2.59.1-.53-.28-.91-.59-1.45-.6-.74-.02-.97,1.19-.99,1.81-.09,2.15,1.38,4.23,3.56,5.25,1.29.58,2.88.86,4.47.85,1.59,0,3.19-.27,4.47-.85,2.18-1.02,3.66-3.09,3.56-5.25-.03-.62-.25-1.83-.99-1.81-.54.02-.91.33-1.45.6-1.09.58-1.99,1.02-2.59-.1-.44-.94-.27-2.56.21-3.48.29-.52.96-.66,1.52-.49.27.1.59.35.9.58.51.39,1.03.8,1.52.7.24-.05.51-.19.62-.51.22-.64-.47-1.34-.84-1.93-.52-.8-.92-1.57-.52-2.45.31-.44.85-.71,1.46-.73l.32-.02c-.3-1.61-.78-3.62-4.11-4.38-.92-.21-2.25-.48-4.07-.48s-3.16.27-4.07.48c-3.33.77-3.81,2.78-4.11,4.38l.31.02c.61.02,1.15.29,1.46.73Zm1.69-2.87c1.34-.52,3.03-.8,4.72-.81,1.69-.02,3.38.29,4.72.81.51.25.9.61,1.06.99-.47.17-.84.55-1.09.85-.33.42-.46.92-.46,1.43,0,.47.13.93.3,1.36-.66-.12-1.52-.18-2.23.3-.51.35-1.09,1.11-1.3,2.22-.33,1.86-.25,4.6,1.63,5.64,1.24.59,2.38.07,3.34-.44-.11.79-.92,1.88-1.51,2.31-1.37.85-2.95,1.21-4.46,1.2-1.51,0-3.09-.36-4.47-1.2-.59-.43-1.4-1.52-1.51-2.31.96.52,2.1,1.03,3.34.44,1.88-1.04,1.97-3.77,1.63-5.64-.21-1.11-.79-1.87-1.3-2.22-.71-.49-1.57-.42-2.23-.3.17-.43.3-.89.3-1.36,0-.51-.13-1.01-.46-1.43-.25-.31-.62-.68-1.09-.85.16-.38.55-.74,1.06-.99Zm-7.1,15.41c1.18-1.37,1.66-3.19,1.29-4.77-.25-1.07-1.6-.58-2.35-.14-.55.32-1.08.68-1.69.51-.42-.1-.71-.64-.78-.85-.39-1.21-.25-2.66.35-3.58.2-.26.63-.33.96-.3.51.03.96.38,1.39.72.6.48,1.46,1.04,2.02.35.5-.63-.12-1.41-.56-2.02-.4-.56-.82-1.14-.77-1.8.04-.48.23-.92.58-1.21.42-.36,1-.37,1.01-.37h.18s0-.17,0-.17c-.02-.8.19-1.67.48-2.76-3.35-1.08-6.74-1.51-10.68-1.26-3.75.38-6.06,1.86-6.96,4.21,0,0,1.21.13,1.79.39.33.16,1.23.67,1.14,1.68-.08.52-.37,1.02-.65,1.49-.33.55-.97,1.38-.66,1.9.53.86,1.37.21,1.99-.28.36-.28.75-.51,1.08-.63.35-.1,1.04-.12,1.37.39.55.8.81,2.87.07,3.97-.69.64-1.27.16-2.06-.16-.57-.23-1.02-.48-1.58-.59-.3-.08-.88.04-.91.95.1,2.63,1.18,4.75,3.6,5.83,3.13,1.39,7.75,1.24,10.36-1.49Zm-11.97-2.94c.8.44,1.77.87,2.81.6,1.02-.38,1.72-1.33,2.1-2.82.34-2.3-.28-4.34-1.5-5.19-.68-.4-1.38-.56-2.22-.44.16-.44.16-.78.19-1.22.02-.24-.03-.48-.09-.72-.32-.94-.96-1.41-1.75-1.73,3.27-2.02,7.92-1.32,11.75-.76,0,0,.22.03.41.06v.5c-.9.2-1.56,1.04-1.81,2.14-.03.17-.05.33-.05.49,0,.5.09.81.27,1.22-.79-.19-1.69-.26-2.45.48-1.14,1.22-1.55,3.18-1.13,5.38.3,1.03.91,1.86,1.65,2.25,1.13.52,2.35.17,3.24-.4-.19,1.55-1.92,2.58-2.5,2.87-1.52.76-3.92.86-5.85.25-1.24-.41-2.66-1.68-3.06-2.96Zm52.27-10.5h.18s.59,0,1.01.36c.36.29.54.73.59,1.21.05.67-.37,1.24-.77,1.8-.44.61-1.07,1.39-.56,2.02.55.69,1.42.13,2.02-.35.43-.35.87-.69,1.39-.72.32-.03.76.04.96.3.6.92.74,2.37.35,3.58-.07.21-.37.75-.78.85-.62.17-1.14-.18-1.7-.51-.75-.44-2.09-.94-2.34.14-.37,1.58.11,3.4,1.29,4.77,2.62,2.73,7.23,2.89,10.37,1.49,2.42-1.08,3.5-3.2,3.6-5.83-.03-.91-.61-1.03-.91-.95-.56.1-1.02.35-1.58.59-.79.33-1.37.8-2.06.16-.74-1.1-.48-3.17.07-3.97.33-.5,1.02-.49,1.37-.39.33.12.73.35,1.08.63.62.49,1.46,1.14,1.99.28.32-.51-.33-1.34-.66-1.9-.28-.48-.57-.97-.65-1.49-.09-1.01.8-1.52,1.14-1.68.59-.26,1.8-.39,1.8-.39-.9-2.35-3.22-3.83-6.96-4.21-3.94-.25-7.33.18-10.68,1.26.29,1.09.5,1.97.48,2.76v.18Zm1.9-1.72c.19-.03.4-.06.4-.06,3.82-.56,8.47-1.26,11.75.76-.79.32-1.43.8-1.75,1.73-.05.24-.1.48-.08.72.03.44.03.78.19,1.22-.84-.12-1.54.03-2.22.44-1.21.85-1.83,2.89-1.5,5.19.38,1.49,1.08,2.44,2.1,2.82,1.04.27,2.01-.16,2.81-.6-.41,1.28-1.83,2.55-3.06,2.96-1.93.61-4.33.51-5.85-.25-.57-.29-2.3-1.32-2.5-2.87.9.57,2.11.92,3.24.4.74-.39,1.35-1.22,1.65-2.25.42-2.2.02-4.16-1.13-5.38-.76-.74-1.66-.67-2.45-.48.18-.4.27-.72.27-1.22,0-.16-.02-.32-.05-.49-.25-1.09-.91-1.93-1.81-2.14v-.5Z"/><path class="cls-1" d="m1.15,217.37c2.42,1.3,5.79,2.31,9.7,2.31,2.96,0,5.79-.61,5.79-3.42,0-6.54-16.63-2.43-16.63-15.23,0-8.48,8.28-10.79,15.35-10.79,3.36,0,6.69.49,9.05,1.3l-.61,7.28c-2.41-1.13-5.12-1.62-7.83-1.62-2.36,0-6.31.19-6.31,3.29,0,5.69,16.66,1.85,16.66,14.57,0,9.13-7.65,11.6-15.48,11.6-3.27,0-7.35-.51-10.49-1.5l.8-7.78"/><path class="cls-1" d="m29.11,199.77h5.33v-5.9l8.93-2.77v8.67h6.38v6.36h-6.38v9.67c0,3.2.79,4.8,3.64,4.8.92,0,1.86-.19,2.77-.34l.31,5.89c-1.7.22-3.42.51-5.69.51-8.12,0-10.09-3.58-10.09-9.81v-10.71h-5.2v-6.36"/><path class="cls-1" d="m71.02,226.04c-.06-1.4-.2-2.76-.2-4.12h-.09c-2.08,3.27-4.59,4.73-8.32,4.73-5.2,0-9.83-2.57-9.83-8.27,0-8.03,8.73-8.99,13.56-8.99,1.47,0,3.09.17,4.26.37-.08-3.59-2.74-4.55-6.03-4.55-2.92,0-5.83.56-8.34,1.98l-.18-6.16c3.22-1.31,6.62-1.87,10.5-1.87,6.7,0,12.48,2.87,12.48,10.9v9.78c0,2.08.12,4.12.52,6.2h-8.32m-6.25-5.45c3.42,0,5.62-3.12,5.62-6.2-1.17-.07-2.5-.15-3.84-.15-3.1,0-5.51.95-5.51,3.47,0,1.81,1.63,2.88,3.74,2.88Z"/><path class="cls-1" d="m82.31,199.77h5.34v-5.9l8.95-2.77v8.67h6.34v6.36h-6.34v9.67c0,3.2.74,4.8,3.62,4.8.91,0,1.85-.19,2.77-.34l.3,5.89c-1.69.22-3.41.51-5.66.51-8.14,0-10.09-3.58-10.09-9.81v-10.71h-5.22v-6.36"/><path class="cls-1" d="m114.97,215.56c.48,3.62,3.27,5.04,7.72,5.04,2.47,0,5.28-.55,8.02-2.02v6.41c-2.91,1.15-6.27,1.66-9.64,1.66-8.66,0-15.29-5.1-15.29-13.78s5.91-13.71,14.09-13.71c9.73,0,13.27,6.91,13.27,14.73v1.67h-18.16m9.97-5.15c0-3.04-1.39-5.5-5.04-5.5-3.28,0-4.85,2.46-5.05,5.5h10.09Z"/><path class="cls-1" d="m137.85,199.77h8.28v4.84h.1c1.83-3.79,5.45-5.45,9.58-5.45,7.18,0,10.05,5.05,10.05,10.49v16.39h-9.09v-12.71c0-4.94-1.71-6.61-4.19-6.61-3.73,0-5.64,2.59-5.64,8.24v11.08h-9.09v-26.27"/><path class="cls-1" d="m171,218.79c2.11.89,5.27,1.8,8.52,1.8,1.87,0,3.7-.3,3.7-2.12,0-4.42-12.94-1.3-12.94-10.8,0-6.05,5.98-8.52,11.2-8.52,3.13,0,6.32.35,9.24,1.52l-.7,6.3c-1.91-1.17-4.79-1.77-7.07-1.77-1.98,0-4.18.36-4.18,1.82,0,4.07,13.52.87,13.52,10.85,0,7-6.31,8.77-12.27,8.77-4.07,0-6.87-.41-9.55-1.27l.52-6.59"/><polyline class="cls-1" points="209.85 199.77 219.58 199.77 225.04 218.47 225.13 218.47 230.63 199.77 239.66 199.77 229.92 226.04 219.58 226.04 209.85 199.77"/><path class="cls-1" d="m250.9,215.56c.51,3.62,3.3,5.04,7.72,5.04,2.48,0,5.3-.55,8.02-2.02v6.41c-2.92,1.15-6.26,1.66-9.62,1.66-8.7,0-15.28-5.1-15.28-13.78s5.87-13.71,14.05-13.71c9.74,0,13.28,6.91,13.28,14.73v1.67h-18.18m10-5.15c0-3.04-1.42-5.5-5.05-5.5-3.28,0-4.84,2.46-5.04,5.5h10.08Z"/><path class="cls-1" d="m301.66,222.95c0,10.81-5.22,14.29-15.82,14.29-4.36,0-7.91-.91-10.06-1.65l.48-7.17c2.73,1.37,5.05,2.16,8.87,2.16,5.23,0,8.05-2.47,8.05-7.63v-1.41h-.06c-2.22,3.09-5.23,4.49-8.84,4.49-7.23,0-11.7-5.45-11.7-13.2s3.7-13.68,11.85-13.68c3.91,0,6.99,2.11,8.92,5.35h.11v-4.74h8.21v23.19m-14.57-3.88c3.23,0,5.79-2.71,5.79-6.73,0-2.94-1.7-6.21-5.79-6.21-3.38,0-5.15,2.98-5.15,6.56,0,4.08,2.41,6.39,5.15,6.39Z"/><polyline class="cls-1" points="305.2 199.77 314.91 199.77 320.38 218.47 320.49 218.47 326 199.77 335 199.77 325.28 226.04 314.91 226.04 305.2 199.77"/><path class="cls-1" d="m346.23,215.56c.52,3.62,3.3,5.04,7.76,5.04,2.48,0,5.3-.55,8-2.02v6.41c-2.9,1.15-6.23,1.66-9.62,1.66-8.66,0-15.3-5.1-15.3-13.78s5.93-13.71,14.1-13.71c9.72,0,13.26,6.91,13.26,14.73v1.67h-18.19m10.03-5.15c0-3.04-1.42-5.5-5.07-5.5-3.3,0-4.82,2.46-5.06,5.5h10.13Z"/><path class="cls-1" d="m368.67,218.79c2.1.89,5.21,1.8,8.52,1.8,1.86,0,3.67-.3,3.67-2.12,0-4.42-12.91-1.3-12.91-10.8,0-6.05,5.93-8.52,11.2-8.52,3.13,0,6.29.35,9.23,1.52l-.74,6.3c-1.91-1.17-4.76-1.77-7.04-1.77-1.97,0-4.21.36-4.21,1.82,0,4.07,13.53.87,13.53,10.85,0,7-6.29,8.77-12.25,8.77-4.09,0-6.84-.41-9.53-1.27l.52-6.59"/><path class="cls-1" d="m402.3,215.56c.51,3.62,3.28,5.04,7.69,5.04,2.48,0,5.31-.55,8.02-2.02v6.41c-2.91,1.15-6.21,1.66-9.62,1.66-8.64,0-15.28-5.1-15.28-13.78s5.91-13.71,14.06-13.71c9.76,0,13.29,6.91,13.29,14.73v1.67h-18.16m9.97-5.15c0-3.04-1.42-5.5-5.02-5.5-3.3,0-4.87,2.46-5.07,5.5h10.09Z"/><path class="cls-1" d="m425.19,199.77h8.29v4.84h.1c1.81-3.79,5.44-5.45,9.59-5.45,7.16,0,10.01,5.05,10.01,10.49v16.39h-9.07v-12.71c0-4.94-1.7-6.61-4.17-6.61-3.75,0-5.63,2.59-5.63,8.24v11.08h-9.12v-26.27"/></g></svg>
