<?xml version="1.0" encoding="UTF-8"?><svg id="Layer_2" xmlns="http://www.w3.org/2000/svg" viewBox="0 0 425.2 84.68"><defs><style>.cls-1{fill:#000000;}</style></defs><g id="Layer_1-2"><path class="cls-1" d="m21.17,55.65c.45,9.56,6.37,12.64,15.37,12.64,6.38,0,12.98-2.28,12.98-8.31,0-7.17-11.62-8.53-23.34-11.84-11.61-3.3-23.78-8.54-23.78-23.45C2.4,6.93,20.26,0,35.51,0c16.16,0,32.44,7.85,32.55,26.17h-21.16c.34-7.4-6.6-9.79-13.09-9.79-4.55,0-10.24,1.6-10.24,6.95,0,6.25,11.72,7.4,23.56,10.7,11.72,3.29,23.56,8.76,23.56,23.44,0,20.6-17.53,27.21-35.4,27.21S.12,76.48,0,55.65h21.17Z"/><path class="cls-1" d="m108.84,36.42h-11.95v26.86c0,4.67,2.73,5.69,6.95,5.69,1.59,0,3.3-.22,5.01-.22v14.22c-3.53.13-7.06.57-10.58.57-16.5,0-20.72-4.78-20.72-20.83V6.03h19.35v17.87h11.95v12.52Z"/><path class="cls-1" d="m116.42,42.11c.34-7.74,3.99-12.75,9.22-15.83,5.25-2.95,12.07-4.09,18.78-4.09,14.01,0,27.54,3.08,27.54,19.8v25.84c0,5.01,0,10.46,2.28,15.13h-19.46c-.69-1.82-.91-3.64-1.14-5.57-5,5.24-12.4,7.29-19.46,7.29-11.27,0-20.14-5.69-20.14-17.87,0-19.24,20.94-17.76,34.36-20.48,3.3-.69,5.12-1.83,5.12-5.47,0-4.43-5.34-6.14-9.33-6.14-5.36,0-8.77,2.38-9.67,7.39h-18.1Zm25.04,30.62c9.22,0,12.29-5.24,11.84-17.41-2.73,1.7-7.75,2.05-11.95,3.18-4.34,1.03-7.97,2.85-7.97,7.52s3.75,6.71,8.08,6.71Z"/><path class="cls-1" d="m212.49,36.42h-11.95v26.86c0,4.67,2.73,5.69,6.94,5.69,1.59,0,3.3-.22,5.01-.22v14.22c-3.53.13-7.06.57-10.59.57-16.5,0-20.71-4.78-20.71-20.83V6.03h19.35v17.87h11.95v12.52Z"/><path class="cls-1" d="m222.37,23.84h18.77v8.08h.23c3.54-6.04,11.5-9.79,18.55-9.79,19.7,0,21.29,14.33,21.29,22.88v37.9h-19.34v-28.57c0-8.07.91-16.27-9.67-16.27-7.28,0-10.47,6.15-10.47,12.64v32.2h-19.35V23.84Z"/><path class="cls-1" d="m306.82,58.1c.36,8.07,5.01,13.42,13.21,13.42,4.67,0,9.22-2.16,11.04-6.48h18.1c-3.53,13.66-16.17,19.58-29.37,19.58-19.23,0-32.32-11.61-32.32-31.42,0-18.09,14.46-31.06,31.86-31.06,21.18,0,31.77,15.93,30.85,35.97h-43.37Zm24.02-10.81c-.33-6.61-5-12.07-11.5-12.07-6.82,0-11.38,4.89-12.52,12.07h24.02Z"/><path class="cls-1" d="m387.73,36.36h-11.95v26.86c0,4.67,2.73,5.69,6.95,5.69,1.59,0,3.3-.22,5-.22v14.22c-3.53.13-7.06.57-10.58.57-16.5,0-20.71-4.78-20.71-20.83V5.97h19.35v17.87h11.95v12.52Z"/><path class="cls-1" d="m425.2,36.36h-11.95v26.86c0,4.67,2.72,5.69,6.93,5.69,1.59,0,3.3-.22,5.01-.22v14.22c-3.53.13-7.06.57-10.6.57-16.5,0-20.7-4.78-20.7-20.83V5.97h19.35v17.87h11.95v12.52Z"/></g></svg>
