<?xml version="1.0" encoding="UTF-8"?><svg id="Layer_2" xmlns="http://www.w3.org/2000/svg" viewBox="0 0 146.83 17.35"><defs><style>.cls-1,.cls-2{fill:#000000;}.cls-2{fill-rule:evenodd;}</style></defs><g id="Layer_1-2"><path class="cls-2" d="m7.32,14.52c-2.37,0-4.29-1.79-4.29-4s1.92-4,4.29-4c1.6,0,2.99.82,3.73,2.03.64.71,1.98,1.22,3.56,1.31-.37-3.46-3.49-6.17-7.29-6.17C3.28,3.68,0,6.74,0,10.51s3.28,6.83,7.32,6.83c2.14,0,4.07-.86,5.41-2.23-1.27-.22-2.41-.59-3.34-1.1-.61.32-1.32.5-2.07.5Z"/><path class="cls-1" d="m23.43,3.68c-3.79,0-6.92,2.71-7.28,6.17,1.58-.09,2.91-.6,3.55-1.31.74-1.21,2.13-2.03,3.73-2.03,2.37,0,4.29,1.79,4.29,4s-1.92,4-4.29,4c-.76,0-1.48-.19-2.1-.51-.92.51-2.06.89-3.31,1.1,1.34,1.38,3.27,2.24,5.41,2.24,4.04,0,7.32-3.06,7.32-6.83s-3.28-6.83-7.32-6.83Z"/><path class="cls-2" d="m23.26,10.54v-2.26s0,0,0,0c-.01,0-.03-.01-.04-.01-.01,0-.02,0-.03,0-.53,1.94-3.83,3.43-7.83,3.43s-7.3-1.49-7.83-3.43c0,0-.02,0-.03,0-.01,0-.03,0-.04.02,0,0,0,0,0,0v2.26c0,.78.45,1.52,1.23,2.13,1.18.93,3.1,1.6,5.35,1.79.43.04.87.05,1.32.05s.92-.02,1.36-.06c2.24-.2,4.16-.87,5.33-1.8.77-.61,1.22-1.34,1.22-2.12Z"/><path class="cls-1" d="m15.38,8.9s.08,0,.11-.03c.26-1.21.81-2.43,1.66-3.4-.55-.11-1.16-.17-1.8-.17s-1.21.06-1.75.16c.86.98,1.4,2.2,1.66,3.41.03.02.07.02.11.02Z"/><path class="cls-1" d="m39.7,16.42c-1.34,0-2.61-.17-3.84-.41v-1.77c1.32.28,2.44.52,3.56.52,1.6,0,3.19-.39,3.19-1.66,0-1.53-2.31-1.66-3.43-1.94-1.57-.41-3.39-1.01-3.39-3.21,0-2.59,2.39-3.32,4.66-3.32,1.62,0,2.76.19,3.65.32v1.7c-1.06-.19-2.18-.37-3.26-.37s-2.87.17-2.87,1.51c0,2.46,6.88.69,6.88,5.03,0,2.22-1.81,3.6-5.16,3.6Z"/><path class="cls-1" d="m50.68,6.45v6.71c0,1.27.39,1.36,1.47,1.36h1.7v1.66h-1.9c-2.29,0-3.43-.15-3.43-2.8v-6.92h-2.37v-1.6h2.37V1.51c.37-.13,1.29-.45,2.16-.73v4.08h3.26v1.6h-3.26Z"/><path class="cls-1" d="m64.68,10.44c0,2.67-1.16,4.4-3.41,4.4s-3.41-1.73-3.41-4.4,1.19-4.25,3.41-4.25,3.41,1.6,3.41,4.25Zm2.31,0c0-3.62-2.11-5.87-5.72-5.87s-5.72,2.24-5.72,5.87,2.07,6.02,5.72,6.02c3.34,0,5.72-2.5,5.72-6.02Z"/><path class="cls-1" d="m71.77,7.61v8.56h-2.16V4.85h1.96v1.1c1.38-.91,2.55-1.19,4.55-1.19v1.96c-2.16,0-3.21.09-4.36.88Z"/><path class="cls-1" d="m85.82,9.68h-6.04c.06-2.22,1.08-3.54,3-3.54,2.26,0,3,1.49,3.04,3.54Zm2.44,1.53v-.56c0-3.64-1.58-6.04-5.48-6.04-2.91,0-5.37,1.68-5.37,5.67s2.2,6.15,6.19,6.15c1.25,0,2.42-.06,3.78-.41v-1.53c-1.1.19-2.05.32-3.08.32-1.64,0-4.16-.11-4.53-3.6h8.5Z"/><path class="cls-1" d="m98.63,10.51c0,2.61-1.34,4.27-3.97,4.27-.39,0-.99,0-1.92-.13V6.34c.8-.11,1.49-.15,1.96-.15,2.7,0,3.93,1.53,3.93,4.31Zm2.29.02c0-3.8-2.18-5.97-5.63-5.97-.32,0-1.19,0-2.52.17V0h-2.16v16.05c1.49.26,3.15.37,4.06.37,3.58,0,6.26-2.14,6.26-5.89Z"/><path class="cls-1" d="m105.7,7.61v8.56h-2.16V4.85h1.96v1.1c1.38-.91,2.55-1.19,4.55-1.19v1.96c-2.16,0-3.21.09-4.36.88Z"/><path class="cls-1" d="m118.84,14.75c-1.1.06-1.53.11-2.11.11-1.73,0-3.45-.19-3.45-2.09,0-1.66,1.38-2.01,3.64-2.01.32,0,.99.04,1.92.06v3.93Zm2.14,1.4v-7.79c0-3.32-2.03-3.75-5.18-3.75-1.29,0-2.61.13-3.99.41v1.68c1.21-.22,2.55-.45,3.75-.45,3.15,0,3.26.58,3.26,2.98-.75,0-1.34-.06-1.83-.06-2.37,0-5.95.02-5.95,3.54,0,3.06,2.05,3.71,4.98,3.71,1.55,0,3.04-.04,4.96-.26Z"/><path class="cls-1" d="m131.93,16.18v-7.23c0-1.21-.02-2.52-1.96-2.52-1.1,0-2.72.63-3.69,1.04v8.71h-2.13V4.83h1.98v1.04c2.24-.99,3.02-1.25,4.57-1.25s3.41.95,3.41,3.45v8.11h-2.18Z"/><path class="cls-1" d="m144.66,14.67c-.93.09-1.47.11-1.88.11-2.59,0-4.03-1.73-4.03-4.25,0-2.95,1.38-4.34,3.93-4.34.47,0,1.08.04,1.98.19v8.28Zm2.16-14.67h-2.16v4.68c-1.23-.17-2.01-.15-2.46-.15-3.71,0-5.76,2.44-5.76,6.06,0,3.82,2.67,5.82,6.26,5.82,1.29,0,2.98-.19,4.12-.39.02-2.55,0-11.82,0-16.03Z"/></g></svg>
