<?xml version="1.0" encoding="utf-8"?>
<!-- Generator: Adobe Illustrator 27.4.1, SVG Export Plug-In . SVG Version: 6.00 Build 0)  -->
<svg version="1.1" id="Layer_1" xmlns="http://www.w3.org/2000/svg" xmlns:xlink="http://www.w3.org/1999/xlink" x="0px" y="0px"
	 viewBox="0 0 862.1 247.9" style="enable-background:new 0 0 862.1 247.9;" xml:space="preserve">
<style type="text/css">
	.st0{fill:#000000;}
</style>
<g>
	<g id="Layer_2_00000021826099063135139820000015660991708020786059_">
		<g id="Text_mørk_fix">
			<path class="st0" d="M862.1,186.1h-19.8L800,102.6l-21.9,23.4v60h-18V8.9l18-8.8v104.6l46.6-50.2h20.9l-33,35L862.1,186.1
				L862.1,186.1z"/>
			<path class="st0" d="M372.4,247.9l22.2-11.6l67.1-181.4h-19.3l-33.7,93.3l-4.6,13.3c-0.4-1-1-3.1-2.1-6.2s-1.8-5.3-2.3-7.1
				l-33.2-93.3h-18.3l48.2,127.3L372.4,247.9L372.4,247.9z"/>
			<path class="st0" d="M342.4,100.6c-5.4-4.6-10.8-8.5-16.2-11.5c-5.4-3-11.6-5.9-18.7-8.6c-6.5-2.6-11.8-4.8-15.8-6.7
				c-4-1.9-8.2-4.3-12.6-7.2s-7.6-6.2-9.8-9.8s-3.2-7.7-3.2-12.4c0-7.7,3-13.9,9-18.5c6-4.6,14.3-6.4,24.7-7
				c11.7-0.6,25.9,1.7,31.8,5.9c5.5,3.9,8.2,7.8,10.8,14h18.2c-5.2-16.5-12.4-22.2-18.2-26.6c-10.2-7.6-28.7-9.6-41.7-9.6
				c-16.1,0-29,4.1-38.6,12.2c-9.6,8.1-14.4,18.1-14.4,29.9c0,7,1.5,13.5,4.4,19.3s7.2,10.9,12.7,15.1c5.6,4.2,11.1,7.7,16.5,10.4
				c5.4,2.8,11.8,5.5,19.2,8.2c12.4,4.6,22.2,10.3,29.6,16.9c7.4,6.6,11.1,15,11.1,25.1c0,10.6-3.4,18.8-10.2,24.6
				c-6.8,5.8-16.1,8.6-27.9,8.6c-10,0-18.7-2.4-26.3-7.2c-7.6-4.8-13.2-11.2-17-19.3l-16,8.6c4,9.3,11,17.1,20.9,23.6
				c10.8,7,23.5,10.6,38.1,10.6c17,0,30.7-4.4,41.2-13.3c10.5-8.8,15.7-21.1,15.7-36.7c0-8.1-1.5-15.4-4.5-21.9
				C352,110.8,347.8,105.2,342.4,100.6L342.4,100.6z"/>
			<path class="st0" d="M730.4,67.5c-9.8-10.7-22.2-16.1-37.3-16.1c-17.2,0-31,6.1-41.5,18.3c-10.5,12.2-15.7,29-15.7,50.5
				c0,19.2,5.2,35.5,15.7,48.9c10.5,13.4,24.3,20.1,41.5,20.1c14.8,0,28.2-5,40.2-14.9l-15.6-8.3c-7.6,4.3-15.5,6.5-23.8,6.5
				c-11,0-19.8-3.9-26.5-12c-6.7-8.1-10.8-18.6-12.4-32.6h89.6c0.3-4,0.5-8.1,0.5-12.7C745.1,94.2,740.2,78.2,730.4,67.5L730.4,67.5
				z M654.4,111.8c0.7-15,4.5-25.5,11.6-32.9c7-7.4,16-11.2,27-11.2c8.8,0,16.5,3.5,23.3,10.1c6.8,6.6,10.3,18,10.4,34L654.4,111.8
				L654.4,111.8z"/>
			<path class="st0" d="M629.4,164.5c-7.5,5.1-14.2,7.7-19.8,7.7s-9.5-1.8-11.4-5.4s-2.9-8.8-2.9-15.4V70.9h34v-16h-34V0.1l-18,9
				v45.7H551l8.5,16h17.8V159c0,20.1,8.7,30.1,26,30.1c8.4,0,14.3,0,33.7-10.3L629.4,164.5L629.4,164.5z"/>
			<path class="st0" d="M552.9,139.1c-1.8-4.2-3.9-7.6-6.2-10.3s-5.7-5.3-10-8s-8-4.6-11-5.9s-7-3-12.1-5c-4.3-1.7-7.4-3-9.3-3.7
				c-1.9-0.8-4.5-2.1-7.7-3.9s-5.7-3.4-7.2-4.9c-1.5-1.5-2.9-3.3-4.1-5.5c-1.2-2.2-1.8-4.6-1.8-7.2c0-5.3,2.3-9.5,6.8-12.6
				c4.5-3.1,10.4-4.6,18-4.6c10.4,0,24.9,2.8,35,3.3l-9.1-17.1c-7-0.9-14.3-2.2-25.4-2.2c-12.5,0-22.6,3.1-30.5,9.3
				c-7.9,6.2-11.8,14.3-11.8,24.2c0,5.3,1,10.1,3,14.3c2,4.2,5,7.9,9.2,10.9s8.2,5.7,12.1,7.7c4,2.1,9,4.4,15.2,6.9
				c5.1,2.1,9.2,3.8,12.1,5.1c2.9,1.4,6.2,3.3,9.9,5.8c3.7,2.5,6.4,5.2,8.1,8.2c1.7,3,2.6,6.4,2.6,10.2c0,6-2.4,10.7-7.2,14
				c-4.8,3.4-11,5-18.5,5c-11.6,0-22.1-5-31.6-15.1l-15.2,8.1c12.9,15.3,28,22.9,45.3,22.9c13.6,0,24.3-3.3,32.3-9.8
				c8-6.5,12-15.3,12-26.3C555.6,148,554.7,143.3,552.9,139.1L552.9,139.1z"/>
		</g>
	</g>
</g>
<polygon class="st0" points="165.1,165.1 82.6,82.6 82.6,0 0,82.6 82.6,165.1 82.6,247.7 "/>
</svg>
