<?xml version="1.0" encoding="utf-8"?>
<!-- Generator: Adobe Illustrator 27.4.1, SVG Export Plug-In . SVG Version: 6.00 Build 0)  -->
<svg version="1.1" id="FINAL" xmlns="http://www.w3.org/2000/svg" xmlns:xlink="http://www.w3.org/1999/xlink" x="0px" y="0px"
	 viewBox="0 0 1008 440" style="enable-background:new 0 0 1008 440;" xml:space="preserve">
<style type="text/css">
	.st0{fill:#000000;}
</style>
<g>
	<path class="st0" d="M180,243.9c-17.8,0-32.3-14.5-32.3-32.3c0-8.6,3.4-16.8,9.5-22.9s14.2-9.5,22.9-9.5h16.4v-44.1h-48.8V98.9
		H98.8v112.3c0,45,36.6,81.5,81.5,81.5h27.3v-48.9L180,243.9L180,243.9z"/>
	<path class="st0" d="M359.5,154.1c-15.4-15.4-35.8-23.8-57.4-23.8h-4.2c-9.2,0-18.2,1.5-26.7,4.5l-0.2,0.1
		c-22.9,8-41.4,26.6-49.4,49.5c-3,8.6-4.5,17.6-4.5,26.7v130.5H266V211.5c0-8.6,3.4-16.8,9.5-22.9c6.1-6.1,14.2-9.5,22.9-9.5h3.8
		c17.8,0,32.3,14.5,32.3,32.3c0,8.6-3.4,16.8-9.5,22.9c-3,3.1-6.6,5.4-10.5,7c-3.9,1.6-8.1,2.4-12.4,2.4h-26.6v48.9h26.6
		c44.8,0,81.2-36.5,81.2-81.2C383.3,189.8,374.9,169.4,359.5,154.1L359.5,154.1z"/>
</g>
<g>
	<path class="st0" d="M485,184.6h-23v59h-6.4v-59h-23v-5.6H485L485,184.6L485,184.6z"/>
	<path class="st0" d="M538.1,238v5.6h-43.5v-64.7h42.6v5.6H501v23.3h31.6v5.4H501V238L538.1,238L538.1,238z"/>
	<path class="st0" d="M544.5,210.8c0-3.9,0.7-7.8,2-11.6s3.3-7.3,6-10.3c2.6-3,5.8-5.5,9.7-7.4c3.8-1.9,8.2-2.9,13-2.9
		c5.8,0,10.7,1.3,14.8,3.9c4.1,2.6,7.1,6,9.1,10.2l-5,3.1c-1-2.1-2.3-3.9-3.8-5.4c-1.5-1.5-3.1-2.6-4.8-3.6s-3.5-1.6-5.3-2
		c-1.8-0.4-3.6-0.6-5.4-0.6c-3.9,0-7.3,0.8-10.3,2.4s-5.5,3.6-7.5,6.2c-2,2.6-3.6,5.4-4.6,8.6c-1,3.2-1.5,6.4-1.5,9.7
		c0,3.6,0.6,7,1.9,10.3c1.2,3.3,3,6.2,5.1,8.7c2.2,2.5,4.7,4.5,7.7,6c3,1.5,6.2,2.2,9.6,2.2c1.8,0,3.7-0.2,5.6-0.7
		c1.9-0.5,3.8-1.2,5.6-2.2c1.8-1,3.5-2.2,5-3.7c1.5-1.5,2.8-3.3,3.8-5.4l5.3,2.7c-1,2.4-2.5,4.6-4.4,6.4c-1.9,1.9-4,3.4-6.3,4.7
		c-2.3,1.3-4.8,2.2-7.3,2.9s-5.1,1-7.6,1c-4.4,0-8.5-1-12.2-2.9c-3.7-1.9-6.9-4.5-9.6-7.6c-2.7-3.1-4.8-6.7-6.2-10.7
		C545.2,219,544.5,214.9,544.5,210.8L544.5,210.8z"/>
	<path class="st0" d="M662.3,178.9v64.7H656v-30.2h-38.4v30.2h-6.4v-64.7h6.4v28.8H656v-28.8L662.3,178.9L662.3,178.9z"/>
	<path class="st0" d="M677.2,243.6v-64.7h27.4c3,0,5.7,0.6,8.2,1.9c2.5,1.2,4.7,2.9,6.5,4.9c1.8,2,3.2,4.3,4.3,6.9s1.5,5.2,1.5,7.8
		s-0.5,5.4-1.5,8c-1,2.6-2.3,4.9-4.1,6.9c-1.8,2-3.9,3.6-6.4,4.8s-5.2,1.8-8.2,1.8h-15.3v21.7L677.2,243.6L677.2,243.6z
		 M689.7,210.9h14.6c2.3,0,4.2-0.9,5.8-2.8s2.3-4.4,2.3-7.6c0-1.6-0.2-3.1-0.7-4.4c-0.5-1.3-1.1-2.4-1.9-3.3
		c-0.8-0.9-1.7-1.6-2.8-2.1c-1.1-0.5-2.1-0.7-3.2-0.7h-14L689.7,210.9L689.7,210.9z"/>
	<path class="st0" d="M733.9,243.6v-64.7h28.6c3,0,5.7,0.6,8.2,1.9c2.5,1.2,4.7,2.9,6.5,4.9c1.8,2,3.2,4.3,4.3,6.9s1.5,5.2,1.5,7.8
		c0,4.2-1,8-3.1,11.4c-2.1,3.4-4.9,5.9-8.5,7.4l14.8,24.3h-14.1l-13.2-21.7h-12.4v21.7L733.9,243.6L733.9,243.6z M746.5,210.9h15.8
		c1.2,0,2.2-0.3,3.2-0.8s1.9-1.3,2.6-2.2s1.3-2.1,1.7-3.3s0.6-2.6,0.6-4.1s-0.2-2.9-0.7-4.2c-0.5-1.3-1.1-2.4-2-3.3
		c-0.8-0.9-1.8-1.7-2.8-2.2c-1.1-0.5-2.1-0.8-3.2-0.8h-15.2L746.5,210.9L746.5,210.9z"/>
	<path class="st0" d="M822.1,244.1c-4.7,0-9-0.9-12.9-2.8c-3.9-1.9-7.2-4.3-9.9-7.4s-4.9-6.6-6.4-10.5c-1.5-3.9-2.3-8-2.3-12.1
		s0.8-8.4,2.4-12.4s3.8-7.4,6.7-10.5s6.2-5.4,10.1-7.2c3.9-1.8,8.1-2.7,12.7-2.7s8.9,1,12.8,2.9c3.9,1.9,7.2,4.4,9.9,7.5
		s4.9,6.6,6.4,10.6s2.3,8,2.3,12c0,4.3-0.8,8.4-2.4,12.3c-1.6,3.9-3.8,7.4-6.6,10.4s-6.1,5.4-10,7.2
		C830.9,243.2,826.7,244.1,822.1,244.1L822.1,244.1z M803.3,211.3c0,2.8,0.4,5.5,1.3,8.1c0.8,2.6,2.1,4.9,3.7,6.9s3.6,3.6,5.9,4.8
		c2.3,1.2,5,1.8,8,1.8s5.7-0.6,8.1-1.9c2.3-1.2,4.3-2.9,5.9-5c1.6-2.1,2.8-4.4,3.6-7s1.2-5.2,1.2-7.9s-0.4-5.5-1.3-8.1
		s-2.1-4.9-3.7-6.9s-3.6-3.6-5.9-4.8c-2.3-1.2-5-1.8-7.9-1.8s-5.7,0.6-8.1,1.9s-4.3,2.9-5.9,4.9c-1.6,2-2.8,4.3-3.6,6.9
		C803.7,205.9,803.3,208.6,803.3,211.3L803.3,211.3z"/>
	<path class="st0" d="M901.9,195.9c-0.4-0.4-1.2-1-2.3-1.7s-2.5-1.4-4.1-2.1s-3.4-1.3-5.2-1.8s-3.8-0.7-5.7-0.7
		c-3.5,0-6,0.6-7.7,1.9c-1.7,1.3-2.5,3.1-2.5,5.4c0,1.3,0.3,2.4,1,3.3s1.6,1.7,2.8,2.3c1.2,0.7,2.8,1.3,4.6,1.8
		c1.8,0.6,4,1.1,6.4,1.7c3.2,0.9,6,1.8,8.6,2.7c2.6,1,4.8,2.2,6.6,3.6c1.8,1.5,3.2,3.2,4.2,5.2c1,2,1.5,4.5,1.5,7.5
		c0,3.5-0.7,6.4-2,8.9s-3.1,4.4-5.3,6c-2.2,1.5-4.8,2.6-7.7,3.3c-2.9,0.7-5.9,1.1-9.1,1.1c-4.9,0-9.7-0.7-14.4-2.2
		c-4.7-1.5-9-3.5-12.8-6.2l5.6-10.8c0.5,0.6,1.5,1.3,3,2.1s3.1,1.8,5.1,2.6c1.9,0.9,4.1,1.6,6.5,2.2c2.4,0.6,4.8,0.9,7.3,0.9
		c6.9,0,10.4-2.2,10.4-6.6c0-1.4-0.4-2.6-1.2-3.6c-0.8-1-1.9-1.8-3.4-2.6s-3.2-1.4-5.3-2c-2.1-0.6-4.4-1.3-6.9-2
		c-3.1-0.9-5.8-1.8-8.1-2.8c-2.3-1-4.2-2.2-5.7-3.6c-1.5-1.4-2.7-2.9-3.4-4.7c-0.8-1.8-1.1-3.9-1.1-6.4c0-3.3,0.6-6.2,1.8-8.8
		s2.9-4.7,5.1-6.4c2.2-1.7,4.7-3,7.5-3.9c2.8-0.9,5.9-1.3,9.2-1.3c4.6,0,8.8,0.7,12.6,2.1c3.8,1.4,7.2,3.1,10,5.1L901.9,195.9
		L901.9,195.9z"/>
</g>
</svg>
