<?xml version="1.0" encoding="UTF-8"?><svg id="Layer_2" xmlns="http://www.w3.org/2000/svg" viewBox="0 0 321.4 141.75"><defs><style>.cls-1{fill:#000000;}</style></defs><g id="Layer_1-2"><path class="cls-1" d="m158.5,54.77h-4.66c-.45,0-.45-.83-.45-1.47s0-1.47.45-1.47h4.66v-8.18c0-.38,1.03-.38,1.73-.38.83,0,1.73,0,1.73.38v8.18h7.98c.38,0,.38.7.38,1.47s0,1.47-.38,1.47h-7.98v25.14c0,1.02.06,2.94,2.55,2.94h5.36c.38,0,.38.77.38,1.4s0,1.41-.38,1.41h-6.07c-4.15,0-5.3-2.49-5.3-6.13v-24.76Z"/><path class="cls-1" d="m176.07,70.08v3.32c0,7.22,4.79,9.97,9.83,9.97s7.94-1.41,10.43-2.75c.39-.19.83.64,1.15,1.21.32.58.77,1.41.32,1.66-3.26,1.85-5.88,2.94-11.77,2.94-8.42,0-13.41-4.73-13.41-12.77v-10.6c0-8.28,4.28-12.62,12.71-12.62s13.04,4.22,13.04,12.43v7.22h-22.3Zm18.86-6.64c0-7.2-4.6-9.88-9.59-9.88s-9.26,2.62-9.26,9.88v3.51h18.86v-3.51Z"/><path class="cls-1" d="m203.74,79.53v-40.53c0-.38,1.09-.38,1.73-.38s1.72,0,1.72.38v40.92c0,1.02.06,2.94,2.55,2.94h2.24c.38,0,.38.77.38,1.4s0,1.41-.38,1.41h-2.94c-4.15,0-5.3-2.49-5.3-6.13Z"/><path class="cls-1" d="m217.97,70.08v3.32c0,7.22,4.79,9.97,9.83,9.97s7.98-1.41,10.47-2.75c.39-.19.83.64,1.15,1.21.32.58.76,1.41.32,1.66-3.25,1.85-5.88,2.94-11.81,2.94-8.43,0-13.41-4.73-13.41-12.77v-10.6c0-8.28,4.28-12.62,12.71-12.62s13.09,4.22,13.09,12.43v7.22h-22.35Zm18.91-6.64c0-7.2-4.61-9.88-9.65-9.88s-9.26,2.62-9.26,9.88v3.51h18.91v-3.51Z"/><path class="cls-1" d="m268.25,85.91c-.64,0-1.72,0-1.72-.38v-22.67c0-7.2-2.69-9.3-7.67-9.3s-9.77,7.7-9.77,7.7v24.27c0,.38-1.09.38-1.72.38s-1.73,0-1.73-.38v-34.34c0-.38,1.09-.38,1.73-.38s1.66,0,1.66.38v6.13c1.27-1.66,4.28-6.9,10.67-6.9s10.28,4.15,10.28,10.64v24.46c0,.38-1.08.38-1.72.38Z"/><path class="cls-1" d="m275.21,73.97v-11.11c0-8.28,4.85-12.43,13.29-12.43s13.36,4.22,13.36,12.43v11.11c0,8.24-4.87,12.46-13.36,12.46s-13.29-4.15-13.29-12.46Zm13.29-20.41c-4.91,0-9.84,2.62-9.84,9.88v9.96c0,7.22,4.86,9.97,9.84,9.97s9.96-2.62,9.96-9.97v-9.96c0-7.2-4.91-9.88-9.96-9.88Z"/><path class="cls-1" d="m313.28,58.35c-1.53,1.89-3.13,4.19-3.13,4.19v22.99c0,.38-1.09.38-1.72.38s-1.66,0-1.66-.38v-34.34c0-.38,1.08-.38,1.72-.38s1.66,0,1.66.38v7.73s1.79-2.55,2.42-3.45c2.49-3.38,4.09-4.53,7.15-4.53h1.28c.38,0,.38,1.21.38,1.85s0,1.85-.38,1.85c-3.84,0-4.99.32-7.73,3.7Z"/><path class="cls-1" d="m77.5,43.36c.73-.55,2.67-1.99,2.95-2.2.46-3.19,1.61-8.55,4.27-14.05,2.86-5.91,7.44-12.45,13.84-16.79,5.37-3.64,14.22-7.63,21.04-9.11C125.21,0,130.46-.22,134.94.19c9.25.84,14.36,3.48,16.92,6.9.96,1.29,1.49,2.87,1.52,3.89.06,1.7-.69,3.92-3.12,6.09-2.37,2.12-7.42,4.77-14.33,7.08-7.16,2.4-16.93,4.94-26.69,7.18-8.17,1.88-14.8,4.02-18.64,5.47-1.14.43-1.89.78-2.9,1.23-.61,1.47-2.03,5.41-2.39,7.48,7.15,2.87,11.8,6.65,15.39,9.59,4.66,3.82,10.06,8.31,16.74,16.44,6.08,7.41,16,21.64,19.59,35.44,3.94,15.12,1.46,29.5-7.05,33.5-8.36,3.92-19.52-1.75-27.34-9.88-7.45-7.75-12.65-16.85-17.54-30.88-4.22-12.09-5.94-29.6-5.93-38.75,0-3.04,0-4.87.12-7.63-3.43-2.2-7.43-2.08-11.96.53-8.26,4.77-16.81,15.04-21.36,20.42-1.99,2.35-4.68,5.78-7.53,9.37-3.76,4.74-7.9,9.68-11.69,12.44-5.69,4.14-14.83,5.88-21.23,1.3C1.95,94.83.06,90.01,0,85.11c-.04-3.48.8-6.61,2.53-9.67,2.14-3.78,5.67-7.84,11.27-12.48,5.79-4.8,15.03-10.18,24.29-13.92,14.12-5.7,29.33-7.52,39.41-5.68h0Z"/></g></svg>
