<?xml version="1.0" encoding="UTF-8"?><svg id="Layer_2" xmlns="http://www.w3.org/2000/svg" viewBox="0 0 1328 224.08"><defs><style>.cls-1{fill:#000000;}</style></defs><g id="_1024_pixel_perfect"><path class="cls-1" d="m561,49.08c-33.69,0-63,29.31-63,63s26.31,61,60,61h51v-26h-82v-24h97v-11c0-33.69-29.31-63-63-63Zm34,52h-68v-24h68v24ZM429,25.08c0-9.39,7.61-17,17-17s17,7.61,17,17-7.61,17-17,17-17-7.61-17-17Zm43,122h24v26h-74v-26h24v-70h-36v-26c36,0,62,28,62,62v34Zm-116,0h44v26h-8c-38,0-62-26-62-62v-34h-26v-26h26V.08h26v51h32v26h-32v70Zm798,0h44v26h-88v-26h18v-36c0-34,26-60,62-60v26h-36v70Zm-477,0h50v26h-14c-36,0-62-26-62-62v-34h-26v-26h26V.08h26v51h38v26h-38v70Zm441-94s-20,78-24,94-16,28-36,28-32-12-36-28-24-94-24-94h28l20,94h24l20-94h28Zm210,0s-25,99-32,126-31.78,45-62,45h-6v-25h46v-24h-12c-17.81,0-28-13-32-28s-24-94-24-94h28l18,94h30l18-94h28Zm-396-4c-33.69,0-63,29.31-63,63s26.31,61,60,61h51v-26h-82v-24h97v-11c0-33.69-29.31-63-63-63Zm34,52h-68v-24h68v24Zm-171-52c-34.79,0-63,28.21-63,63s28.21,63,63,63,63-28.21,63-63-28.21-63-63-63Zm35,98h-70v-70h70v70ZM64,64v64H0v-64h32v-32h32V0h64v64h-64Zm126,112c0,7.73-6.27,14-14,14s-14-6.27-14-14,6.27-14,14-14,14,6.27,14,14Zm-34,32c0,6.63-5.37,12-12,12s-12-5.37-12-12,5.37-12,12-12,12,5.37,12,12Zm-30,0c0,7.73-6.27,14-14,14s-14-6.27-14-14,6.27-14,14-14,14,6.27,14,14Zm34-32c0,8.84-7.16,16-16,16s-16-7.16-16-16,7.16-16,16-16,16,7.16,16,16Zm-32,0c0,8.84-7.16,16-16,16s-16-7.16-16-16,7.16-16,16-16,16,7.16,16,16Zm92-32c0,6.63-5.37,12-12,12s-12-5.37-12-12,5.37-12,12-12,12,5.37,12,12Zm-44-16c8.84,0,16,7.16,16,16s-7.16,16-16,16-16-7.16-16-16,7.16-16,16-16Zm46-16c0,7.73-6.27,14-14,14s-14-6.27-14-14,6.27-14,14-14,14,6.27,14,14Zm-46,16c-8.84,0-16-7.16-16-16s7.16-16,16-16,16,7.16,16,16-7.16,16-16,16Z"/></g></svg>
