<?xml version="1.0" encoding="UTF-8"?><svg id="Layer_2" xmlns="http://www.w3.org/2000/svg" viewBox="0 0 253.76 58.55"><defs><style>.cls-1{fill:#000000;}</style></defs><g id="Layer_1-2"><g id="Layer_1-3"><path class="cls-1" d="m14.28,5.84v23.61h-6.81V5.84H0V.47h21.76v5.37h-7.48Z"/><path class="cls-1" d="m38.68,29.95c-8.61,0-15.37-5.58-15.37-14.95S30.07,0,38.68,0s15.38,5.63,15.38,15-6.77,14.95-15.38,14.95Zm0-24.15c-4.83,0-8.49,3.49-8.49,9s3.66,9.08,8.49,9.08,8.49-3.53,8.49-9.08-3.66-9-8.49-9Z"/><path class="cls-1" d="m59.97,29.45V.45h6.76v23.37h10v5.63h-16.76Z"/><path class="cls-1" d="m81.94,29.45V.45h6.76v23.37h10v5.63h-16.76Z"/><path class="cls-1" d="m103.9,29.45V.45h18.78v5.43h-12v5.93h9.64v5.39h-9.64v6.72h12.39v5.5l-19.17.03Z"/><path class="cls-1" d="m141.16,5.84v23.61h-6.81V5.84h-7.47V.47h21.76v5.37h-7.48Z"/><path class="cls-1" d="m169.3,29.45l-2.06-5.84h-10.33l-2.06,5.84h-7.06L158.71.45h7.06l10.92,29h-7.39Zm-7.23-21.55l-3.65,10.42h7.23l-3.58-10.42Z"/><path class="cls-1" d="m189.71,5.84v23.61h-6.8V5.84h-7.49V.47h21.76v5.37h-7.47Z"/><path class="cls-1" d="m202.1,29.45V.45h18.78v5.43h-12v5.93h9.64v5.39h-9.64v6.72h12.39v5.5l-19.17.03Z"/><path class="cls-1" d="m246.79,29.45l-12.73-19.66s.13,3.49.13,6.55v13.11h-6.64V.45h7.27l12.43,19.49s-.12-3.28-.12-6.35V.47h6.63v29l-6.97-.02Z"/><path class="cls-1" d="m41.01,58.34l-6.76-9.35v9.35h-1.6v-11.73h1.77l6.65,9.21v-9.21h1.62v11.73h-1.68Z"/><path class="cls-1" d="m51.13,58.54c-3.31,0-6-2.69-6-6,0-3.31,2.69-6,6-6,3.29,0,5.97,2.66,6,5.95.13,3.21-2.37,5.92-5.58,6.05-.14,0-.28,0-.42,0Zm0-10.67c-2.37-.05-4.33,1.83-4.38,4.2,0,.13,0,.26,0,.39-.16,2.41,1.66,4.5,4.07,4.67,2.41.16,4.5-1.66,4.67-4.07.01-.2.01-.39,0-.59.17-2.36-1.62-4.41-3.98-4.58-.13,0-.26-.01-.39,0Z"/><path class="cls-1" d="m65.58,58.34l-3.06-5h-1.26v5h-1.65v-11.73h3.32c2.09,0,4,1,4,3.3.06,1.59-1.09,2.98-2.67,3.21l3.35,5.22h-2.03Zm-1.16-9.96c-.6-.36-1.3-.51-2-.43h-1.16v4h1.21c.69.08,1.4-.06,2-.41.51-.36.8-.96.75-1.58.05-.63-.26-1.24-.8-1.58Z"/><path class="cls-1" d="m80.5,58.36h-1.61l-2.82-9.49-2.81,9.49h-1.61l-3.39-11.75h1.74l2.53,9.25,2.7-9.25h1.69l2.7,9.25,2.53-9.25h1.74l-3.39,11.75Z"/><path class="cls-1" d="m86.11,58.34v-11.73h6.87v1.38h-5.22v3.5h4.93v1.39h-4.93v4.07h5.36v1.39h-7.01Z"/><path class="cls-1" d="m100.97,58.54c-3.34,0-6.05-2.71-6.05-6.05s2.71-6.05,6.05-6.05h0c1.81-.09,3.55.64,4.75,2l-1.13,1c-.88-1.09-2.22-1.71-3.62-1.67-2.41,0-4.26,1.73-4.26,4.62-.19,2.36,1.57,4.43,3.94,4.62.14.01.29.02.43.01,2.43,0,3.29-1.07,3.29-1.07v-2.6h-3.16v-1.27h4.76v4.56c-1.31,1.33-3.14,2.03-5,1.9Z"/><path class="cls-1" d="m108.69,58.34v-11.73h1.65v11.73h-1.65Z"/><path class="cls-1" d="m121.68,58.34l-1.21-3.06h-5l-1.21,3.06h-1.73l4.77-11.76h1.45l4.79,11.76h-1.86Zm-3.73-9.71l-2,5.27h4.11l-2.11-5.27Z"/><path class="cls-1" d="m134.05,58.34l-6.76-9.35v9.35h-1.63v-11.73h1.76l6.65,9.21v-9.21h1.62v11.73h-1.64Z"/><path class="cls-1" d="m148.67,58.54c-3.34,0-6.05-2.71-6.05-6.05s2.71-6.05,6.05-6.05c1.54-.06,3.03.5,4.16,1.55l-.69,1.32c-.89-.92-2.12-1.44-3.4-1.43-2.36-.03-4.3,1.85-4.33,4.21,0,.12,0,.25.01.37-.16,2.36,1.62,4.4,3.98,4.56.13,0,.26.01.39,0,1.32.04,2.59-.48,3.5-1.43l.71,1.21c-1.12,1.18-2.7,1.82-4.33,1.73Z"/><path class="cls-1" d="m163.07,57.12c-1.96,1.87-5.04,1.87-7,0-.77-1.03-1.12-2.3-1-3.58v-6.93h1.67v6.78c-.11.92.08,1.84.54,2.64,1.09,1.25,2.98,1.38,4.23.29.1-.09.2-.19.29-.29.46-.8.65-1.72.55-2.64v-6.78h1.65v6.93c.14,1.27-.19,2.54-.93,3.58Z"/><path class="cls-1" d="m170.01,58.54c-1.5-.05-2.9-.79-3.79-2l1-1.1c.7.98,1.8,1.6,3,1.68,1.12.14,2.15-.66,2.28-1.78,0-.07.01-.14.02-.22,0-1.23-1.31-1.7-1.91-1.94s-1.43-.56-1.87-.78c-1.19-.45-1.97-1.61-1.94-2.88,0-2.09,1.91-3.12,3.78-3.12,1.28,0,2.5.56,3.36,1.51l-.86,1.12c-.68-.76-1.64-1.2-2.66-1.2-1.15,0-2,.55-2,1.64s.8,1.49,1.52,1.78l2.15.9c1.2.48,2,1.64,2,2.93,0,2.27-2.03,3.46-4.08,3.46Z"/><path class="cls-1" d="m180.82,47.99v10.35h-1.65v-10.35h-3.31v-1.38h8.26v1.38h-3.3Z"/><path class="cls-1" d="m190.68,58.54c-3.31-.03-5.98-2.74-5.95-6.05.03-3.31,2.74-5.98,6.05-5.95,3.27.03,5.92,2.68,5.95,5.95.13,3.21-2.37,5.92-5.58,6.05-.16,0-.31,0-.47,0Zm0-10.67c-2.37-.05-4.33,1.83-4.38,4.2,0,.13,0,.26,0,.39-.16,2.41,1.66,4.5,4.07,4.67s4.5-1.66,4.67-4.07c.01-.2.01-.39,0-.59.17-2.36-1.62-4.41-3.98-4.58-.13,0-.26-.01-.39,0Z"/><path class="cls-1" d="m209.65,58.34l-.76-9.26h-.06l-3.58,9.36h-.94l-3.58-9.36h-.05l-.75,9.26h-1.63l1.05-11.73h2l3.38,9.06h0l3.38-9.06h2l1.07,11.73h-1.53Z"/><path class="cls-1" d="m217.01,58.54c-1.5-.05-2.9-.79-3.79-2l1-1.1c.7.98,1.8,1.6,3,1.68,1.1.11,2.08-.69,2.19-1.79,0-.04,0-.09,0-.13,0-1.23-1.31-1.7-1.9-1.94s-1.43-.56-1.87-.78c-1.19-.45-1.97-1.61-1.94-2.88,0-2.09,1.9-3.12,3.77-3.12,1.28.01,2.51.56,3.37,1.51l-.87,1.12c-.64-.76-1.57-1.23-2.56-1.28-1.16,0-2,.55-2,1.64s.8,1.49,1.51,1.78l2.16.9c1.2.48,2,1.64,2,2.93.02,2.27-2.02,3.46-4.08,3.46Z"/></g></g></svg>
