<?xml version="1.0" encoding="UTF-8"?><svg xmlns="http://www.w3.org/2000/svg" viewBox="0 0 704.98 237.74"><defs><style>.cls-1,.cls-2{fill:#000000;}.cls-2{mix-blend-mode:multiply;}.cls-3{isolation:isolate;}</style></defs><g class="cls-3"><g id="Layer_2"><g id="Layer_1-2"><path class="cls-1" d="m362.87,162.61c-2.38-14.05-9.38-25.36-21.71-32.43-9.5-5.35-20.94-6.8-32.49-3.46-23.57,6.81-35.24,31.27-28.84,53.39,6.27,21.72,29.02,36.12,53.02,29.18,7.97-2.31,15.01-6.8,20.2-13.14,5.33-6.3,8.92-14.48,10.15-24.13l-19.15,5.54c-1.8,7.33-6.62,13.29-15.73,15.93-10.59,3.1-23.68-.57-28.09-12.75l62.64-18.11Zm-66.53,3.73c-1.47-7.73,3.21-19.87,17-23.86,13.49-4.09,24.33,3.99,27.08,11.12l-44.08,12.74Z"/><path class="cls-1" d="m502.77,162.61c-2.38-14.05-9.37-25.36-21.71-32.43-9.5-5.35-20.93-6.8-32.49-3.46-23.57,6.81-35.24,31.27-28.84,53.39,6.27,21.72,29.02,36.12,53.02,29.18,7.97-2.31,15.01-6.8,20.2-13.14,5.33-6.3,8.92-14.48,10.16-24.13l-19.16,5.54c-1.8,7.33-6.61,13.29-15.73,15.93-10.59,3.1-23.68-.57-28.09-12.75l62.64-18.11Zm-66.52,3.73c-1.47-7.73,3.21-19.87,17-23.86,13.49-4.09,24.33,3.99,27.08,11.12l-44.08,12.74Z"/><polygon class="cls-1" points="502.24 209.41 525.68 209.41 544.02 181.54 562.17 209.41 585.88 209.41 555.6 166.72 582.78 128.42 559.74 128.42 544.02 153.35 528.23 128.42 504.89 128.42 532.11 166.72 502.24 209.41"/><path class="cls-1" d="m231.48,168.21c0,20.91-15.16,42.89-43.37,42.89-9.44,0-17.39-2.5-23.82-6.55v33.2h-19.39v-65.81c-.11-1.24-.17-2.48-.17-3.72v-.15c0-20.74,15.16-42.76,43.38-42.76s43.37,22.03,43.37,42.91Zm-19.39-.15c0-14.29-10.72-24.81-23.98-24.81s-23.44,10.03-23.94,23.79h.12v4.08c1.36,12.64,11.5,21.75,23.82,21.75,13.26,0,23.98-10.53,23.98-24.8Z"/><polygon class="cls-1" points="262.65 99.37 262.09 99.37 244.73 99.37 244.73 116.52 244.73 116.68 244.73 116.68 244.73 208.58 246.21 208.58 246.77 208.58 264.13 208.58 264.13 191.44 264.13 191.28 264.13 191.27 264.13 99.37 262.65 99.37"/><path class="cls-1" d="m107.48,127.6h19.39v80.98h-19.39v-80.98Zm9.26-11.72c5.92,0,10.72-4.8,10.72-10.73s-4.8-10.73-10.72-10.73-10.72,4.8-10.72,10.73,4.8,10.73,10.72,10.73Z"/><path class="cls-1" d="m63.65,167.54h-.02c.5-13.93,11.15-24.09,24.25-24.09,1.59,0,3.14.16,4.65.45v-18.39c-1.52-.14-3.06-.23-4.65-.23-28.58,0-43.94,22.3-43.94,43.3v.16c0,1.26.06,2.51.17,3.77v36.41h19.63l-.09-41.37Z"/><polygon class="cls-1" points="39.46 124.46 19.37 124.46 19.37 99.42 0 99.42 0 208.5 19.37 208.5 19.37 143.83 39.46 143.83 39.46 124.46"/><polygon class="cls-1" points="415.02 124.46 394.92 124.46 394.92 99.42 375.56 99.42 375.56 208.5 394.92 208.5 394.92 143.83 415.02 143.83 415.02 124.46"/><path class="cls-2" d="m679.12,79.01v-4.37h25.86c-.5-6.25-3.12-12.37-7.9-17.15-10.69-10.68-28.01-10.68-38.68,0-10.68,10.69-10.68,28,0,38.68,10.68,10.68,27.99,10.68,38.68,0,4.78-4.78,7.4-10.89,7.9-17.15h-25.86Z"/><path class="cls-2" d="m626.63,127.13h4.37v25.86c6.26-.5,12.37-3.12,17.15-7.9,10.68-10.69,10.68-28,0-38.68-10.69-10.68-28-10.68-38.68,0-10.68,10.68-10.68,28,0,38.68,4.78,4.79,10.89,7.4,17.15,7.9v-25.86Z"/><path class="cls-2" d="m630.82,27.92l-3.09-3.09,18.29-18.29c-4.78-4.07-10.95-6.54-17.72-6.54-15.11,0-27.35,12.25-27.36,27.35,0,15.11,12.24,27.36,27.35,27.35,15.1,0,27.35-12.24,27.35-27.35,0-6.76-2.47-12.94-6.54-17.71l-18.29,18.29Z"/></g></g></g></svg>
