<?xml version="1.0" encoding="UTF-8"?><svg id="Layer_2" xmlns="http://www.w3.org/2000/svg" viewBox="0 0 658.51 189"><defs><style>.cls-1{fill:#000000;}</style></defs><g id="Layer_1-2"><path id="Logo" class="cls-1" d="m577.34,45.62h-27.55l42.96,99.83-2.07,4.74c-5.04,11.26-11.55,17.48-24.29,17.48-3.26,0-7.11-.59-10.37-1.48v21.33c4.15,1.18,8.29,1.48,13.33,1.48,23.7,0,38.22-17.48,47.4-39.99l41.77-103.39h-27.55l-25.18,73.47-28.44-73.47Zm-87.99,74.65c0-11.26,14.52-16,26.96-16.89l10.96-.59v5.92c0,10.66-9.18,23.11-22.51,23.11-8.29,0-15.4-3.55-15.4-11.55Zm-29.62-37.03l23.11,2.37c.89-13.33,9.18-21.33,22.51-21.33s21.03,8,21.03,21.03v2.07l-11.55.59c-24.59,1.48-50.07,11.26-50.07,34.07,0,18.07,14.22,28.14,33.18,28.14,14.22,0,26.66-7.41,30.22-17.48v15.4h23.11v-59.84c0-28.44-20.14-44.73-45.62-44.73s-44.44,15.4-45.92,39.7Zm-90.65,13.92c0-17.77,11.26-32.88,29.62-32.88s29.33,14.22,29.33,32.88-11.26,32.88-29.33,32.88c-17.77,0-29.62-15.7-29.62-32.88Zm-25.18,0c0,30.51,22.81,53.03,50.95,53.03,13.03,0,26.66-4.74,32.88-16.29v14.22h23.4V0h-24.59v59.84c-6.22-11.55-20.14-16.29-31.7-16.29-29.33,0-50.95,23.7-50.95,53.62Zm-89.47-.3c0-17.77,11.26-32.29,28.44-32.29s28.74,14.52,28.74,32.29-11.26,32.29-28.74,32.29-28.44-14.52-28.44-32.29Zm-25.18,0c0,31.4,24.88,53.32,53.62,53.32s53.92-21.92,53.92-53.32-24.88-53.32-53.92-53.32-53.62,21.92-53.62,53.32Zm-153.16-29.92l26.66,81.17h29.92l19.55-76.43,19.26,76.43h29.03l33.77-102.5h-25.77l-22.51,77.62-18.07-77.62h-31.7l-18.07,77.62-22.51-77.62h-38.77l10.96-27.25-21.63-8.59-13.92,35.85H0v21.33h24.29l-5.63,13.92c-5.33,13.33-8,24.59-8,33.18,0,21.63,15.7,36.14,37.92,36.14,8,0,18.37-2.37,25.48-6.22l-5.92-18.96c-3.55,1.78-11.26,4.44-16.59,4.44-9.18,0-16.59-5.63-16.59-16.89,0-7.41,1.78-14.81,5.04-23.4l8.59-22.22h27.51Z"/></g></svg>
