<?xml version="1.0" encoding="UTF-8"?><svg id="Layer_2" xmlns="http://www.w3.org/2000/svg" viewBox="0 0 351.49 96.52"><defs><style>.cls-1{fill:#000000;}</style></defs><g id="Layer_1-2"><rect class="cls-1" x="164.4" width="11.34" height="11.34"/><path class="cls-1" d="m45.35,17.01v28.34c0,9.39-7.61,17-17.01,17s-17.01-7.61-17.01-17v-28.34H0v28.34c0,15.66,12.69,28.34,28.34,28.34s28.35-12.69,28.35-28.34v-28.34h-11.34Z"/><path class="cls-1" d="m90.71,17.01c-15.66,0-28.35,12.69-28.35,28.34v45.35h11.34v-45.35h0c0-9.4,7.61-17.01,17.01-17.01s17.01,7.61,17.01,17.01-7.61,17-17.01,17v11.34c15.66,0,28.35-12.69,28.35-28.34s-12.69-28.34-28.35-28.34"/><path class="cls-1" d="m153.07,28.34v-11.33h-17.01V0h-11.34v45.35c0,15.66,12.69,28.34,28.35,28.34h0v-11.34c-9.4,0-17.01-7.62-17.01-17v-17.01h17.01Z"/><rect class="cls-1" x="164.4" y="17.01" width="11.34" height="56.69"/><path class="cls-1" d="m260.79,17.01c-9.28,0-17.51,4.45-22.68,11.33-5.17-6.88-13.4-11.33-22.68-11.33-15.66,0-28.35,12.69-28.35,28.34h0v28.34h11.34v-28.34c0-9.4,7.62-17.01,17.01-17.01s17.01,7.61,17.01,17.01v28.34h11.34v-28.34h0c0-9.4,7.61-17.01,17.01-17.01s17.01,7.61,17.01,17.01h0v28.34h11.34v-28.34c0-15.65-12.69-28.34-28.35-28.34"/><path class="cls-1" d="m323.15,17.01c-15.66,0-28.35,12.69-28.35,28.34s12.69,28.34,28.35,28.34v-11.34c-9.4,0-17.01-7.61-17.01-17s7.62-17.01,17.01-17.01c7.4,0,13.68,4.74,16.02,11.34h-16.02v11.34h27.77c.37-1.83.57-3.73.57-5.67,0-15.65-12.69-28.34-28.34-28.34"/><path class="cls-1" d="m231.67,94.74c2.29,0,3.81-1.75,3.81-4.11,0-2.21-1.52-3.96-3.81-3.96s-3.79,1.75-3.79,3.96c0,2.36,1.51,4.11,3.79,4.11m-.01-9.85c3.45-.03,5.88,2.25,5.88,5.79s-2.44,5.79-5.88,5.83c-3.4.03-5.84-2.31-5.84-5.76s2.43-5.83,5.84-5.86"/><rect class="cls-1" x="125.29" y="85.04" width="1.99" height="11.34"/><polygon class="cls-1" points="151.6 86.87 148.16 86.87 148.16 85.04 157.04 85.04 157.04 86.87 153.6 86.87 153.6 96.38 151.6 96.38 151.6 86.87"/><polygon class="cls-1" points="191.34 85.04 193.53 85.04 195.64 93.21 195.67 93.21 198.19 85.04 200.15 85.04 202.63 93.21 202.66 93.21 204.87 85.04 206.89 85.04 203.63 96.38 201.72 96.38 199.12 87.74 199.09 87.74 196.49 96.38 194.65 96.38 191.34 85.04"/><path class="cls-1" d="m262.68,89.84c1.12,0,2.44-.1,2.44-1.57,0-1.35-1.24-1.51-2.27-1.51h-1.73v3.08h1.56Zm-3.55-4.8h3.9c2.15,0,4.18.7,4.18,3.25,0,1.63-.94,2.83-2.6,3.07l2.98,5.01h-2.41l-2.6-4.8h-1.46v4.8h-1.99v-11.34Z"/><polygon class="cls-1" points="288.39 85.04 290.38 85.04 290.38 89.84 290.48 89.84 295.12 85.04 297.82 85.04 292.58 90.27 298.17 96.38 295.36 96.38 290.5 90.81 290.38 90.81 290.38 96.38 288.39 96.38 288.39 85.04"/><path class="cls-1" d="m322.21,87.55c-.42-.6-1.17-.88-1.93-.88-.91,0-1.81.41-1.81,1.42,0,2.22,5.24.95,5.24,4.89,0,2.38-1.87,3.53-4.04,3.53-1.37,0-2.71-.42-3.62-1.5l1.49-1.44c.48.73,1.31,1.15,2.18,1.15s1.93-.5,1.93-1.52c0-2.42-5.24-1.03-5.24-4.98,0-2.28,2.03-3.35,4.07-3.35,1.15,0,2.31.33,3.17,1.14l-1.44,1.52Z"/></g></svg>
