<?xml version="1.0" encoding="utf-8"?>
<!-- Generator: Adobe Illustrator 27.4.1, SVG Export Plug-In . SVG Version: 6.00 Build 0)  -->
<svg version="1.1" id="Layer_1" xmlns="http://www.w3.org/2000/svg" xmlns:xlink="http://www.w3.org/1999/xlink" x="0px" y="0px"
	 viewBox="0 0 1417.3 439.4" style="enable-background:new 0 0 1417.3 439.4;" xml:space="preserve">
<style type="text/css">
	.st0{fill:#000000;}
</style>
<g>
	<g>
		<path class="st0" d="M1152.1,204.4c-0.7-0.1-1.4-0.1-2.2-0.1c-7.9,0-16.1-1.9-16.1-21.2v-64.6c0-29.1-13.8-41.9-41.3-41.9H1069
			c-7.9,0-14.2,6.2-14.2,14.1s6.4,14.2,14.2,14.2l8.1,0c8.9,0,15.1,5.7,15.1,19v63.3c0,28.8,21.4,31,32.7,32v0.6
			c-11.3,1-32.7,3.2-32.7,32v63.3c0,13.3-6.5,19.4-15.3,19.4h-7.9c-7.9,0-14.2,6-14.2,13.8c0,7.9,6.4,13.9,14.2,13.9h23.4
			c27.6,0,41.3-12.5,41.3-41.7v-64.6c0-19.3,8.2-21.2,16.1-21.2c0.8,0,1.5-0.1,2.3-0.1c7.9-0.5,14.2-7,14.2-15.1
			C1166.3,211.5,1160,204.9,1152.1,204.4z"/>
		<path class="st0" d="M1328,220.2c0-6.8-4.1-12.7-9.9-15.3c-0.2-0.1-0.5-0.3-0.7-0.4l-108.8-58.8c-2.9-1.6-6.1-2.5-9.4-2.5
			c-10.4,0-18.9,8.5-18.9,18.9c0,8.4,4.1,14,12.9,17.9l75.1,40.3l-75,40.3c-8.9,3.9-13,9.6-13,17.9c0,10.4,8.5,18.9,18.9,18.9
			c3.3,0,6.5-0.9,9.3-2.5l108.8-58.8c0.2-0.1,0.3-0.2,0.5-0.3C1323.8,233.1,1328,227.1,1328,220.2z"/>
	</g>
	<g>
		<path class="st0" d="M412,233.6c0-44.6-36.1-80.9-80.6-80.9c-44.5,0-80.7,36.3-80.7,80.9c0,44.6,36.3,80.9,81,80.9
			c15.3,0,30.1-4.3,43-12.4l1.9-1.2l0.8,2.1c2.8,7,9.3,11.5,16.6,11.5c10.1,0,17.9-8,17.9-18.2V233.6z M331.8,272.7
			c-21.6,0-39.1-17.6-39.1-39.1s17.6-39.1,39.1-39.1c21.6,0,39.1,17.6,39.1,39.1S353.4,272.7,331.8,272.7z"/>
		<path class="st0" d="M590.7,233.6c0-44.6-35.9-80.9-80.4-80.9c-44.6,0-80.7,36.3-80.7,80.9c0,44.6,36.4,80.9,81,80.9
			c15.3,0,30.2-4.3,43-12.4l1.9-1.2l0.9,2.1c2.8,7,9.1,11.5,16.5,11.5c10,0,17.8-8.2,17.8-18.2V233.6z M510.8,272.7
			c-21.6,0-39.1-17.6-39.1-39.1s17.6-39.1,39.1-39.1c21.6,0,39.1,17.6,39.1,39.1S532.3,272.7,510.8,272.7z"/>
		<path class="st0" d="M734.8,303.2c2.9,7.2,9.8,11.9,17.5,11.9c10.4,0,18.9-8.5,18.9-18.9l0-185.7c0-10.4-8.8-18.8-19.2-18.8
			c-10.4,0-19.2,8.5-19.2,18.9v54.7l-1.6-1.2c-13-8-26.9-12.1-41.8-12.1c-45,0-81.5,36.6-81.5,81.5c0,45,36.6,81.5,81.6,81.5
			c15.4,0,30.4-4.3,43.3-12.5l1.3-0.8L734.8,303.2z M689.6,272.1c-21.2,0-38.5-17.3-38.5-38.5c0-21.2,17.3-38.5,38.5-38.5
			c21.2,0,38.5,17.3,38.5,38.5C728.1,254.8,710.8,272.1,689.6,272.1z"/>
		<path class="st0" d="M1011.8,176.4c-13.1-13.9-32.1-20.9-56.8-20.9h0c-0.9,0-20.5,1.3-33.7,8.8c-2.9-9-11.3-15.3-20.9-15.3
			c-11.9,0-21.7,9.6-22,21.5c0,0.2,0,78.9,0,125.9c0,12.1,9.9,22,22,22c12.1,0,22-9.9,22-22l0-67c0-13.9,10.3-28.9,32.8-28.9
			c21.6,0,31.3,15.5,31.3,26.5c0,10.9,0,69.7,0,69.7c0.1,12,10,21.8,22,21.8c12.1,0,22-9.9,22-22l0-66.4
			C1030.5,227.8,1031.9,197.9,1011.8,176.4z"/>
		<path class="st0" d="M226.3,149.5c-9.5,0-15.9,4.6-20.2,14.3l-38,81.8l-38-81.8c-4.3-9.8-10.7-14.4-20.2-14.4
			c-11.8,0-21.4,9.6-21.4,21.4c0,3.7,1,7.4,2.8,10.5l58.9,126.4c4.8,9,10.9,9.8,17.9,9.8c7,0,13.2-0.7,18-9.8l58.8-126.3
			c1.8-3.2,2.8-6.9,2.8-10.6C247.7,159.1,238.1,149.5,226.3,149.5z"/>
		<g>
			<path class="st0" d="M824.8,149.8c-12,0-21.7,9.4-22,21.4c0,0.2,0,122.5,0,123.7c0,12.1,9.9,22,22,22c12.1,0,22-9.9,22-22
				c0-1.2,0-123.5,0-123.7C846.5,159.3,836.8,149.8,824.8,149.8z"/>
			<circle class="st0" cx="824.7" cy="112.9" r="23.1"/>
		</g>
	</g>
</g>
</svg>
